<svg xmlns="http://www.w3.org/2000/svg" width="35" height="32"><defs><clipPath id="a"><path clip-rule="evenodd" d="M-983-216H937v957H-983z"/></clipPath></defs><g clip-path="url(#a)"><path fill="#FFF" d="M3.151 32H31.85c1.737 0 3.15-1.392 3.151-3.103V7.367c0-1.71-1.414-3.103-3.151-3.103h-3.44L27.394.42a.564.564 0 0 0-.276-.35.583.583 0 0 0-.45-.044L13.164 4.238a.536.536 0 0 0-.067.026H3.151C1.414 4.264 0 5.656 0 7.367v21.53C0 30.607 1.414 32 3.151 32zm24.08-27.736H16.864l9.575-2.986.79 2.986zM1.142 7.367c0-1.09.9-1.978 2.008-1.978h28.7c1.107 0 2.008.887 2.008 1.978v6.68H23.216c-1.389 0-2.518 1.113-2.518 2.48v3.21c0 1.367 1.13 2.479 2.518 2.479h10.641v6.68c0 1.091-.9 1.979-2.008 1.979H3.15c-1.107 0-2.008-.887-2.008-1.978V7.367zm22.073 7.806c-.759 0-1.376.607-1.376 1.354v3.21c0 .746.617 1.354 1.376 1.354h10.641v-5.918h-10.64zm1.823 4.959c-1.12 0-2.03-.897-2.03-2s.91-2 2.03-2c1.12 0 2.032.897 2.032 2s-.912 2-2.032 2zm-.888-2c0-.483.398-.875.889-.875.49 0 .888.392.888.875a.883.883 0 0 1-.889.875.883.883 0 0 1-.888-.875z" fill-rule="evenodd"/></g><defs><clipPath id="b"><path clip-rule="evenodd" d="M-983-216H937v957H-983z"/></clipPath></defs><g clip-path="url(#b)"><path fill="none" stroke="#FFF" stroke-width=".4" d="M3.151 32H31.85c1.737 0 3.15-1.392 3.151-3.103V7.367c0-1.71-1.414-3.103-3.151-3.103h-3.44L27.394.42a.564.564 0 0 0-.276-.35.583.583 0 0 0-.45-.044L13.164 4.238a.536.536 0 0 0-.067.026H3.151C1.414 4.264 0 5.656 0 7.367v21.53C0 30.607 1.414 32 3.151 32zm24.08-27.736H16.864l9.575-2.986.79 2.986zM1.142 7.367c0-1.09.9-1.978 2.008-1.978h28.7c1.107 0 2.008.887 2.008 1.978v6.68H23.216c-1.389 0-2.518 1.113-2.518 2.48v3.21c0 1.367 1.13 2.479 2.518 2.479h10.641v6.68c0 1.091-.9 1.979-2.008 1.979H3.15c-1.107 0-2.008-.887-2.008-1.978V7.367zm22.073 7.806c-.759 0-1.376.607-1.376 1.354v3.21c0 .746.617 1.354 1.376 1.354h10.641v-5.918h-10.64zm1.823 4.959c-1.12 0-2.03-.897-2.03-2s.91-2 2.03-2c1.12 0 2.032.897 2.032 2s-.912 2-2.032 2zm-.888-2c0-.483.398-.875.889-.875.49 0 .888.392.888.875a.883.883 0 0 1-.889.875.883.883 0 0 1-.888-.875z"/></g></svg>