<svg width="27" height="20" viewBox="0 0 27 20" fill="none" xmlns="http://www.w3.org/2000/svg"><path fill-rule="evenodd" clip-rule="evenodd" d="M23.625 10c0-1.532 1.262-2.778 2.813-2.778.31 0 .562-.248.562-.555V2.222C27 .997 25.991 0 24.75 0H2.25C1.009 0 0 .997 0 2.222v4.445c0 .307.252.555.563.555 1.55 0 2.812 1.246 2.812 2.778S2.113 12.778.562 12.778a.559.559 0 0 0-.562.555v4.445C0 19.003 1.009 20 2.25 20h22.5c1.241 0 2.25-.997 2.25-2.222v-4.445a.559.559 0 0 0-.563-.555c-1.55 0-2.812-1.246-2.812-2.778zm1.125-8.5c.417 0 .75.33.75.722v3.602c-1.927.425-3.375 2.132-3.375 4.176s1.448 3.751 3.375 4.176v3.602a.739.739 0 0 1-.75.722H2.25a.739.739 0 0 1-.75-.722v-3.602c1.927-.425 3.375-2.132 3.375-4.176S3.427 6.249 1.5 5.824V2.222c0-.393.333-.722.75-.722h22.5z" fill="#A0A1A8"/><path d="M16.745 5.093a.584.584 0 0 0-.792.152l-6.857 9.9a.537.537 0 0 0 .159.763.587.587 0 0 0 .792-.153l6.857-9.9a.537.537 0 0 0-.159-.762z" fill="#A0A1A8"/><path fill-rule="evenodd" clip-rule="evenodd" d="M9.5 5C10.879 5 12 6.346 12 8s-1.121 3-2.5 3S7 9.654 7 8s1.121-3 2.5-3zm0 1.2c-.678 0-1.25.824-1.25 1.8 0 .976.572 1.8 1.25 1.8s1.25-.824 1.25-1.8c0-.976-.572-1.8-1.25-1.8zM14 13c0-1.654 1.121-3 2.5-3s2.5 1.346 2.5 3-1.121 3-2.5 3-2.5-1.346-2.5-3zm1.25 0c0 .976.572 1.8 1.25 1.8s1.25-.824 1.25-1.8c0-.976-.572-1.8-1.25-1.8s-1.25.824-1.25 1.8z" fill="#A0A1A8"/></svg>