<svg width="71" height="10" viewBox="0 0 71 10" fill="none" xmlns="http://www.w3.org/2000/svg"><path fill-rule="evenodd" clip-rule="evenodd" d="M16.282 6.017h4.581c1.704 0 3.085-1.33 3.085-2.968 0-1.64-1.381-2.969-3.085-2.969l-5.451.001c-1.203 0-2.177.938-2.177 2.095h7.47c.495 0 .914.374.927.85.013.493-.397.896-.905.896h-4.762c-1.603 0-2.903 1.251-2.903 2.794v3.143h8.143l1.155-2.095h-7.02v-.84c0-.501.422-.907.942-.907zM5.472 2.18l5.882-.004V.081l-6.02.004C2.53.085.259 2.272.259 4.97c0 2.697 2.272 4.884 5.075 4.884l6.02.005V3.922H4.823v2.096h4.253v1.746l-3.604-.005c-1.6 0-2.898-1.25-2.898-2.79s1.298-2.788 2.898-2.788zm25.93-.972a2.444 2.444 0 0 0-.698-.814 1.998 1.998 0 0 0-1.186-.37 1.9 1.9 0 0 0-1.153.37c-.29.208-.528.5-.699.814-1.903 3.488-4.752 8.651-4.752 8.651h2.6l4.004-7.383 1.882 3.47h-2.897l1.021 1.877h2.894l1.104 2.036h2.6l-4.72-8.651zM68.078.088L64.951 4.33 61.823.088h-2.776l4.735 6.28v3.49h2.337v-3.49l4.736-6.28h-2.777zM46.787.082h-6.933v2.095h6.833c.495 0 .914.373.926.85.014.492-.396.895-.904.895h-4.02c-1.602 0-2.9 1.251-2.9 2.793v3.142h2.276V6.923c0-.5.422-.906.942-.906h3.78c1.703 0 3.083-1.33 3.083-2.968 0-1.639-1.38-2.967-3.083-2.967zM57.02 1.208a2.437 2.437 0 0 0-.7-.814 1.996 1.996 0 0 0-1.185-.37 1.9 1.9 0 0 0-1.153.37c-.29.208-.528.5-.699.814-1.903 3.488-4.752 8.651-4.752 8.651h2.6l4.004-7.383 1.882 3.47H54.12l1.021 1.877h2.894l1.104 2.036h2.6l-4.72-8.651z" fill="#EBEBEB"/></svg>