<svg xmlns="http://www.w3.org/2000/svg" width="71" height="36"><defs><clipPath id="a"><path clip-rule="evenodd" d="M-534-412H906v901H-534z"/></clipPath></defs><g clip-path="url(#a)"><path fill="#EBEBEB" d="M16.282 32.017h4.581c1.704 0 3.085-1.33 3.085-2.968 0-1.64-1.381-2.969-3.085-2.969l-5.451.001c-1.203 0-2.177.938-2.177 2.095h7.47c.495 0 .914.374.927.85.013.493-.397.896-.905.896h-4.762c-1.603 0-2.903 1.251-2.903 2.794v3.143h8.143l1.155-2.095h-7.02v-.84c0-.501.422-.907.942-.907"/></g><defs><clipPath id="b"><path clip-rule="evenodd" d="M-534-412H906v901H-534z"/></clipPath></defs><g clip-path="url(#b)"><path fill="#EBEBEB" d="M5.472 28.18l5.882-.004v-2.095l-6.02.004c-2.803 0-5.075 2.187-5.075 4.885 0 2.697 2.272 4.884 5.075 4.884l6.02.005v-5.937H4.823v2.096h4.253v1.746l-3.604-.005c-1.6 0-2.898-1.25-2.898-2.79s1.298-2.788 2.898-2.788"/></g><defs><clipPath id="c"><path clip-rule="evenodd" d="M-534-412H906v901H-534z"/></clipPath></defs><g clip-path="url(#c)"><path fill="#EBEBEB" d="M31.402 27.208a2.444 2.444 0 0 0-.698-.814 1.998 1.998 0 0 0-1.186-.37 1.9 1.9 0 0 0-1.153.37c-.29.208-.528.5-.699.814-1.903 3.488-4.752 8.651-4.752 8.651h2.6l4.004-7.383 1.882 3.47h-2.897l1.021 1.877h2.894l1.104 2.036h2.6l-4.72-8.651"/></g><defs><clipPath id="d"><path clip-rule="evenodd" d="M-534-412H906v901H-534z"/></clipPath></defs><g clip-path="url(#d)"><path fill="#EBEBEB" d="M68.078 26.088l-3.127 4.243-3.128-4.243h-2.776l4.735 6.281v3.488h2.337V32.37l4.736-6.281h-2.777z"/></g><defs><clipPath id="e"><path clip-rule="evenodd" d="M-534-412H906v901H-534z"/></clipPath></defs><g clip-path="url(#e)"><path fill="#EBEBEB" d="M46.787 26.082h-6.933v2.095h6.833c.495 0 .914.373.926.85.014.492-.396.895-.904.895h-4.02c-1.602 0-2.9 1.251-2.9 2.793v3.142h2.276v-2.934c0-.5.422-.906.942-.906h3.78c1.703 0 3.083-1.33 3.083-2.968 0-1.639-1.38-2.967-3.083-2.967"/></g><defs><clipPath id="f"><path clip-rule="evenodd" d="M-534-412H906v901H-534z"/></clipPath></defs><g clip-path="url(#f)"><path fill="#EBEBEB" d="M57.02 27.208a2.437 2.437 0 0 0-.7-.814 1.996 1.996 0 0 0-1.185-.37 1.9 1.9 0 0 0-1.153.37c-.29.208-.527.5-.699.814-1.902 3.488-4.752 8.651-4.752 8.651h2.6l4.004-7.383 1.882 3.47H54.12l1.021 1.877h2.894l1.105 2.036h2.6l-4.72-8.651"/></g><defs><clipPath id="g"><path clip-rule="evenodd" d="M-534-412H906v901H-534z"/></clipPath></defs><g clip-path="url(#g)"><path fill="#E74011" d="M36.07 14.1L32 10l4.07 10L46 10l-9.93 4.1z"/></g><defs><clipPath id="h"><path clip-rule="evenodd" d="M-534-412H906v901H-534z"/></clipPath></defs><g clip-path="url(#h)"><path fill="#F68B00" d="M26 10.07L36 20l-4.1-9.93L36 6l-10 4.07z"/></g><defs><clipPath id="i"><path clip-rule="evenodd" d="M-534-412H906v901H-534z"/></clipPath></defs><g clip-path="url(#i)"><path fill="#056AAB" d="M35.93 0L26 10l9.93-4.1L40 10 35.93 0z"/></g><defs><clipPath id="j"><path clip-rule="evenodd" d="M-534-412H906v901H-534z"/></clipPath></defs><g clip-path="url(#j)"><path fill="#26A2DC" d="M36 0l4.1 9.93L36 14l10-4.07L36 0z"/></g></svg>