<svg xmlns="http://www.w3.org/2000/svg" width="129" height="35"><defs><clipPath id="a"><path d="M111.5 0h-94q-.448 0-.893.02-.446.02-.887.062-.441.04-.878.101-.436.061-.867.143-.43.08-.855.182-.424.101-.841.222t-.825.261q-.409.141-.808.3-.4.16-.789.34-.39.178-.768.375t-.746.413q-.367.215-.722.448-.354.233-.696.483-.342.25-.67.518-.329.267-.642.55Q5.299 4.701 5 5t-.582.613q-.283.313-.55.642-.267.328-.518.67-.25.342-.483.696-.233.355-.448.722-.216.368-.413.746-.197.379-.376.768-.179.39-.338.789-.16.4-.3.808-.141.408-.262.825-.12.417-.222.84-.101.425-.182.856-.082.43-.143.867-.06.437-.101.878-.041.441-.062.886-.02.446-.02.894t.02.893q.02.446.062.887.04.441.101.878.061.436.143.867.08.431.182.855.101.424.222.841t.261.825q.141.409.3.808.16.4.34.789.178.39.375.768t.413.746q.215.367.448.722.233.354.483.696.25.342.518.67.267.328.55.642.283.314.582.613t.613.582q.313.283.642.55.328.267.67.518.342.25.696.483.355.233.722.448.368.216.746.413.379.197.768.376.39.179.789.338.4.16.808.3.408.141.825.262.417.12.84.222.425.101.856.182.43.082.867.143.437.06.878.101.441.041.886.062.446.02.894.02h94q.448 0 .893-.02.446-.02.887-.062.441-.04.878-.101.436-.061.867-.143.431-.08.855-.182.424-.101.841-.222t.825-.262q.409-.14.808-.3.399-.16.789-.338.389-.179.768-.376t.746-.413q.367-.215.722-.448.354-.233.696-.483.342-.25.67-.518.329-.267.642-.55.314-.283.613-.582t.582-.613q.283-.314.55-.642.267-.328.518-.67.25-.342.483-.696.233-.355.448-.722.216-.367.413-.746.197-.379.376-.768.179-.39.338-.789.16-.4.301-.808.14-.408.261-.825t.222-.84q.101-.425.182-.856.082-.43.143-.867.061-.437.101-.878.041-.441.062-.887.02-.445.02-.893t-.02-.893q-.021-.446-.062-.887-.04-.441-.101-.878-.061-.436-.143-.867-.081-.43-.182-.855-.101-.424-.222-.841t-.261-.825q-.141-.409-.301-.808-.159-.4-.338-.789-.179-.39-.376-.768t-.413-.746q-.215-.367-.448-.722-.233-.354-.483-.696-.251-.342-.518-.67-.267-.329-.55-.642-.283-.314-.582-.613t-.613-.582q-.313-.283-.642-.55-.328-.267-.67-.518-.342-.25-.696-.483-.355-.233-.722-.448-.367-.216-.746-.413-.379-.197-.768-.376-.39-.179-.789-.338-.399-.16-.808-.3-.408-.141-.825-.262-.417-.12-.841-.222-.424-.101-.855-.182-.431-.082-.867-.143-.437-.06-.878-.101-.441-.041-.887-.062-.445-.02-.893-.02z" clip-rule="evenodd"/></clipPath><linearGradient id="b" gradientUnits="userSpaceOnUse" x1="124.802" y1="17.5" x2="0" y2="17.5"><stop offset="0" stop-color="#7568E7"/><stop offset="1" stop-color="#EE2849"/></linearGradient></defs><g clip-path="url(#a)"><path fill="none" stroke="url(#b)" stroke-width="4" d="M17.5 0h94q.448 0 .893.02.446.02.887.062.441.04.878.101.436.061.867.143.431.08.855.182.424.101.841.222t.825.261q.409.141.808.3.399.16.789.34.389.178.768.375t.746.413q.367.215.722.448.354.233.696.483.342.25.67.518.329.267.642.55.314.283.613.582t.582.613q.283.313.55.642.267.328.518.67.25.342.483.696.233.355.448.722.216.368.413.746.197.379.376.768.179.39.338.789.16.4.301.808.14.408.261.825t.222.84q.101.425.182.856.082.43.143.867.061.437.101.878.041.441.062.886.02.446.02.894t-.02.893q-.021.446-.062.887-.04.441-.101.878-.061.436-.143.867-.081.431-.182.855-.101.424-.222.841t-.261.825q-.141.409-.301.808-.159.4-.338.789-.179.39-.376.768t-.413.746q-.215.367-.448.722-.233.354-.483.696-.251.342-.518.67t-.55.642q-.283.314-.582.613t-.613.582q-.313.283-.642.55-.328.267-.67.518-.342.25-.696.483-.355.233-.722.448-.367.216-.746.413-.379.197-.768.376-.39.179-.789.338-.399.16-.808.3-.408.141-.825.262-.417.12-.841.222-.424.101-.855.182-.431.082-.867.143-.437.06-.878.101-.441.041-.887.062-.445.02-.893.02h-94q-.448 0-.893-.02-.446-.02-.887-.062-.441-.04-.878-.101-.436-.061-.867-.143-.43-.08-.855-.182-.424-.101-.841-.222t-.825-.262q-.409-.14-.808-.3-.4-.16-.789-.338-.39-.179-.768-.376t-.746-.413q-.367-.215-.722-.448-.354-.233-.696-.483-.342-.25-.67-.518-.329-.267-.642-.55Q5.299 30.3 5 30t-.582-.613q-.283-.314-.55-.642-.267-.328-.518-.67-.25-.342-.483-.696-.233-.355-.448-.722-.216-.367-.413-.746-.197-.379-.376-.768-.179-.39-.338-.789-.16-.4-.3-.808-.141-.408-.262-.825-.12-.417-.222-.84-.101-.425-.182-.856-.082-.43-.143-.867-.06-.437-.101-.878-.041-.441-.062-.887Q0 17.948 0 17.5t.02-.893q.02-.446.062-.887.04-.441.101-.878.061-.436.143-.867.08-.43.182-.855.101-.424.222-.841t.261-.825q.141-.409.3-.808.16-.4.34-.789.178-.39.375-.768t.413-.746q.215-.367.448-.722.233-.354.483-.696.25-.342.518-.67.267-.329.55-.642Q4.701 5.299 5 5t.613-.582q.313-.283.642-.55.328-.267.67-.518.342-.25.696-.483.355-.233.722-.448.368-.216.746-.413.379-.197.768-.376.39-.179.789-.338.4-.16.808-.3.408-.141.825-.262.417-.12.84-.222.425-.101.856-.182.43-.082.867-.143.437-.06.878-.101.441-.041.886-.062.446-.02.894-.02z"/></g></svg>