<svg xmlns="http://www.w3.org/2000/svg" width="140" height="25"><defs><clipPath id="a"><path clip-rule="evenodd" d="M-48.71-33.68h1425.6v891.99H-48.71z"/></clipPath></defs><g clip-path="url(#a)"><path fill="#FFF" d="M4.126 10.589v6.228h9.748v3.234H.79V7.383h13.084v3.206H4.126z"/></g><defs><clipPath id="b"><path clip-rule="evenodd" d="M-48.71-33.68h1425.6v891.99H-48.71z"/></clipPath></defs><g clip-path="url(#b)"><path fill="#FFF" d="M30.22 19.967V7.383H17.144v2.966h9.748v2.06h-9.748v7.558h13.074zm-3.327-4.998v2.18h-6.422v-2.18h6.422z" fill-rule="evenodd"/></g><defs><clipPath id="c"><path clip-rule="evenodd" d="M-48.71-33.68h1425.6v891.99H-48.71z"/></clipPath></defs><g clip-path="url(#c)"><path fill="#FFF" d="M36.798 12.4h9.748v7.558H33.463v-2.846h9.748v-2.18h-9.748v-7.55h13.083v2.93h-9.748V12.4z"/></g><defs><clipPath id="d"><path clip-rule="evenodd" d="M-48.71-33.68h1425.6v891.99H-48.71z"/></clipPath></defs><g clip-path="url(#d)"><path fill="#FFF" d="M62.837 7.383H49.753v12.584h13.084v-2.966h-9.749v-2.06h9.749V7.383zm-3.336 4.99h-6.413v-2.181h6.413v2.18z" fill-rule="evenodd"/></g><defs><clipPath id="e"><path clip-rule="evenodd" d="M-48.71-33.68h1425.6v891.99H-48.71z"/></clipPath></defs><g clip-path="url(#e)"><path fill="#EE2849" d="M68.723 24.763h-2.708L77.131.97h2.8L68.723 24.763z"/></g><defs><clipPath id="f"><path clip-rule="evenodd" d="M-48.71-33.68h1425.6v891.99H-48.71z"/></clipPath></defs><g clip-path="url(#f)"><path fill="#FFF" d="M93.67 19.986V3.206h-3.335v4.177h-9.748v12.603H93.67zm-3.335-9.462v6.32h-6.542v-6.32h6.542z" fill-rule="evenodd"/></g><defs><clipPath id="g"><path clip-rule="evenodd" d="M-48.71-33.68h1425.6v891.99H-48.71z"/></clipPath></defs><g clip-path="url(#g)"><path fill="#FFF" d="M107.087 7.383v6.227h-3.336v-3.086h-3.539v9.462h-3.335V7.383h10.21z"/></g><defs><clipPath id="h"><path clip-rule="evenodd" d="M-48.71-33.68h1425.6v891.99H-48.71z"/></clipPath></defs><g clip-path="url(#h)"><path fill="#FFF" d="M123.1 19.995V7.383h-13.084v12.612H123.1zm-9.748-9.47h6.412v6.32h-6.412v-6.32z" fill-rule="evenodd"/></g><defs><clipPath id="i"><path clip-rule="evenodd" d="M-48.71-33.68h1425.6v891.99H-48.71z"/></clipPath></defs><g clip-path="url(#i)"><path fill="#FFF" d="M129.642 19.986h9.748V7.383h-12.954v17.38h3.206v-4.777zm0-9.462h6.542v6.32h-6.542v-6.32z" fill-rule="evenodd"/></g></svg>