<svg xmlns="http://www.w3.org/2000/svg" width="17" height="66"><defs><clipPath id="a"><path clip-rule="evenodd" d="M-223-430h1440v901H-223z"/></clipPath></defs><g clip-path="url(#a)"><path fill-opacity=".2" d="M17-.737v65L1.724 55.277q-.089-.052-.176-.112-.087-.06-.171-.13-.085-.068-.168-.144-.082-.076-.16-.159-.079-.082-.154-.171-.074-.09-.144-.184-.07-.094-.135-.193-.065-.1-.124-.203-.058-.103-.111-.209t-.099-.214q-.046-.108-.084-.217-.04-.11-.07-.22-.032-.11-.056-.219-.024-.11-.04-.217-.016-.108-.024-.214Q0 52.366 0 52.263v-41q0-.102.008-.208t.024-.214q.016-.108.04-.217.024-.11.055-.219.032-.11.07-.22.04-.109.085-.217.046-.108.099-.214.053-.106.111-.21.06-.102.124-.201.065-.1.135-.194t.144-.183q.075-.09.154-.172.078-.083.16-.159.083-.076.168-.144.084-.069.171-.13.087-.06.176-.112L17-.737z"/></g><defs><clipPath id="b"><path clip-rule="evenodd" d="M-223-430h1440v901H-223z"/></clipPath></defs><g clip-path="url(#b)"><path fill="#D2D3DA" d="M10.121 27.156L7.18 31.5l2.942 4.4-1.256 1.01-3.551-5.459 3.551-5.36 1.256 1.065z"/></g></svg>