<svg xmlns="http://www.w3.org/2000/svg" width="35" height="32"><defs><clipPath id="a"><path clip-rule="evenodd" d="M-1304.24-210.82h1881.6v937.86h-1881.6z"/></clipPath></defs><g clip-path="url(#a)"><path fill="#FFF" d="M32.644 6.184h-5.49V2.088a1.19 1.19 0 0 0-1.19-1.19H10.576a1.19 1.19 0 0 0-1.19 1.19v4.096h-5.49A2.78 2.78 0 0 0 1.12 8.96v19.622a2.78 2.78 0 0 0 2.776 2.776h28.748a2.78 2.78 0 0 0 2.776-2.776V8.96a2.78 2.78 0 0 0-2.776-2.776zM10.909 2.42H25.63v3.764H10.91V2.42zm21.735 27.416c.219 0 1.254-1.036 1.254-1.254V8.96c0-.218-1.035-1.254-1.254-1.254H3.896c-.218 0-1.254 1.036-1.254 1.254v19.622c0 .218 1.036 1.254 1.254 1.254h28.748z" fill-rule="evenodd"/></g><defs><clipPath id="b"><path clip-rule="evenodd" d="M-1304.24-210.82h1881.6v937.86h-1881.6z"/></clipPath></defs><g clip-path="url(#b)"><path fill="#FFF" d="M24.335 18.032h1.867a.708.708 0 1 1 0 1.416h-1.858c-.311 2.825-2.565 5.077-5.403 5.412v1.849a.708.708 0 0 1-1.416 0v-1.842c-2.862-.315-5.14-2.578-5.453-5.42h-1.808a.708.708 0 1 1 0-1.416h1.818c.345-2.806 2.606-5.032 5.443-5.344v-1.916a.708.708 0 1 1 1.416 0v1.923c2.814.332 5.051 2.548 5.394 5.338zM18.94 21.09v2.337c2.055-.317 3.674-1.937 3.97-3.979h-2.328a.708.708 0 1 1 0-1.416H22.9c-.325-2.008-1.93-3.592-3.959-3.905v2.263a.708.708 0 0 1-1.416 0v-2.27c-2.053.295-3.681 1.888-4.008 3.912h2.366a.708.708 0 1 1 0 1.416h-2.378c.299 2.058 1.942 3.688 4.02 3.986V21.09a.708.708 0 1 1 1.416 0z" fill-rule="evenodd"/></g></svg>