<svg xmlns="http://www.w3.org/2000/svg" width="120" height="25"><defs><clipPath id="a"><path d="M108 0H12q-.307 0-.613.014-.305.014-.608.042-.302.028-.601.07-.3.042-.595.097-.296.056-.587.125-.29.07-.576.153-.286.083-.566.179-.28.096-.554.206-.274.11-.54.232-.268.122-.527.258-.26.135-.512.282-.252.148-.495.308t-.478.331q-.234.172-.46.355-.224.183-.44.377-.215.195-.42.4-.204.204-.399.42-.194.215-.377.44t-.355.46q-.171.234-.331.477-.16.243-.308.495-.147.252-.282.512-.136.26-.258.526-.123.267-.232.541-.11.274-.206.554-.096.28-.18.566-.082.286-.152.576-.07.291-.125.587-.055.295-.097.595-.042.299-.07.601-.028.303-.042.608Q0 11.693 0 12v1q0 .307.014.613.014.305.042.608.028.302.07.601.042.3.097.595.056.296.125.586.07.291.153.577.083.286.179.566.096.28.206.554.11.274.232.54.122.268.258.527.135.26.282.512.148.252.308.495t.331.478q.172.234.355.46.183.224.377.44.195.214.4.42.204.204.42.399.215.194.44.377t.46.355q.234.171.477.331.243.16.495.308.252.147.512.283.26.135.526.257.267.123.541.232.274.11.554.206.28.096.566.18.286.082.576.152.291.07.587.125.295.055.595.097.299.042.601.07.303.028.608.042.306.014.613.014h96q.307 0 .613-.014.305-.014.608-.042.302-.028.602-.07.299-.042.594-.097.296-.056.587-.125.29-.07.576-.153.286-.082.566-.179.28-.096.554-.206.274-.11.541-.232.267-.122.526-.258.26-.135.512-.282.252-.148.495-.308t.478-.331q.234-.172.459-.355t.44-.377q.216-.195.42-.4.205-.205.4-.42.194-.215.377-.44t.355-.46q.171-.234.331-.477.16-.243.308-.495.147-.252.282-.512.136-.26.258-.526.123-.267.232-.541.11-.274.206-.554.096-.28.179-.566.083-.286.153-.576.069-.291.125-.587.055-.295.097-.595.042-.299.07-.601.028-.303.042-.608.014-.306.014-.613v-1q0-.307-.014-.613-.014-.305-.042-.608-.028-.302-.07-.601-.042-.3-.097-.595-.056-.296-.125-.587-.07-.29-.153-.576-.083-.286-.179-.566-.096-.28-.206-.554-.109-.274-.232-.54-.122-.268-.258-.527-.135-.26-.282-.512-.148-.252-.308-.495t-.331-.478q-.172-.234-.355-.46-.183-.224-.377-.44-.195-.215-.4-.42-.204-.204-.42-.399-.215-.194-.44-.377t-.459-.355q-.235-.171-.478-.331t-.495-.308q-.252-.147-.512-.282-.259-.136-.526-.258-.267-.123-.541-.232-.274-.11-.554-.206-.28-.096-.566-.18-.286-.082-.576-.152-.291-.07-.587-.125-.295-.055-.594-.097-.3-.042-.602-.07-.303-.028-.608-.042Q108.307 0 108 0z" clip-rule="evenodd"/></clipPath><linearGradient id="b" gradientUnits="userSpaceOnUse" x1="116.095" y1="12.5" x2="0" y2="12.5"><stop offset="0" stop-color="#7568E7"/><stop offset="1" stop-color="#EE2849"/></linearGradient></defs><g clip-path="url(#a)"><path fill="none" stroke="url(#b)" stroke-width="4" d="M12 0h96q.307 0 .613.014.305.014.608.042.302.028.602.07.299.042.594.097.296.056.587.125.29.07.576.153.286.083.566.179.28.096.554.206.274.11.541.232.267.122.526.258.26.135.512.282.252.148.495.308t.478.331q.234.172.459.355t.44.377q.216.195.42.4.205.204.4.42.194.215.377.44t.355.46q.171.234.331.477.16.243.308.495.147.252.282.512.136.26.258.526.123.267.232.541.11.274.206.554.096.28.179.566.083.286.153.576.069.291.125.587.055.295.097.595.042.299.07.601.028.303.042.608.014.306.014.613v1q0 .307-.014.613-.014.305-.042.608-.028.302-.07.601-.042.3-.097.595-.056.296-.125.586-.07.291-.153.577-.083.286-.179.566-.096.28-.206.554-.109.274-.232.54-.122.268-.258.527-.135.26-.282.512-.148.252-.308.495t-.331.478q-.172.234-.355.46-.183.224-.377.44-.195.214-.4.42-.204.204-.42.399-.215.194-.44.377t-.459.355q-.235.171-.478.331t-.495.308q-.252.147-.512.283-.259.135-.526.257-.267.123-.541.232-.274.11-.554.206-.28.096-.566.18-.286.082-.576.152-.291.07-.587.125-.295.055-.594.097-.3.042-.602.07-.303.028-.608.042-.306.014-.613.014H12q-.307 0-.613-.014-.305-.014-.608-.042-.302-.028-.601-.07-.3-.042-.595-.097-.296-.056-.587-.125-.29-.07-.576-.153-.286-.082-.566-.179-.28-.096-.554-.206-.274-.11-.54-.232-.268-.122-.527-.258-.26-.135-.512-.282-.252-.148-.495-.308t-.478-.331q-.234-.172-.46-.355-.224-.183-.44-.377-.215-.195-.42-.4-.204-.205-.399-.42-.194-.215-.377-.44t-.355-.46q-.171-.234-.331-.477-.16-.243-.308-.495-.147-.252-.282-.512-.136-.26-.258-.526-.123-.267-.232-.541-.11-.274-.206-.554-.096-.28-.18-.566-.082-.286-.152-.576-.07-.291-.125-.587-.055-.295-.097-.595-.042-.299-.07-.601-.028-.303-.042-.608Q0 13.307 0 13v-1q0-.307.014-.613.014-.305.042-.608.028-.302.07-.601.042-.3.097-.595.056-.296.125-.587.07-.29.153-.576.083-.286.179-.566.096-.28.206-.554.11-.274.232-.54.122-.268.258-.527.135-.26.282-.512.148-.252.308-.495t.331-.478q.172-.234.355-.46.183-.224.377-.44.195-.215.4-.42.204-.204.42-.399.215-.194.44-.377t.46-.355q.234-.171.477-.331.243-.16.495-.308.252-.147.512-.282.26-.136.526-.258.267-.123.541-.232.274-.11.554-.206.28-.096.566-.18.286-.082.576-.152.291-.07.587-.125.295-.055.595-.097.299-.042.601-.07.303-.028.608-.042Q11.693 0 12 0z"/></g></svg>