<svg xmlns="http://www.w3.org/2000/svg" width="90" height="18"><defs><clipPath id="a"><path clip-rule="evenodd" d="M-794 0H646v901H-794z"/></clipPath></defs><g clip-path="url(#a)"><path fill="#FFF" fill-opacity=".102" d="M12.263 1h65l-8.986 15.276q-.052.088-.112.175-.06.088-.13.172-.068.085-.144.167-.076.083-.159.161-.082.079-.171.154-.09.074-.184.144-.094.07-.193.135-.1.065-.202.124-.103.058-.21.111-.105.053-.214.099-.108.046-.217.084-.11.04-.22.07-.11.032-.219.056-.11.024-.217.04-.108.016-.214.024-.105.008-.208.008h-41q-.102 0-.208-.008t-.214-.024q-.107-.016-.217-.04t-.219-.055q-.11-.032-.22-.07-.109-.04-.217-.085-.108-.046-.214-.099-.106-.053-.21-.111-.102-.06-.201-.124-.1-.065-.194-.135t-.183-.144q-.09-.075-.172-.154-.083-.078-.159-.16-.076-.083-.144-.168-.069-.084-.13-.171-.06-.087-.112-.176L12.263 1z"/></g><defs><clipPath id="b"><path clip-rule="evenodd" d="M-794 0H646v901H-794z"/></clipPath></defs><g clip-path="url(#b)"><path fill="#D2D3DA" d="M40.066 12.807l4.344-2.942 4.4 2.942 1.01-1.256L44.36 8 39 11.551l1.066 1.256z"/></g><defs><clipPath id="c"><path clip-rule="evenodd" d="M-794 0H646v901H-794z"/></clipPath></defs><g clip-path="url(#c)"><path fill-opacity=".2" d="M0 0h90v1H0V0z"/></g></svg>