<?xml version="1.0" standalone="no"?>
<!DOCTYPE svg PUBLIC "-//W3C//DTD SVG 1.1//EN" "http://www.w3.org/Graphics/SVG/1.1/DTD/svg11.dtd" >
<svg xmlns="http://www.w3.org/2000/svg" xmlns:xlink="http://www.w3.org/1999/xlink" version="1.1">
<metadata></metadata>
<defs>
<font id="sofia_promedium_italic" horiz-adv-x="1181" >
<font-face units-per-em="2048" ascent="1638" descent="-410" />
<missing-glyph horiz-adv-x="509" />
<glyph unicode="&#xfb01;" horiz-adv-x="1206" d="M201 788l35 168h184l16 88q38 202 153 316.5t304 114.5h80l-37 -191h-43q-116 0 -174.5 -58t-77.5 -159l-20 -111h622l-186 -956h-201l152 788h-422l-152 -788h-201l152 788h-184zM1073 1305q10 55 58 92t104 37q57 0 90 -37t23 -92t-57 -92t-105 -37q-56 0 -89.5 37 t-23.5 92z" />
<glyph unicode="&#xfb02;" horiz-adv-x="1208" d="M201 788l35 168h184l16 88q38 202 153 316.5t304 114.5h453l-287 -1475h-201l250 1284h-215q-116 0 -174.5 -58t-77.5 -159l-20 -111h219l-35 -168h-219l-152 -788h-201l152 788h-184z" />
<glyph unicode="&#xfb03;" horiz-adv-x="1918" d="M201 788l35 168h184l16 88q38 202 153 316.5t304 114.5h106l-36 -191h-70q-116 0 -174.5 -58t-77.5 -159l-20 -111h509l17 88q38 202 154 316.5t305 114.5h65l-37 -191h-32q-212 0 -248 -213l-21 -115h623l-187 -956h-200l151 788h-422l-151 -788h-203l152 788h-510 l-152 -788h-201l152 788h-184zM1786 1305q10 55 57 92t105 37q57 0 89.5 -37t22.5 -92t-57 -92t-105 -37q-57 0 -89.5 37t-22.5 92z" />
<glyph unicode="&#xfb04;" horiz-adv-x="1921" d="M201 788l35 168h184l16 88q38 202 153 316.5t304 114.5h106l-36 -191h-70q-116 0 -174.5 -58t-77.5 -159l-20 -111h509l17 88q38 202 154 316.5t305 114.5h452l-286 -1475h-201l250 1284h-215q-116 0 -174.5 -58t-77.5 -159l-21 -111h217l-34 -168h-218l-151 -788h-203 l152 788h-510l-152 -788h-201l152 788h-184z" />
<glyph horiz-adv-x="0" />
<glyph horiz-adv-x="682" />
<glyph unicode=" "  horiz-adv-x="509" />
<glyph unicode="&#x09;" horiz-adv-x="509" />
<glyph unicode="&#xa0;" horiz-adv-x="509" />
<glyph unicode="!" horiz-adv-x="548" d="M152 115q10 57 59.5 96t107.5 39q59 0 93 -38.5t24 -96.5t-60 -96.5t-110 -38.5q-58 0 -91 38.5t-23 96.5zM279 424l167 987h205l-215 -987h-157z" />
<glyph unicode="&#x22;" horiz-adv-x="747" d="M309 817l99 594h174l-133 -594h-140zM616 817l99 594h174l-133 -594h-140z" />
<glyph unicode="#" horiz-adv-x="1349" d="M131 346l82 176h217l166 357h-211l80 176h217l170 356h178l-170 -356h234l170 356h178l-170 -356h219l-84 -176h-219l-170 -357h219l-84 -176h-219l-166 -346h-176l164 346h-234l-166 -346h-174l164 346h-215zM606 522h234l168 357h-232z" />
<glyph unicode="$" horiz-adv-x="1069" d="M172 430h209q-16 -88 40.5 -150.5t168.5 -62.5q104 0 176 56t88 137q24 134 -160 186l-151 41q-63 17 -110.5 41.5t-76 53.5t-46.5 59t-23.5 63.5t-5.5 61.5t6 57q28 142 149 239.5t279 120.5l30 166h132l-31 -164q158 -17 235.5 -121t46.5 -258h-208q19 88 -28.5 144.5 t-141.5 56.5q-93 0 -163 -51.5t-87 -130.5q-23 -120 131 -160l149 -39q161 -41 237.5 -132.5t49.5 -225.5q-30 -152 -162 -259.5t-311 -117.5l-35 -174h-131l35 180q-159 26 -239 135.5t-52 247.5z" />
<glyph unicode="%" horiz-adv-x="1294" d="M250 0l911 1337h129l-909 -1337h-131zM285 1104q23 115 116.5 194.5t208.5 79.5q114 0 179 -80t42 -194q-23 -115 -118 -194t-209 -79q-116 0 -179 79t-40 194zM420 1104q-12 -60 19 -98.5t91 -38.5q58 0 105 39t59 98q10 57 -22.5 97t-89.5 40q-59 0 -105 -39.5 t-57 -97.5zM727 252q22 114 116.5 194t209.5 80q114 0 178.5 -80t42.5 -194q-22 -115 -118.5 -193.5t-211.5 -78.5t-177 78t-40 194zM864 252q-11 -59 20 -97t89 -38t106 38.5t58 96.5q11 57 -21.5 98t-89.5 41q-58 0 -104.5 -40.5t-57.5 -98.5z" />
<glyph unicode="&#x26;" horiz-adv-x="1318" d="M178 422q22 116 101.5 208.5t191.5 149.5q-58 43 -85 120t-9 167q28 148 160 254t301 106q114 0 195 -50.5t120 -141.5l-184 -107q-45 103 -168 103q-86 0 -148.5 -50t-77.5 -128q-9 -36 -1.5 -72t26 -65.5t61.5 -47.5t103 -18h233l33 166h199l-35 -168h176l-29 -162 h-176l-49 -252q-12 -72 -12.5 -131t32 -97t99.5 -38h43l-35 -186h-47q-104 0 -178 42.5t-84 110.5q-70 -73 -172.5 -114t-210.5 -41q-133 0 -227 59.5t-131.5 160t-14.5 222.5zM381 434q-22 -111 38 -184.5t177 -73.5q115 0 204.5 71t117.5 187l49 252h-224 q-157 0 -248.5 -71t-113.5 -181z" />
<glyph unicode="'" horiz-adv-x="442" d="M309 817l99 594h174l-133 -594h-140z" />
<glyph unicode="(" horiz-adv-x="724" d="M187 89.5q-29 200.5 20 475.5q51 269 163.5 476t266.5 320.5t326 113.5l-33 -164q-169 0 -320.5 -206t-216.5 -540q-42 -228 -24.5 -392.5t89 -256.5t181.5 -92l-33 -162q-172 0 -281 113.5t-138 314z" />
<glyph unicode=")" horiz-adv-x="724" d="M-14 -338l30 162q169 0 318.5 204t214.5 537q65 335 -4.5 540.5t-237.5 205.5l33 164q172 0 280.5 -115.5t136 -317.5t-21.5 -477q-51 -269 -162 -474t-263.5 -317t-323.5 -112z" />
<glyph unicode="*" horiz-adv-x="933" d="M293 1090l59 129l279 -89l51 308h133l-70 -308l312 89l10 -129l-303 -68l137 -234l-123 -77l-123 252l-225 -252l-90 77l231 234z" />
<glyph unicode="+" horiz-adv-x="1009" d="M168 436l35 185h329l66 329h182l-65 -329h329l-34 -185h-330l-64 -330h-182l64 330h-330z" />
<glyph unicode="," horiz-adv-x="495" d="M-61 -285q121 135 181.5 253.5t76.5 291.5h198q-17 -177 -108 -333.5t-230 -256.5z" />
<glyph unicode="-" horiz-adv-x="983" d="M209 385l37 190h715l-37 -190h-715z" />
<glyph unicode="." horiz-adv-x="509" d="M133 115q10 57 60 96t108 39q59 0 93 -38.5t24 -96.5t-60 -96.5t-110 -38.5q-58 0 -91.5 38.5t-23.5 96.5z" />
<glyph unicode="/" horiz-adv-x="985" d="M53 0l967 1411h188l-966 -1411h-189z" />
<glyph unicode="0" horiz-adv-x="1212" d="M219 449.5q6 97.5 29 216.5q24 121 56.5 219.5t84 188.5t117 150.5t158.5 96t206 35.5t191.5 -35.5t121 -96.5t59.5 -150.5t11 -188t-30 -219.5q-23 -119 -55.5 -216.5t-84 -187t-117.5 -150t-159 -96.5t-205 -36q-113 0 -192 36t-121.5 96.5t-59 150t-10.5 187z M426.5 473.5q-3.5 -84.5 13.5 -155.5t67 -109.5t132 -38.5t147.5 38.5t110 109.5t74.5 155.5t51 192.5q21 109 24.5 194t-13.5 156.5t-67 110t-132 38.5q-66 0 -121.5 -26.5t-96 -70.5t-73 -109.5t-54 -136t-38.5 -156.5q-21 -108 -24.5 -192.5z" />
<glyph unicode="1" horiz-adv-x="737" d="M242 952l37 193l522 211h10l-264 -1356h-201l207 1067z" />
<glyph unicode="2" horiz-adv-x="1067" d="M102 0l17 94l624 611q75 74 125.5 142.5t57.5 110.5q19 93 -33.5 150t-155.5 57q-102 0 -177 -54.5t-101 -145.5l-176 36q55 162 186 258.5t307 96.5q193 0 289 -109.5t61 -288.5q-17 -82 -77 -175t-144 -171l-436 -419h526l-34 -193h-859z" />
<glyph unicode="3" horiz-adv-x="1069" d="M109 254l178 96q29 -85 90.5 -132.5t142.5 -47.5q121 0 209.5 60.5t108.5 158.5q22 107 -41.5 173.5t-184.5 66.5h-137l31 166h117q105 0 179 54.5t89 141.5q15 79 -31.5 126.5t-136.5 47.5q-66 0 -135.5 -33t-120.5 -88l-109 117q72 88 185 141.5t229 53.5 q176 0 266 -99.5t58 -261.5q-19 -92 -79.5 -165.5t-146.5 -110.5q99 -36 146 -124t24 -204q-35 -183 -187.5 -296t-360.5 -113q-143 0 -244 71.5t-139 200.5z" />
<glyph unicode="4" horiz-adv-x="1179" d="M78 270l10 49l1014 1018h57l-172 -878h193l-35 -189h-193l-53 -270h-203l54 270h-672zM436 459h348l84 422z" />
<glyph unicode="5" horiz-adv-x="1144" d="M135 279l184 96q21 -91 93.5 -148t179.5 -57q127 0 223 73t119 191t-44 191t-188 73q-155 0 -344 -125l-102 97l248 669h723l-37 -190h-557l-144 -367q134 90 297 90q193 0 292 -120t61 -314q-41 -206 -202.5 -332t-371.5 -126q-164 0 -277 82.5t-153 216.5z" />
<glyph unicode="6" horiz-adv-x="1204" d="M233 631q21 105 58 204t97 195t136 167.5t180.5 115t223.5 43.5q63 0 117.5 -13t105.5 -43t88 -85t55 -132l-194 -77q-42 159 -211 159q-147 0 -270.5 -134t-155.5 -326q64 72 152.5 115.5t189.5 43.5q132 0 226 -62t131.5 -162.5t13.5 -217.5q-35 -181 -194 -311.5 t-372 -130.5q-246 0 -343 167.5t-34 483.5zM418 434q-23 -110 40 -185.5t179 -78.5q123 0 217.5 73t116.5 183q20 105 -41 177t-172 77q-121 0 -217.5 -70t-122.5 -176z" />
<glyph unicode="7" horiz-adv-x="1048" d="M90 0l836 1149h-604l36 188h930l-2 -16l-958 -1321h-238z" />
<glyph unicode="8" horiz-adv-x="1204" d="M174 397q26 129 115 230.5t211 142.5q-57 38 -82 102.5t-8 147.5q28 145 157 240.5t301 95.5q171 0 262.5 -95.5t63.5 -240.5q-17 -84 -66.5 -148t-121.5 -102q105 -43 155 -144t25 -227q-24 -123 -108.5 -219t-209.5 -148t-270 -52t-250 52t-151.5 147.5t-22.5 217.5z M389 416q-22 -107 49.5 -177.5t198.5 -70.5q129 0 224 70t116 176q21 112 -49.5 185t-192.5 73q-124 0 -224 -73.5t-122 -182.5zM614 1001q-13 -70 30.5 -117.5t121.5 -47.5t141 47.5t76 117.5q14 71 -30.5 122t-121.5 51t-140 -51t-77 -122z" />
<glyph unicode="9" horiz-adv-x="1204" d="M170 252l192 78q22 -83 78 -121.5t133 -38.5q146 0 270 132t156 319q-62 -68 -152.5 -109t-189.5 -41q-133 0 -226.5 62t-130 162.5t-13.5 217.5q37 182 195 312.5t370 130.5q121 0 208 -48.5t132 -135.5t57 -206.5t-18 -260.5q-21 -105 -58 -204t-98 -195t-137 -167.5 t-181 -115t-225 -43.5q-299 0 -362 272zM494 909q-22 -105 39 -177t174 -77q121 0 216.5 69t120.5 175q22 112 -41 187t-180 77q-122 0 -214.5 -72t-114.5 -182z" />
<glyph unicode=":" horiz-adv-x="550" d="M154 115q10 58 60 96.5t110 38.5q57 0 89.5 -38.5t22.5 -96.5t-59 -96.5t-107 -38.5q-59 0 -92.5 38.5t-23.5 96.5zM297 842q10 58 60 96.5t110 38.5q58 0 90.5 -38.5t22.5 -96.5t-59 -96.5t-107 -38.5q-59 0 -93 38.5t-24 96.5z" />
<glyph unicode=";" horiz-adv-x="557" d="M-20 -285q121 135 181.5 253.5t76.5 291.5h198q-17 -177 -108 -333.5t-230 -256.5zM299 842q10 58 59.5 96.5t108.5 38.5t92 -38.5t23 -96.5t-58.5 -96.5t-107.5 -38.5t-93 38.5t-24 96.5z" />
<glyph unicode="&#x3c;" horiz-adv-x="1230" d="M160 467l37 188l1114 396l-41 -203l-830 -287l719 -289l-41 -200z" />
<glyph unicode="=" horiz-adv-x="1226" d="M188 240l35 182h942l-35 -182h-942zM268 637l35 182h942l-35 -182h-942z" />
<glyph unicode="&#x3e;" horiz-adv-x="1228" d="M137 72l39 200l830 289l-719 287l43 203l956 -396l-37 -188z" />
<glyph unicode="?" horiz-adv-x="976" d="M254 117q10 58 59.5 96.5t108.5 38.5t92 -38.5t23 -96.5t-59.5 -96.5t-108.5 -38.5t-92 38.5t-23 96.5zM268 999q26 128 105.5 227t185.5 150t219 51q173 0 267.5 -109.5t60.5 -289.5q-28 -143 -131 -244.5t-238 -142.5q-81 -24 -120.5 -52.5t-51.5 -92.5l-16 -72h-187 l13 72q22 128 86 196t178 109l74 26q74 25 127.5 77t66.5 122q20 100 -27 156.5t-139 56.5t-173.5 -65t-106.5 -175h-193z" />
<glyph unicode="@" horiz-adv-x="1996" d="M190 520q35 183 136.5 349t242.5 287t320 192t362 71q185 0 341.5 -65.5t259.5 -179t146 -275t7 -344.5q-15 -76 -42 -153t-72 -156t-99.5 -139t-130 -98t-158.5 -38q-48 0 -87.5 9t-74.5 30t-54.5 55.5t-27.5 84.5t7 118l51 262q22 110 -39.5 185.5t-169.5 75.5 t-197.5 -75.5t-111.5 -185.5q-20 -106 41 -182t168 -76q96 0 211 90l-33 -176q-102 -65 -209 -65q-170 0 -267 120t-65 289q34 171 177.5 291.5t314.5 120.5q108 0 191 -52t121.5 -142.5t20.5 -198.5l-55 -295q-27 -133 117 -133q55 0 104 30t82.5 75t61.5 106t44 114.5 t27 108.5q29 152 -7 285.5t-122.5 226.5t-216.5 147t-284 54q-203 0 -391.5 -100.5t-318 -272.5t-169.5 -375q-39 -204 24 -373.5t212.5 -267.5t353.5 -98h55l-31 -154h-55q-183 0 -334 70t-245 189.5t-130.5 284.5t-1.5 349z" />
<glyph unicode="A" horiz-adv-x="1294" d="M2 0l809 1411h225l258 -1411h-221l-65 356h-586l-199 -356h-221zM526 541h451l-107 608z" />
<glyph unicode="B" horiz-adv-x="1294" d="M190 0l275 1411h536q179 -1 265 -99q62 -72 62 -178q0 -40 -9 -85q-19 -99 -77 -179.5t-159 -117.5q77 -17 126.5 -73t61.5 -128q6 -35 5 -71q0 -39 -6 -81q-15 -77 -57 -148t-105 -127.5t-150.5 -90t-185.5 -33.5h-582zM436 193h330q118 0 196.5 65t98.5 162q5 26 5 50 q0 62 -35 112q-49 68 -165 67h-340zM563 829h326q85 0 141 54t74 143q5 27 5 50q0 53 -25 90q-36 53 -123 53h-322z" />
<glyph unicode="C" horiz-adv-x="1419" d="M231 702q38 197 165.5 363t311 263t379.5 97q165 0 294 -67.5t202 -186.5l-180 -124q-52 86 -143 134t-207 48q-214 0 -391 -154t-220 -373q-11 -57 -11 -110q-1 -82 25 -154q42 -120 146 -191t246 -71q115 0 224.5 48.5t197.5 133.5l131 -125q-119 -119 -274 -186 t-320 -67q-147 0 -269 57t-198 154q-78 97 -108 231q-16 68 -15 140q0 68 14 140z" />
<glyph unicode="D" horiz-adv-x="1480" d="M190 0l275 1411h549q196 0 324 -94q128 -93 171 -253q23 -84 23 -179q0 -86 -19 -183q-29 -150 -97.5 -278t-167 -222.5t-230 -148t-279.5 -53.5h-549zM436 193h338q205 0 345.5 142.5t183.5 366.5q16 73 16 140q0 32 -4 62q-11 94 -48 164t-112 110.5t-178 40.5h-338z " />
<glyph unicode="E" horiz-adv-x="1159" d="M190 0l275 1411h846l-37 -192h-637l-84 -428h555l-39 -195h-555l-80 -403h656l-35 -193h-865z" />
<glyph unicode="F" horiz-adv-x="1087" d="M190 0l275 1411h833l-36 -192h-623l-84 -428h494l-37 -193h-494l-117 -598h-211z" />
<glyph unicode="G" horiz-adv-x="1544" d="M231 702q29 148 111 282t195.5 231t257.5 154.5t292 57.5q143 0 258.5 -51t190.5 -143l-174 -135q-54 63 -135.5 99t-177.5 36q-105 0 -207 -42.5t-182.5 -114t-138.5 -169t-79 -205.5q-11 -57 -11 -110q0 -81 25 -154q43 -121 145.5 -192.5t242.5 -71.5q173 0 309.5 89 t187.5 237q12 31 13 35h-406l35 180h637q-35 -185 -110 -326t-181.5 -230t-238 -134t-285.5 -45q-148 0 -269.5 57t-197.5 154t-106 231q-15 67 -15 139q0 69 14 141z" />
<glyph unicode="H" horiz-adv-x="1452" d="M190 0l275 1411h211l-121 -614h651l121 614h211l-274 -1411h-211l116 606h-651l-117 -606h-211z" />
<glyph unicode="I" horiz-adv-x="591" d="M190 0l275 1411h211l-275 -1411h-211z" />
<glyph unicode="J" horiz-adv-x="608" d="M-274 -455l59 197q41 -16 139 -16q116 0 186.5 72.5t92.5 185.5l278 1427h211l-278 -1427q-19 -97 -59.5 -178t-104 -145.5t-157 -101t-208.5 -36.5q-65 0 -159 22z" />
<glyph unicode="K" horiz-adv-x="1189" d="M190 0l275 1411h209l-115 -586l559 586h258l-678 -706l519 -705h-283l-422 580l-113 -580h-209z" />
<glyph unicode="L" horiz-adv-x="1011" d="M190 0l275 1411h211l-240 -1218h568l-35 -193h-779z" />
<glyph unicode="M" horiz-adv-x="1912" d="M111 0l446 1411h188l289 -1016l682 1016h189l-103 -1411h-209l74 1024l-588 -868h-180l-256 868l-324 -1024h-208z" />
<glyph unicode="N" horiz-adv-x="1406" d="M190 0l275 1411h205l411 -1020l199 1020h211l-274 -1411h-199l-418 1028l-199 -1028h-211z" />
<glyph unicode="O" horiz-adv-x="1622" d="M231 702q29 148 110.5 282t195 231t257 154.5t291.5 57.5q198 0 344 -97q146 -98 208 -264q38 -103 38 -218q0 -71 -14 -146q-29 -147 -111 -280.5t-196 -230.5t-258.5 -154t-292.5 -57t-269 57t-197 154q-75 97 -105 231q-15 67 -15 138q0 69 14 142zM442 702 q-11 -58 -11 -112q1 -80 25 -152q42 -120 143.5 -191t242.5 -71q142 0 272 71t219 191.5t117 263.5q11 58 11 112q0 82 -25 154q-42 122 -144.5 192.5t-244.5 70.5q-213 0 -387.5 -154.5t-217.5 -374.5z" />
<glyph unicode="P" horiz-adv-x="1253" d="M190 0l275 1411h565q74 0 134 -17.5t99.5 -48.5t68 -73.5t39.5 -92t13 -103.5q0 -9 1 -18q0 -46 -11 -93q-17 -87 -57.5 -164.5t-103 -141t-154.5 -100.5t-201 -37h-354l-103 -522h-211zM541 715h342q115 0 187 73t93 177q8 30 8 60q-1 17 -3 33q-6 46 -23.5 81.5 t-58 57.5t-97.5 22h-350z" />
<glyph unicode="Q" horiz-adv-x="1622" d="M231 702q29 148 110.5 282t195 231t257 154.5t291.5 57.5q198 0 344 -97t208 -264q38 -103 38 -218q0 -71 -14 -146q-36 -189 -156.5 -350t-290.5 -260l99 -231l-176 -97l-109 248q-112 -32 -225 -32q-148 0 -269 57t-197 154t-105 231q-15 67 -15 138q0 69 14 142z M442 702q-11 -58 -11 -112q0 -80 25 -152q41 -120 143 -191t243 -71q56 0 112 12l-100 234l176 98l111 -256q118 70 199.5 185.5t109.5 252.5q11 58 11 112q0 81 -25 154q-42 121 -144.5 192t-244.5 71q-213 0 -387.5 -154.5t-217.5 -374.5z" />
<glyph unicode="R" horiz-adv-x="1273" d="M190 0l275 1411h539q75 0 136 -17.5t101 -48.5t69 -73.5t39.5 -92t12.5 -103.5q0 -9 1 -18q0 -46 -11 -93q-15 -79 -50 -149.5t-89 -131t-134 -101.5t-176 -53l273 -530h-252l-258 526h-162l-103 -526h-211zM539 711h276q141 0 222 68t104 186q7 35 7 66q0 69 -33 117 q-48 72 -150 71h-326z" />
<glyph unicode="S" horiz-adv-x="1173" d="M180 410h209q-3 -18 -3 -36q0 -72 54 -130q68 -72 195 -72q122 0 206.5 63.5t102.5 155.5q4 21 4 40q0 59 -40 98q-53 52 -148 77l-172 45q-69 18 -121.5 45t-83 59t-50 65.5t-25.5 70.5q-5 31 -4 58v9q1 30 7 64q24 120 107.5 214t198.5 142.5t241 48.5q195 1 302 -113 q80 -85 80 -212q0 -43 -9 -90h-209q5 24 5 46q-1 68 -45 115q-58 62 -167 62q-104 0 -189.5 -57.5t-103.5 -151.5q-3 -16 -3 -30q0 -111 161 -154l168 -45q174 -45 256 -145q60 -73 61 -174q0 -37 -8 -77q-34 -180 -191 -300.5t-368 -120.5q-146 0 -250 60q-105 60 -148 158 q-28 64 -28 135q0 37 8 77z" />
<glyph unicode="T" horiz-adv-x="1132" d="M279 1219l36 192h1051l-37 -192h-420l-237 -1219h-211l237 1219h-419z" />
<glyph unicode="U" horiz-adv-x="1388" d="M268 273q-12 48 -12 101.5t12 114.5l181 922h213l-181 -919q-8 -45 -9 -83q0 -31 6 -57q12 -58 48.5 -96t87.5 -56t115 -18q134 0 238 78.5t135 231.5l180 919h209l-180 -922q-46 -234 -223.5 -371.5t-397.5 -137.5q-106 0 -193.5 34t-146.5 99t-82 160z" />
<glyph unicode="V" horiz-adv-x="1148" d="M324 1411h217l100 -1061l514 1061h217l-698 -1411h-197z" />
<glyph unicode="W" horiz-adv-x="1849" d="M305 1411h225l132 -1067l419 875h162l76 -875l551 1067h225l-752 -1411h-178l-75 856l-404 -856h-178z" />
<glyph unicode="X" horiz-adv-x="1263" d="M14 0l639 758l-313 653h252l219 -483l410 483h252l-570 -653l346 -758h-250l-256 586l-479 -586h-250z" />
<glyph unicode="Y" horiz-adv-x="1302" d="M281 1411h249l283 -565l510 565h250l-690 -764l-127 -647h-211l127 647z" />
<glyph unicode="Z" horiz-adv-x="1171" d="M82 0l33 176l932 1043h-699l37 192h967l-35 -176l-938 -1042h733l-35 -193h-995z" />
<glyph unicode="[" horiz-adv-x="659" d="M109 -338l356 1813h422l-35 -170h-227l-287 -1473h227l-35 -170h-421z" />
<glyph unicode="\" horiz-adv-x="985" d="M326 1411h188l418 -1411h-189z" />
<glyph unicode="]" horiz-adv-x="659" d="M-4 -338l33 170h229l287 1473h-230l35 170h422l-356 -1813h-420z" />
<glyph unicode="^" horiz-adv-x="999" d="M199 616l479 795h192l168 -795h-202l-105 570l-330 -570h-202z" />
<glyph unicode="_" horiz-adv-x="1413" d="M74 -231l35 172h1171l-35 -172h-1171z" />
<glyph unicode="`" horiz-adv-x="1056" d="M547 1454h233l135 -321h-182z" />
<glyph unicode="a" horiz-adv-x="1245" d="M182 479q29 148 116 263t205.5 175t248.5 60q106 0 188 -41.5t113 -120.5l26 141h201l-184 -956h-201l25 143q-60 -78 -159.5 -120.5t-201.5 -42.5q-200 0 -310 138q-79 100 -79 243q0 56 12 118zM383 481q-7 -37 -7 -70q0 -88 50 -152q68 -89 192 -89q126 0 232 85.5 t133 225.5q7 35 7 66q0 92 -57 155q-76 84 -194 84q-125 0 -227.5 -86t-128.5 -219z" />
<glyph unicode="b" horiz-adv-x="1243" d="M150 0l286 1475h201l-129 -660q61 79 159.5 120.5t204.5 41.5q200 1 310 -137q79 -99 79 -242q0 -56 -12 -119q-29 -147 -116.5 -262.5t-207.5 -176t-249 -60.5q-102 0 -185 42.5t-114 120.5l-27 -143h-200zM444 481q-7 -37 -7 -71q0 -92 54 -154q74 -86 199 -86t228 89 t129 222q7 36 7 69q0 87 -50 150q-69 86 -195 86q-76 0 -151.5 -35t-135.5 -106.5t-78 -163.5z" />
<glyph unicode="c" horiz-adv-x="1044" d="M180 479q29 147 123 262t222.5 175.5t267.5 60.5q115 0 203 -43.5t139 -120.5l-158 -125q-74 100 -217 100q-136 0 -245.5 -87t-135.5 -222q-7 -35 -7 -66q0 -91 56 -156q76 -87 211 -87q145 0 256 100l109 -125q-80 -77 -184.5 -120t-219.5 -43q-103 0 -190 35.5 t-145.5 99t-82.5 157.5q-13 49 -13 103q0 49 11 102z" />
<glyph unicode="d" horiz-adv-x="1245" d="M182 479q29 148 116 263t205.5 175t248.5 60q106 0 188 -41.5t113 -120.5l129 660h200l-286 -1475h-201l25 143q-60 -78 -159.5 -120.5t-201.5 -42.5q-200 0 -310 138q-79 100 -79 243q0 56 12 118zM383 481q-7 -37 -7 -70q0 -88 50 -152q68 -89 192 -89q126 0 232 85.5 t133 225.5q7 35 7 66q0 92 -57 155q-76 84 -194 84q-125 0 -227.5 -86t-128.5 -219z" />
<glyph unicode="e" horiz-adv-x="1144" d="M180 481q29 148 118 262t212.5 174t259.5 60q101 0 182.5 -35t133.5 -100q50 -64 70 -155q9 -42 10 -88q0 -55 -13 -116q-14 -61 -20 -86h-762v-10q1 -107 65 -163q68 -58 187 -58q85 0 164.5 35t130.5 100l143 -80q-84 -117 -214.5 -179t-271.5 -62q-211 0 -325 139 q-82 101 -82 246q0 55 12 116zM406 559h563q1 10 1 19q0 96 -58 152q-63 60 -175 61q-114 0 -202 -58.5t-129 -173.5z" />
<glyph unicode="f" horiz-adv-x="692" d="M201 788l35 168h184l16 88q38 202 153 316.5t304 114.5h106l-36 -191h-70q-116 0 -174.5 -58t-77.5 -159l-20 -111h219l-35 -168h-219l-152 -788h-201l152 788h-184z" />
<glyph unicode="g" horiz-adv-x="1245" d="M88 -213l186 84q24 -75 91 -118.5t147 -43.5q335 0 408 418l2 12q-62 -75 -162.5 -117t-200.5 -42q-200 0 -310 138q-79 100 -79 243q0 56 12 118q29 148 116.5 263t206.5 175t249 60q104 0 185 -41.5t114 -118.5l28 139h201l-160 -813q-123 -620 -647 -620 q-137 0 -241 69t-146 195zM383 481q-7 -36 -7 -68q0 -88 51 -153q70 -90 194 -90q126 0 231.5 85.5t132.5 225.5q7 35 7 66q0 92 -58 155q-76 84 -195 84q-125 0 -227.5 -86t-128.5 -219z" />
<glyph unicode="h" d="M150 0l286 1475h201l-129 -664q54 81 154.5 123.5t189.5 42.5q182 1 261 -113q51 -73 51 -185q0 -60 -15 -132l-105 -547h-200l102 532q7 36 7 68q0 67 -33 112q-49 66 -144 66q-50 0 -99 -14.5t-96 -44.5t-82.5 -84t-49.5 -125l-99 -510h-200z" />
<glyph unicode="i" horiz-adv-x="501" d="M150 0l186 956h201l-187 -956h-200zM367 1305q10 55 57.5 92t103.5 37q57 0 90 -37q25 -28 26 -67q0 -12 -3 -25q-10 -55 -57 -92t-105 -37q-56 0 -89 37q-25 28 -25 67q0 12 2 25z" />
<glyph unicode="j" horiz-adv-x="518" d="M-205 -465l37 189h111q171 0 213 229l196 1003h201l-197 -1005q-37 -196 -143 -306t-291 -110h-127zM383 1305q10 55 58 92t104 37q59 0 91 -37q23 -28 23 -67q0 -12 -2 -25q-10 -55 -56 -92t-105 -37q-56 0 -90 37q-25 28 -25 68q0 11 2 24z" />
<glyph unicode="k" horiz-adv-x="1011" d="M150 0l286 1475h201l-164 -844l377 325h272l-485 -413l393 -543h-262l-330 455l-88 -455h-200z" />
<glyph unicode="l" horiz-adv-x="501" d="M150 0l286 1475h201l-287 -1475h-200z" />
<glyph unicode="m" horiz-adv-x="1796" d="M150 0l186 956h201l-31 -151q46 78 140 125t194 47q104 0 176.5 -51t95.5 -142q42 57 93.5 97.5t102 60t92 27.5t81.5 8q179 0 251 -112q47 -72 47 -183q0 -61 -14 -135l-106 -547h-203l103 532q8 41 8 75q-1 65 -29 109q-44 66 -141 66h-3q-100 0 -176 -64 q-78 -65 -108 -173l-104 -545h-203l102 535q8 42 8 77q-1 63 -27 105q-42 65 -132 65q-105 0 -191 -67t-112 -203l-101 -512h-200z" />
<glyph unicode="n" d="M150 0l186 956h201l-31 -147q55 81 156.5 124.5t189.5 43.5q182 1 261 -113q51 -73 51 -185q0 -60 -15 -132l-105 -547h-200l102 532q7 36 7 68q0 67 -33 112q-49 66 -144 66q-50 0 -99 -14.5t-96 -44.5t-82.5 -84t-49.5 -125l-99 -510h-200z" />
<glyph unicode="o" d="M180 274q-11 46 -12 97q0 52 12 110q29 147 120 261.5t216 174.5t262 60q102 0 187 -35.5t141 -98.5q58 -63 80 -157q11 -48 11 -99t-11 -106q-29 -147 -121 -263t-218.5 -177t-262.5 -61q-102 0 -186.5 35.5t-140 101t-77.5 157.5zM381 481q-7 -38 -8 -72 q-1 -89 51 -152q70 -87 196.5 -87t232 87t132.5 224q7 37 7 70q0 89 -52 151q-72 86 -198.5 86t-230 -86t-130.5 -221z" />
<glyph unicode="p" horiz-adv-x="1245" d="M57 -465l279 1421h201l-29 -143q60 78 161 121t203 43q199 0 310 -139q79 -99 79 -243q0 -56 -12 -118q-22 -112 -78 -206t-133 -157.5t-171 -98.5t-191 -35q-106 0 -187 41t-112 120l-119 -606h-201zM444 475q-7 -35 -7 -66q0 -92 57 -155q77 -84 196 -84 q126 0 228.5 86t128.5 219q7 37 7 70q0 88 -50 153q-69 90 -195 90q-125 0 -231.5 -86.5t-133.5 -226.5z" />
<glyph unicode="q" horiz-adv-x="1245" d="M182 477q29 148 116.5 263.5t207.5 176t250 60.5q102 0 185 -42.5t114 -121.5l26 143h201l-278 -1421h-201l119 606q-61 -79 -159 -120t-204 -41q-199 0 -309 137q-80 99 -80 242q0 56 12 118zM383 475q-7 -36 -7 -69q0 -87 50 -150q70 -86 195 -86q76 0 151 35 t135 106.5t78 163.5q7 38 7 72q0 91 -52 155q-73 86 -199 86q-124 0 -228 -89.5t-130 -223.5z" />
<glyph unicode="r" horiz-adv-x="804" d="M150 0l186 956h203l-43 -215q115 236 315 236q47 0 91 -10.5t65 -24.5l-70 -190q-65 32 -137 32q-127 0 -215.5 -119.5t-126.5 -320.5l-66 -344h-202z" />
<glyph unicode="s" horiz-adv-x="907" d="M135 291h187q-2 -13 -2 -24q0 -43 32 -76q40 -41 119 -41q82 0 136 33.5t65 88.5q2 10 2 20q0 69 -103 93l-120 31q-213 59 -213 221q0 28 6 59q24 119 135 200t258 81q64 0 119.5 -17t98.5 -50.5t62 -90.5q11 -33 11 -71q0 -28 -6 -58h-193q2 10 2 19q0 38 -30 65 q-37 33 -93 33q-62 0 -108.5 -33.5t-55.5 -83.5q-2 -9 -1 -18q1 -30 21 -50q28 -26 73 -38l139 -35q57 -14 98 -38t62 -53q20 -28 32 -61q10 -28 10 -55v-10q-2 -32 -6 -64q-27 -131 -153 -209.5t-281 -78.5q-91 0 -165 35q-75 35 -115 108q-29 51 -28 114q0 26 5 54z" />
<glyph unicode="t" horiz-adv-x="675" d="M209 788l35 168h172l69 359h201l-70 -359h205l-35 -168h-204l-152 -788h-201l152 788h-172z" />
<glyph unicode="u" d="M217 410l107 546h200l-104 -532q-7 -36 -7 -68q0 -67 33 -112q49 -66 144 -66q50 0 99 14.5t96.5 44t83 83.5t49.5 124l100 512h201l-187 -956h-201l29 145q-55 -80 -156 -122.5t-188 -42.5q-182 0 -261 113q-52 74 -52 188q0 59 14 129z" />
<glyph unicode="v" horiz-adv-x="1038" d="M211 956h215l141 -696l416 696h217l-586 -956h-190z" />
<glyph unicode="w" horiz-adv-x="1585" d="M209 956h217l102 -653l355 653h188l103 -653l354 653h217l-537 -956h-170l-114 686l-373 -686h-166z" />
<glyph unicode="x" horiz-adv-x="1019" d="M14 0l482 524l-230 432h244l133 -268l242 268h241l-397 -432l277 -524h-240l-186 358l-328 -358h-238z" />
<glyph unicode="y" horiz-adv-x="1032" d="M113 -465l305 506l-203 915h217l146 -665l403 665h217l-872 -1421h-213z" />
<glyph unicode="z" horiz-adv-x="1024" d="M82 0l33 164l665 602h-518l39 190h813l-33 -163l-682 -605h564l-35 -188h-846z" />
<glyph unicode="{" horiz-adv-x="784" d="M164 489l33 158q50 0 94 31.5t51 73.5l61 321q22 119 95.5 212t176 141.5t214.5 48.5h133l-33 -162h-80q-144 0 -220.5 -66.5t-98.5 -175.5l-60 -301q-11 -63 -57.5 -122.5t-110.5 -78.5q38 -11 62.5 -45.5t29.5 -75t-1 -81.5l-60 -301q-22 -108 29.5 -175t195.5 -67h80 l-32 -162h-134q-172 0 -266.5 110.5t-58.5 290.5l61 322q7 43 -23.5 73.5t-80.5 30.5z" />
<glyph unicode="|" horiz-adv-x="483" d="M127 -246l367 1876h131l-367 -1876h-131z" />
<glyph unicode="}" horiz-adv-x="784" d="M-14 -338l30 162h80q268 0 318 242l61 301q12 64 58.5 125t111.5 77q-59 19 -82.5 77.5t-11.5 123.5l61 301q22 108 -29.5 175t-195.5 67h-80l33 162h133q172 0 267 -111t59 -291l-62 -321q-9 -42 23 -73.5t82 -31.5l-33 -158q-50 0 -94 -31t-51 -73l-64 -322 q-21 -119 -94 -212t-175 -141t-214 -48h-131z" />
<glyph unicode="~" horiz-adv-x="1390" d="M248 571q68 68 163 116t187 48q41 0 81.5 -9t59 -16t57.5 -26.5t44 -21.5q11 -5 43 -21t52 -24.5t54.5 -16.5t69.5 -8q116 0 256 121l61 -109q-67 -70 -161 -118t-185 -48q-42 0 -82.5 9t-61 17t-58.5 26.5t-46 21.5q-12 5 -42.5 20.5t-51 24.5t-54.5 17t-69 8 q-124 0 -262 -123z" />
<glyph unicode="&#xa1;" horiz-adv-x="516" d="M63 -465l220 987h157l-172 -987h-205zM281 842q10 59 58.5 97t106.5 38q59 0 93 -38t24 -97q-10 -58 -60 -96.5t-110 -38.5q-57 0 -89.5 38.5t-22.5 96.5z" />
<glyph unicode="&#xa2;" horiz-adv-x="1058" d="M182 479q39 197 187.5 330t339.5 162l43 219h131l-43 -215q199 -15 299 -162l-158 -125q-74 100 -217 100q-136 0 -244.5 -87t-134.5 -222t48 -222t210 -87q145 0 256 100l111 -125q-159 -146 -363 -161l-45 -226h-131l45 230q-179 29 -275.5 162t-58.5 329z" />
<glyph unicode="&#xa3;" horiz-adv-x="1284" d="M90 0l35 186h188l66 332h-152l25 125h149l52 260q21 110 73 197t122 140.5t151 81.5t166 28q175 0 271 -117.5t58 -317.5h-200q22 115 -25.5 183.5t-153.5 68.5q-87 0 -161.5 -70.5t-98.5 -193.5l-51 -260h301l-24 -125h-299l-66 -332h457q61 0 74 68l20 106h203 l-23 -110q-23 -109 -91 -179.5t-165 -70.5h-901z" />
<glyph unicode="&#xa4;" horiz-adv-x="1208" d="M186 330l172 145q-44 99 -22 217q21 116 110 223l-116 146l139 117l117 -146q111 66 227 66q122 0 213 -66l172 146l94 -117l-174 -146q45 -102 23 -225q-20 -111 -107 -215l115 -145l-139 -117l-115 145q-118 -65 -236 -65q-123 0 -206 65l-172 -145zM518 694 q-17 -92 34.5 -156.5t143.5 -64.5q93 0 171.5 64.5t95.5 156.5t-36 158t-145 66t-169.5 -66t-94.5 -158z" />
<glyph unicode="&#xa5;" horiz-adv-x="1406" d="M272 221l27 133h363l30 164h-362l26 133h359l-383 760h250l282 -563l510 563h252l-688 -760h360l-26 -133h-365l-30 -164h364l-27 -133h-364l-41 -221h-215l41 221h-363z" />
<glyph unicode="&#xa6;" horiz-adv-x="491" d="M131 -246l154 793h131l-154 -793h-131zM342 836l156 794h131l-156 -794h-131z" />
<glyph unicode="&#xa7;" horiz-adv-x="1054" d="M131 27l193 53q12 -73 62.5 -113.5t121.5 -40.5q92 0 167 59.5t93 155.5l66 340q20 97 -33 155t-146 58q-60 0 -114 -20l41 194q66 17 112 17q170 0 266 -112t62 -292l-66 -340q-23 -119 -97.5 -212.5t-176.5 -142t-213 -48.5q-133 0 -226.5 77t-111.5 212zM254 664 l65 340q34 179 175.5 291t312.5 112q134 0 228 -77t112 -212l-193 -51q-15 72 -64.5 112t-119.5 40q-92 0 -167 -59.5t-93 -155.5l-68 -340q-20 -97 33 -155t146 -58q55 0 114 20l-37 -195q-57 -14 -114 -14q-171 0 -267.5 111t-62.5 291z" />
<glyph unicode="&#xa8;" horiz-adv-x="1150" d="M498 1292q10 53 55 89t100 36q53 0 84 -36t21 -89t-55 -88t-99 -35q-55 0 -85.5 35t-20.5 88zM895 1292q10 53 55.5 89t100.5 36t85.5 -36t20.5 -89t-55.5 -88t-100.5 -35t-85.5 35t-20.5 88z" />
<glyph unicode="&#xa9;" horiz-adv-x="1624" d="M231 702q38 197 165.5 363.5t311 264t379.5 97.5q147 0 269 -57.5t198.5 -155t107 -231.5t1.5 -281q-38 -196 -166 -362.5t-312 -263t-380 -96.5q-147 0 -268.5 57t-198 154t-106.5 230.5t-1 280.5zM356 702q-32 -162 19.5 -299.5t172.5 -217t283 -79.5q121 0 239.5 47 t212.5 127t161.5 190t91.5 232q32 162 -19.5 300t-172.5 218t-283 80q-121 0 -239.5 -47.5t-212.5 -127.5t-161.5 -190.5t-91.5 -232.5zM582 692q31 154 159 261.5t281 107.5q75 0 141 -36t113 -103l-117 -97q-74 95 -166 95q-94 0 -171.5 -66.5t-96.5 -161.5t33.5 -162 t146.5 -67q91 0 207 98l78 -100q-156 -137 -313 -137q-154 0 -240 108t-55 260z" />
<glyph unicode="&#xaa;" horiz-adv-x="1103" d="M244 424l28 143h760l-28 -143h-760zM334 1085q23 117 94 210t167 141.5t198 48.5q80 0 146.5 -34t94.5 -97l23 112h174l-150 -764h-174l23 115q-53 -63 -133.5 -97t-159.5 -34q-157 0 -247 111t-56 288zM510 1087q-20 -101 34 -170t150 -69q98 0 182.5 67.5t104.5 169.5 t-40 168t-155 66q-96 0 -176 -66.5t-100 -165.5z" />
<glyph unicode="&#xab;" horiz-adv-x="1005" d="M178 477l365 424h180l-365 -424l201 -424h-180zM543 477l364 424h180l-364 -424l201 -424h-181z" />
<glyph unicode="&#xac;" horiz-adv-x="1294" d="M246 551l35 188h999l-96 -501h-191l62 313h-809z" />
<glyph unicode="&#xad;" horiz-adv-x="983" d="M209 385l37 190h715l-37 -190h-715z" />
<glyph unicode="&#xae;" horiz-adv-x="1624" d="M231 702q38 197 165.5 363.5t311 264t379.5 97.5q147 0 269 -57.5t198.5 -155t107 -231.5t1.5 -281q-38 -196 -166 -362.5t-312 -263t-380 -96.5q-147 0 -268.5 57t-198 154t-106.5 230.5t-1 280.5zM356 702q-32 -162 19.5 -299.5t172.5 -217t283 -79.5q121 0 239.5 47 t212.5 127t161.5 190t91.5 232q32 162 -19.5 300t-172.5 218t-283 80q-121 0 -239.5 -47.5t-212.5 -127.5t-161.5 -190.5t-91.5 -232.5zM635 340l137 707h277q114 0 161.5 -64t28.5 -160q-20 -98 -69.5 -152t-133.5 -73l133 -258h-155l-129 248h-62l-49 -248h-139zM846 707 h127q53 0 86.5 32t42.5 74q8 41 -13 74t-73 33h-129z" />
<glyph unicode="&#xaf;" horiz-adv-x="1015" d="M479 1202l33 166h524l-32 -166h-525z" />
<glyph unicode="&#xb0;" horiz-adv-x="724" d="M315 1149q22 113 116 192.5t206 79.5q113 0 178 -80t43 -192t-117.5 -191t-208.5 -79q-112 0 -175.5 78.5t-41.5 191.5zM440 1149q-12 -60 22.5 -102.5t94.5 -42.5t112 42.5t64 102.5t-24.5 103.5t-96.5 43.5t-110 -43.5t-62 -103.5z" />
<glyph unicode="&#xb1;" horiz-adv-x="1077" d="M123 0l35 174h829l-35 -174h-829zM233 573l37 183h324l55 293h182l-55 -293h324l-37 -183h-324l-57 -297h-182l57 297h-324z" />
<glyph unicode="&#xb2;" horiz-adv-x="659" d="M279 1067l20 90l377 365q42 42 49 82q6 32 -16 53.5t-62 21.5q-87 0 -127 -108l-139 22q38 106 115.5 167t187.5 61q109 0 163 -61.5t34 -162.5q-17 -95 -111 -182l-225 -205h268l-29 -143h-505z" />
<glyph unicode="&#xb3;" horiz-adv-x="651" d="M279 1165l116 90q43 -59 123 -59q61 0 102 28t50 74q8 43 -20.5 71t-82.5 28h-69l22 110h33q60 0 99 29.5t44 71.5q4 34 -20.5 54.5t-67.5 20.5q-39 0 -78.5 -17t-66.5 -44l-57 100q130 99 251 99q103 0 160 -56.5t39 -150.5q-7 -44 -42.5 -82.5t-88.5 -63.5 q59 -23 85.5 -73t14.5 -117q-19 -98 -110 -159.5t-215 -61.5q-160 0 -221 108z" />
<glyph unicode="&#xb4;" horiz-adv-x="1056" d="M483 1133l260 321h232l-309 -321h-183z" />
<glyph unicode="&#xb5;" horiz-adv-x="1189" d="M109 -324l249 1280h201l-106 -546q-22 -108 15 -169t124 -61q105 0 193 64t114 194l102 518h201l-186 -956h-201l23 121q-50 -68 -134.5 -103.5t-162.5 -35.5q-121 0 -168 55l-70 -361h-194z" />
<glyph unicode="&#xb6;" horiz-adv-x="1345" d="M260 967q23 121 102 223t193 161.5t236 59.5h155l-297 -1524h-176l125 635q-175 11 -274 139.5t-64 305.5zM418 -387l31 160h204q49 0 79 31t38 77l299 1530h205q117 0 183.5 -82.5t43.5 -198.5l-35 -174h-172l33 170q8 43 -12 75t-60 32h-47l-260 -1339 q-21 -112 -101.5 -194.5t-189.5 -86.5h-239z" />
<glyph unicode="&#xb7;" horiz-adv-x="546" d="M231 514q10 58 59 96.5t107 38.5q59 0 93 -38.5t24 -96.5t-60 -96.5t-110 -38.5q-58 0 -90.5 38.5t-22.5 96.5z" />
<glyph unicode="&#xb8;" horiz-adv-x="1071" d="M289 -195h125q-9 -45 11 -72.5t56 -27.5q35 0 59.5 22t30.5 58q4 26 2 37l-43 244h119l49 -193q11 -45 2 -88q-19 -92 -86 -148.5t-155 -56.5q-96 0 -143 61.5t-27 163.5z" />
<glyph unicode="&#xb9;" horiz-adv-x="501" d="M356 1548l29 142l342 131h16l-147 -754h-154l107 551z" />
<glyph unicode="&#xba;" horiz-adv-x="1073" d="M238 424l28 143h760l-29 -143h-759zM340 1090q23 117 97 209t176 140t212 48q168 0 265 -110.5t63 -286.5q-36 -178 -175.5 -290t-307.5 -112q-110 0 -193.5 49t-122 142t-14.5 211zM516 1090q-21 -106 32.5 -173t151.5 -67q96 0 177 67t102 173q21 103 -34 168t-152 65 t-176.5 -64.5t-100.5 -168.5z" />
<glyph unicode="&#xbb;" horiz-adv-x="1005" d="M102 53l365 424l-199 424h181l198 -424l-364 -424h-181zM467 53l364 424l-198 424h180l199 -424l-365 -424h-180z" />
<glyph unicode="&#xbc;" horiz-adv-x="1552" d="M139 -20l1198 1392h144l-1194 -1392h-148zM264 1075l27 142l342 131h16l-145 -752h-154l107 549zM887 139l8 51l498 553h123l-91 -473h121l-26 -131h-121l-27 -139h-158l27 139h-354zM1110 270h158l45 236z" />
<glyph unicode="&#xbd;" horiz-adv-x="1529" d="M139 -20l1198 1392h144l-1194 -1392h-148zM264 1075l27 142l342 131h16l-145 -752h-154l107 549zM942 0l19 90l376 365q42 42 49 82q6 32 -15.5 53.5t-61.5 21.5q-86 0 -127 -108l-142 22q40 106 117 167t186 61q110 0 165.5 -62t35.5 -162q-17 -96 -110 -182l-228 -207 h269l-27 -141h-506z" />
<glyph unicode="&#xbe;" horiz-adv-x="1701" d="M186 692l117 90q43 -59 123 -59q61 0 102 28t50 74q8 45 -20 73t-81 28h-69l20 110h33q60 0 99 29.5t44 71.5q4 32 -20.5 52.5t-67.5 20.5q-84 0 -145 -61l-58 100q125 99 252 99q103 0 160 -56t39 -149q-9 -44 -44 -83.5t-87 -64.5q61 -23 87 -72.5t13 -117.5 q-19 -96 -110.5 -157.5t-214.5 -61.5q-160 0 -222 106zM289 -20l1198 1392h143l-1194 -1392h-147zM1036 139l8 51l500 553h123l-92 -473h121l-27 -131h-121l-26 -139h-158l27 139h-355zM1260 270h157l45 236z" />
<glyph unicode="&#xbf;" horiz-adv-x="956" d="M47 -80q26 142 129.5 244t239.5 143q78 24 118 54t52 94l18 80h184l-12 -82q-19 -128 -84 -197t-180 -109l-74 -24q-73 -24 -125 -76.5t-65 -122.5q-21 -100 26.5 -156.5t139.5 -56.5t171.5 64t106.5 176h191q-25 -129 -104.5 -228t-185.5 -149.5t-220 -50.5 q-173 0 -266.5 108.5t-59.5 288.5zM616 842q10 59 59 97t109 38q59 0 93 -38t24 -97q-10 -58 -60 -96.5t-110 -38.5q-59 0 -92 38.5t-23 96.5z" />
<glyph unicode="&#xc0;" horiz-adv-x="1294" d="M2 0l809 1411h225l258 -1411h-221l-65 356h-586l-199 -356h-221zM526 541h451l-107 608zM668 1874h233l135 -320h-182z" />
<glyph unicode="&#xc1;" horiz-adv-x="1294" d="M2 0l809 1411h225l258 -1411h-221l-65 356h-586l-199 -356h-221zM526 541h451l-107 608zM877 1554l260 320h231l-309 -320h-182z" />
<glyph unicode="&#xc2;" horiz-adv-x="1294" d="M2 0l809 1411h225l258 -1411h-221l-65 356h-586l-199 -356h-221zM526 541h451l-107 608zM623 1554l286 320h207l164 -320h-176l-121 179l-186 -179h-174z" />
<glyph unicode="&#xc3;" horiz-adv-x="1294" d="M2 0l809 1411h225l258 -1411h-221l-65 356h-586l-199 -356h-221zM526 541h451l-107 608zM682 1587q22 87 63 144t83 78.5t87 21.5q38 0 70 -21t55 -42t39 -21q22 0 43.5 19.5t30.5 64.5h129q-17 -66 -44.5 -114.5t-60 -74t-64.5 -37.5t-64 -12q-30 0 -55.5 13t-39.5 29 t-32 29t-35 13q-19 0 -42 -22t-34 -68h-129z" />
<glyph unicode="&#xc4;" horiz-adv-x="1294" d="M2 0l809 1411h225l258 -1411h-221l-65 356h-586l-199 -356h-221zM526 541h451l-107 608zM651 1702q9 52 54 87.5t100 35.5q53 0 84 -35.5t22 -87.5q-9 -53 -54 -89t-99 -36t-85 35.5t-22 89.5zM1049 1702q9 52 53.5 87.5t99.5 35.5q54 0 86 -35.5t23 -87.5 q-9 -53 -55 -89t-101 -36q-54 0 -84.5 35.5t-21.5 89.5z" />
<glyph unicode="&#xc5;" horiz-adv-x="1294" d="M2 0l809 1411h225l258 -1411h-221l-65 356h-586l-199 -356h-221zM526 541h451l-107 608zM770 1765q19 94 94.5 159t167.5 65q94 0 147.5 -65.5t34.5 -158.5q-19 -92 -96.5 -155.5t-171.5 -63.5q-92 0 -143.5 63.5t-32.5 155.5zM881 1765q-8 -45 17 -76.5t69 -31.5 q48 0 89 32t48 76q9 47 -19 80t-75 33q-44 0 -82 -33t-47 -80z" />
<glyph unicode="&#xc6;" horiz-adv-x="1875" d="M-41 0l1090 1411h976l-36 -192h-633l-84 -428h553l-37 -193h-553l-82 -405h653l-34 -193h-861l68 348h-512l-266 -348h-242zM618 545h398l131 669h-12z" />
<glyph unicode="&#xc7;" horiz-adv-x="1419" d="M221.5 484.5q-10.5 102.5 9.5 217.5q38 196 166 362.5t312.5 263.5t380.5 97q164 0 292 -67.5t201 -186.5l-180 -124q-52 86 -143 134t-207 48q-214 0 -391 -154t-220 -373q-28 -143 14.5 -263.5t146 -191.5t245.5 -71q115 0 225.5 48.5t196.5 133.5l131 -125 q-107 -107 -244.5 -173t-286.5 -78l27 -109q12 -50 4 -88q-19 -91 -87 -148t-157 -57q-96 0 -142.5 61.5t-27.5 163.5h125q-7 -45 12.5 -72.5t55.5 -27.5q35 0 59.5 22t30.5 58q4 26 2 37l-29 160q-107 10 -199 51.5t-158 107.5t-110 153.5t-54.5 190z" />
<glyph unicode="&#xc8;" horiz-adv-x="1159" d="M190 0l275 1411h846l-37 -192h-637l-84 -428h555l-39 -195h-555l-80 -403h656l-35 -193h-865zM602 1874h234l135 -320h-183z" />
<glyph unicode="&#xc9;" horiz-adv-x="1159" d="M190 0l275 1411h846l-37 -192h-637l-84 -428h555l-39 -195h-555l-80 -403h656l-35 -193h-865zM811 1554l260 320h232l-310 -320h-182z" />
<glyph unicode="&#xca;" horiz-adv-x="1159" d="M190 0l275 1411h846l-37 -192h-637l-84 -428h555l-39 -195h-555l-80 -403h656l-35 -193h-865zM557 1554l287 320h207l163 -320h-176l-120 179l-187 -179h-174z" />
<glyph unicode="&#xcb;" horiz-adv-x="1159" d="M190 0l275 1411h846l-37 -192h-637l-84 -428h555l-39 -195h-555l-80 -403h656l-35 -193h-865zM586 1702q9 52 53.5 87.5t99.5 35.5q53 0 84.5 -35.5t22.5 -87.5q-9 -53 -54.5 -89t-99.5 -36t-84.5 35.5t-21.5 89.5zM983 1702q9 52 54 87.5t100 35.5q54 0 85.5 -35.5 t22.5 -87.5q-9 -53 -54.5 -89t-100.5 -36q-54 0 -85 35.5t-22 89.5z" />
<glyph unicode="&#xcc;" horiz-adv-x="591" d="M190 0l275 1411h211l-275 -1411h-211zM313 1874h234l135 -320h-182z" />
<glyph unicode="&#xcd;" horiz-adv-x="591" d="M190 0l275 1411h211l-275 -1411h-211zM522 1554l260 320h232l-309 -320h-183z" />
<glyph unicode="&#xce;" horiz-adv-x="591" d="M190 0l275 1411h211l-275 -1411h-211zM268 1554l287 320h207l164 -320h-176l-121 179l-187 -179h-174z" />
<glyph unicode="&#xcf;" horiz-adv-x="591" d="M190 0l275 1411h211l-275 -1411h-211zM297 1702q9 52 54 87.5t100 35.5q53 0 84 -35.5t22 -87.5q-9 -53 -54.5 -89t-99.5 -36t-84.5 35.5t-21.5 89.5zM694 1702q9 52 54 87.5t100 35.5q54 0 85.5 -35.5t22.5 -87.5q-9 -53 -54.5 -89t-100.5 -36q-54 0 -85 35.5t-22 89.5z " />
<glyph unicode="&#xd0;" horiz-adv-x="1490" d="M170 629l31 153h151l121 629h551q196 0 324 -94t171.5 -253.5t4.5 -361.5q-29 -150 -98 -278t-167.5 -222.5t-230 -148t-278.5 -53.5h-551l123 629h-152zM446 193h340q204 0 344 142.5t183 366.5q23 108 11.5 202t-48.5 164t-111.5 110.5t-177.5 40.5h-340l-84 -437h324 l-31 -153h-324z" />
<glyph unicode="&#xd1;" horiz-adv-x="1406" d="M190 0l275 1411h205l411 -1020l199 1020h211l-274 -1411h-199l-418 1028l-199 -1028h-211zM735 1587q22 87 63.5 144t83.5 78.5t87 21.5q38 0 70 -21t55 -42t39 -21q21 0 42.5 19.5t30.5 64.5h129q-17 -66 -44.5 -114.5t-60 -74t-64.5 -37.5t-64 -12q-30 0 -55.5 13 t-39.5 29t-32 29t-35 13q-19 0 -42 -22t-34 -68h-129z" />
<glyph unicode="&#xd2;" horiz-adv-x="1622" d="M231 702q29 148 110.5 282t195 231t257 154.5t291.5 57.5q198 0 344 -97t208 -263.5t24 -364.5q-29 -147 -111 -280.5t-196 -230.5t-258.5 -154t-292.5 -57t-269 57t-197 154t-105.5 230.5t-0.5 280.5zM442 702q-28 -143 13.5 -263.5t143.5 -191.5t243 -71q142 0 272 71 t219 191.5t117 263.5q28 144 -14 265.5t-144.5 192.5t-244.5 71q-213 0 -387.5 -154.5t-217.5 -374.5zM829 1874h234l133 -320h-182z" />
<glyph unicode="&#xd3;" horiz-adv-x="1622" d="M231 702q29 148 110.5 282t195 231t257 154.5t291.5 57.5q198 0 344 -97t208 -263.5t24 -364.5q-29 -147 -111 -280.5t-196 -230.5t-258.5 -154t-292.5 -57t-269 57t-197 154t-105.5 230.5t-0.5 280.5zM442 702q-28 -143 13.5 -263.5t143.5 -191.5t243 -71q142 0 272 71 t219 191.5t117 263.5q28 144 -14 265.5t-144.5 192.5t-244.5 71q-213 0 -387.5 -154.5t-217.5 -374.5zM1036 1554l262 320h232l-311 -320h-183z" />
<glyph unicode="&#xd4;" horiz-adv-x="1622" d="M231 702q29 148 110.5 282t195 231t257 154.5t291.5 57.5q198 0 344 -97t208 -263.5t24 -364.5q-29 -147 -111 -280.5t-196 -230.5t-258.5 -154t-292.5 -57t-269 57t-197 154t-105.5 230.5t-0.5 280.5zM442 702q-28 -143 13.5 -263.5t143.5 -191.5t243 -71q142 0 272 71 t219 191.5t117 263.5q28 144 -14 265.5t-144.5 192.5t-244.5 71q-213 0 -387.5 -154.5t-217.5 -374.5zM782 1554l289 320h207l162 -320h-176l-119 179l-189 -179h-174z" />
<glyph unicode="&#xd5;" horiz-adv-x="1622" d="M231 702q29 148 110.5 282t195 231t257 154.5t291.5 57.5q198 0 344 -97t208 -263.5t24 -364.5q-29 -147 -111 -280.5t-196 -230.5t-258.5 -154t-292.5 -57t-269 57t-197 154t-105.5 230.5t-0.5 280.5zM442 702q-28 -143 13.5 -263.5t143.5 -191.5t243 -71q142 0 272 71 t219 191.5t117 263.5q28 144 -14 265.5t-144.5 192.5t-244.5 71q-213 0 -387.5 -154.5t-217.5 -374.5zM844 1587q31 127 96.5 185.5t136.5 58.5q38 0 70 -21t55 -42t39 -21q22 0 43.5 19.5t30.5 64.5h129q-17 -66 -44.5 -114.5t-60.5 -74t-65 -37.5t-64 -12q-38 0 -67.5 21 t-52.5 42t-43 21q-19 0 -42 -22t-32 -68h-129z" />
<glyph unicode="&#xd6;" horiz-adv-x="1622" d="M231 702q29 148 110.5 282t195 231t257 154.5t291.5 57.5q198 0 344 -97t208 -263.5t24 -364.5q-29 -147 -111 -280.5t-196 -230.5t-258.5 -154t-292.5 -57t-269 57t-197 154t-105.5 230.5t-0.5 280.5zM442 702q-28 -143 13.5 -263.5t143.5 -191.5t243 -71q142 0 272 71 t219 191.5t117 263.5q28 144 -14 265.5t-144.5 192.5t-244.5 71q-213 0 -387.5 -154.5t-217.5 -374.5zM811 1702q9 52 55 87.5t101 35.5q53 0 83 -35.5t21 -87.5q-9 -53 -54 -89t-99 -36t-85 35.5t-22 89.5zM1208 1702q9 52 55 87.5t101 35.5q54 0 84.5 -35.5t21.5 -87.5 q-9 -53 -54.5 -89t-100.5 -36q-54 0 -85 35.5t-22 89.5z" />
<glyph unicode="&#xd7;" horiz-adv-x="985" d="M170 303l301 250l-203 252l154 127l203 -250l305 254l100 -131l-301 -252l203 -250l-154 -133l-205 254l-299 -250z" />
<glyph unicode="&#xd8;" horiz-adv-x="1632" d="M119 70l194 166q-127 202 -75 466q29 148 110.5 282t195 231t257 154.5t291.5 57.5q257 0 424 -161l194 168l80 -95l-197 -170q61 -95 80.5 -213.5t-6.5 -253.5q-29 -147 -111 -280.5t-196 -230.5t-258.5 -154t-292.5 -57q-258 0 -420 159l-192 -166zM449 702 q-34 -174 36 -317l861 735q-114 111 -293 111q-213 0 -387 -154.5t-217 -374.5zM559 285q115 -109 289 -109q142 0 272 71t219 191.5t117 263.5q36 173 -37 320z" />
<glyph unicode="&#xd9;" horiz-adv-x="1388" d="M268 273q-23 95 0 216l181 922h213l-181 -919q-15 -81 -3 -139.5t48.5 -96.5t87.5 -56t115 -18q134 0 238 78.5t135 231.5l180 919h209l-180 -922q-46 -234 -223.5 -371.5t-397.5 -137.5q-106 0 -193.5 34t-146.5 99t-82 160zM713 1874h233l135 -320h-182z" />
<glyph unicode="&#xda;" horiz-adv-x="1388" d="M268 273q-23 95 0 216l181 922h213l-181 -919q-15 -81 -3 -139.5t48.5 -96.5t87.5 -56t115 -18q134 0 238 78.5t135 231.5l180 919h209l-180 -922q-46 -234 -223.5 -371.5t-397.5 -137.5q-106 0 -193.5 34t-146.5 99t-82 160zM922 1554l260 320h231l-309 -320h-182z" />
<glyph unicode="&#xdb;" horiz-adv-x="1388" d="M268 273q-23 95 0 216l181 922h213l-181 -919q-15 -81 -3 -139.5t48.5 -96.5t87.5 -56t115 -18q134 0 238 78.5t135 231.5l180 919h209l-180 -922q-46 -234 -223.5 -371.5t-397.5 -137.5q-106 0 -193.5 34t-146.5 99t-82 160zM668 1554l286 320h207l164 -320h-176 l-119 179l-188 -179h-174z" />
<glyph unicode="&#xdc;" horiz-adv-x="1388" d="M268 273q-23 95 0 216l181 922h213l-181 -919q-15 -81 -3 -139.5t48.5 -96.5t87.5 -56t115 -18q134 0 238 78.5t135 231.5l180 919h209l-180 -922q-46 -234 -223.5 -371.5t-397.5 -137.5q-106 0 -193.5 34t-146.5 99t-82 160zM696 1702q9 52 55 87.5t101 35.5 q53 0 83 -35.5t21 -87.5q-9 -53 -54 -89t-99 -36t-85 35.5t-22 89.5zM1094 1702q9 52 54.5 87.5t100.5 35.5q54 0 85 -35.5t22 -87.5q-9 -53 -55 -89t-101 -36q-54 0 -84.5 35.5t-21.5 89.5z" />
<glyph unicode="&#xdd;" horiz-adv-x="1302" d="M281 1411h249l283 -565l510 565h250l-690 -764l-127 -647h-211l127 647zM877 1554l260 320h231l-309 -320h-182z" />
<glyph unicode="&#xde;" horiz-adv-x="1206" d="M190 0l275 1411h211l-51 -262h280q188 0 289.5 -121t62.5 -317q-39 -199 -187.5 -323t-336.5 -124h-280l-52 -264h-211zM489 457h281q99 0 180 72t103 182q21 111 -37 178t-162 67h-266z" />
<glyph unicode="&#xdf;" horiz-adv-x="1196" d="M150 0l196 1016q45 229 184.5 350t335.5 121q181 0 273 -96.5t61 -253.5q-19 -92 -76 -170t-135 -121q119 -44 176.5 -152.5t28.5 -255.5q-40 -203 -202 -330.5t-380 -127.5q-34 -2 -84 6.5t-88 21.5l76 176q65 -20 139 -20q125 0 220 80t120 207q25 126 -45 205t-200 79 h-76l31 170h55q86 0 152 58.5t83 148.5q17 88 -27.5 136t-138.5 48q-105 0 -179.5 -68.5t-102.5 -211.5l-197 -1016h-200z" />
<glyph unicode="&#xe0;" horiz-adv-x="1245" d="M182 479q29 148 116 263t205.5 175t248.5 60q106 0 188 -41.5t113 -120.5l26 141h201l-184 -956h-201l25 143q-60 -78 -159.5 -120.5t-201.5 -42.5q-200 0 -310 138.5t-67 360.5zM383 481q-26 -133 42.5 -222t192.5 -89q126 0 232 85.5t133 225.5q26 137 -50 221t-194 84 q-125 0 -227.5 -86t-128.5 -219zM549 1419h233l136 -319h-183z" />
<glyph unicode="&#xe1;" horiz-adv-x="1245" d="M182 479q29 148 116 263t205.5 175t248.5 60q106 0 188 -41.5t113 -120.5l26 141h201l-184 -956h-201l25 143q-60 -78 -159.5 -120.5t-201.5 -42.5q-200 0 -310 138.5t-67 360.5zM383 481q-26 -133 42.5 -222t192.5 -89q126 0 232 85.5t133 225.5q26 137 -50 221t-194 84 q-125 0 -227.5 -86t-128.5 -219zM758 1100l260 319h231l-309 -319h-182z" />
<glyph unicode="&#xe2;" horiz-adv-x="1245" d="M182 479q29 148 116 263t205.5 175t248.5 60q106 0 188 -41.5t113 -120.5l26 141h201l-184 -956h-201l25 143q-60 -78 -159.5 -120.5t-201.5 -42.5q-200 0 -310 138.5t-67 360.5zM383 481q-26 -133 42.5 -222t192.5 -89q126 0 232 85.5t133 225.5q26 137 -50 221t-194 84 q-125 0 -227.5 -86t-128.5 -219zM504 1100l287 319h206l164 -319h-176l-119 178l-188 -178h-174z" />
<glyph unicode="&#xe3;" horiz-adv-x="1245" d="M182 479q29 148 116 263t205.5 175t248.5 60q106 0 188 -41.5t113 -120.5l26 141h201l-184 -956h-201l25 143q-60 -78 -159.5 -120.5t-201.5 -42.5q-200 0 -310 138.5t-67 360.5zM383 481q-26 -133 42.5 -222t192.5 -89q126 0 232 85.5t133 225.5q26 137 -50 221t-194 84 q-125 0 -227.5 -86t-128.5 -219zM565 1133q31 127 96 185t136 58q38 0 70 -21t55 -42t39 -21q21 0 42.5 19.5t30.5 64.5h129q-17 -66 -44 -114t-59.5 -74t-64 -37.5t-63.5 -11.5q-30 0 -56 13t-41 29t-33.5 29t-35.5 13q-19 0 -41 -22t-31 -68h-129z" />
<glyph unicode="&#xe4;" horiz-adv-x="1245" d="M182 479q29 148 116 263t205.5 175t248.5 60q106 0 188 -41.5t113 -120.5l26 141h201l-184 -956h-201l25 143q-60 -78 -159.5 -120.5t-201.5 -42.5q-200 0 -310 138.5t-67 360.5zM383 481q-26 -133 42.5 -222t192.5 -89q126 0 232 85.5t133 225.5q26 137 -50 221t-194 84 q-125 0 -227.5 -86t-128.5 -219zM532 1247q9 52 55 87.5t101 35.5q53 0 83.5 -35.5t21.5 -87.5q-9 -53 -54.5 -89t-99.5 -36t-85 35.5t-22 89.5zM930 1247q9 52 54.5 87.5t100.5 35.5q54 0 85 -35.5t22 -87.5q-9 -53 -55 -89t-101 -36q-54 0 -84.5 35.5t-21.5 89.5z" />
<glyph unicode="&#xe5;" horiz-adv-x="1245" d="M182 479q29 148 116 263t205.5 175t248.5 60q106 0 188 -41.5t113 -120.5l26 141h201l-184 -956h-201l25 143q-60 -78 -159.5 -120.5t-201.5 -42.5q-200 0 -310 138.5t-67 360.5zM383 481q-26 -133 42.5 -222t192.5 -89q126 0 232 85.5t133 225.5q26 137 -50 221t-194 84 q-125 0 -227.5 -86t-128.5 -219zM651 1311q19 94 94.5 158.5t167.5 64.5q94 0 148 -65t35 -158q-19 -92 -97 -155.5t-172 -63.5q-92 0 -143.5 63.5t-32.5 155.5zM762 1311q-9 -44 16.5 -76.5t69.5 -32.5q47 0 87.5 32.5t49.5 76.5q9 47 -18.5 79.5t-75.5 32.5 q-45 0 -82.5 -32.5t-46.5 -79.5z" />
<glyph unicode="&#xe6;" horiz-adv-x="1820" d="M127 274q27 134 144 219t298 85t293 -70l12 63q21 103 -30.5 162.5t-165.5 59.5q-74 0 -156.5 -29.5t-142.5 -85.5l-100 117q65 71 151.5 114t153.5 55.5t135 12.5q257 0 334 -150q173 150 393 150q208 0 318 -136t67 -358q-3 -15 -11.5 -45t-11.5 -41h-759 q1 -106 69.5 -168.5t179.5 -62.5q85 0 164.5 35t130.5 100l144 -80q-84 -117 -214.5 -179t-271.5 -62q-126 0 -221 52.5t-141 147.5q-218 -200 -459 -200q-160 0 -244.5 79.5t-58.5 214.5zM322 281q-11 -55 27 -91t118 -36q85 0 197.5 50t175.5 124l-6 28q-56 36 -131.5 53 t-139.5 17q-61 0 -108 -14t-73.5 -37.5t-40.5 -46.5t-19 -47zM1083 559h562q6 111 -57 171.5t-175 60.5q-123 0 -206.5 -62t-123.5 -170z" />
<glyph unicode="&#xe7;" horiz-adv-x="1044" d="M180 479q29 147 123 262t222.5 175.5t267.5 60.5q115 0 203 -43.5t139 -120.5l-158 -125q-74 100 -217 100q-135 0 -244 -87t-135 -222t48.5 -222t209.5 -87q145 0 256 100l109 -125q-129 -126 -310 -155l31 -117q11 -45 2 -88q-19 -92 -86.5 -148.5t-155.5 -56.5 q-96 0 -143 61.5t-27 163.5h125q-7 -45 12.5 -72.5t55.5 -27.5q35 0 59.5 22t30.5 58q4 26 2 37l-29 160q-202 9 -317 146.5t-74 350.5z" />
<glyph unicode="&#xe8;" horiz-adv-x="1144" d="M180 481q29 148 118 262t212.5 174t259.5 60q101 0 182.5 -35t133 -99.5t71 -155.5t-3.5 -204q-14 -61 -20 -86h-762q-3 -114 64.5 -172.5t187.5 -58.5q85 0 164.5 35t130.5 100l143 -80q-84 -117 -214.5 -179t-271.5 -62q-211 0 -324.5 139t-70.5 362zM406 559h563 q6 111 -57 171.5t-175 60.5q-114 0 -202 -58.5t-129 -173.5zM498 1419h233l135 -319h-182z" />
<glyph unicode="&#xe9;" horiz-adv-x="1144" d="M180 481q29 148 118 262t212.5 174t259.5 60q101 0 182.5 -35t133 -99.5t71 -155.5t-3.5 -204q-14 -61 -20 -86h-762q-3 -114 64.5 -172.5t187.5 -58.5q85 0 164.5 35t130.5 100l143 -80q-84 -117 -214.5 -179t-271.5 -62q-211 0 -324.5 139t-70.5 362zM406 559h563 q6 111 -57 171.5t-175 60.5q-114 0 -202 -58.5t-129 -173.5zM707 1100l260 319h231l-309 -319h-182z" />
<glyph unicode="&#xea;" horiz-adv-x="1144" d="M180 481q29 148 118 262t212.5 174t259.5 60q101 0 182.5 -35t133 -99.5t71 -155.5t-3.5 -204q-14 -61 -20 -86h-762q-3 -114 64.5 -172.5t187.5 -58.5q85 0 164.5 35t130.5 100l143 -80q-84 -117 -214.5 -179t-271.5 -62q-211 0 -324.5 139t-70.5 362zM406 559h563 q6 111 -57 171.5t-175 60.5q-114 0 -202 -58.5t-129 -173.5zM453 1100l286 319h207l164 -319h-176l-119 178l-188 -178h-174z" />
<glyph unicode="&#xeb;" horiz-adv-x="1144" d="M180 481q29 148 118 262t212.5 174t259.5 60q101 0 182.5 -35t133 -99.5t71 -155.5t-3.5 -204q-14 -61 -20 -86h-762q-3 -114 64.5 -172.5t187.5 -58.5q85 0 164.5 35t130.5 100l143 -80q-84 -117 -214.5 -179t-271.5 -62q-211 0 -324.5 139t-70.5 362zM406 559h563 q6 111 -57 171.5t-175 60.5q-114 0 -202 -58.5t-129 -173.5zM481 1247q9 52 55 87.5t101 35.5q53 0 83 -35.5t21 -87.5q-9 -53 -54 -89t-99 -36t-85 35.5t-22 89.5zM879 1247q9 52 54.5 87.5t100.5 35.5q54 0 85 -35.5t22 -87.5q-9 -53 -55 -89t-101 -36q-54 0 -84.5 35.5 t-21.5 89.5z" />
<glyph unicode="&#xec;" horiz-adv-x="501" d="M150 0l186 956h201l-187 -956h-200zM186 1454h234l133 -321h-182z" />
<glyph unicode="&#xed;" horiz-adv-x="501" d="M150 0l186 956h201l-187 -956h-200zM365 1133l262 321h231l-311 -321h-182z" />
<glyph unicode="&#xee;" horiz-adv-x="501" d="M141 1133l287 321h207l164 -321h-176l-119 180l-189 -180h-174zM150 0l186 956h201l-187 -956h-200z" />
<glyph unicode="&#xef;" horiz-adv-x="501" d="M150 0l186 956h201l-187 -956h-200zM174 1292q10 53 55.5 89t100.5 36q53 0 83.5 -36t20.5 -89t-55 -88t-98 -35q-55 0 -86 35t-21 88zM571 1292q10 53 55.5 89t100.5 36t86 -36t21 -89t-55.5 -88t-100.5 -35t-86 35t-21 88z" />
<glyph unicode="&#xf0;" horiz-adv-x="1179" d="M177.5 274.5q-22.5 92.5 0.5 206.5q42 218 214 354t382 136q35 0 53 -2l-108 196l-264 -98l-21 98l238 88l-121 222h227l78 -150l205 76l22 -98l-178 -68l234 -438q80 -133 43 -316q-29 -147 -120.5 -263t-217.5 -177t-262 -61q-102 0 -186.5 35.5t-140 101t-78 158z M379 481q-27 -135 44 -223t195 -88q125 0 229.5 87.5t131.5 223.5q26 134 -44 218.5t-196 84.5q-125 0 -229.5 -85t-130.5 -218z" />
<glyph unicode="&#xf1;" d="M150 0l186 956h201l-31 -147q55 81 156.5 124.5t189.5 43.5q182 0 261 -113.5t36 -316.5l-105 -547h-200l102 532q23 114 -26 180t-144 66q-50 0 -99 -14.5t-96 -44.5t-82.5 -84t-49.5 -125l-99 -510h-200zM537 1133q17 66 44 115t59 76t63.5 39.5t64.5 12.5 q38 0 70.5 -21t56 -42t39.5 -21q22 0 43 20t29 64h129q-31 -126 -96 -181.5t-136 -55.5q-30 0 -55.5 13t-40.5 29t-33 29t-35 13q-19 0 -40.5 -22t-32.5 -68h-129z" />
<glyph unicode="&#xf2;" d="M179.5 274.5q-22.5 92.5 0.5 206.5q29 147 120 261.5t216 174.5t262 60q102 0 187 -35.5t141.5 -98.5t79 -157t0.5 -205q-29 -147 -121 -263t-218.5 -177t-262.5 -61q-102 0 -186.5 35.5t-140 101t-78 158zM381 481q-27 -137 43.5 -224t196.5 -87t231.5 87t132.5 224 q27 135 -45.5 221t-198.5 86t-229.5 -86t-130.5 -221zM520 1419h234l135 -319h-182z" />
<glyph unicode="&#xf3;" d="M179.5 274.5q-22.5 92.5 0.5 206.5q29 147 120 261.5t216 174.5t262 60q102 0 187 -35.5t141.5 -98.5t79 -157t0.5 -205q-29 -147 -121 -263t-218.5 -177t-262.5 -61q-102 0 -186.5 35.5t-140 101t-78 158zM381 481q-27 -137 43.5 -224t196.5 -87t231.5 87t132.5 224 q27 135 -45.5 221t-198.5 86t-229.5 -86t-130.5 -221zM729 1100l260 319h232l-310 -319h-182z" />
<glyph unicode="&#xf4;" d="M179.5 274.5q-22.5 92.5 0.5 206.5q29 147 120 261.5t216 174.5t262 60q102 0 187 -35.5t141.5 -98.5t79 -157t0.5 -205q-29 -147 -121 -263t-218.5 -177t-262.5 -61q-102 0 -186.5 35.5t-140 101t-78 158zM381 481q-27 -137 43.5 -224t196.5 -87t231.5 87t132.5 224 q27 135 -45.5 221t-198.5 86t-229.5 -86t-130.5 -221zM475 1100l287 319h207l164 -319h-177l-118 178l-189 -178h-174z" />
<glyph unicode="&#xf5;" d="M179.5 274.5q-22.5 92.5 0.5 206.5q29 147 120 261.5t216 174.5t262 60q102 0 187 -35.5t141.5 -98.5t79 -157t0.5 -205q-29 -147 -121 -263t-218.5 -177t-262.5 -61q-102 0 -186.5 35.5t-140 101t-78 158zM381 481q-27 -137 43.5 -224t196.5 -87t231.5 87t132.5 224 q27 135 -45.5 221t-198.5 86t-229.5 -86t-130.5 -221zM537 1133q31 127 95.5 185t135.5 58q38 0 70.5 -21t56 -42t39.5 -21q21 0 42 19.5t30 64.5h129q-22 -87 -63.5 -142.5t-83 -75t-85.5 -19.5q-30 0 -56 13t-41 29t-33.5 29t-35.5 13q-19 0 -40.5 -22t-30.5 -68h-129z " />
<glyph unicode="&#xf6;" d="M179.5 274.5q-22.5 92.5 0.5 206.5q29 147 120 261.5t216 174.5t262 60q102 0 187 -35.5t141.5 -98.5t79 -157t0.5 -205q-29 -147 -121 -263t-218.5 -177t-262.5 -61q-102 0 -186.5 35.5t-140 101t-78 158zM381 481q-27 -137 43.5 -224t196.5 -87t231.5 87t132.5 224 q27 135 -45.5 221t-198.5 86t-229.5 -86t-130.5 -221zM504 1247q9 52 54.5 87.5t100.5 35.5q53 0 83.5 -35.5t21.5 -87.5q-9 -53 -54.5 -89t-99.5 -36t-84.5 35.5t-21.5 89.5zM901 1247q9 52 55 87.5t101 35.5q54 0 84.5 -35.5t21.5 -87.5q-9 -53 -54.5 -89t-100.5 -36 q-54 0 -85 35.5t-22 89.5z" />
<glyph unicode="&#xf7;" horiz-adv-x="1077" d="M188 438l33 176h869l-33 -176h-869zM432 180q10 57 58.5 95t105.5 38q59 0 92 -37.5t23 -95.5q-10 -56 -59.5 -94.5t-108.5 -38.5q-56 0 -88.5 38.5t-22.5 94.5zM569 877q10 57 57.5 95t104.5 38q59 0 93 -37.5t24 -95.5q-10 -56 -59.5 -95t-108.5 -39q-56 0 -88.5 39 t-22.5 95z" />
<glyph unicode="&#xf8;" horiz-adv-x="1187" d="M92 45l137 117q-83 137 -47 319q29 147 121 261.5t218 174.5t263 60q172 0 289 -94l121 102l78 -92l-121 -105q75 -128 39 -307q-29 -147 -120.5 -263t-217.5 -177t-262 -61q-165 0 -279 90l-141 -119zM385 481q-19 -93 14 -174l506 432q-68 49 -157 49q-126 0 -231 -86 t-132 -221zM479 213q62 -43 148 -43q126 0 229.5 87t130.5 224q17 88 -8 162z" />
<glyph unicode="&#xf9;" d="M217 410l107 546h200l-104 -532q-23 -114 26 -180t144 -66q50 0 99 14.5t96.5 44t83 83.5t49.5 124l100 512h201l-187 -956h-201l29 145q-55 -80 -156 -122.5t-188 -42.5q-182 0 -261 113t-38 317zM522 1419h234l135 -319h-182z" />
<glyph unicode="&#xfa;" d="M217 410l107 546h200l-104 -532q-23 -114 26 -180t144 -66q50 0 99 14.5t96.5 44t83 83.5t49.5 124l100 512h201l-187 -956h-201l29 145q-55 -80 -156 -122.5t-188 -42.5q-182 0 -261 113t-38 317zM731 1100l260 319h232l-310 -319h-182z" />
<glyph unicode="&#xfb;" d="M217 410l107 546h200l-104 -532q-23 -114 26 -180t144 -66q50 0 99 14.5t96.5 44t83 83.5t49.5 124l100 512h201l-187 -956h-201l29 145q-55 -80 -156 -122.5t-188 -42.5q-182 0 -261 113t-38 317zM477 1100l287 319h207l164 -319h-177l-120 178l-187 -178h-174z" />
<glyph unicode="&#xfc;" d="M217 410l107 546h200l-104 -532q-23 -114 26 -180t144 -66q50 0 99 14.5t96.5 44t83 83.5t49.5 124l100 512h201l-187 -956h-201l29 145q-55 -80 -156 -122.5t-188 -42.5q-182 0 -261 113t-38 317zM506 1247q9 52 53.5 87.5t99.5 35.5q53 0 84.5 -35.5t22.5 -87.5 q-9 -53 -54.5 -89t-99.5 -36t-84.5 35.5t-21.5 89.5zM903 1247q9 52 54 87.5t100 35.5q54 0 85.5 -35.5t22.5 -87.5q-9 -53 -54.5 -89t-100.5 -36q-54 0 -85 35.5t-22 89.5z" />
<glyph unicode="&#xfd;" horiz-adv-x="1032" d="M113 -465l305 506l-203 915h217l146 -665l403 665h217l-872 -1421h-213zM659 1100l261 319h231l-309 -319h-183z" />
<glyph unicode="&#xfe;" horiz-adv-x="1243" d="M57 -465l379 1940h201l-129 -660q61 79 159.5 120.5t204.5 41.5q200 0 310 -137.5t67 -360.5q-29 -147 -116.5 -262.5t-207.5 -176t-249 -60.5q-102 0 -185 42.5t-114 120.5l-119 -608h-201zM444 481q-27 -140 47 -225.5t199 -85.5t228 89t129 222t-43 219t-195 86 q-76 0 -151.5 -35t-135.5 -106.5t-78 -163.5z" />
<glyph unicode="&#xff;" horiz-adv-x="1032" d="M113 -465l305 506l-203 915h217l146 -665l403 665h217l-872 -1421h-213zM432 1247q9 52 55 87.5t101 35.5q53 0 83 -35.5t21 -87.5q-9 -53 -54 -89t-99 -36t-85 35.5t-22 89.5zM829 1247q9 52 55 87.5t101 35.5q54 0 85 -35.5t22 -87.5q-9 -53 -55 -89t-101 -36 q-54 0 -85 35.5t-22 89.5z" />
<glyph unicode="&#x152;" horiz-adv-x="2287" d="M231 702q29 148 110.5 282t195 231t257 154.5t291.5 57.5q150 0 270.5 -57.5t196.5 -161.5l41 203h846l-39 -192h-637l-82 -428h557l-38 -195h-558l-79 -403h657l-35 -193h-866l37 199q-115 -104 -258.5 -161.5t-294.5 -57.5q-148 0 -269 57t-197 154t-105.5 230.5 t-0.5 280.5zM442 702q-28 -143 13.5 -263.5t143.5 -191.5t243 -71q142 0 272 71t219 191.5t117 263.5q28 144 -14 265.5t-144.5 192.5t-244.5 71q-213 0 -387.5 -154.5t-217.5 -374.5z" />
<glyph unicode="&#x153;" horiz-adv-x="1949" d="M179.5 274.5q-22.5 92.5 0.5 206.5q29 147 120 261.5t216 174.5t262 60q122 0 217.5 -48.5t149.5 -137.5q87 90 198 138t232 48q101 0 182.5 -35t133 -99.5t71 -155.5t-3.5 -204q-7 -33 -21 -86h-759q-4 -113 62 -172t185 -59q87 0 166.5 35t130.5 100l144 -80 q-84 -117 -214.5 -179t-271.5 -62q-122 0 -214 50t-144 140q-88 -91 -202.5 -140.5t-235.5 -49.5q-102 0 -186.5 35.5t-140 101t-78 158zM381 481q-27 -137 43.5 -224t196.5 -87t231.5 87t132.5 224q27 135 -45.5 221t-198.5 86t-229.5 -86t-130.5 -221zM1210 559h564 q4 111 -58.5 171.5t-173.5 60.5q-113 0 -202 -58.5t-130 -173.5z" />
<glyph unicode="&#x178;" horiz-adv-x="1302" d="M281 1411h249l283 -565l510 565h250l-690 -764l-127 -647h-211l127 647zM651 1702q9 52 54 87.5t100 35.5q53 0 84 -35.5t22 -87.5q-9 -53 -54 -89t-99 -36t-85 35.5t-22 89.5zM1049 1702q9 52 53.5 87.5t99.5 35.5q54 0 86 -35.5t23 -87.5q-9 -53 -55 -89t-101 -36 q-54 0 -84.5 35.5t-21.5 89.5z" />
<glyph unicode="&#x2c6;" horiz-adv-x="1087" d="M434 1133l287 321h207l164 -321h-177l-118 180l-189 -180h-174z" />
<glyph unicode="&#x2dc;" horiz-adv-x="878" d="M389 1165q22 87 63.5 143.5t83.5 77.5t87 21q30 0 57 -13t42.5 -29t33 -29t30.5 -13q21 0 42 19.5t32 64.5h129q-22 -86 -64 -141.5t-83.5 -75t-85.5 -19.5q-30 0 -55.5 13t-40.5 29t-33 29t-35 13q-19 0 -42 -22t-32 -68h-129z" />
<glyph unicode="&#x2000;" horiz-adv-x="994" />
<glyph unicode="&#x2001;" horiz-adv-x="1989" />
<glyph unicode="&#x2002;" horiz-adv-x="994" />
<glyph unicode="&#x2003;" horiz-adv-x="1989" />
<glyph unicode="&#x2004;" horiz-adv-x="663" />
<glyph unicode="&#x2005;" horiz-adv-x="497" />
<glyph unicode="&#x2006;" horiz-adv-x="331" />
<glyph unicode="&#x2007;" horiz-adv-x="331" />
<glyph unicode="&#x2008;" horiz-adv-x="248" />
<glyph unicode="&#x2009;" horiz-adv-x="397" />
<glyph unicode="&#x200a;" horiz-adv-x="110" />
<glyph unicode="&#x2010;" horiz-adv-x="983" d="M209 385l37 190h715l-37 -190h-715z" />
<glyph unicode="&#x2011;" horiz-adv-x="983" d="M209 385l37 190h715l-37 -190h-715z" />
<glyph unicode="&#x2012;" horiz-adv-x="983" d="M209 385l37 190h715l-37 -190h-715z" />
<glyph unicode="&#x2013;" horiz-adv-x="1226" d="M215 393l35 174h948l-35 -174h-948z" />
<glyph unicode="&#x2014;" horiz-adv-x="1650" d="M215 393l35 174h1372l-35 -174h-1372z" />
<glyph unicode="&#x2018;" horiz-adv-x="499" d="M285 885q18 178 109.5 334t230.5 256l102 -45q-123 -137 -184.5 -255t-77.5 -290h-180z" />
<glyph unicode="&#x2019;" horiz-adv-x="495" d="M250 924q125 136 185.5 253.5t76.5 290.5h180q-18 -177 -109.5 -333t-228.5 -254z" />
<glyph unicode="&#x201a;" horiz-adv-x="477" d="M-53 -254q122 136 182 253t76 290h180q-17 -177 -108 -332.5t-230 -255.5z" />
<glyph unicode="&#x201c;" horiz-adv-x="808" d="M285 885q18 178 109.5 334t230.5 256l102 -45q-123 -137 -184.5 -255t-77.5 -290h-180zM594 885q18 179 110 334.5t232 255.5l100 -45q-122 -136 -183 -254.5t-79 -290.5h-180z" />
<glyph unicode="&#x201d;" horiz-adv-x="806" d="M250 924q125 136 185.5 253.5t76.5 290.5h180q-18 -177 -109.5 -333t-228.5 -254zM561 924q82 91 130.5 162t84 167t47.5 215h181q-20 -178 -111 -333.5t-229 -253.5z" />
<glyph unicode="&#x201e;" horiz-adv-x="786" d="M-53 -254q122 136 182 253t76 290h180q-17 -177 -108 -332.5t-230 -255.5zM254 -254q125 136 185.5 253.5t74.5 289.5h182q-18 -177 -109.5 -332.5t-230.5 -255.5z" />
<glyph unicode="&#x2022;" horiz-adv-x="919" d="M244 489q24 126 131.5 210.5t236.5 84.5q128 0 202 -84.5t50 -210.5q-26 -127 -133 -211.5t-235 -84.5q-130 0 -204 84.5t-48 211.5z" />
<glyph unicode="&#x2026;" horiz-adv-x="1482" d="M135 117q12 58 60 95.5t106 37.5q60 0 95.5 -38t23.5 -95q-12 -59 -62 -98t-110 -39q-58 0 -91.5 39t-21.5 98zM623 117q12 58 58.5 95.5t104.5 37.5q60 0 95.5 -38t23.5 -95q-12 -59 -62 -98t-110 -39q-58 0 -90 39t-20 98zM1108 117q12 58 59.5 95.5t106.5 37.5 q60 0 95.5 -38t23.5 -95q-12 -59 -62 -98t-110 -39q-59 0 -92 39t-21 98z" />
<glyph unicode="&#x202f;" horiz-adv-x="397" />
<glyph unicode="&#x2039;" horiz-adv-x="641" d="M178 477l365 424h180l-365 -424l201 -424h-180z" />
<glyph unicode="&#x203a;" horiz-adv-x="641" d="M102 53l365 424l-199 424h181l198 -424l-364 -424h-181z" />
<glyph unicode="&#x205f;" horiz-adv-x="497" />
<glyph unicode="&#x20ac;" horiz-adv-x="1570" d="M174 500l23 114h962l-22 -114h-533q23 -143 123 -234.5t254 -91.5q105 0 214.5 47.5t203.5 130.5l117 -131q-124 -112 -273.5 -175.5t-300.5 -63.5q-241 0 -390.5 144.5t-164.5 373.5h-213zM217 719l23 115h213q107 229 311.5 372.5t445.5 143.5q151 0 275 -62.5 t205 -173.5l-170 -133q-61 81 -152.5 128.5t-196.5 47.5q-154 0 -288.5 -90t-212.5 -233h532l-22 -115h-963z" />
<glyph unicode="&#x2122;" horiz-adv-x="1935" d="M315 1253l31 158h639l-31 -158h-231l-135 -688h-180l135 688h-228zM887 565l272 846h150l147 -547l363 547h153l-61 -846h-187l43 508l-278 -411h-139l-119 407l-158 -504h-186z" />
<glyph unicode="&#x25fc;" horiz-adv-x="952" d="M0 0v952h952v-952h-952z" />
</font>
</defs>
</svg>
