<svg xmlns="http://www.w3.org/2000/svg" width="33" height="33"><defs><clipPath id="a"><path clip-rule="evenodd" d="M-1676.755-215.101H232.877v951.832h-1909.632z"/></clipPath></defs><g clip-path="url(#a)"><path fill="#FFF" d="M1.266 7.89h29.75c.622 0 1.126.505 1.126 1.126v7.352c0 .622-.504 1.126-1.125 1.126h-.577v14.32c0 .62-.504 1.125-1.125 1.125H2.907a1.125 1.125 0 0 1-1.125-1.126v-14.32h-.516a1.125 1.125 0 0 1-1.125-1.125V9.016c0-.621.504-1.125 1.125-1.125zm13.645 1.431H1.57v6.743h13.34V9.32zm0 8.173H3.212v14.015h11.699V17.494zm1.43 14.015V17.494H29.01v14.015H16.34zm0-15.445V9.32h14.371v6.743H16.341z" fill-rule="evenodd"/></g><defs><clipPath id="b"><path clip-rule="evenodd" d="M-1676.755-215.101H232.877v951.832h-1909.632z"/></clipPath></defs><g clip-path="url(#b)"><path fill="#FFF" d="M9.486.769c5.42 0 7.276 6.85 7.353 7.142a1.126 1.126 0 0 1-1.09 1.41h-6.3c-2.338 0-4.24-1.918-4.24-4.276A4.281 4.281 0 0 1 9.486.769zM6.64 5.045c0 1.136.886 2.846 2.808 2.846h5.517l-.078-.243c-.52-1.63-1.812-5.678-5.401-5.45-1.952.125-2.846 1.75-2.846 2.847z" fill-rule="evenodd"/></g><defs><clipPath id="c"><path clip-rule="evenodd" d="M-1676.755-215.101H232.877v951.832h-1909.632z"/></clipPath></defs><g clip-path="url(#c)"><path fill="#FFF" d="M14.661 7.91c.077-.29 1.933-7.14 7.353-7.14a4.28 4.28 0 0 1 4.276 4.276c0 2.358-1.901 4.276-4.238 4.276H15.75a1.125 1.125 0 0 1-1.089-1.41zm1.87-.019h5.52c1.116 0 2.81-.99 2.81-2.846 0-1.857-1.748-2.846-2.846-2.846-3.822 0-5.053 3.861-5.485 5.692z" fill-rule="evenodd"/></g></svg>