<svg xmlns="http://www.w3.org/2000/svg" width="22" height="20"><defs><clipPath id="a"><path clip-rule="evenodd" d="M-711-415H729v901H-711z"/></clipPath></defs><g clip-path="url(#a)"><path fill="#A0A1A8" d="M20.752 9.71h.877c.33 0 .495.392.262.62l-1.592 1.564a.375.375 0 0 1-.523 0l-1.593-1.563a.362.362 0 0 1 .262-.62h.878a8.47 8.47 0 0 0-.015-.496 8.206 8.206 0 0 0-1.137-3.69 8.46 8.46 0 0 0-2.636-2.74 8.566 8.566 0 0 0-3.651-1.322 8.648 8.648 0 0 0-4.248.562A8.504 8.504 0 0 0 4.27 4.491a.724.724 0 0 1-1.005.105.693.693 0 0 1-.106-.987A9.93 9.93 0 0 1 7.092.728c1.56-.63 3.276-.858 4.963-.657a10.02 10.02 0 0 1 4.27 1.546 9.882 9.882 0 0 1 3.08 3.2 9.597 9.597 0 0 1 1.346 4.894zm-3.038 5.812a.72.72 0 0 1 1.003-.136.705.705 0 0 1 .137.994c-.877 1.143-2.078 2.057-3.57 2.716A9.572 9.572 0 0 1 11.19 20c-1.048 0-2.112-.164-3.155-.494-2.18-.703-3.944-2.056-5.25-4.023l-.01-.014c-1-1.588-1.513-3.321-1.525-5.153H.37a.367.367 0 0 1-.26-.626l1.596-1.581a.373.373 0 0 1 .524 0l1.596 1.58a.367.367 0 0 1-.262.628h-.879l.001.111c.031 1.518.468 2.958 1.302 4.282 1.122 1.688 2.632 2.847 4.488 3.446 2.114.668 4.317.547 6.2-.344a.94.94 0 0 1 .018-.008c1.194-.526 2.161-1.233 2.88-2.104a5.71 5.71 0 0 0 .14-.177z" fill-rule="evenodd"/></g></svg>