<svg xmlns="http://www.w3.org/2000/svg" width="35" height="31"><defs><clipPath id="a"><path clip-rule="evenodd" d="M-269.24-211.82h1881.6v937.86h-1881.6z"/></clipPath></defs><g clip-path="url(#a)"><path fill="#FFF" d="M17.805 8.12c.957-3.81 4.42-6.653 8.517-6.653 4.828 0 8.778 3.95 8.778 8.779 0 4.117-2.873 7.596-6.714 8.53l-8.43 5.854c-.546 3.26-3.371 5.681-6.802 5.681-3.44 0-6.415-2.789-6.857-6.24L2.149 22.4q-.093-.038-.183-.093-.09-.054-.173-.124-.083-.069-.157-.151-.074-.082-.136-.174-.063-.093-.111-.192-.049-.099-.082-.202-.033-.103-.05-.207-.017-.103-.017-.204V15.93q0-.204.067-.356.066-.153.19-.235.125-.083.292-.085.166-.001.353.078l6.604 2.8c.908-.782 1.988-1.268 3.2-1.459l5.86-8.551zm1.055 2.126c0 4.128 3.369 7.507 7.493 7.524 4.124-.017 7.493-3.396 7.493-7.524 0-4.139-3.386-7.525-7.524-7.525-3.48 0-6.426 2.393-7.277 5.614l.066.03a6.474 6.474 0 0 0-.251 1.88zm1.191 12.791a6.914 6.914 0 0 0-6.521-6.521l4.013-5.894a8.749 8.749 0 0 0 2.868 6.1 9.72 9.72 0 0 0 .321.28 8.85 8.85 0 0 0 5.025 2.022l-5.706 4.013zM2.494 16.83l5.257 2.21-.052.047 4.577 1.944c1.066.376 1.693 1.505 1.317 2.508a1.747 1.747 0 0 1-.374.594c-.544.518-1.405.689-2.197.41l-8.528-3.387V16.83zm5.214 7.808c.638 2.492 2.886 4.419 5.446 4.419a5.617 5.617 0 0 0 5.53-4.507l.05-.384c.015-.058.026-.116.034-.174a5.62 5.62 0 0 0-5.615-6.222c-.176 0-.349.008-.52.021-.077.01-.154.023-.232.042l-.6.082a5.45 5.45 0 0 0-1.782.733l1.526.64a4.402 4.402 0 0 1 1.609-.326 4.362 4.362 0 0 1 4.39 4.389c0 2.445-1.945 4.452-4.39 4.452-1.726 0-3.225-1.017-3.963-2.567l-1.483-.598zm5.684.938a3.38 3.38 0 0 1-1.998.388 3.022 3.022 0 0 0 1.76.585 3.105 3.105 0 0 0 3.135-3.135c0-1.55-1.104-2.855-2.584-3.066.096.08.186.164.272.252.894.872 1.28 2.191.87 3.378-.261.717-.793 1.264-1.455 1.598z" fill-rule="evenodd"/></g><defs><clipPath id="b"><path clip-rule="evenodd" d="M-269.24-211.82h1881.6v937.86h-1881.6z"/></clipPath></defs><g clip-path="url(#b)"><path fill="none" stroke="#FFF" stroke-width=".392" d="M17.805 8.12c.957-3.81 4.42-6.653 8.517-6.653 4.828 0 8.778 3.95 8.778 8.779 0 4.117-2.873 7.596-6.714 8.53l-8.43 5.854c-.546 3.26-3.371 5.681-6.802 5.681-3.44 0-6.415-2.789-6.857-6.24L2.149 22.4q-.093-.038-.183-.093-.09-.054-.173-.124-.083-.069-.157-.151-.074-.082-.136-.174-.063-.093-.111-.192-.049-.099-.082-.202-.033-.103-.05-.207-.017-.103-.017-.204V15.93q0-.204.067-.356.066-.153.19-.235.125-.083.292-.085.166-.001.353.078l6.604 2.8c.908-.782 1.988-1.268 3.2-1.459l5.86-8.551zm1.055 2.126c0 4.128 3.369 7.507 7.493 7.524 4.124-.017 7.493-3.396 7.493-7.524 0-4.139-3.386-7.525-7.524-7.525-3.48 0-6.426 2.393-7.277 5.614l.066.03a6.474 6.474 0 0 0-.251 1.88zm1.191 12.791a6.914 6.914 0 0 0-6.521-6.521l4.013-5.894a8.749 8.749 0 0 0 2.868 6.1 9.72 9.72 0 0 0 .321.28 8.85 8.85 0 0 0 5.025 2.022l-5.706 4.013zM2.494 16.83l5.257 2.21-.052.047 4.577 1.944c1.066.376 1.693 1.505 1.317 2.508a1.747 1.747 0 0 1-.374.594c-.544.518-1.405.689-2.197.41l-8.528-3.387V16.83zm5.214 7.808c.638 2.492 2.886 4.419 5.446 4.419a5.617 5.617 0 0 0 5.53-4.507l.05-.384c.015-.058.026-.116.034-.174a5.62 5.62 0 0 0-5.615-6.222c-.176 0-.349.008-.52.021-.077.01-.154.023-.232.042l-.6.082a5.45 5.45 0 0 0-1.782.733l1.526.64a4.402 4.402 0 0 1 1.609-.326 4.362 4.362 0 0 1 4.39 4.389c0 2.445-1.945 4.452-4.39 4.452-1.726 0-3.225-1.017-3.963-2.567l-1.483-.598zm5.684.938a3.38 3.38 0 0 1-1.998.388 3.022 3.022 0 0 0 1.76.585 3.105 3.105 0 0 0 3.135-3.135c0-1.55-1.104-2.855-2.584-3.066.096.08.186.164.272.252.894.872 1.28 2.191.87 3.378-.261.717-.793 1.264-1.455 1.598z"/></g><defs><clipPath id="c"><path clip-rule="evenodd" d="M-269.24-211.82h1881.6v937.86h-1881.6z"/></clipPath></defs><g clip-path="url(#c)"><path fill="#FFF" d="M21.305 10.246a5.031 5.031 0 0 1 5.017-5.017 5.031 5.031 0 0 1 5.016 5.017 5.031 5.031 0 0 1-5.016 5.016 5.031 5.031 0 0 1-5.017-5.016zm1.255 0a3.773 3.773 0 0 0 3.762 3.762 3.773 3.773 0 0 0 3.762-3.762 3.773 3.773 0 0 0-3.762-3.763 3.773 3.773 0 0 0-3.762 3.763z" fill-rule="evenodd"/></g><defs><clipPath id="d"><path clip-rule="evenodd" d="M-269.24-211.82h1881.6v937.86h-1881.6z"/></clipPath></defs><g clip-path="url(#d)"><path fill="none" stroke="#FFF" stroke-width=".392" d="M21.305 10.246a5.031 5.031 0 0 1 5.017-5.017 5.031 5.031 0 0 1 5.016 5.017 5.031 5.031 0 0 1-5.016 5.016 5.031 5.031 0 0 1-5.017-5.016zm1.255 0a3.773 3.773 0 0 0 3.762 3.762 3.773 3.773 0 0 0 3.762-3.762 3.773 3.773 0 0 0-3.762-3.763 3.773 3.773 0 0 0-3.762 3.763z"/></g></svg>