<?xml version="1.0" standalone="no"?>
<!DOCTYPE svg PUBLIC "-//W3C//DTD SVG 1.1//EN" "http://www.w3.org/Graphics/SVG/1.1/DTD/svg11.dtd" >
<svg xmlns="http://www.w3.org/2000/svg" xmlns:xlink="http://www.w3.org/1999/xlink" version="1.1">
<metadata></metadata>
<defs>
<font id="sofia_proextra_light" horiz-adv-x="1273" >
<font-face units-per-em="2048" ascent="1638" descent="-410" />
<missing-glyph horiz-adv-x="550" />
<glyph unicode="&#xfb01;" horiz-adv-x="1069" d="M45 877v79h193v148q0 405 329 405h58v-88h-50q-247 0 -247 -311v-154h567v-956h-90v877h-477v-877h-90v877h-193zM772 1309q0 32 22.5 52.5t55.5 20.5q34 0 58 -20.5t24 -52.5q0 -30 -24 -51t-58 -21q-32 0 -55 20.5t-23 51.5z" />
<glyph unicode="&#xfb02;" horiz-adv-x="1069" d="M45 877v79h193v148q0 405 329 405h330v-1509h-90v1421h-232q-247 0 -247 -311v-154h260v-79h-260v-877h-90v877h-193z" />
<glyph unicode="&#xfb03;" horiz-adv-x="1718" d="M45 877v79h193v148q0 405 329 405h78v-88h-70q-247 0 -247 -311v-154h559v148q0 187 78 296t252 109h47v-88h-39q-248 0 -248 -311v-154h567v-956h-90v877h-477v-877h-90v877h-559v-877h-90v877h-193zM1421 1309q0 32 22.5 52.5t55.5 20.5q34 0 58 -20.5t24 -52.5 q0 -30 -24 -51t-58 -21q-32 0 -55 20.5t-23 51.5z" />
<glyph unicode="&#xfb04;" horiz-adv-x="1718" d="M45 877v79h193v148q0 405 329 405h78v-88h-70q-247 0 -247 -311v-154h559v148q0 187 78 296t252 109h329v-1509h-90v1421h-231q-248 0 -248 -311v-154h260v-79h-260v-877h-90v877h-559v-877h-90v877h-193z" />
<glyph horiz-adv-x="0" />
<glyph horiz-adv-x="682" />
<glyph unicode=" "  horiz-adv-x="550" />
<glyph unicode="&#x09;" horiz-adv-x="550" />
<glyph unicode="&#xa0;" horiz-adv-x="550" />
<glyph unicode="!" horiz-adv-x="491" d="M166 63q0 32 23 54t57 22t57 -22t23 -54t-23 -52.5t-57 -20.5t-57 20.5t-23 52.5zM201 1411h90l-4 -1071h-82z" />
<glyph unicode="&#x22;" horiz-adv-x="608" d="M156 1411h84l-4 -526h-74zM367 1411h84l-7 -526h-71z" />
<glyph unicode="#" horiz-adv-x="1425" d="M70 367l24 88h275l137 493h-277l25 88h276l103 375h88l-105 -375h379l103 375h88l-105 -375h277l-25 -88h-276l-135 -493h276l-24 -88h-277l-102 -367h-86l102 367h-379l-100 -367h-88l102 367h-276zM457 455h377l135 493h-377z" />
<glyph unicode="$" horiz-adv-x="1042" d="M98 383h92q13 -107 103.5 -185.5t224.5 -78.5q85 0 153.5 25.5t109.5 67.5t62 90.5t21 98.5q0 104 -74.5 169.5t-199.5 93.5l-180 43q-301 72 -301 313q0 140 105.5 235t254.5 109v197h78v-197q153 -9 253 -99t109 -233h-90q-10 113 -96 180.5t-213 67.5 q-125 0 -217 -73.5t-92 -186.5q0 -33 7.5 -61t29.5 -61.5t70.5 -61.5t121.5 -45l180 -43q158 -38 252 -122t94 -220q0 -63 -26 -125t-74.5 -116.5t-129 -90.5t-179.5 -41v-197h-78v199q-155 17 -256.5 118t-114.5 230z" />
<glyph unicode="%" horiz-adv-x="1206" d="M76 1124q0 106 72.5 180t179.5 74q106 0 180 -74t74 -180q0 -107 -74 -179.5t-180 -72.5q-107 0 -179.5 72.5t-72.5 179.5zM154 1124q0 -74 50 -124t124 -50q73 0 124.5 50.5t51.5 123.5q0 72 -52 124t-124 52q-73 0 -123.5 -51.5t-50.5 -124.5zM227 0l660 1354h80 l-658 -1354h-82zM627 233q0 105 73 179.5t179 74.5q105 0 179.5 -74.5t74.5 -179.5q0 -107 -74 -179t-180 -72q-107 0 -179.5 72t-72.5 179zM705 233q0 -73 50.5 -123.5t123.5 -50.5t124.5 50.5t51.5 123.5q0 72 -52 124.5t-124 52.5q-73 0 -123.5 -52t-50.5 -125z" />
<glyph unicode="&#x26;" horiz-adv-x="1314" d="M111 410q0 132 73 239t199 152q-76 40 -120 122t-44 169q0 136 101.5 235.5t252.5 99.5q93 0 171.5 -39.5t123.5 -105.5l-73 -51q-37 53 -96 80.5t-126 27.5q-115 0 -189.5 -74.5t-74.5 -179.5q0 -106 72.5 -180t189.5 -74h349v183h90v-183h192v-77h-192v-336 q0 -60 4 -106.5t17 -94.5t35.5 -79.5t61 -51.5t91.5 -20h28v-89h-28q-103 0 -179 56.5t-92 171.5q-31 -78 -98.5 -131t-142.5 -75t-156 -22q-131 0 -233.5 61.5t-154.5 159t-52 212.5zM199 412q0 -144 97 -244t263 -100q155 0 255.5 95.5t105.5 239.5v351h-349 q-166 0 -269 -96.5t-103 -245.5z" />
<glyph unicode="'" horiz-adv-x="397" d="M156 1411h84l-4 -526h-74z" />
<glyph unicode="(" horiz-adv-x="671" d="M119 590q0 416 140.5 660.5t373.5 258.5v-77q-192 -12 -309 -238t-117 -604q0 -379 117 -604t309 -236v-80q-232 14 -373 259t-141 661z" />
<glyph unicode=")" horiz-adv-x="671" d="M41 -250q192 11 309 236t117 604q0 378 -117 604t-309 238v77q233 -14 373.5 -258.5t140.5 -660.5t-141 -661t-373 -259v80z" />
<glyph unicode="*" horiz-adv-x="946" d="M100 1130l19 66l323 -88l-2 336h68l-2 -336l323 88l17 -66l-320 -81l197 -265l-55 -43l-195 271l-192 -271l-58 43l197 265z" />
<glyph unicode="+" horiz-adv-x="1009" d="M98 487v88h363v361h88v-361h362v-88h-362v-364h-88v364h-363z" />
<glyph unicode="," horiz-adv-x="421" d="M8 -340q83 117 125 269.5t35 318.5h92q6 -173 -43 -334.5t-143 -278.5z" />
<glyph unicode="-" horiz-adv-x="972" d="M152 420v90h669v-90h-669z" />
<glyph unicode="." horiz-adv-x="454" d="M147 53q0 32 23 54t57 22t57 -22t23 -54t-23 -52.5t-57 -20.5t-57 20.5t-23 52.5z" />
<glyph unicode="/" horiz-adv-x="915" d="M68 0l686 1411h94l-686 -1411h-94z" />
<glyph unicode="0" horiz-adv-x="1222" d="M137 676q0 123 12.5 222t45.5 189.5t85.5 151.5t136.5 97t195 36t194.5 -36t136 -97t85 -151.5t45 -189.5t12.5 -222q0 -122 -12.5 -220.5t-45 -189.5t-85 -152t-136 -97.5t-194.5 -36.5t-195 36.5t-136.5 97.5t-85.5 152t-45.5 189.5t-12.5 220.5zM227 676 q0 -106 10.5 -192t37 -165.5t69 -133t110.5 -85.5t158 -32t157.5 32t110 85.5t69 133t36.5 165.5t10 192q0 107 -10 193t-36.5 165.5t-69 133t-110 85t-157.5 31.5t-158 -31.5t-110.5 -85t-69 -133t-37 -165.5t-10.5 -193z" />
<glyph unicode="1" horiz-adv-x="659" d="M53 1102v90l381 180h8v-1372h-90v1235z" />
<glyph unicode="2" horiz-adv-x="1015" d="M98 1092q30 131 137 205.5t257 74.5q173 0 284 -103t111 -270q0 -166 -150 -344l-477 -567h639v-88h-797v37l560 668q135 163 135 294q0 128 -86 206.5t-219 78.5q-117 0 -201 -57t-109 -156z" />
<glyph unicode="3" horiz-adv-x="1099" d="M84 240l80 39q44 -96 136.5 -153.5t201.5 -57.5q168 0 278.5 85.5t110.5 221.5t-94 222.5t-234 86.5h-137v84h135q115 0 185.5 70t70.5 186t-84 188t-221 72q-89 0 -167.5 -42t-117.5 -109l-71 47q51 87 148.5 139.5t209.5 52.5q177 0 285 -96t108 -252 q0 -96 -50.5 -175.5t-135.5 -117.5q113 -30 186.5 -126.5t73.5 -227.5q0 -177 -134.5 -287t-340.5 -110q-138 0 -253 71t-169 189z" />
<glyph unicode="4" horiz-adv-x="1138" d="M37 291v26l788 1037h27v-975h211v-88h-211v-291h-90v291h-725zM188 379h574v766z" />
<glyph unicode="5" horiz-adv-x="1110" d="M96 244l78 43q58 -101 155 -161t218 -60q159 0 265 97.5t106 252.5q0 148 -97 238.5t-248 90.5q-83 0 -184 -29t-194 -77l-45 47l116 668h649v-86h-573l-96 -525q184 88 340 88q185 0 303.5 -114.5t118.5 -300.5q0 -194 -129.5 -316.5t-325.5 -122.5q-149 0 -267 72 t-190 195z" />
<glyph unicode="6" horiz-adv-x="1171" d="M137 530q0 842 506 842q276 0 385 -244l-82 -36q-90 192 -305 192q-93 0 -166 -40t-117.5 -102.5t-73 -148t-39.5 -168t-12 -170.5q48 89 154 141t223 52q194 0 318.5 -124.5t124.5 -305.5q0 -61 -16 -121t-51.5 -118t-87 -101.5t-129 -70.5t-171.5 -27q-223 0 -342 141 t-119 409zM236 461q0 -99 29.5 -175.5t80 -123t113.5 -70t135 -24.5q163 0 265 104t102 248q0 142 -98.5 240.5t-252.5 99.5q-47 0 -95.5 -9.5t-98.5 -32t-89 -55.5t-64.5 -85.5t-26.5 -116.5z" />
<glyph unicode="7" horiz-adv-x="980" d="M94 1268v86h858v-13l-739 -1341h-104l696 1268h-711z" />
<glyph unicode="8" horiz-adv-x="1175" d="M113 397q0 134 78.5 239.5t211.5 149.5q-78 39 -124 110t-46 161q0 133 100.5 224t252.5 91q155 0 256.5 -91t101.5 -224q0 -91 -47.5 -162.5t-130.5 -108.5q135 -45 216 -150t81 -239q0 -177 -136.5 -297t-340.5 -120q-203 0 -338 119.5t-135 297.5zM207 403 q0 -141 109 -238t270 -97q163 0 273 96.5t110 236.5q0 141 -110 239.5t-273 98.5q-165 -3 -272 -99t-107 -237zM328 1051q0 -97 72 -164t186 -70q116 3 191 70t75 164q0 99 -76.5 167t-189.5 68q-110 0 -184 -68t-74 -167z" />
<glyph unicode="9" horiz-adv-x="1171" d="M119 934q0 78 26.5 153t78.5 140t142.5 105t206.5 40q220 0 340.5 -145t120.5 -406q0 -841 -506 -841q-275 0 -385 243l82 37q87 -192 305 -192q78 0 142 27.5t107.5 76t75 109t49 133.5t25.5 141.5t9 140.5q-45 -90 -151.5 -140t-225.5 -50q-195 0 -318.5 124 t-123.5 304zM211 932q0 -142 98 -240t252 -98q60 0 121 16t119.5 48.5t96 93t38.5 139.5q0 79 -19.5 145t-53.5 111t-80 76.5t-98.5 46t-109.5 14.5q-163 0 -263.5 -104t-100.5 -248z" />
<glyph unicode=":" horiz-adv-x="464" d="M152 53q0 32 23 54t56 22q34 0 58 -22t24 -54t-24 -52.5t-58 -20.5q-33 0 -56 20.5t-23 52.5zM152 901q0 33 23 54.5t56 21.5q34 0 58 -21.5t24 -54.5q0 -31 -24 -52.5t-58 -21.5q-32 0 -55.5 21.5t-23.5 52.5z" />
<glyph unicode=";" horiz-adv-x="493" d="M63 -340q84 117 126.5 269t35.5 319h92q6 -173 -43.5 -334.5t-144.5 -278.5zM178 901q0 33 23 54.5t57 21.5t58 -21.5t24 -54.5q0 -31 -24 -52.5t-58 -21.5t-57 21.5t-23 52.5z" />
<glyph unicode="&#x3c;" horiz-adv-x="1253" d="M80 477v98l1042 398v-96l-925 -353l925 -350v-96z" />
<glyph unicode="=" horiz-adv-x="1239" d="M160 248v88h919v-88h-919zM160 674v88h919v-88h-919z" />
<glyph unicode="&#x3e;" horiz-adv-x="1253" d="M133 78v96l926 350l-926 353v96l1041 -398v-98z" />
<glyph unicode="?" horiz-adv-x="942" d="M78 1069q10 163 121 259.5t268 96.5q164 0 281.5 -106t117.5 -275q0 -138 -79.5 -235.5t-202.5 -136.5q-51 -15 -82 -29t-61.5 -38t-44 -60.5t-13.5 -89.5v-115h-88l-2 115q0 78 22.5 132.5t57.5 84.5t90 53l94 33q97 33 158 107t61 179q0 131 -91 213t-218 82 q-118 0 -204.5 -73t-96.5 -197h-88zM258 63q0 32 23.5 54t56.5 22q34 0 58 -22t24 -54t-24 -52.5t-58 -20.5q-33 0 -56.5 20.5t-23.5 52.5z" />
<glyph unicode="@" horiz-adv-x="2066" d="M104 508q0 187 70.5 356.5t190.5 292.5t288 195.5t355 72.5q188 0 360.5 -67t300.5 -182t204.5 -279.5t76.5 -349.5q0 -76 -11.5 -152.5t-39.5 -155t-69 -138t-106.5 -97t-146.5 -37.5q-54 0 -100 14t-85.5 43.5t-62 84t-22.5 129.5v282q0 134 -94.5 228t-227.5 94 q-134 0 -228.5 -93.5t-94.5 -228.5q0 -132 95 -226.5t228 -94.5q50 0 105.5 18.5t93.5 52.5v-92q-92 -61 -199 -61q-166 0 -284.5 118.5t-118.5 284.5q0 168 118.5 286t284.5 118q108 0 200.5 -53t147.5 -145.5t56 -201.5v-291q0 -99 53.5 -141.5t134.5 -42.5q79 0 138.5 48 t91 125.5t46.5 159t15 165.5q0 135 -44.5 258.5t-125 220.5t-187.5 168.5t-236.5 110t-266.5 38.5q-170 0 -323 -66t-262 -178t-173 -266.5t-64 -324.5t63.5 -323.5t172 -264t260.5 -176t322 -66.5h63v-79h-63q-186 1 -353.5 72.5t-287 192.5t-189.5 289t-70 355z" />
<glyph unicode="A" horiz-adv-x="1218" d="M20 0l541 1411h98l537 -1411h-96l-148 385h-686l-147 -385h-99zM297 467h625l-312 819z" />
<glyph unicode="B" horiz-adv-x="1282" d="M217 0v1413h500q167 0 266.5 -89.5t99.5 -250.5q0 -106 -49 -194.5t-143 -124.5q92 -28 155.5 -91t90 -134.5t26.5 -147.5q0 -75 -27.5 -143.5t-76.5 -121.5t-123.5 -84.5t-161.5 -31.5h-557zM309 88h455q138 0 222.5 87.5t84.5 209.5q0 134 -93 228t-233 94h-436v-619z M309 788h449q109 0 171 80.5t62 200.5q0 121 -74 187.5t-202 66.5h-406v-535z" />
<glyph unicode="C" horiz-adv-x="1368" d="M115 702q0 148 54.5 282t147.5 231t222.5 154.5t273.5 57.5q137 0 260 -50.5t217 -141.5l-63 -61q-81 77 -188 120t-226 43q-125 0 -237.5 -50.5t-193 -135.5t-128 -202.5t-47.5 -246.5q0 -172 80 -317.5t219.5 -231t306.5 -85.5q239 0 412 163l63 -61 q-92 -90 -214.5 -140t-260.5 -50q-144 0 -273.5 57t-222.5 154t-147.5 230.5t-54.5 280.5z" />
<glyph unicode="D" horiz-adv-x="1488" d="M217 0v1411h528q145 0 263.5 -54.5t196.5 -150t120.5 -224.5t42.5 -280q0 -201 -72.5 -359t-215 -250.5t-335.5 -92.5h-528zM309 88h436q167 0 288.5 81.5t182 219t60.5 313.5q0 177 -60.5 316t-182.5 222t-288 83h-436v-1235z" />
<glyph unicode="E" horiz-adv-x="1132" d="M217 0v1411h782v-88h-690v-586h604v-90h-604v-559h715v-88h-807z" />
<glyph unicode="F" horiz-adv-x="1050" d="M217 0v1411h772v-88h-680v-586h541v-90h-541v-647h-92z" />
<glyph unicode="G" horiz-adv-x="1550" d="M115 702q0 148 55.5 282t149.5 231t226 154.5t279 57.5q240 0 430 -147l-59 -68q-163 127 -371 127q-171 0 -313.5 -86t-223.5 -232t-81 -319q0 -129 48 -246.5t130 -202.5t197 -135t243 -50q223 0 374 124.5t179 358.5l2 29h-436v86h537q-4 -171 -54.5 -303.5 t-138.5 -216t-205 -126.5t-258 -43q-147 0 -279 57.5t-226 154.5t-149.5 231t-55.5 282z" />
<glyph unicode="H" horiz-adv-x="1470" d="M217 0v1411h92v-668h850v668h92v-1411h-92v659h-850v-659h-92z" />
<glyph unicode="I" horiz-adv-x="528" d="M217 0v1411h92v-1411h-92z" />
<glyph unicode="J" horiz-adv-x="544" d="M-190 -467l12 88q62 -8 94 -8q85 0 147.5 27t99 76t53.5 110.5t17 136.5v1448h93v-1448q0 -93 -22.5 -170.5t-69.5 -139t-128 -96t-190 -34.5q-44 0 -106 10z" />
<glyph unicode="K" horiz-adv-x="1079" d="M217 0v1411h92v-702l574 702h116l-604 -737l701 -674h-129l-658 631v-631h-92z" />
<glyph unicode="L" horiz-adv-x="978" d="M217 0v1411h92v-1323h621v-88h-713z" />
<glyph unicode="M" horiz-adv-x="1957" d="M135 0l178 1411h90l578 -1182l573 1182h91l178 -1411h-92l-158 1251l-547 -1112h-92l-551 1116l-158 -1255h-90z" />
<glyph unicode="N" horiz-adv-x="1417" d="M217 0v1411h105l784 -1261v1261h92v-1411h-102l-787 1260v-1260h-92z" />
<glyph unicode="O" horiz-adv-x="1648" d="M115 702q0 198 93.5 364.5t256.5 263.5t358 97q197 0 361 -97t258 -263.5t94 -364.5q0 -147 -55.5 -280.5t-150 -230.5t-227 -154t-280.5 -57q-146 0 -277.5 57t-225.5 154t-149.5 230.5t-55.5 280.5zM207 702q0 -172 81 -317.5t223 -231t312 -85.5q171 0 314 85.5 t225 231t82 317.5q0 129 -48.5 246.5t-131 203.5t-198 136.5t-243.5 50.5q-170 0 -312 -86t-223 -232t-81 -319z" />
<glyph unicode="P" horiz-adv-x="1239" d="M217 0v1411h551q101 0 178.5 -35.5t122 -96.5t66.5 -134t22 -156t-22 -156t-67.5 -133.5t-124.5 -95.5t-183 -35h-451v-569h-92zM309 657h447q81 0 142.5 28t97 75.5t52.5 105t17 123.5t-16.5 123.5t-51 106t-94 76.5t-137.5 28h-457v-666z" />
<glyph unicode="Q" horiz-adv-x="1648" d="M115 702q0 198 93.5 364.5t256.5 263.5t358 97q197 0 361 -97t258 -263.5t94 -364.5q0 -201 -99 -369.5t-266 -262.5l164 -260l-73 -48l-170 269q-127 -51 -269 -51q-146 0 -277.5 57t-225.5 154t-149.5 230.5t-55.5 280.5zM207 702q0 -172 81 -317.5t223 -231t312 -85.5 q116 0 219 41l-168 264l74 47l174 -275q147 83 234.5 231.5t87.5 325.5q0 129 -48.5 246.5t-131 203.5t-198 136.5t-243.5 50.5q-170 0 -312 -86t-223 -232t-81 -319z" />
<glyph unicode="R" horiz-adv-x="1249" d="M217 0v1411h520q103 0 181 -35.5t123 -96.5t67 -134t22 -156q0 -66 -13.5 -125.5t-43.5 -114t-75.5 -94t-113.5 -63t-153 -23.5h-26l401 -569h-113l-403 569h-281v-569h-92zM309 657h410q84 0 147 27t99.5 74t54.5 105t18 126q0 67 -18 126t-53 106t-93.5 74.5 t-134.5 27.5h-430v-666z" />
<glyph unicode="S" horiz-adv-x="1150" d="M119 356h92q14 -117 114 -202.5t248 -85.5q93 0 168 28.5t119.5 74.5t68 99t23.5 107q0 61 -24 110.5t-67.5 84t-95 57.5t-114.5 39l-196 45q-326 75 -326 342q0 108 62.5 194.5t162 132t211.5 45.5q178 0 299 -98t131 -262h-92q-10 123 -105.5 197.5t-234.5 74.5 q-136 0 -239 -80.5t-103 -203.5q0 -197 254 -256l197 -45q170 -42 271 -132.5t101 -238.5q0 -56 -18 -112.5t-56.5 -109t-92.5 -92.5t-133 -64.5t-171 -24.5q-95 0 -178.5 31.5t-140.5 84t-92.5 120t-42.5 140.5z" />
<glyph unicode="T" horiz-adv-x="1114" d="M45 1323v88h1024v-88h-467v-1323h-92v1323h-465z" />
<glyph unicode="U" horiz-adv-x="1388" d="M201 469v942h92v-942q0 -181 116 -291t285 -110q170 0 286 110t116 291v942h92v-942q0 -146 -68 -260t-179.5 -173t-246.5 -59q-100 0 -190 35t-157 97.5t-106.5 156t-39.5 203.5z" />
<glyph unicode="V" horiz-adv-x="1095" d="M68 1411h96l383 -1284l383 1284h96l-422 -1411h-112z" />
<glyph unicode="W" horiz-adv-x="1857" d="M47 1411h96l428 -1274l310 1057h96l307 -1059l428 1276h98l-479 -1411h-96l-307 1051l-305 -1051h-97z" />
<glyph unicode="X" horiz-adv-x="1173" d="M25 0l507 762l-436 649h111l379 -575l381 575h112l-438 -649l510 -762h-113l-452 688l-453 -688h-108z" />
<glyph unicode="Y" horiz-adv-x="1193" d="M20 1411h111l465 -653l469 653h111l-535 -741v-670h-92v672z" />
<glyph unicode="Z" horiz-adv-x="1093" d="M82 0v63l805 1260h-799v88h920v-70l-803 -1253h803v-88h-926z" />
<glyph unicode="[" horiz-adv-x="565" d="M201 -330v1839h305v-84h-215v-1669h215v-86h-305z" />
<glyph unicode="\" horiz-adv-x="915" d="M68 1411h94l686 -1411h-94z" />
<glyph unicode="]" horiz-adv-x="565" d="M59 -244h215v1669h-215v84h306v-1839h-306v86z" />
<glyph unicode="^" horiz-adv-x="956" d="M98 596l338 815h84l338 -815h-92l-287 702l-291 -702h-90z" />
<glyph unicode="_" horiz-adv-x="1282" d="M111 -57h1060v-86h-1060v86z" />
<glyph unicode="`" horiz-adv-x="905" d="M242 1419h108l193 -309h-88z" />
<glyph unicode="a" d="M102 479q0 139 66.5 253.5t180 179.5t247.5 65q132 0 242.5 -64t171.5 -172v215h90v-956h-90v213q-59 -106 -171 -169.5t-243 -63.5q-134 0 -247.5 65t-180 180t-66.5 254zM193 479q0 -171 119.5 -291t287.5 -120q170 0 290 114.5t120 288.5q0 183 -120.5 300.5 t-289.5 117.5q-168 0 -287.5 -119.5t-119.5 -290.5z" />
<glyph unicode="b" horiz-adv-x="1271" d="M172 0v1509h90v-770q59 108 170.5 173t245.5 65t246.5 -65t178.5 -179.5t66 -253.5t-66 -254t-179 -180t-246 -65t-245 64.5t-171 172.5v-217h-90zM262 471q0 -174 121 -288.5t291 -114.5q168 0 286.5 120t118.5 291t-118.5 290.5t-286.5 119.5q-110 0 -203.5 -51.5 t-151 -148.5t-57.5 -218z" />
<glyph unicode="c" horiz-adv-x="1015" d="M104 481q0 146 69 260.5t183 175t250 60.5q183 0 324 -115l-53 -65q-120 92 -271 92q-173 0 -292 -113t-119 -295q0 -183 119 -298t292 -115q152 0 271 92l55 -66q-139 -114 -326 -114q-136 0 -250 61t-183 177t-69 263z" />
<glyph unicode="d" d="M102 479q0 139 66.5 253.5t180 179.5t247.5 65q132 0 242.5 -64t171.5 -172v768h90v-1509h-90v213q-59 -106 -171 -169.5t-243 -63.5q-134 0 -247.5 65t-180 180t-66.5 254zM193 479q0 -171 119.5 -291t287.5 -120q170 0 290 114.5t120 288.5q0 183 -120.5 300.5 t-289.5 117.5q-168 0 -287.5 -119.5t-119.5 -290.5z" />
<glyph unicode="e" horiz-adv-x="1153" d="M106 481q0 147 64.5 261t174.5 174.5t245 60.5q205 0 337 -136.5t132 -359.5q0 -27 -2 -39h-858q12 -171 120 -272.5t273 -101.5q106 0 196 48t142 134l78 -39q-62 -109 -173.5 -170t-244.5 -61q-207 0 -345.5 139t-138.5 362zM199 520h770q-10 168 -115 268.5 t-264 100.5q-162 0 -269 -98.5t-122 -270.5z" />
<glyph unicode="f" horiz-adv-x="620" d="M45 877v79h193v148q0 405 329 405h78v-88h-70q-247 0 -247 -311v-154h260v-79h-260v-877h-90v877h-193z" />
<glyph unicode="g" d="M102 479q0 139 66.5 253.5t180 179.5t247.5 65q132 0 242.5 -63.5t171.5 -170.5v213h90v-817q0 -139 -24.5 -245.5t-68 -176t-109 -113.5t-141.5 -62.5t-171 -18.5q-121 0 -226.5 54.5t-175.5 160.5l76 47q58 -86 144 -130t182 -44q79 0 141.5 15.5t116.5 52.5t90 96.5 t56 150.5t20 211v74q-59 -105 -171 -168t-243 -63q-134 0 -247.5 65t-180 180t-66.5 254zM193 479q0 -171 119.5 -291t287.5 -120q170 0 290 114.5t120 288.5q0 183 -120.5 300.5t-289.5 117.5q-168 0 -287.5 -119.5t-119.5 -290.5z" />
<glyph unicode="h" horiz-adv-x="1157" d="M172 0v1509h90v-749q26 75 84.5 125.5t124 71t137.5 20.5q172 0 280.5 -112t108.5 -304v-561h-90v557q0 151 -86 240.5t-219 89.5q-66 0 -123.5 -19.5t-106.5 -59t-78.5 -108.5t-31.5 -161v-539h-90z" />
<glyph unicode="i" horiz-adv-x="434" d="M139 1309q0 32 22.5 52.5t55.5 20.5q34 0 57 -20.5t23 -52.5q0 -31 -23 -51.5t-57 -20.5q-32 0 -55 20.5t-23 51.5zM172 0v956h90v-956h-90z" />
<glyph unicode="j" horiz-adv-x="450" d="M-129 -377h80q237 0 237 318v1015h91v-1015q0 -404 -324 -404h-84v86zM156 1309q0 32 22 52.5t55 20.5q34 0 57 -20.5t23 -52.5q0 -31 -23 -51.5t-57 -20.5q-32 0 -54.5 20.5t-22.5 51.5z" />
<glyph unicode="k" horiz-adv-x="897" d="M172 0v1509h90v-944l383 391h127l-412 -417l549 -539h-127l-520 508v-508h-90z" />
<glyph unicode="l" horiz-adv-x="434" d="M172 0v1509h90v-1509h-90z" />
<glyph unicode="m" horiz-adv-x="1871" d="M172 0v956h90v-194q24 73 79.5 122.5t122 71t142.5 21.5q130 0 223 -65.5t129 -188.5q21 74 63.5 126.5t96 79t104.5 37.5t105 11q172 0 279.5 -112t107.5 -304v-561h-90v557q0 151 -86 241.5t-219 90.5q-71 0 -132 -23.5t-107 -70.5t-70 -123q-21 -66 -22 -149 q0 -13 1 -27l-2 8v-504h-90v559q0 151 -84.5 240.5t-216.5 89.5q-66 0 -123 -19.5t-104.5 -59.5t-76 -109.5t-30.5 -161.5v-539h-90z" />
<glyph unicode="n" horiz-adv-x="1157" d="M172 0v956h90v-196q26 75 84.5 125.5t124 71t137.5 20.5q172 0 280.5 -112t108.5 -304v-561h-90v557q0 151 -86 240.5t-219 89.5q-66 0 -123.5 -19.5t-106.5 -59t-78.5 -108.5t-31.5 -161v-539h-90z" />
<glyph unicode="o" horiz-adv-x="1208" d="M104 481q0 147 68 261.5t181.5 174.5t250.5 60t250 -60t181.5 -174.5t68.5 -261.5q0 -148 -68.5 -264t-182 -176.5t-249.5 -60.5q-137 0 -250.5 60.5t-181.5 176t-68 264.5zM195 481q0 -185 118 -299t291 -114q172 0 291 114.5t119 298.5q0 183 -119 295.5t-291 112.5 q-173 0 -291 -112.5t-118 -295.5z" />
<glyph unicode="p" d="M172 -463v1419h90v-217q59 108 171.5 173t244.5 65q133 0 246 -65.5t179 -180.5t66 -254q0 -104 -39 -196.5t-105 -158.5t-156.5 -104t-190.5 -38q-134 0 -245.5 64.5t-170.5 172.5v-680h-90zM262 485q0 -121 57.5 -217.5t151 -148t203.5 -51.5q168 0 286.5 119 t118.5 290t-118.5 291.5t-286.5 120.5q-170 0 -291 -115t-121 -289z" />
<glyph unicode="q" d="M102 477q0 139 66.5 254t180 180.5t247.5 65.5q131 0 243 -64t171 -170v213h90v-1419h-90v678q-61 -108 -171.5 -171.5t-242.5 -63.5q-135 0 -248 64.5t-179.5 179t-66.5 253.5zM193 477q0 -171 119.5 -290t287.5 -119q110 0 203 51.5t150 148t57 217.5q0 174 -120 289 t-290 115q-168 0 -287.5 -120.5t-119.5 -291.5z" />
<glyph unicode="r" horiz-adv-x="745" d="M172 0v956h90v-262q32 127 117 205t209 78q73 0 141 -23l-22 -86q-59 21 -121 21q-74 0 -132 -33.5t-92.5 -85t-57.5 -122.5t-32 -137.5t-10 -139.5v-371h-90z" />
<glyph unicode="s" horiz-adv-x="866" d="M90 238h86q22 -73 84.5 -124t171.5 -51q113 0 179.5 52.5t66.5 138.5q0 134 -170 178l-141 33q-238 55 -238 254q0 113 86.5 185.5t218.5 72.5q124 0 209 -65.5t92 -178.5h-88q-9 71 -68 115.5t-143 44.5q-95 0 -156 -48.5t-61 -123.5q0 -138 170 -174l141 -33 q125 -30 181.5 -100t56.5 -162q0 -122 -93 -197t-243 -75q-127 0 -225 68t-117 190z" />
<glyph unicode="t" horiz-adv-x="583" d="M53 877v79h174v396h90v-396h232v-79h-232v-877h-90v877h-174z" />
<glyph unicode="u" horiz-adv-x="1157" d="M158 395v561h90v-557q0 -151 86.5 -240t220.5 -89q66 0 123.5 19t106 59t77.5 109t31 161v538h90v-956h-90v190q-40 -106 -137 -158t-207 -52q-172 0 -281.5 112t-109.5 303z" />
<glyph unicode="v" horiz-adv-x="1015" d="M51 956h99l356 -854l362 854h99l-408 -956h-102z" />
<glyph unicode="w" horiz-adv-x="1634" d="M49 956h96l314 -821l305 821h102l312 -819l307 819h96l-358 -956h-84l-324 844l-313 -844h-86z" />
<glyph unicode="x" horiz-adv-x="929" d="M29 0l383 530l-310 426h113l252 -350l250 350h112l-307 -426l379 -530h-110l-324 451l-328 -451h-110z" />
<glyph unicode="y" horiz-adv-x="1013" d="M55 956h99l354 -843l360 843h99l-605 -1419h-96l193 461z" />
<glyph unicode="z" horiz-adv-x="968" d="M86 0v63l659 805h-653v88h789v-67l-660 -801h660v-88h-795z" />
<glyph unicode="{" horiz-adv-x="698" d="M76 551v78q57 12 96 59.5t39 104.5v337q-1 168 110.5 273.5t270.5 105.5h65v-79h-53q-134 0 -220 -84.5t-85 -215.5v-333q0 -68 -36.5 -128t-100.5 -79q63 -14 100 -76t37 -131v-334q-1 -131 85 -215t220 -84h53v-80h-65q-159 0 -270.5 105.5t-110.5 273.5v338 q0 57 -39 104.5t-96 59.5z" />
<glyph unicode="|" horiz-adv-x="481" d="M203 -260v1892h76v-1892h-76z" />
<glyph unicode="}" horiz-adv-x="698" d="M41 -250h53q134 0 220 84t85 215v334q0 68 38 130.5t100 76.5q-64 19 -101 79.5t-37 127.5v333q1 131 -85 215.5t-220 84.5h-53v79h65q160 0 272 -105.5t111 -273.5v-337q0 -57 38.5 -104.5t95.5 -59.5v-78q-57 -12 -95.5 -59.5t-38.5 -104.5v-338q1 -168 -111 -273.5 t-272 -105.5h-65v80z" />
<glyph unicode="~" horiz-adv-x="1396" d="M160 561q56 54 133.5 91.5t155.5 37.5q42 0 84.5 -8.5t64.5 -16.5t62.5 -25.5t50.5 -21.5q11 -4 46.5 -20.5t57.5 -25t61 -17t78 -8.5q57 0 124.5 31.5t119.5 78.5l43 -61q-53 -53 -130.5 -91t-156.5 -38q-42 0 -84.5 8.5t-64.5 16.5t-62.5 25.5t-50.5 21.5t-46.5 20.5 t-58.5 25t-61 17t-77 8.5q-61 0 -127.5 -31t-116.5 -81z" />
<glyph unicode="&#xa1;" horiz-adv-x="450" d="M145 903q0 32 23.5 53t56.5 21q34 0 58 -21t24 -53t-24 -54t-58 -22q-33 0 -56.5 22t-23.5 54zM180 -463l6 1071h80l4 -1071h-90z" />
<glyph unicode="&#xa2;" horiz-adv-x="1038" d="M106 481q0 205 127 339t318 155v207h78v-205q167 -6 303 -115l-53 -65q-120 92 -271 92q-173 0 -292 -113t-119 -295q0 -183 119 -298t292 -115q152 0 271 92l55 -66q-134 -108 -305 -114v-224h-78v226q-190 21 -317.5 157.5t-127.5 341.5z" />
<glyph unicode="&#xa3;" horiz-adv-x="1255" d="M80 0v88h205v412h-170v73h170v400q0 120 57.5 211t149 136.5t198.5 45.5q156 0 265 -97.5t118 -258.5h-90q-9 123 -92.5 196.5t-206.5 73.5q-125 0 -217 -84t-92 -223v-400h264v-73h-264v-412h616q35 0 57.5 25t22.5 63v92h90v-92q0 -74 -45 -125t-115 -51h-921z" />
<glyph unicode="&#xa4;" horiz-adv-x="1206" d="M150 313l153 152q-82 108 -82 237q0 136 86 242l-157 156l59 59l160 -158q96 80 229 80q138 0 238 -84l161 162l60 -59l-162 -162q84 -107 84 -238q0 -129 -80 -229l160 -160l-60 -59l-159 160q-109 -86 -242 -86q-130 0 -236 80l-153 -152zM309 705q0 -121 84.5 -207 t206.5 -86q119 0 205 86.5t86 206.5q0 118 -86 203t-205 85t-205 -85t-86 -203z" />
<glyph unicode="&#xa5;" horiz-adv-x="1277" d="M63 1411h109l465 -651l469 651h111l-525 -731h338v-78h-346v-217h346v-78h-346v-307h-94v307h-344v78h344v217h-344v78h338z" />
<glyph unicode="&#xa6;" horiz-adv-x="491" d="M207 -260v747h78v-747h-78zM207 883v749h78v-749h-78z" />
<glyph unicode="&#xa7;" horiz-adv-x="1007" d="M135 -41l82 33q35 -76 108 -119t162 -43q126 0 211.5 81t85.5 212v297q0 133 -85 213t-212 80q-66 0 -127 -23v92q62 19 127 19q163 0 275 -105.5t112 -275.5v-297q0 -169 -112.5 -275t-274.5 -106q-117 0 -212 57.5t-140 159.5zM135 743v297q0 169 111.5 275t273.5 106 q117 0 213 -58t141 -159l-81 -30q-35 74 -109 116.5t-164 42.5q-125 0 -211 -80.5t-86 -212.5v-297q0 -131 86 -211.5t211 -80.5q71 0 129 22v-92q-74 -19 -129 -19q-163 0 -274 105t-111 276z" />
<glyph unicode="&#xa8;" horiz-adv-x="960" d="M246 1276q0 32 22.5 53t55.5 21q34 0 56.5 -21t22.5 -53q0 -31 -22.5 -51.5t-56.5 -20.5q-32 0 -55 20.5t-23 51.5zM557 1276q0 32 22.5 53t55.5 21q34 0 57 -21t23 -53q0 -31 -23 -51.5t-57 -20.5q-32 0 -55 20.5t-23 51.5z" />
<glyph unicode="&#xa9;" horiz-adv-x="1656" d="M113 702q0 197 94.5 363.5t259 264t360.5 97.5q147 0 280 -57.5t228.5 -155t152 -231.5t56.5 -281q0 -196 -95.5 -362.5t-260.5 -263t-361 -96.5q-147 0 -279.5 57t-227.5 154t-151 230.5t-56 280.5zM188 702q0 -175 85 -323.5t232 -235t322 -86.5t322 86.5t232 235 t85 323.5q0 176 -85 325.5t-232 237t-322 87.5t-322 -87.5t-232 -237t-85 -325.5zM485 700q0 151 102 258t249 107q136 0 241 -100l-53 -58q-85 78 -188 78q-113 0 -192 -83.5t-79 -201.5t79 -201t192 -83q102 0 190 78l53 -60q-111 -96 -243 -96q-147 0 -249 105.5 t-102 256.5z" />
<glyph unicode="&#xaa;" horiz-adv-x="1122" d="M145 1122q0 169 115.5 284.5t278.5 115.5q102 0 190 -50t135 -135v168h86v-766h-86v168q-47 -85 -135 -134.5t-190 -49.5q-163 0 -278.5 115t-115.5 284zM178 508v80h760v-80h-760zM231 1122q0 -132 92.5 -224.5t221.5 -92.5q133 0 226 88.5t93 224.5q0 140 -93.5 230 t-225.5 90q-129 0 -221.5 -92t-92.5 -224z" />
<glyph unicode="&#xab;" horiz-adv-x="854" d="M104 475l283 424h98l-282 -424l282 -424h-98zM367 475l282 424h96l-282 -424l285 -424h-99z" />
<glyph unicode="&#xac;" horiz-adv-x="1316" d="M168 604v88h987v-428h-90v340h-897z" />
<glyph unicode="&#xad;" horiz-adv-x="972" d="M152 420v90h669v-90h-669z" />
<glyph unicode="&#xae;" horiz-adv-x="1656" d="M113 702q0 197 94.5 363.5t259 264t360.5 97.5q147 0 280 -57.5t228.5 -155t152 -231.5t56.5 -281q0 -196 -95.5 -362.5t-260.5 -263t-361 -96.5q-147 0 -279.5 57t-227.5 154t-151 230.5t-56 280.5zM188 702q0 -175 85 -323.5t232 -235t322 -86.5t322 86.5t232 235 t85 323.5q0 176 -85 325.5t-232 237t-322 87.5t-322 -87.5t-232 -237t-85 -325.5zM600 338v731h270q58 0 103 -19.5t71 -53.5t39 -75t13 -87q0 -96 -45 -159.5t-138 -74.5l174 -262h-88l-172 258h-149v-258h-78zM678 670h188q77 0 114.5 46t37.5 113q0 68 -37 115t-111 47 h-192v-321z" />
<glyph unicode="&#xaf;" horiz-adv-x="970" d="M246 1229v80h479v-80h-479z" />
<glyph unicode="&#xb0;" horiz-adv-x="700" d="M111 1190q0 99 70 168t169 69t168.5 -69t69.5 -168q0 -100 -70 -170t-168 -70t-168.5 70t-70.5 170zM186 1190q0 -68 48 -116t116 -48q66 0 115 48.5t49 115.5t-48.5 114.5t-115.5 47.5q-68 0 -116 -47.5t-48 -114.5z" />
<glyph unicode="&#xb1;" horiz-adv-x="1089" d="M141 0v86h807v-86h-807zM141 516v88h359v326h90v-326h358v-88h-358v-330h-90v330h-359z" />
<glyph unicode="&#xb2;" horiz-adv-x="620" d="M76 1657q17 82 78 130t151 48q100 0 162.5 -59t62.5 -154q0 -89 -79 -186l-236 -277h322v-78h-457v39l305 365q64 78 64 139q0 60 -41.5 97.5t-104.5 37.5q-59 0 -100 -31.5t-51 -85.5z" />
<glyph unicode="&#xb3;" horiz-adv-x="649" d="M63 1206l62 41q25 -47 69.5 -73.5t100.5 -26.5q82 0 134 40t52 105q0 67 -46 108.5t-116 41.5h-75v67h63q62 0 99.5 35.5t35.5 91.5q0 55 -39 89t-104 34q-45 0 -86 -22t-63 -56l-52 50q33 47 87.5 75.5t117.5 28.5q99 0 161 -54t62 -143q0 -51 -27.5 -92t-74.5 -63 q63 -19 102 -71.5t39 -121.5q0 -98 -75 -158.5t-191 -60.5q-77 0 -140.5 35.5t-95.5 99.5z" />
<glyph unicode="&#xb4;" horiz-adv-x="905" d="M264 1110l197 309h108l-217 -309h-88z" />
<glyph unicode="&#xb5;" horiz-adv-x="1212" d="M199 -291v1247h92v-561q0 -149 82.5 -237t212.5 -88q66 0 123.5 19t105.5 58.5t76.5 108.5t30.5 160v540h90v-956h-90v188q-26 -72 -82 -120.5t-119.5 -68t-134.5 -19.5q-94 0 -172 39t-123 110v-420h-92z" />
<glyph unicode="&#xb6;" horiz-adv-x="1206" d="M76 981q0 179 125 304.5t305 125.5h115v-1552h-89v690q-191 3 -323.5 128.5t-132.5 303.5zM532 -254h101q62 0 95.5 44.5t33.5 109.5v1511h123q104 0 179 -75t75 -181v-139h-88v139q0 70 -47 119t-115 49h-41v-1419q0 -99 -57.5 -170t-149.5 -72h-109v84z" />
<glyph unicode="&#xb7;" horiz-adv-x="464" d="M152 487q0 32 23 54t56 22q34 0 58 -22t24 -54t-24 -52.5t-58 -20.5q-33 0 -56 20.5t-23 52.5z" />
<glyph unicode="&#xb8;" horiz-adv-x="1032" d="M328 -199h75q5 -60 34.5 -94.5t78.5 -34.5q52 0 83.5 30.5t31.5 80.5q0 23 -13 49l-75 193h78l67 -164q19 -48 19 -80q0 -83 -53 -133.5t-138 -50.5t-136.5 56t-51.5 148z" />
<glyph unicode="&#xb9;" horiz-adv-x="432" d="M59 1647v79l242 109h6v-754h-80v639z" />
<glyph unicode="&#xba;" horiz-adv-x="1105" d="M152 1124q0 177 116 287.5t285 110.5t285 -110.5t116 -287.5q0 -179 -116 -290t-285 -111t-285 111t-116 290zM174 508v80h760v-80h-760zM238 1124q0 -142 91 -230.5t224 -88.5q134 0 225.5 88.5t91.5 230.5q0 141 -91.5 228.5t-225.5 87.5t-224.5 -87t-90.5 -229z" />
<glyph unicode="&#xbb;" horiz-adv-x="854" d="M106 51l285 424l-282 424h96l282 -424l-282 -424h-99zM369 51l284 424l-282 424h96l283 -424l-283 -424h-98z" />
<glyph unicode="&#xbc;" horiz-adv-x="1417" d="M59 1180v77l240 109h8v-754h-82v637zM106 -20l920 1396h88l-917 -1396h-91zM770 154v24l424 565h43v-514h117v-75h-117v-154h-82v154h-385zM893 229h262v353z" />
<glyph unicode="&#xbd;" horiz-adv-x="1421" d="M59 1180v77l240 109h8v-754h-82v637zM106 -20l920 1396h88l-917 -1396h-91zM877 578q15 82 75.5 129t151.5 47q100 0 162.5 -58t62.5 -153q0 -93 -80 -187l-237 -278h323v-78h-456v41l305 362q63 80 63 140t-41 97.5t-104 37.5q-58 0 -99 -31t-53 -84z" />
<glyph unicode="&#xbe;" horiz-adv-x="1634" d="M63 737l62 43q25 -48 70 -75t100 -27q82 0 134 40.5t52 106.5t-46 108t-116 42h-75v67h63q63 0 100 34.5t35 90.5q0 55 -39 89t-104 34q-45 0 -86 -22t-63 -56l-52 50q33 47 87.5 75.5t117.5 28.5q99 0 161 -54t62 -141q0 -51 -27.5 -92t-74.5 -65q62 -19 101.5 -71.5 t39.5 -121.5q0 -98 -75 -158.5t-191 -60.5q-77 0 -140.5 36t-95.5 99zM324 -20l919 1396h88l-917 -1396h-90zM987 154v24l424 565h43v-514h117v-75h-117v-154h-82v154h-385zM1110 229h262v353z" />
<glyph unicode="&#xbf;" horiz-adv-x="927" d="M70 -94q0 136 80 234.5t202 135.5q51 15 82 29t61 38t44 61t14 90v133h90v-133q0 -114 -43 -175t-127 -96l-94 -33q-95 -31 -157 -105.5t-62 -178.5q0 -132 90.5 -213.5t218.5 -81.5q120 0 205.5 72t95.5 196h88q-7 -108 -61.5 -190t-140 -124t-187.5 -42 q-106 0 -196.5 46.5t-146.5 135t-56 201.5zM516 903q0 32 24 53t58 21q33 0 56.5 -21t23.5 -53t-23.5 -54t-56.5 -22q-34 0 -58 22t-24 54z" />
<glyph unicode="&#xc0;" horiz-adv-x="1218" d="M20 0l541 1411h98l537 -1411h-96l-148 385h-686l-147 -385h-99zM297 467h625l-312 819zM365 1866h108l193 -312h-88z" />
<glyph unicode="&#xc1;" horiz-adv-x="1218" d="M20 0l541 1411h98l537 -1411h-96l-148 385h-686l-147 -385h-99zM297 467h625l-312 819zM565 1554l197 312h108l-217 -312h-88z" />
<glyph unicode="&#xc2;" horiz-adv-x="1218" d="M20 0l541 1411h98l537 -1411h-96l-148 385h-686l-147 -385h-99zM297 467h625l-312 819zM326 1554l233 312h105l233 -312h-88l-199 238l-198 -238h-86z" />
<glyph unicode="&#xc3;" horiz-adv-x="1218" d="M20 0l541 1411h98l537 -1411h-96l-148 385h-686l-147 -385h-99zM297 467h625l-312 819zM365 1604q3 84 44 130t103 46q32 0 62 -16.5t49 -37t42 -37t44 -16.5q30 0 50 26.5t21 72.5h76q-3 -83 -44.5 -130t-102.5 -47q-32 0 -62.5 17t-49.5 37.5t-42 37.5t-43 17 q-30 0 -50.5 -27t-21.5 -73h-75z" />
<glyph unicode="&#xc4;" horiz-adv-x="1218" d="M20 0l541 1411h98l537 -1411h-96l-148 385h-686l-147 -385h-99zM297 467h625l-312 819zM375 1718q0 32 22.5 53t55.5 21q34 0 56.5 -21t22.5 -53q0 -31 -22.5 -51t-56.5 -20q-33 0 -55.5 20.5t-22.5 50.5zM686 1718q0 32 22.5 53t55.5 21q34 0 57 -21t23 -53 q0 -31 -23 -51t-57 -20q-33 0 -55.5 20.5t-22.5 50.5z" />
<glyph unicode="&#xc5;" horiz-adv-x="1218" d="M20 0l541 1411h98l537 -1411h-96l-148 385h-686l-147 -385h-99zM297 467h625l-312 819zM430 1747q0 75 51.5 128.5t124.5 53.5q76 0 130.5 -53.5t54.5 -128.5t-54 -126.5t-131 -51.5q-74 0 -125 51.5t-51 126.5zM498 1747q0 -46 32 -78.5t76 -32.5q49 0 83 32.5t34 78.5 q0 48 -34 81.5t-83 33.5q-44 0 -76 -34t-32 -81z" />
<glyph unicode="&#xc6;" horiz-adv-x="1912" d="M-29 0l906 1411h903v-88h-690v-586h604v-90h-604v-559h712v-88h-805v389h-669l-250 -389h-107zM385 479h612v842h-71z" />
<glyph unicode="&#xc7;" horiz-adv-x="1368" d="M115 702q0 148 54.5 282t147.5 231t222.5 154.5t273.5 57.5q137 0 260 -50.5t217 -141.5l-63 -61q-81 77 -188 120t-226 43q-125 0 -237.5 -50.5t-193 -135.5t-128 -202.5t-47.5 -246.5q0 -172 80 -317.5t219.5 -231t306.5 -85.5q239 0 412 163l63 -61q-88 -86 -204 -136 t-246 -54l49 -119q18 -45 18 -80q0 -83 -52.5 -133.5t-137.5 -50.5t-137 56t-52 148h76q5 -60 34.5 -94.5t78.5 -34.5q52 0 83 30.5t31 80.5q0 25 -12 49l-59 150q-180 14 -327.5 113t-231.5 259t-84 348z" />
<glyph unicode="&#xc8;" horiz-adv-x="1132" d="M217 0v1411h782v-88h-690v-586h604v-90h-604v-559h715v-88h-807zM326 1866h108l193 -312h-88z" />
<glyph unicode="&#xc9;" horiz-adv-x="1132" d="M217 0v1411h782v-88h-690v-586h604v-90h-604v-559h715v-88h-807zM526 1554l197 312h108l-217 -312h-88z" />
<glyph unicode="&#xca;" horiz-adv-x="1132" d="M217 0v1411h782v-88h-690v-586h604v-90h-604v-559h715v-88h-807zM287 1554l233 312h105l233 -312h-88l-199 238l-198 -238h-86z" />
<glyph unicode="&#xcb;" horiz-adv-x="1132" d="M217 0v1411h782v-88h-690v-586h604v-90h-604v-559h715v-88h-807zM336 1718q0 32 22.5 53t55.5 21q34 0 57 -21t23 -53q0 -31 -23 -51t-57 -20q-33 0 -55.5 20.5t-22.5 50.5zM647 1718q0 32 22.5 53t55.5 21q34 0 57 -21t23 -53q0 -31 -23 -51t-57 -20q-33 0 -55.5 20.5 t-22.5 50.5z" />
<glyph unicode="&#xcc;" horiz-adv-x="528" d="M18 1866h109l192 -312h-88zM217 0v1411h92v-1411h-92z" />
<glyph unicode="&#xcd;" horiz-adv-x="528" d="M217 0v1411h92v-1411h-92zM219 1554l197 312h108l-217 -312h-88z" />
<glyph unicode="&#xce;" horiz-adv-x="528" d="M-20 1554l233 312h104l234 -312h-88l-199 238l-198 -238h-86zM217 0v1411h92v-1411h-92z" />
<glyph unicode="&#xcf;" horiz-adv-x="528" d="M29 1718q0 32 22 53t55 21q34 0 57 -21t23 -53q0 -31 -23 -51t-57 -20q-33 0 -55 20t-22 51zM217 0v1411h92v-1411h-92zM340 1718q0 32 22.5 53t55.5 21q34 0 57 -21t23 -53q0 -31 -23 -51t-57 -20q-33 0 -55.5 20.5t-22.5 50.5z" />
<glyph unicode="&#xd0;" horiz-adv-x="1497" d="M59 659v76h166v676h529q193 0 335.5 -94t214.5 -253.5t72 -361.5q0 -150 -42 -278t-120 -222.5t-196.5 -148t-263.5 -53.5h-529v659h-166zM317 88h437q166 0 287.5 81.5t182 219t60.5 313.5q0 177 -60.5 316t-182.5 222t-287 83h-437v-588h433v-76h-433v-571z" />
<glyph unicode="&#xd1;" horiz-adv-x="1417" d="M217 0v1411h105l784 -1261v1261h92v-1411h-102l-787 1260v-1260h-92zM463 1604q3 84 44 130t103 46q32 0 62 -16.5t49 -37t42 -37t44 -16.5q30 0 50.5 26.5t21.5 72.5h75q-3 -83 -44.5 -130t-102.5 -47q-32 0 -62.5 17t-49.5 37.5t-42 37.5t-43 17q-30 0 -50 -27t-21 -73 h-76z" />
<glyph unicode="&#xd2;" horiz-adv-x="1648" d="M115 702q0 198 93.5 364.5t256.5 263.5t358 97q197 0 361 -97t258 -263.5t94 -364.5q0 -147 -55.5 -280.5t-150 -230.5t-227 -154t-280.5 -57q-146 0 -277.5 57t-225.5 154t-149.5 230.5t-55.5 280.5zM207 702q0 -172 81 -317.5t223 -231t312 -85.5q171 0 314 85.5 t225 231t82 317.5q0 129 -48.5 246.5t-131 203.5t-198 136.5t-243.5 50.5q-170 0 -312 -86t-223 -232t-81 -319zM580 1866h108l193 -312h-88z" />
<glyph unicode="&#xd3;" horiz-adv-x="1648" d="M115 702q0 198 93.5 364.5t256.5 263.5t358 97q197 0 361 -97t258 -263.5t94 -364.5q0 -147 -55.5 -280.5t-150 -230.5t-227 -154t-280.5 -57q-146 0 -277.5 57t-225.5 154t-149.5 230.5t-55.5 280.5zM207 702q0 -172 81 -317.5t223 -231t312 -85.5q171 0 314 85.5 t225 231t82 317.5q0 129 -48.5 246.5t-131 203.5t-198 136.5t-243.5 50.5q-170 0 -312 -86t-223 -232t-81 -319zM780 1554l197 312h108l-217 -312h-88z" />
<glyph unicode="&#xd4;" horiz-adv-x="1648" d="M115 702q0 198 93.5 364.5t256.5 263.5t358 97q197 0 361 -97t258 -263.5t94 -364.5q0 -147 -55.5 -280.5t-150 -230.5t-227 -154t-280.5 -57q-146 0 -277.5 57t-225.5 154t-149.5 230.5t-55.5 280.5zM207 702q0 -172 81 -317.5t223 -231t312 -85.5q171 0 314 85.5 t225 231t82 317.5q0 129 -48.5 246.5t-131 203.5t-198 136.5t-243.5 50.5q-170 0 -312 -86t-223 -232t-81 -319zM541 1554l233 312h105l233 -312h-88l-199 238l-198 -238h-86z" />
<glyph unicode="&#xd5;" horiz-adv-x="1648" d="M115 702q0 198 93.5 364.5t256.5 263.5t358 97q197 0 361 -97t258 -263.5t94 -364.5q0 -147 -55.5 -280.5t-150 -230.5t-227 -154t-280.5 -57q-146 0 -277.5 57t-225.5 154t-149.5 230.5t-55.5 280.5zM207 702q0 -172 81 -317.5t223 -231t312 -85.5q171 0 314 85.5 t225 231t82 317.5q0 129 -48.5 246.5t-131 203.5t-198 136.5t-243.5 50.5q-170 0 -312 -86t-223 -232t-81 -319zM580 1604q3 84 44 130t103 46q32 0 62 -16.5t49 -37t42 -37t44 -16.5q30 0 50 26.5t21 72.5h76q-3 -83 -44.5 -130t-102.5 -47q-32 0 -62.5 17t-49.5 37.5 t-42 37.5t-43 17q-30 0 -50.5 -27t-21.5 -73h-75z" />
<glyph unicode="&#xd6;" horiz-adv-x="1648" d="M115 702q0 198 93.5 364.5t256.5 263.5t358 97q197 0 361 -97t258 -263.5t94 -364.5q0 -147 -55.5 -280.5t-150 -230.5t-227 -154t-280.5 -57q-146 0 -277.5 57t-225.5 154t-149.5 230.5t-55.5 280.5zM207 702q0 -172 81 -317.5t223 -231t312 -85.5q171 0 314 85.5 t225 231t82 317.5q0 129 -48.5 246.5t-131 203.5t-198 136.5t-243.5 50.5q-170 0 -312 -86t-223 -232t-81 -319zM590 1718q0 32 22.5 53t55.5 21q34 0 57 -21t23 -53q0 -31 -23 -51t-57 -20q-33 0 -55.5 20.5t-22.5 50.5zM901 1718q0 32 22.5 53t55.5 21q34 0 57 -21t23 -53 q0 -31 -23 -51t-57 -20q-33 0 -55.5 20.5t-22.5 50.5z" />
<glyph unicode="&#xd7;" horiz-adv-x="942" d="M147 295l263 262l-260 258l61 62l260 -259l260 261l62 -64l-261 -260l263 -260l-62 -64l-262 263l-260 -261z" />
<glyph unicode="&#xd8;" horiz-adv-x="1660" d="M117 33l182 186q-85 97 -131.5 221t-46.5 260q0 198 93.5 364.5t256.5 263.5t358 97q137 0 260 -48t218 -136l184 186l55 -53l-184 -188q86 -96 133 -222t47 -264q0 -197 -94 -363t-258 -263t-361 -97q-136 0 -257.5 48.5t-217.5 136.5l-182 -185zM213 700 q0 -236 152 -415l878 893q-177 159 -414 159q-170 0 -312 -85.5t-223 -231.5t-81 -320zM418 227q177 -159 411 -159q171 0 314 85t225 230t82 317q0 242 -154 420z" />
<glyph unicode="&#xd9;" horiz-adv-x="1388" d="M201 469v942h92v-942q0 -181 116 -291t285 -110q170 0 286 110t116 291v942h92v-942q0 -146 -68 -260t-179.5 -173t-246.5 -59q-100 0 -190 35t-157 97.5t-106.5 156t-39.5 203.5zM449 1866h108l193 -312h-88z" />
<glyph unicode="&#xda;" horiz-adv-x="1388" d="M201 469v942h92v-942q0 -181 116 -291t285 -110q170 0 286 110t116 291v942h92v-942q0 -146 -68 -260t-179.5 -173t-246.5 -59q-100 0 -190 35t-157 97.5t-106.5 156t-39.5 203.5zM649 1554l197 312h108l-217 -312h-88z" />
<glyph unicode="&#xdb;" horiz-adv-x="1388" d="M201 469v942h92v-942q0 -181 116 -291t285 -110q170 0 286 110t116 291v942h92v-942q0 -146 -68 -260t-179.5 -173t-246.5 -59q-100 0 -190 35t-157 97.5t-106.5 156t-39.5 203.5zM410 1554l233 312h105l233 -312h-88l-199 238l-198 -238h-86z" />
<glyph unicode="&#xdc;" horiz-adv-x="1388" d="M201 469v942h92v-942q0 -181 116 -291t285 -110q170 0 286 110t116 291v942h92v-942q0 -146 -68 -260t-179.5 -173t-246.5 -59q-100 0 -190 35t-157 97.5t-106.5 156t-39.5 203.5zM459 1718q0 32 22.5 53t55.5 21q34 0 56.5 -21t22.5 -53q0 -31 -22.5 -51t-56.5 -20 q-33 0 -55.5 20.5t-22.5 50.5zM770 1718q0 32 22.5 53t55.5 21q34 0 57 -21t23 -53q0 -31 -23 -51t-57 -20q-33 0 -55.5 20.5t-22.5 50.5z" />
<glyph unicode="&#xdd;" horiz-adv-x="1193" d="M20 1411h111l465 -653l469 653h111l-535 -741v-670h-92v672zM553 1554l197 312h108l-217 -312h-88z" />
<glyph unicode="&#xde;" horiz-adv-x="1187" d="M217 0v1411h92v-287h369q174 0 291.5 -114t117.5 -299q0 -187 -117.5 -304.5t-291.5 -117.5h-369v-289h-92zM309 377h369q136 0 227.5 93.5t91.5 240.5q0 146 -92.5 235.5t-230.5 89.5h-365v-659z" />
<glyph unicode="&#xdf;" horiz-adv-x="1185" d="M172 0v1075q0 209 108.5 327t294.5 118q179 0 283.5 -105.5t104.5 -251.5q0 -100 -52.5 -188.5t-136.5 -116.5q137 -28 222 -150.5t85 -273.5q0 -124 -54.5 -226t-162 -164t-248.5 -62q-103 -3 -204 38l24 82q95 -37 178 -34q175 0 276 106.5t101 271.5 q-6 154 -107.5 258.5t-256.5 104.5h-72v82h68q108 0 178.5 78.5t70.5 189.5q0 114 -78.5 193.5t-218.5 79.5q-148 0 -230.5 -94t-82.5 -263v-1075h-90z" />
<glyph unicode="&#xe0;" d="M102 479q0 139 66.5 253.5t180 179.5t247.5 65q132 0 242.5 -64t171.5 -172v215h90v-956h-90v213q-59 -106 -171 -169.5t-243 -63.5q-134 0 -247.5 65t-180 180t-66.5 254zM193 479q0 -171 119.5 -291t287.5 -120q170 0 290 114.5t120 288.5q0 183 -120.5 300.5 t-289.5 117.5q-168 0 -287.5 -119.5t-119.5 -290.5zM391 1411h109l192 -311h-88z" />
<glyph unicode="&#xe1;" d="M102 479q0 139 66.5 253.5t180 179.5t247.5 65q132 0 242.5 -64t171.5 -172v215h90v-956h-90v213q-59 -106 -171 -169.5t-243 -63.5q-134 0 -247.5 65t-180 180t-66.5 254zM193 479q0 -171 119.5 -291t287.5 -120q170 0 290 114.5t120 288.5q0 183 -120.5 300.5 t-289.5 117.5q-168 0 -287.5 -119.5t-119.5 -290.5zM592 1100l196 311h109l-217 -311h-88z" />
<glyph unicode="&#xe2;" d="M102 479q0 139 66.5 253.5t180 179.5t247.5 65q132 0 242.5 -64t171.5 -172v215h90v-956h-90v213q-59 -106 -171 -169.5t-243 -63.5q-134 0 -247.5 65t-180 180t-66.5 254zM193 479q0 -171 119.5 -291t287.5 -120q170 0 290 114.5t120 288.5q0 183 -120.5 300.5 t-289.5 117.5q-168 0 -287.5 -119.5t-119.5 -290.5zM352 1100l234 311h104l234 -311h-88l-199 237l-199 -237h-86z" />
<glyph unicode="&#xe3;" d="M102 479q0 139 66.5 253.5t180 179.5t247.5 65q132 0 242.5 -64t171.5 -172v215h90v-956h-90v213q-59 -106 -171 -169.5t-243 -63.5q-134 0 -247.5 65t-180 180t-66.5 254zM193 479q0 -171 119.5 -291t287.5 -120q170 0 290 114.5t120 288.5q0 183 -120.5 300.5 t-289.5 117.5q-168 0 -287.5 -119.5t-119.5 -290.5zM391 1149q3 84 44.5 130t103.5 46q32 0 62 -16.5t48.5 -36.5t41.5 -36.5t44 -16.5q30 0 50.5 26t21.5 72h76q-3 -83 -45 -129.5t-103 -46.5q-32 0 -62 17t-49 37t-42 37t-43 17q-30 0 -50.5 -27t-21.5 -73h-76z" />
<glyph unicode="&#xe4;" d="M102 479q0 139 66.5 253.5t180 179.5t247.5 65q132 0 242.5 -64t171.5 -172v215h90v-956h-90v213q-59 -106 -171 -169.5t-243 -63.5q-134 0 -247.5 65t-180 180t-66.5 254zM193 479q0 -171 119.5 -291t287.5 -120q170 0 290 114.5t120 288.5q0 183 -120.5 300.5 t-289.5 117.5q-168 0 -287.5 -119.5t-119.5 -290.5zM401 1264q0 32 22.5 52.5t55.5 20.5q34 0 57 -20.5t23 -52.5q0 -31 -23 -51.5t-57 -20.5q-32 0 -55 20.5t-23 51.5zM713 1264q0 32 22.5 52.5t55.5 20.5q34 0 56.5 -20.5t22.5 -52.5q0 -31 -22.5 -51.5t-56.5 -20.5 q-32 0 -55 20.5t-23 51.5z" />
<glyph unicode="&#xe5;" d="M102 479q0 139 66.5 253.5t180 179.5t247.5 65q132 0 242.5 -64t171.5 -172v215h90v-956h-90v213q-59 -106 -171 -169.5t-243 -63.5q-134 0 -247.5 65t-180 180t-66.5 254zM193 479q0 -171 119.5 -291t287.5 -120q170 0 290 114.5t120 288.5q0 183 -120.5 300.5 t-289.5 117.5q-168 0 -287.5 -119.5t-119.5 -290.5zM457 1292q0 75 51.5 129t124.5 54q76 0 130 -54t54 -129t-53.5 -126.5t-130.5 -51.5q-74 0 -125 51.5t-51 126.5zM524 1292q0 -46 32 -78t77 -32q49 0 83 32t34 78q0 48 -34 81.5t-83 33.5q-44 0 -76.5 -34t-32.5 -81z " />
<glyph unicode="&#xe6;" horiz-adv-x="1898" d="M88 252q0 128 102 207.5t275 79.5q91 0 196.5 -23t190.5 -61v131q0 305 -342 305q-177 0 -301 -121l-59 61q127 146 374 146q316 0 396 -236q62 111 171.5 173.5t243.5 62.5q206 0 337.5 -136.5t131.5 -359.5v-39h-858q12 -169 120.5 -271.5t270.5 -102.5q107 0 196.5 48 t143.5 134l78 -39q-64 -110 -175 -170.5t-245 -60.5q-137 0 -249 64.5t-175 180.5q-202 -248 -483 -248q-153 0 -246.5 75.5t-93.5 199.5zM176 256q0 -87 67 -140t179 -53q126 0 256 70.5t196 169.5l-22 68q-83 40 -188.5 63t-198.5 23q-135 0 -212 -56t-77 -145zM946 520 h768q-10 169 -114.5 269t-264.5 100q-166 0 -271 -99t-118 -270z" />
<glyph unicode="&#xe7;" horiz-adv-x="1015" d="M104 481q0 146 69 260.5t183 175t250 60.5q183 0 324 -115l-53 -65q-120 92 -271 92q-173 0 -292 -113t-119 -295q0 -183 119 -298t292 -115q152 0 271 92l55 -66q-112 -92 -260 -110l51 -123q18 -45 18 -80q0 -83 -52.5 -133.5t-137.5 -50.5t-137 56t-52 148h76 q5 -60 34.5 -94.5t78.5 -34.5q52 0 83.5 30.5t31.5 80.5q0 23 -13 49l-57 148q-134 3 -245.5 64.5t-179 176.5t-67.5 260z" />
<glyph unicode="&#xe8;" horiz-adv-x="1153" d="M106 481q0 147 64.5 261t174.5 174.5t245 60.5q205 0 337 -136.5t132 -359.5q0 -27 -2 -39h-858q12 -171 120 -272.5t273 -101.5q106 0 196 48t142 134l78 -39q-62 -109 -173.5 -170t-244.5 -61q-207 0 -345.5 139t-138.5 362zM199 520h770q-10 168 -115 268.5 t-264 100.5q-162 0 -269 -98.5t-122 -270.5zM328 1411h108l193 -311h-88z" />
<glyph unicode="&#xe9;" horiz-adv-x="1153" d="M106 481q0 147 64.5 261t174.5 174.5t245 60.5q205 0 337 -136.5t132 -359.5q0 -27 -2 -39h-858q12 -171 120 -272.5t273 -101.5q106 0 196 48t142 134l78 -39q-62 -109 -173.5 -170t-244.5 -61q-207 0 -345.5 139t-138.5 362zM199 520h770q-10 168 -115 268.5 t-264 100.5q-162 0 -269 -98.5t-122 -270.5zM528 1100l197 311h109l-218 -311h-88z" />
<glyph unicode="&#xea;" horiz-adv-x="1153" d="M106 481q0 147 64.5 261t174.5 174.5t245 60.5q205 0 337 -136.5t132 -359.5q0 -27 -2 -39h-858q12 -171 120 -272.5t273 -101.5q106 0 196 48t142 134l78 -39q-62 -109 -173.5 -170t-244.5 -61q-207 0 -345.5 139t-138.5 362zM199 520h770q-10 168 -115 268.5 t-264 100.5q-162 0 -269 -98.5t-122 -270.5zM289 1100l233 311h105l233 -311h-88l-199 237l-198 -237h-86z" />
<glyph unicode="&#xeb;" horiz-adv-x="1153" d="M106 481q0 147 64.5 261t174.5 174.5t245 60.5q205 0 337 -136.5t132 -359.5q0 -27 -2 -39h-858q12 -171 120 -272.5t273 -101.5q106 0 196 48t142 134l78 -39q-62 -109 -173.5 -170t-244.5 -61q-207 0 -345.5 139t-138.5 362zM199 520h770q-10 168 -115 268.5 t-264 100.5q-162 0 -269 -98.5t-122 -270.5zM338 1264q0 32 22.5 52.5t55.5 20.5q34 0 57 -20.5t23 -52.5q0 -31 -23 -51.5t-57 -20.5q-32 0 -55 20.5t-23 51.5zM649 1264q0 32 22.5 52.5t55.5 20.5q34 0 57 -20.5t23 -52.5q0 -31 -23 -51.5t-57 -20.5q-32 0 -55 20.5 t-23 51.5z" />
<glyph unicode="&#xec;" horiz-adv-x="434" d="M-45 1419h108l193 -309h-88zM172 0v956h90v-956h-90z" />
<glyph unicode="&#xed;" horiz-adv-x="434" d="M170 1110l197 309h108l-217 -309h-88zM172 0v956h90v-956h-90z" />
<glyph unicode="&#xee;" horiz-adv-x="434" d="M-68 1110l234 309h104l234 -309h-88l-199 236l-199 -236h-86zM172 0v956h90v-956h-90z" />
<glyph unicode="&#xef;" horiz-adv-x="434" d="M-16 1276q0 32 22 53t55 21q34 0 57 -21t23 -53q0 -31 -23 -51.5t-57 -20.5q-32 0 -54.5 20.5t-22.5 51.5zM172 0v956h90v-956h-90zM295 1276q0 32 22.5 53t55.5 21q34 0 57 -21t23 -53q0 -31 -23 -51.5t-57 -20.5q-32 0 -55 20.5t-23 51.5z" />
<glyph unicode="&#xf0;" horiz-adv-x="1210" d="M104 481q0 147 68 261.5t181.5 174.5t250.5 60q88 0 164 -27l-223 283l-260 -105l-27 60l246 98l-176 223h108l150 -188l194 78l27 -60l-180 -71l360 -459q117 -130 117 -328q0 -148 -68.5 -264t-182 -176.5t-249.5 -60.5q-137 0 -250.5 60.5t-181.5 176t-68 264.5z M195 481q0 -185 118 -299t291 -114q172 0 291 114.5t119 298.5q0 183 -119 295.5t-291 112.5q-173 0 -291 -112.5t-118 -295.5z" />
<glyph unicode="&#xf1;" horiz-adv-x="1157" d="M172 0v956h90v-196q26 75 84.5 125.5t124 71t137.5 20.5q172 0 280.5 -112t108.5 -304v-561h-90v557q0 151 -86 240.5t-219 89.5q-66 0 -123.5 -19.5t-106.5 -59t-78.5 -108.5t-31.5 -161v-539h-90zM334 1149q3 84 44 130t103 46q32 0 62 -16.5t49 -36.5t42 -36.5 t44 -16.5q30 0 50.5 26t21.5 72h75q-3 -83 -44.5 -129.5t-102.5 -46.5q-32 0 -62.5 17t-49.5 37t-42 37t-43 17q-30 0 -50 -27t-21 -73h-76z" />
<glyph unicode="&#xf2;" horiz-adv-x="1208" d="M104 481q0 147 68 261.5t181.5 174.5t250.5 60t250 -60t181.5 -174.5t68.5 -261.5q0 -148 -68.5 -264t-182 -176.5t-249.5 -60.5q-137 0 -250.5 60.5t-181.5 176t-68 264.5zM195 481q0 -185 118 -299t291 -114q172 0 291 114.5t119 298.5q0 183 -119 295.5t-291 112.5 q-173 0 -291 -112.5t-118 -295.5zM358 1411h109l192 -311h-88z" />
<glyph unicode="&#xf3;" horiz-adv-x="1208" d="M104 481q0 147 68 261.5t181.5 174.5t250.5 60t250 -60t181.5 -174.5t68.5 -261.5q0 -148 -68.5 -264t-182 -176.5t-249.5 -60.5q-137 0 -250.5 60.5t-181.5 176t-68 264.5zM195 481q0 -185 118 -299t291 -114q172 0 291 114.5t119 298.5q0 183 -119 295.5t-291 112.5 q-173 0 -291 -112.5t-118 -295.5zM559 1100l197 311h108l-217 -311h-88z" />
<glyph unicode="&#xf4;" horiz-adv-x="1208" d="M104 481q0 147 68 261.5t181.5 174.5t250.5 60t250 -60t181.5 -174.5t68.5 -261.5q0 -148 -68.5 -264t-182 -176.5t-249.5 -60.5q-137 0 -250.5 60.5t-181.5 176t-68 264.5zM195 481q0 -185 118 -299t291 -114q172 0 291 114.5t119 298.5q0 183 -119 295.5t-291 112.5 q-173 0 -291 -112.5t-118 -295.5zM319 1100l234 311h104l234 -311h-88l-199 237l-198 -237h-87z" />
<glyph unicode="&#xf5;" horiz-adv-x="1208" d="M104 481q0 147 68 261.5t181.5 174.5t250.5 60t250 -60t181.5 -174.5t68.5 -261.5q0 -148 -68.5 -264t-182 -176.5t-249.5 -60.5q-137 0 -250.5 60.5t-181.5 176t-68 264.5zM195 481q0 -185 118 -299t291 -114q172 0 291 114.5t119 298.5q0 183 -119 295.5t-291 112.5 q-173 0 -291 -112.5t-118 -295.5zM358 1149q3 84 44.5 130t103.5 46q32 0 62 -16.5t48.5 -36.5t41.5 -36.5t44 -16.5q30 0 50.5 26t21.5 72h76q-3 -83 -45 -129.5t-103 -46.5q-32 0 -62 17t-49 37t-42 37t-43 17q-30 0 -50.5 -27t-21.5 -73h-76z" />
<glyph unicode="&#xf6;" horiz-adv-x="1208" d="M104 481q0 147 68 261.5t181.5 174.5t250.5 60t250 -60t181.5 -174.5t68.5 -261.5q0 -148 -68.5 -264t-182 -176.5t-249.5 -60.5q-137 0 -250.5 60.5t-181.5 176t-68 264.5zM195 481q0 -185 118 -299t291 -114q172 0 291 114.5t119 298.5q0 183 -119 295.5t-291 112.5 q-173 0 -291 -112.5t-118 -295.5zM369 1264q0 32 22 52.5t55 20.5q34 0 57 -20.5t23 -52.5q0 -31 -23 -51.5t-57 -20.5q-32 0 -54.5 20.5t-22.5 51.5zM680 1264q0 32 22.5 52.5t55.5 20.5q34 0 57 -20.5t23 -52.5q0 -31 -23 -51.5t-57 -20.5q-32 0 -55 20.5t-23 51.5z" />
<glyph unicode="&#xf7;" horiz-adv-x="1142" d="M152 430v88h841v-88h-841zM492 117q0 33 22.5 54.5t56.5 21.5t58 -21.5t24 -54.5q0 -32 -24 -53t-58 -21t-56.5 21t-22.5 53zM492 825q0 32 22.5 53t56.5 21t58 -21t24 -53t-24 -53.5t-58 -21.5t-56.5 21.5t-22.5 53.5z" />
<glyph unicode="&#xf8;" horiz-adv-x="1216" d="M106 29l119 118q-116 135 -116 334q0 148 68 262t181 174t250 60q190 0 328 -113l117 117l55 -53l-117 -119q117 -130 117 -328q0 -148 -68.5 -264t-182 -176.5t-249.5 -60.5q-188 0 -325 112l-119 -121zM199 481q0 -153 90 -268l583 588q-111 88 -264 88 q-173 0 -291 -112.5t-118 -295.5zM346 156q111 -88 262 -88q172 0 291 114.5t119 298.5q0 153 -90 264z" />
<glyph unicode="&#xf9;" horiz-adv-x="1157" d="M158 395v561h90v-557q0 -151 86.5 -240t220.5 -89q66 0 123.5 19t106 59t77.5 109t31 161v538h90v-956h-90v190q-40 -106 -137 -158t-207 -52q-172 0 -281.5 112t-109.5 303zM334 1411h108l193 -311h-88z" />
<glyph unicode="&#xfa;" horiz-adv-x="1157" d="M158 395v561h90v-557q0 -151 86.5 -240t220.5 -89q66 0 123.5 19t106 59t77.5 109t31 161v538h90v-956h-90v190q-40 -106 -137 -158t-207 -52q-172 0 -281.5 112t-109.5 303zM535 1100l196 311h109l-217 -311h-88z" />
<glyph unicode="&#xfb;" horiz-adv-x="1157" d="M158 395v561h90v-557q0 -151 86.5 -240t220.5 -89q66 0 123.5 19t106 59t77.5 109t31 161v538h90v-956h-90v190q-40 -106 -137 -158t-207 -52q-172 0 -281.5 112t-109.5 303zM295 1100l233 311h105l233 -311h-88l-198 237l-199 -237h-86z" />
<glyph unicode="&#xfc;" horiz-adv-x="1157" d="M158 395v561h90v-557q0 -151 86.5 -240t220.5 -89q66 0 123.5 19t106 59t77.5 109t31 161v538h90v-956h-90v190q-40 -106 -137 -158t-207 -52q-172 0 -281.5 112t-109.5 303zM344 1264q0 32 22.5 52.5t55.5 20.5q34 0 57 -20.5t23 -52.5q0 -31 -23 -51.5t-57 -20.5 q-32 0 -55 20.5t-23 51.5zM655 1264q0 32 22.5 52.5t55.5 20.5q34 0 57 -20.5t23 -52.5q0 -31 -23 -51.5t-57 -20.5q-32 0 -55 20.5t-23 51.5z" />
<glyph unicode="&#xfd;" horiz-adv-x="1013" d="M55 956h99l354 -843l360 843h99l-605 -1419h-96l193 461zM465 1100l197 311h108l-217 -311h-88z" />
<glyph unicode="&#xfe;" horiz-adv-x="1271" d="M172 -463v1972h90v-770q59 108 170.5 173t245.5 65t246.5 -65t178.5 -179.5t66 -253.5t-66 -254t-179 -180t-246 -65t-245 64.5t-171 172.5v-680h-90zM262 471q0 -174 121 -288.5t291 -114.5q168 0 286.5 120t118.5 291t-118.5 290.5t-286.5 119.5q-110 0 -203.5 -51.5 t-151 -148.5t-57.5 -218z" />
<glyph unicode="&#xff;" horiz-adv-x="1013" d="M55 956h99l354 -843l360 843h99l-605 -1419h-96l193 461zM274 1264q0 32 22.5 52.5t55.5 20.5q34 0 57 -20.5t23 -52.5q0 -31 -23 -51.5t-57 -20.5q-32 0 -55 20.5t-23 51.5zM586 1264q0 32 22.5 52.5t55.5 20.5q34 0 56.5 -20.5t22.5 -52.5q0 -31 -22.5 -51.5 t-56.5 -20.5q-32 0 -55 20.5t-23 51.5z" />
<glyph unicode="&#x152;" horiz-adv-x="2359" d="M115 702q0 198 93.5 364.5t256.5 263.5t358 97q202 0 368 -102t253 -274v360h782v-88h-690v-586h604v-90h-604v-559h715v-88h-807v356q-87 -172 -253 -274t-368 -102q-146 0 -277.5 57t-225.5 154t-149.5 230.5t-55.5 280.5zM207 702q0 -172 81 -317.5t223 -231 t312 -85.5q171 0 314 85.5t225 231t82 317.5q0 129 -48.5 246.5t-131 203.5t-198 136.5t-243.5 50.5q-170 0 -312 -86t-223 -232t-81 -319z" />
<glyph unicode="&#x153;" horiz-adv-x="2060" d="M104 481q0 147 68 261.5t181.5 174.5t250.5 60q151 0 273 -74.5t180 -204.5q57 130 174.5 204.5t265.5 74.5q205 0 337 -136.5t132 -359.5v-39h-860q12 -172 119.5 -273t273.5 -101q107 0 196.5 48t141.5 134l80 -39q-64 -109 -175.5 -170t-244.5 -61q-148 0 -265.5 75 t-174.5 207q-58 -131 -180 -206.5t-273 -75.5q-137 0 -250.5 60.5t-181.5 176t-68 264.5zM195 481q0 -185 118 -299t291 -114q172 0 291 114.5t119 298.5q0 183 -119 295.5t-291 112.5q-173 0 -291 -112.5t-118 -295.5zM1106 520h770q-10 169 -114.5 269t-264.5 100 q-161 0 -266.5 -98t-124.5 -271z" />
<glyph unicode="&#x178;" horiz-adv-x="1193" d="M20 1411h111l465 -653l469 653h111l-535 -741v-670h-92v672zM362 1718q0 32 22.5 53t55.5 21q34 0 57 -21t23 -53q0 -31 -23 -51t-57 -20q-33 0 -55.5 20.5t-22.5 50.5zM674 1718q0 32 22.5 53t55.5 21q34 0 56.5 -21t22.5 -53q0 -31 -22.5 -51t-56.5 -20 q-33 0 -55.5 20.5t-22.5 50.5z" />
<glyph unicode="&#x2c6;" horiz-adv-x="1001" d="M215 1110l234 309h104l233 -309h-88l-198 236l-199 -236h-86z" />
<glyph unicode="&#x2dc;" horiz-adv-x="946" d="M227 1157q3 84 44.5 131t103.5 47q32 0 62 -17t48.5 -37t41.5 -37t44 -17q30 0 50.5 26t21.5 72h76q-3 -83 -45 -129.5t-103 -46.5q-32 0 -62 17t-49 37t-42 37t-43 17q-30 0 -50.5 -27t-21.5 -73h-76z" />
<glyph unicode="&#x2000;" horiz-adv-x="964" />
<glyph unicode="&#x2001;" horiz-adv-x="1929" />
<glyph unicode="&#x2002;" horiz-adv-x="964" />
<glyph unicode="&#x2003;" horiz-adv-x="1929" />
<glyph unicode="&#x2004;" horiz-adv-x="643" />
<glyph unicode="&#x2005;" horiz-adv-x="482" />
<glyph unicode="&#x2006;" horiz-adv-x="321" />
<glyph unicode="&#x2007;" horiz-adv-x="321" />
<glyph unicode="&#x2008;" horiz-adv-x="241" />
<glyph unicode="&#x2009;" horiz-adv-x="385" />
<glyph unicode="&#x200a;" horiz-adv-x="107" />
<glyph unicode="&#x2010;" horiz-adv-x="972" d="M152 420v90h669v-90h-669z" />
<glyph unicode="&#x2011;" horiz-adv-x="972" d="M152 420v90h669v-90h-669z" />
<glyph unicode="&#x2012;" horiz-adv-x="972" d="M152 420v90h669v-90h-669z" />
<glyph unicode="&#x2013;" horiz-adv-x="1206" d="M152 416v86h903v-86h-903z" />
<glyph unicode="&#x2014;" horiz-adv-x="1622" d="M152 416v86h1316v-86h-1316z" />
<glyph unicode="&#x2018;" horiz-adv-x="442" d="M129 897q-6 175 43.5 336t144.5 276l62 -22q-84 -119 -126.5 -271t-35.5 -319h-88z" />
<glyph unicode="&#x2019;" horiz-adv-x="444" d="M92 920q83 119 125 271t35 318h88q6 -173 -43 -334t-143 -278z" />
<glyph unicode="&#x201a;" horiz-adv-x="421" d="M14 -270q84 117 126.5 269.5t35.5 319.5h86q6 -174 -43 -335t-143 -277z" />
<glyph unicode="&#x201c;" horiz-adv-x="684" d="M129 897q-6 175 43.5 336t144.5 276l62 -22q-84 -119 -126.5 -271t-35.5 -319h-88zM373 897q-7 173 42 334.5t144 277.5l62 -22q-84 -119 -126.5 -271t-35.5 -319h-86z" />
<glyph unicode="&#x201d;" horiz-adv-x="686" d="M92 920q83 119 125 271t35 318h88q6 -173 -43 -334t-143 -278zM334 920q84 118 126 269.5t36 319.5h86q6 -173 -43.5 -334t-143.5 -278z" />
<glyph unicode="&#x201e;" horiz-adv-x="663" d="M14 -270q84 117 126.5 269.5t35.5 319.5h86q6 -174 -43 -335t-143 -277zM256 -270q84 117 126.5 269.5t35.5 319.5h86q7 -173 -42.5 -334t-144.5 -278z" />
<glyph unicode="&#x2022;" horiz-adv-x="870" d="M182 479q0 103 74.5 172.5t179.5 69.5t179.5 -69.5t74.5 -172.5q0 -102 -74.5 -170.5t-179.5 -68.5t-179.5 68.5t-74.5 170.5z" />
<glyph unicode="&#x2026;" horiz-adv-x="1277" d="M147 55q0 32 23 53t57 21t57 -21t23 -53t-23 -53.5t-57 -21.5t-57 21.5t-23 53.5zM557 55q0 32 23.5 53t56.5 21q34 0 58 -21t24 -53t-24 -53.5t-58 -21.5q-33 0 -56.5 21.5t-23.5 53.5zM969 55q0 32 23.5 53t56.5 21q34 0 57.5 -21t23.5 -53t-23.5 -53.5t-57.5 -21.5 q-33 0 -56.5 21.5t-23.5 53.5z" />
<glyph unicode="&#x202f;" horiz-adv-x="385" />
<glyph unicode="&#x2039;" horiz-adv-x="593" d="M104 475l283 424h98l-282 -424l282 -424h-98z" />
<glyph unicode="&#x203a;" horiz-adv-x="593" d="M106 51l285 424l-282 424h96l282 -424l-282 -424h-99z" />
<glyph unicode="&#x205f;" horiz-adv-x="482" />
<glyph unicode="&#x20ac;" horiz-adv-x="1552" d="M80 553v70h924v-70h-625q45 -210 206.5 -347.5t375.5 -137.5q234 0 409 161l62 -63q-96 -88 -217 -137t-254 -49q-252 0 -439 161.5t-235 411.5h-207zM80 731v70h207q50 248 236.5 409.5t437.5 161.5q133 0 255.5 -49.5t217.5 -138.5l-62 -64q-179 164 -411 164 q-212 0 -374 -137t-208 -346h625v-70h-924z" />
<glyph unicode="&#x2122;" horiz-adv-x="1951" d="M70 1331v80h622v-80h-268v-766h-88v766h-266zM780 565l107 846h80l323 -668l320 668h80l106 -846h-88l-86 688l-295 -602h-78l-295 606l-86 -692h-88z" />
<glyph unicode="&#x25fc;" horiz-adv-x="952" d="M0 0v952h952v-952h-952z" />
</font>
</defs>
</svg>
