<?xml version="1.0" standalone="no"?>
<!DOCTYPE svg PUBLIC "-//W3C//DTD SVG 1.1//EN" "http://www.w3.org/Graphics/SVG/1.1/DTD/svg11.dtd" >
<svg xmlns="http://www.w3.org/2000/svg" xmlns:xlink="http://www.w3.org/1999/xlink" version="1.1">
<metadata></metadata>
<defs>
<font id="sofia_problack_italic" horiz-adv-x="1261" >
<font-face units-per-em="2048" ascent="1638" descent="-410" />
<missing-glyph horiz-adv-x="477" />
<glyph unicode="&#xfb01;" horiz-adv-x="1333" d="M190 727l46 227h178l8 43q42 223 182 342t350 119h99l-56 -278h-34q-206 0 -240 -189l-6 -37h676l-187 -954h-303l141 727h-372l-142 -727h-303l142 727h-179zM1114 1276q13 74 79 125t142 51q78 0 121.5 -50.5t30.5 -125.5q-14 -72 -77.5 -124t-141.5 -52q-75 0 -121 52 t-33 124z" />
<glyph unicode="&#xfb02;" horiz-adv-x="1333" d="M190 727l46 227h178l8 43q42 223 182 342t350 119h537l-285 -1458h-303l230 1180h-170q-206 0 -240 -189l-6 -37h205l-45 -227h-205l-142 -727h-303l142 727h-179z" />
<glyph unicode="&#xfb03;" horiz-adv-x="2103" d="M190 727l46 227h178l8 43q42 223 182 342t350 119h121l-55 -278h-57q-206 0 -240 -189l-6 -37h469l8 43q42 224 181.5 342.5t350.5 118.5h60l-55 -278h-27q-85 0 -137 -44.5t-66 -119.5l-12 -62h674l-187 -954h-303l142 727h-371l-141 -727h-304l142 727h-469l-142 -727 h-303l142 727h-179zM1884 1276q13 74 79 125t144 51q77 0 121 -50.5t31 -125.5q-14 -72 -78.5 -124t-140.5 -52q-77 0 -123 52t-33 124z" />
<glyph unicode="&#xfb04;" horiz-adv-x="2103" d="M190 727l46 227h178l8 43q42 223 182 342t350 119h121l-55 -278h-57q-206 0 -240 -189l-6 -37h469l8 43q42 224 181.5 342.5t350.5 118.5h535l-285 -1458h-301l230 1180h-170q-206 0 -240 -189l-6 -37h203l-45 -227h-203l-141 -727h-304l142 727h-469l-142 -727h-303 l142 727h-179z" />
<glyph horiz-adv-x="0" />
<glyph horiz-adv-x="682" />
<glyph unicode=" "  horiz-adv-x="477" />
<glyph unicode="&#x09;" horiz-adv-x="477" />
<glyph unicode="&#xa0;" horiz-adv-x="477" />
<glyph unicode="!" horiz-adv-x="598" d="M145 164q15 76 79.5 127t140.5 51q77 0 122.5 -51t30.5 -127q-15 -78 -80 -130t-143 -52q-76 0 -120.5 52t-29.5 130zM279 498l135 913h319l-221 -913h-233z" />
<glyph unicode="&#x22;" horiz-adv-x="851" d="M303 799l74 612h270l-168 -612h-176zM680 799l74 612h270l-168 -612h-176z" />
<glyph unicode="#" horiz-adv-x="1488" d="M123 330l92 192h236l170 340h-234l94 193h238l176 356h221l-178 -356h238l182 356h217l-180 -356h239l-92 -193h-242l-172 -340h240l-94 -192h-238l-174 -330h-215l168 330h-240l-169 -330h-218l172 330h-237zM668 522h239l174 340h-239z" />
<glyph unicode="$" horiz-adv-x="1107" d="M158 432h317q-14 -72 22.5 -110.5t118.5 -38.5q71 0 117.5 33t57.5 87q16 83 -107 125l-141 47q-66 20 -116.5 48t-81 60t-50 66.5t-25.5 71t-5.5 68.5t7.5 65q30 152 157.5 257.5t301.5 127.5l41 203h154l-41 -203q167 -22 247.5 -130t45.5 -271h-318q14 65 -13 103 t-91 38q-62 0 -106.5 -33t-55.5 -85q-17 -77 96 -113l125 -41q35 -11 64.5 -23t62 -28.5t56.5 -34.5t48.5 -41.5t38.5 -49.5t25.5 -58.5t10.5 -69t-7 -80.5q-17 -90 -64.5 -162.5t-115 -119t-144.5 -74.5t-161 -37l-39 -199l-154 2l39 197q-177 22 -262.5 131t-54.5 272z " />
<glyph unicode="%" horiz-adv-x="1314" d="M242 0l932 1343h159l-934 -1343h-157zM276 1098q23 115 117 194.5t209 79.5q114 0 179 -80t42 -194q-23 -115 -118 -194t-209 -79q-116 0 -179.5 79t-40.5 194zM434 1098q-11 -51 15 -84t77 -33q50 0 91 33t51 84q9 48 -18.5 82t-76.5 34q-50 0 -90 -34t-49 -82zM754 254 q23 115 116 194.5t207 79.5t180 -80t43 -194q-23 -115 -118 -193.5t-209 -78.5q-116 0 -179 78.5t-40 193.5zM909 254q-10 -51 17 -84t78 -33q50 0 89.5 33t49.5 84q9 50 -18 84.5t-76 34.5q-51 0 -91 -34.5t-49 -84.5z" />
<glyph unicode="&#x26;" horiz-adv-x="1386" d="M160 391q26 130 114.5 222.5t196.5 129.5q-74 33 -108.5 113.5t-14.5 183.5q32 159 184 273t351 114q240 0 346 -176l-268 -190q-13 24 -48.5 43.5t-78.5 19.5q-63 0 -110 -39.5t-56 -80.5q-4 -22 -4.5 -40.5t6 -40t22.5 -36.5t48.5 -25t78.5 -10h172l29 147h278 l-30 -157h166l-45 -228h-166l-33 -163q-18 -91 13.5 -140t101.5 -49h73l-53 -264h-86q-232 0 -303 149q-70 -82 -177.5 -124.5t-230.5 -42.5q-206 0 -305 114.5t-63 296.5zM492 436q-9 -70 34.5 -111.5t116.5 -41.5q25 0 53.5 5t66 20t68.5 39.5t57.5 68t37.5 100.5l18 98 h-188q-124 0 -189.5 -52.5t-74.5 -125.5z" />
<glyph unicode="'" horiz-adv-x="475" d="M303 799l74 612h270l-168 -612h-176z" />
<glyph unicode="(" horiz-adv-x="786" d="M157 159q-16 170 25 371q52 266 175 477t298 331t371 120l-43 -213q-51 0 -108 -22t-122.5 -76t-123 -133t-108.5 -204.5t-81 -279.5q-22 -112 -27 -209.5t5.5 -168.5t32 -129t50.5 -95.5t64.5 -62.5t70.5 -36t71 -11l-45 -215q-147 0 -258 69.5t-171 193t-76 293.5z" />
<glyph unicode=")" horiz-adv-x="786" d="M-33 -397l41 215q42 0 88 15.5t98.5 48t104 90t98 133t86.5 185.5t66 240q33 160 28 280.5t-30 203.5t-70 134t-92.5 74t-97.5 23l41 213q118 0 213.5 -45t158.5 -127.5t99.5 -198t37.5 -255.5t-28 -302q-52 -267 -174.5 -477.5t-297.5 -330t-370 -119.5z" />
<glyph unicode="*" horiz-adv-x="927" d="M279 1067l86 190l243 -81l37 268h199l-64 -268l269 81l14 -190l-254 -51l129 -187l-178 -122l-117 221l-203 -221l-129 122l199 187z" />
<glyph unicode="+" horiz-adv-x="989" d="M147 381l41 215h312l61 313h217l-61 -313h313l-41 -215h-313l-60 -313h-217l60 313h-312z" />
<glyph unicode="," horiz-adv-x="534" d="M-84 -260q117 125 179.5 248.5t90.5 281.5h279q-17 -96 -58.5 -188.5t-98 -168.5t-116.5 -137t-126 -112z" />
<glyph unicode="-" horiz-adv-x="964" d="M188 362l52 263h725l-52 -263h-725z" />
<glyph unicode="." horiz-adv-x="557" d="M125 164q15 76 79 127t140 51q78 0 123.5 -51.5t30.5 -126.5q-15 -78 -80.5 -130t-143.5 -52q-76 0 -120 52t-29 130z" />
<glyph unicode="/" horiz-adv-x="995" d="M47 0l946 1411h232l-949 -1411h-229z" />
<glyph unicode="0" horiz-adv-x="1206" d="M231 670q24 122 58 221.5t87.5 189t122 150t163.5 96t210 35.5q96 0 168 -24t117.5 -70t72 -106.5t33.5 -140.5t0.5 -165t-26.5 -186q-24 -121 -57.5 -220t-86 -188t-119.5 -149.5t-161.5 -95.5t-208.5 -35q-509 0 -373 688zM539 670q-79 -408 118 -408q192 0 271 408 q80 413 -111 413q-104 0 -172.5 -112t-105.5 -301z" />
<glyph unicode="1" horiz-adv-x="837" d="M215 840l55 278l643 244h27l-266 -1362h-301l186 961z" />
<glyph unicode="2" horiz-adv-x="1122" d="M90 0l33 170l655 639q93 83 105 147q9 56 -27 91.5t-104 35.5q-77 0 -133.5 -51.5t-86.5 -140.5l-268 43q69 198 210.5 313t346.5 115t305.5 -112.5t63.5 -297.5q-35 -178 -209 -338l-363 -333h455l-55 -281h-928z" />
<glyph unicode="3" horiz-adv-x="1089" d="M88 199l236 170q78 -115 204 -115q96 0 162 45.5t80 118.5q14 75 -34 122.5t-142 47.5h-123l43 223h53q108 0 177 48t75 116q4 51 -33.5 80.5t-103.5 29.5q-62 0 -128.5 -27.5t-113.5 -74.5l-116 195q217 184 454 184q184 0 286.5 -103t65.5 -272q-15 -81 -75.5 -150 t-153.5 -112q103 -42 150 -130.5t24 -205.5q-35 -181 -198.5 -294t-387.5 -113q-293 0 -401 217z" />
<glyph unicode="4" horiz-adv-x="1247" d="M66 250l18 94l928 999h211l-162 -827h211l-53 -266h-211l-47 -250h-310l47 250h-632zM530 516h222l59 311z" />
<glyph unicode="5" horiz-adv-x="1187" d="M123 244l264 162q16 -60 82 -101t131 -41q110 0 189 58t98 153q17 90 -35.5 148.5t-153.5 58.5q-75 0 -156.5 -31.5t-148.5 -85.5l-155 103l249 678h785l-55 -279h-533l-84 -201q112 64 242 64q127 0 216.5 -60.5t124.5 -165t11 -231.5q-29 -150 -129 -264t-232 -170.5 t-274 -56.5q-141 0 -267.5 73.5t-168.5 188.5z" />
<glyph unicode="6" horiz-adv-x="1216" d="M215 621q41 214 141.5 381.5t250.5 263.5t325 96q141 0 247.5 -70t141.5 -192l-266 -144q-15 59 -62 93t-110 34q-117 0 -208.5 -87.5t-131.5 -233.5q129 100 301 100q198 0 298.5 -122.5t65.5 -301.5q-40 -202 -203 -329t-389 -127q-231 0 -344 175t-57 464zM508 440 q-15 -78 31 -128t135 -50t152.5 49t78.5 127q15 77 -29.5 126t-130.5 50q-90 0 -156 -48.5t-81 -125.5z" />
<glyph unicode="7" horiz-adv-x="1073" d="M158 0l657 1063h-543l56 280h991l-6 -30l-807 -1313h-348z" />
<glyph unicode="8" horiz-adv-x="1220" d="M160 403q24 125 113.5 218.5t207.5 123.5q-62 28 -93.5 101.5t-12.5 167.5q30 156 173.5 252t328.5 96t290.5 -96t75.5 -252q-19 -94 -79.5 -167.5t-131.5 -101.5q104 -30 156.5 -123.5t28.5 -218.5q-24 -124 -114.5 -221t-220.5 -148.5t-276 -51.5q-145 0 -254.5 51.5 t-162.5 148.5t-29 221zM477 432q-14 -79 36 -130.5t144 -51.5q96 0 168 52t86 130q15 80 -34.5 133t-145.5 53t-167.5 -53t-86.5 -133zM653 977q-9 -54 25 -91.5t96 -37.5q64 0 115.5 38t60.5 91q9 54 -26.5 92.5t-98.5 38.5q-62 0 -112.5 -39t-59.5 -92z" />
<glyph unicode="9" horiz-adv-x="1218" d="M160 246l264 141q13 -59 61 -92t113 -33q116 0 207 87t131 231q-131 -99 -301 -99q-198 0 -299.5 123.5t-65.5 302.5q40 202 203 328.5t389 126.5q113 0 202 -46t142 -130t71 -201.5t-11 -261.5q-31 -160 -97.5 -296t-158.5 -235t-211.5 -154.5t-251.5 -55.5 q-141 0 -247.5 70.5t-139.5 193.5zM573 905q-15 -77 29.5 -126t130.5 -50q89 0 155 49t81 127q15 79 -29.5 127.5t-134.5 48.5q-88 0 -152.5 -49t-79.5 -127z" />
<glyph unicode=":" horiz-adv-x="595" d="M145 164q15 76 79.5 127t140.5 51q77 0 120.5 -51t28.5 -127q-15 -79 -78.5 -130.5t-140.5 -51.5q-76 0 -120.5 52t-29.5 130zM268 795q15 78 79 130t140 52q77 0 121 -51.5t29 -130.5q-15 -76 -79.5 -127.5t-141.5 -51.5q-76 0 -119.5 51.5t-28.5 127.5z" />
<glyph unicode=";" horiz-adv-x="593" d="M-53 -260q116 125 178 248.5t90 281.5h279q-17 -96 -58.5 -188.5t-98.5 -168.5t-117 -137t-126 -112zM270 795q15 78 79 130t140 52t120.5 -52t29.5 -130q-15 -76 -79 -127.5t-140 -51.5t-120.5 51.5t-29.5 127.5z" />
<glyph unicode="&#x3c;" horiz-adv-x="1230" d="M168 508l47 242l1104 391l-45 -232l-787 -282l674 -281l-45 -231z" />
<glyph unicode="=" horiz-adv-x="1193" d="M188 322l39 204h942l-39 -204h-942zM268 737l41 205h942l-41 -205h-942z" />
<glyph unicode="&#x3e;" horiz-adv-x="1230" d="M156 115l45 231l788 281l-678 282l45 232l951 -391l-47 -242z" />
<glyph unicode="?" horiz-adv-x="999" d="M258 164q15 75 80 126.5t141 51.5t121.5 -51.5t30.5 -126.5q-15 -78 -79.5 -130t-141.5 -52t-122 52t-30 130zM262 993q40 209 180 323t334 114q191 0 289 -108t63 -290q-28 -144 -120.5 -244t-223.5 -143q-32 -11 -46 -16t-37 -16t-33 -22t-20.5 -28.5t-14.5 -40.5 l-8 -24h-236l6 26q4 60 15.5 104t38 88.5t77 81t125.5 66.5l82 33q49 20 74 52.5t31 64.5q12 60 -21.5 93.5t-99.5 33.5q-60 0 -112 -41.5t-64 -106.5h-279z" />
<glyph unicode="@" horiz-adv-x="1966" d="M180 549q35 183 136.5 349t242.5 287t320 192t362 71q185 0 341.5 -65.5t260.5 -179t147 -275.5t7 -344q-15 -77 -43 -156t-74 -160t-102.5 -144t-134.5 -102.5t-164 -39.5q-62 0 -111.5 16.5t-88.5 54t-50.5 98.5t2.5 150l49 258q19 98 -35 166t-151 68 q-95 0 -176.5 -68.5t-100.5 -165.5q-19 -94 37 -162.5t150 -68.5q89 0 159 41l-39 -197q-72 -33 -159 -33q-114 0 -200 56t-124 153t-16 211q23 117 98.5 214t183 152.5t221.5 55.5q172 0 272.5 -118t72.5 -285l-54 -287q-12 -65 17 -96t77 -31q50 0 94 29.5t74.5 73.5 t56.5 103.5t40.5 110.5t25.5 103q29 143 -5.5 270t-117 215.5t-206.5 139.5t-271 51q-192 0 -370.5 -96t-301.5 -259.5t-161 -355.5q-28 -145 1 -275t103 -223.5t192.5 -148t262.5 -54.5h114l-38 -192h-115q-183 0 -334 70t-245 189.5t-130.5 284.5t-1.5 349z" />
<glyph unicode="A" horiz-adv-x="1357" d="M-16 0l796 1411h350l246 -1411h-342l-43 328h-495l-168 -328h-344zM637 606h317l-61 494z" />
<glyph unicode="B" horiz-adv-x="1312" d="M162 0l274 1411h572q191 -1 287 -103q73 -77 73 -187q0 -35 -8 -74q-8 -41 -24.5 -81.5t-45 -83.5t-76.5 -77t-108 -51q65 -10 112 -43t69 -81t29 -106q2 -20 2 -39q0 -39 -9 -79q-12 -60 -38 -116.5t-71 -109.5t-104.5 -92.5t-142.5 -63.5t-179 -24h-612zM539 281h252 q81 0 134 46t66 111q3 16 3 31q0 43 -26 79q-34 48 -118 48h-252zM651 860h226q58 0 98.5 35.5t52.5 99.5q4 19 4 35q0 36 -16 62q-24 38 -86 38h-228z" />
<glyph unicode="C" horiz-adv-x="1439" d="M215 709q38 195 166.5 361t312.5 263t379 97q182 0 322 -85t211 -229l-283 -174q-82 182 -295 182q-177 0 -315 -119.5t-172 -295.5q-9 -49 -9 -94q0 -117 64 -206q88 -122 266 -122q215 0 369 184l215 -176q-125 -144 -297.5 -227.5t-355.5 -83.5q-146 0 -268 57.5 t-199.5 154.5t-108.5 231q-16 69 -16 142q0 68 14 140z" />
<glyph unicode="D" horiz-adv-x="1447" d="M162 0l274 1411h557q120 0 216.5 -35t159.5 -99t101 -153q40 -88 44 -194q1 -19 0 -39q0 -90 -17 -189q-29 -150 -97.5 -278t-167 -222.5t-231 -148t-282.5 -53.5h-557zM539 281h235q77 0 145 35t118.5 94t85.5 133.5t51 158.5q13 58 13 114q0 23 -2 46q-8 77 -34 136.5 t-81 95.5t-132 36h-236z" />
<glyph unicode="E" horiz-adv-x="1185" d="M162 0l274 1411h905l-55 -281h-584l-55 -290h512l-57 -289h-512l-51 -270h602l-56 -281h-923z" />
<glyph unicode="F" horiz-adv-x="1122" d="M162 0l274 1411h893l-55 -281h-572l-57 -296h453l-56 -279h-452l-107 -555h-321z" />
<glyph unicode="G" horiz-adv-x="1548" d="M206 478q-4 40 -4 81q0 71 13 146q29 148 111.5 282t197.5 231t261 154.5t296 57.5q164 0 293 -65t201 -177l-277 -199q-95 141 -274 141q-170 0 -309.5 -123.5t-173.5 -301.5q-9 -47 -9 -91q0 -65 19 -124q32 -100 112 -161t191 -61q125 0 223.5 49t147.5 140 q12 20 14 32h-397l51 261h747q-30 -158 -87.5 -285t-135 -216.5t-175.5 -150t-208 -88.5t-233 -28q-120 0 -225 37t-180 103t-126 157t-64 199z" />
<glyph unicode="H" horiz-adv-x="1433" d="M162 0l274 1411h322l-111 -565h465l111 565h321l-274 -1411h-322l107 557h-465l-107 -557h-321z" />
<glyph unicode="I" horiz-adv-x="647" d="M162 0l274 1411h322l-275 -1411h-321z" />
<glyph unicode="J" horiz-adv-x="663" d="M-270 -449l86 291q56 -22 184 -22q73 0 117 49.5t59 128.5l277 1413h321l-276 -1413q-20 -101 -62 -185.5t-108.5 -152t-166 -105.5t-222.5 -38q-108 0 -209 34z" />
<glyph unicode="K" horiz-adv-x="1277" d="M162 0l274 1411h322l-84 -432l391 432h401l-669 -698l522 -713h-440l-308 455l-88 -455h-321z" />
<glyph unicode="L" horiz-adv-x="1042" d="M162 0l274 1411h322l-219 -1130h518l-56 -281h-839z" />
<glyph unicode="M" horiz-adv-x="1884" d="M90 0l449 1411h268l237 -883l580 883h274l-102 -1411h-330l64 803l-432 -641h-246l-182 639l-250 -801h-330z" />
<glyph unicode="N" horiz-adv-x="1390" d="M162 0l274 1411h295l295 -801l156 801h321l-274 -1411h-283l-305 811l-158 -811h-321z" />
<glyph unicode="O" horiz-adv-x="1599" d="M215 707q29 147 111.5 281t197.5 230.5t260 154t293 57.5q195 0 342 -97t211 -263q40 -104 39 -220q0 -69 -14 -143q-38 -196 -166.5 -363t-312.5 -264.5t-379 -97.5q-198 0 -345 98q-148 98 -212 264q-40 104 -39 220q0 69 14 143zM539 707q-10 -52 -10 -99 q1 -61 17 -115q30 -96 110 -152t196 -56q174 0 308.5 121t170.5 301q9 49 9 94q0 63 -18 119q-30 96 -110 151t-196 55q-176 0 -309.5 -119.5t-167.5 -299.5z" />
<glyph unicode="P" horiz-adv-x="1271" d="M162 0l274 1411h582q95 0 170 -26t119.5 -71t72.5 -105t30 -127v-21q0 -57 -9 -117q-18 -91 -62.5 -172.5t-113.5 -148t-169.5 -105.5t-219.5 -39h-261l-92 -479h-321zM631 760h246q84 0 134.5 53.5t65.5 130.5q5 26 5 49q0 46 -20 82q-30 55 -112 55h-248z" />
<glyph unicode="Q" horiz-adv-x="1599" d="M215 705q29 147 111.5 280.5t197.5 230.5t260 154t293 57q146 0 268.5 -57t200 -154t108.5 -230q17 -70 17 -143q0 -68 -14 -138q-34 -177 -144.5 -331t-267.5 -257l90 -223l-252 -136l-98 246q-95 -24 -190 -24q-198 0 -345 97.5t-210 264.5q-39 103 -39 219 q0 70 14 144zM539 705q-10 -52 -10 -99q0 -61 17 -115q29 -96 109.5 -152t196.5 -56h16l-73 184l249 133l91 -219q76 59 126.5 142.5t69.5 181.5q9 49 9 94q0 63 -18 119q-30 95 -110 150.5t-196 55.5q-176 0 -309.5 -119.5t-167.5 -299.5z" />
<glyph unicode="R" horiz-adv-x="1314" d="M162 0l274 1411h578q95 0 170 -26t119.5 -71t72.5 -105t30 -127v-21q0 -57 -9 -117q-31 -157 -136.5 -273t-277.5 -157l264 -514h-375l-229 496h-63l-97 -496h-321zM629 750h205q99 0 161.5 54.5t77.5 131.5q4 21 4 40q1 54 -29 96q-40 58 -133 58h-213z" />
<glyph unicode="S" horiz-adv-x="1202" d="M170 418h322q-2 -14 -2 -26q0 -51 38 -88q48 -46 131 -46q82 0 141 36t72 103q2 11 2 21q0 34 -20 62q-26 36 -109 65l-159 51q-71 20 -125 49.5t-86.5 64.5t-52.5 72q-22 36 -28 76q-6 35 -5 66v9q1 35 8 71q24 124 108.5 222t208 151t263.5 53q101 0 182.5 -30 t134.5 -86q54 -56 74 -138q11 -43 11 -90q0 -44 -9 -93h-322q3 18 3 34q1 46 -23 78q-32 44 -111 44q-74 0 -128.5 -40t-65.5 -99q-2 -11 -2 -21q0 -73 114 -108l139 -45q44 -14 80.5 -29t75.5 -36.5t66.5 -45.5t54 -56.5t38 -69.5t17.5 -84q2 -14 1 -29q0 -34 -9 -72 q-21 -109 -82 -194.5t-145 -136t-179.5 -76t-195.5 -25.5q-226 0 -345 121q-90 92 -90 225q0 43 9 90z" />
<glyph unicode="T" horiz-adv-x="1148" d="M260 1130l55 281h1067l-55 -281h-373l-219 -1130h-321l219 1130h-373z" />
<glyph unicode="U" horiz-adv-x="1394" d="M244 510l176 901h323l-172 -876q-6 -38 -6 -69q-1 -24 3 -45q8 -47 36 -77t65 -43.5t83 -13.5q96 0 173.5 61.5t102.5 186.5l172 876h320l-177 -901q-31 -158 -131 -280t-235.5 -185t-282.5 -63q-109 0 -201.5 37t-156 104t-89.5 167q-14 53 -14 112q0 52 11 108z" />
<glyph unicode="V" horiz-adv-x="1206" d="M305 1411h334l63 -893l410 893h338l-705 -1411h-284z" />
<glyph unicode="W" horiz-adv-x="1853" d="M289 1411h346l94 -844l301 643h264l45 -647l426 848h351l-754 -1411h-250l-49 717l-322 -717h-252z" />
<glyph unicode="X" horiz-adv-x="1363" d="M4 0l633 752l-318 659h390l168 -403l331 403h385l-573 -659l342 -752h-379l-205 496l-397 -496h-377z" />
<glyph unicode="Y" horiz-adv-x="1406" d="M266 1411h383l223 -520l435 520h383l-703 -780l-123 -631h-323l125 637z" />
<glyph unicode="Z" horiz-adv-x="1220" d="M82 0l45 240l797 890h-596l55 281h1018l-47 -240l-805 -890h633l-56 -281h-1044z" />
<glyph unicode="[" horiz-adv-x="690" d="M72 -397l362 1855h486l-41 -213h-232l-278 -1423h231l-43 -219h-485z" />
<glyph unicode="\" horiz-adv-x="995" d="M319 1411h232l397 -1411h-229z" />
<glyph unicode="]" horiz-adv-x="690" d="M-25 -397l41 219h232l278 1423h-231l41 213h485l-362 -1855h-484z" />
<glyph unicode="^" horiz-adv-x="1122" d="M180 571l508 840h295l180 -840h-313l-82 506l-274 -506h-314z" />
<glyph unicode="_" horiz-adv-x="1492" d="M37 -281l41 213h1302l-41 -213h-1302z" />
<glyph unicode="`" horiz-adv-x="1110" d="M551 1477h293l121 -351h-207z" />
<glyph unicode="a" d="M165 271q-10 45 -10 96q0 53 11 112q21 112 78.5 207.5t135 158t167.5 97.5t180 35q82 0 158.5 -32t113.5 -95l21 104h301l-186 -954h-301l22 109q-63 -63 -151.5 -95t-169.5 -32q-90 0 -166.5 34t-129.5 98.5t-74 156.5zM475 479q-4 -22 -4 -42q-1 -63 39 -111 q52 -62 143 -62q89 0 165 62t95 153q5 23 5 45q0 62 -39 108q-52 62 -140 62q-90 0 -168.5 -62.5t-95.5 -152.5z" />
<glyph unicode="b" d="M127 0l285 1458h303l-119 -606q60 62 149 93.5t170 31.5q90 0 166.5 -34.5t128.5 -98.5q54 -65 74 -157q10 -44 9 -94q0 -54 -11 -114q-21 -112 -78.5 -207.5t-134.5 -157.5t-167.5 -97t-180.5 -35q-82 0 -158 31t-112 93l-21 -106h-303zM532 479q-4 -22 -4 -43 q0 -64 40 -110q54 -62 144.5 -62t168 62.5t94.5 152.5q4 22 4 42q1 63 -39 111q-52 62 -143 62q-88 0 -167.5 -62.5t-97.5 -152.5z" />
<glyph unicode="c" horiz-adv-x="1069" d="M164 481q22 111 83 205.5t145.5 158t187 99t206.5 35.5q134 0 229 -60t146 -165l-264 -148q-20 42 -65.5 67t-96.5 25q-101 0 -173.5 -62.5t-90.5 -154.5q-5 -27 -5 -51q0 -62 34 -106q48 -62 149 -62q51 0 107 25t92 67l207 -147q-93 -106 -210.5 -165.5t-250.5 -59.5 q-104 0 -193 36t-149 100t-85 158q-13 50 -13 105q0 48 10 100z" />
<glyph unicode="d" d="M165 271q-10 45 -10 96q0 53 11 112q21 112 78.5 207.5t135 158t167.5 97.5t180 35q82 0 158.5 -32t113.5 -95l119 608h301l-284 -1458h-301l22 109q-63 -63 -151.5 -95t-169.5 -32q-90 0 -166.5 34t-129.5 98.5t-74 156.5zM475 479q-4 -22 -4 -42q-1 -63 39 -111 q52 -62 143 -62q89 0 165 62t95 153q5 23 5 45q0 62 -39 108q-52 62 -140 62q-90 0 -168.5 -62.5t-95.5 -152.5z" />
<glyph unicode="e" horiz-adv-x="1157" d="M164 475q29 151 123.5 267.5t222.5 176.5t266 60q102 0 187 -34.5t141 -96.5q57 -60 80 -152q12 -48 12 -100q0 -47 -10 -98q-16 -72 -27 -109h-698q9 -68 59 -105.5t135 -37.5q67 0 137 24.5t126 67.5l114 -197q-83 -75 -203.5 -117t-244.5 -42q-226 0 -344 138 q-87 102 -87 248q0 51 11 107zM494 567h403q2 14 2 28q-1 51 -37 85q-46 43 -129 43q-75 0 -138.5 -37.5t-100.5 -118.5z" />
<glyph unicode="f" horiz-adv-x="772" d="M190 727l46 227h178l8 43q42 223 182 342t350 119h121l-55 -278h-57q-206 0 -240 -189l-6 -37h205l-45 -227h-205l-142 -727h-303l142 727h-179z" />
<glyph unicode="g" d="M63 -178l269 100q15 -60 71 -100.5t129 -40.5q254 0 320 307l4 18q-65 -62 -152.5 -93t-168.5 -31q-90 0 -166.5 34t-129.5 98.5t-74 156.5q-10 45 -10 96q0 53 11 112q21 112 78.5 207.5t135 158t167.5 97.5t180 35q81 0 157 -31.5t115 -93.5l21 102h303l-164 -829 q-59 -299 -236 -453.5t-442 -154.5q-161 0 -274 84t-144 221zM475 479q-4 -22 -4 -42q0 -63 39 -111q53 -62 143 -62q89 0 165 62t95 153q5 23 5 45q0 62 -39 108q-52 62 -140 62q-90 0 -168.5 -62.5t-95.5 -152.5z" />
<glyph unicode="h" horiz-adv-x="1198" d="M127 0l285 1458h303l-129 -655q27 57 86.5 99t117.5 59.5t105 17.5q188 0 260 -121q45 -76 45 -191q0 -69 -16 -153l-101 -514h-303l92 479q7 33 7 61q1 57 -27 91q-40 51 -107 51q-34 0 -66 -9.5t-64 -31.5t-57 -63.5t-36 -98.5l-92 -479h-303z" />
<glyph unicode="i" horiz-adv-x="557" d="M127 0l186 954h303l-186 -954h-303zM338 1276q13 74 79 125t144 51q77 0 120 -50q33 -39 33 -92q0 -16 -3 -34q-14 -72 -77.5 -124t-139.5 -52q-77 0 -123 52q-36 41 -36 93q0 15 3 31z" />
<glyph unicode="j" horiz-adv-x="573" d="M-209 -471l55 281h121q64 0 109 48.5t63 131.5l189 964h303l-189 -964q-44 -224 -181.5 -342.5t-344.5 -118.5h-125zM356 1276q13 74 79.5 125t142.5 51q78 0 122 -50q32 -39 32 -91q0 -17 -3 -35q-14 -72 -77.5 -124t-141.5 -52q-75 0 -121 52q-36 41 -36 93q0 15 3 31z " />
<glyph unicode="k" horiz-adv-x="1073" d="M127 0l285 1458h303l-152 -772l258 268h381l-444 -422l336 -532h-369l-219 389l-76 -389h-303z" />
<glyph unicode="l" horiz-adv-x="557" d="M127 0l285 1458h303l-285 -1458h-303z" />
<glyph unicode="m" horiz-adv-x="1781" d="M127 0l186 954h303l-36 -176q37 96 126.5 148.5t172.5 52.5q105 0 173 -46.5t93 -133.5q63 89 163.5 134.5t186.5 45.5q179 0 247 -121q42 -74 41 -187q0 -71 -16 -157l-100 -514h-303l94 489q7 37 7 67q1 50 -21 80q-34 46 -101 46q-158 0 -202 -201l-92 -481h-304 l95 489q7 38 7 68q0 51 -21 79q-34 46 -99 46q-166 0 -203 -193l-94 -489h-303z" />
<glyph unicode="n" horiz-adv-x="1198" d="M127 0l186 954h303l-34 -170q28 63 87.5 109.5t118 66t107.5 19.5q188 0 260 -121q45 -76 45 -191q0 -69 -16 -153l-101 -514h-303l92 479q7 33 7 61q1 57 -27 91q-40 51 -107 51q-34 0 -66 -9.5t-64 -31.5t-57 -63.5t-36 -98.5l-92 -479h-303z" />
<glyph unicode="o" horiz-adv-x="1179" d="M164 479q22 111 82.5 205.5t144.5 158.5t184.5 100t202.5 36t189 -36t147 -100t85 -159q13 -51 13 -105q0 -48 -10 -100q-29 -146 -124.5 -261t-225 -175.5t-266.5 -60.5q-102 0 -189 36t-147 100q-60 63 -84 157q-13 50 -12 103q0 49 10 101zM471 479q-5 -26 -4 -50 q1 -63 35 -107q48 -60 137 -60q90 0 163 60.5t91 156.5q5 26 5 50q0 64 -36 108q-48 61 -137 61q-90 0 -163 -61.5t-91 -157.5z" />
<glyph unicode="p" d="M35 -471l278 1425h303l-20 -102q60 63 148.5 95t170.5 32q90 0 167 -34.5t129 -99t73 -157.5q9 -44 9 -94q0 -53 -11 -113q-21 -112 -78.5 -207.5t-134.5 -157.5t-167.5 -97t-180.5 -35q-81 0 -157 31.5t-113 93.5l-113 -580h-303zM532 481q-4 -22 -4 -43q0 -64 41 -111 q55 -63 144 -63q90 0 166.5 63t95.5 154q4 22 4 42q0 63 -39 111q-53 62 -143 62q-89 0 -168 -62t-97 -153z" />
<glyph unicode="q" d="M165 273q-10 45 -10 96q0 53 11 112q43 221 208.5 359.5t352.5 138.5q82 0 158.5 -32t113.5 -95l21 102h301l-279 -1425h-301l115 580q-62 -62 -151 -93.5t-170 -31.5q-90 0 -166.5 34t-129.5 98.5t-74 156.5zM475 481q-5 -24 -5 -46q0 -62 40 -108q53 -63 143 -63 q88 0 165 62.5t95 154.5q5 24 5 45q0 62 -38 108q-52 62 -141 62q-90 0 -168.5 -62.5t-95.5 -152.5z" />
<glyph unicode="r" horiz-adv-x="864" d="M127 0l186 954h299l-39 -200q60 113 148 169t182 56q87 0 137 -29l-129 -288q-56 36 -129 36q-97 0 -174 -90.5t-116 -290.5l-62 -317h-303z" />
<glyph unicode="s" horiz-adv-x="974" d="M133 315h287q-2 -9 -2 -17q0 -30 20 -54q25 -31 84 -31q49 0 86 19.5t43 52.5q5 23 -12.5 36t-71.5 25l-114 33q-55 16 -97 37.5t-67.5 43.5t-41.5 50t-22.5 50t-7.5 50t1.5 45t6.5 39q21 111 149.5 198t295.5 87q57 0 109 -10.5t100.5 -34.5t80.5 -62q32 -37 46 -91 q7 -26 6 -55q0 -33 -8 -71h-287q2 12 2 22q1 28 -17 45q-24 23 -71 23q-41 0 -71 -16t-36 -45q-1 -5 -1 -9q0 -42 71 -61l158 -45q207 -60 207 -226q0 -27 -5 -56q-15 -76 -63 -136t-115 -96t-141.5 -54.5t-149.5 -18.5q-109 0 -195 37t-132 115q-32 54 -31 120q0 29 6 61z " />
<glyph unicode="t" horiz-adv-x="768" d="M193 727l45 227h174l65 344h303l-65 -344h200l-45 -227h-200l-142 -727h-303l142 727h-174z" />
<glyph unicode="u" horiz-adv-x="1198" d="M201 440l100 514h303l-94 -479q-7 -34 -7 -62q0 -56 27 -90q40 -51 107 -51q33 0 65 9.5t64.5 31.5t57.5 63.5t36 98.5l94 479h303l-186 -954h-303l33 164q-40 -90 -137 -139.5t-177 -49.5q-187 1 -259 121q-44 75 -44 188q0 71 17 156z" />
<glyph unicode="v" horiz-adv-x="1077" d="M186 954h330l98 -567l318 567h330l-592 -954h-264z" />
<glyph unicode="w" horiz-adv-x="1542" d="M190 954h328l51 -544l265 544h243l51 -544l265 544h327l-518 -954h-258l-59 590l-281 -590h-258z" />
<glyph unicode="x" horiz-adv-x="1089" d="M0 0l477 516l-229 438h354l94 -194l166 194h352l-401 -438l274 -516h-352l-137 279l-244 -279h-354z" />
<glyph unicode="y" horiz-adv-x="1056" d="M51 -471l348 584l-211 841h336l101 -493l293 493h325l-868 -1425h-324z" />
<glyph unicode="z" horiz-adv-x="1042" d="M82 0l43 223l510 451h-397l57 280h840l-45 -225l-517 -448h431l-56 -281h-866z" />
<glyph unicode="{" horiz-adv-x="796" d="M141 444l35 174q49 0 92 28t54 85l61 316q23 122 99 217t180.5 144.5t218.5 49.5h153l-43 -211h-98q-115 0 -178 -59.5t-82 -153.5l-53 -280q-17 -77 -60 -136t-96 -86q44 -29 63 -87t5 -136l-56 -282q-19 -92 22 -151.5t156 -59.5h99l-43 -213h-154q-175 0 -273 114 t-61 297l62 318q11 57 -21 84.5t-82 27.5z" />
<glyph unicode="|" horiz-adv-x="456" d="M100 -256l371 1903h154l-371 -1903h-154z" />
<glyph unicode="}" horiz-adv-x="796" d="M-33 -397l39 213h100q115 0 178.5 59t82.5 152l57 282q14 76 55.5 135t95.5 88q-42 28 -60.5 86.5t-4.5 135.5l55 280q19 94 -22 153.5t-156 59.5h-100l41 211h155q175 0 273.5 -113.5t62.5 -297.5l-63 -316q-10 -57 22.5 -85t81.5 -28l-33 -174q-50 0 -93 -28t-54 -84 l-64 -318q-36 -183 -178 -297t-317 -114h-154z" />
<glyph unicode="~" horiz-adv-x="1343" d="M201 516q79 89 177.5 146t203.5 57q39 0 76 -8.5t57.5 -17.5t53.5 -26t44 -22t42 -21.5t49 -24.5t50 -16t64 -8q116 0 242 132l100 -134q-71 -92 -173 -150t-206 -58q-31 0 -58.5 4t-56.5 14.5t-41.5 15.5t-45 21.5t-34.5 17.5q-7 4 -40 21.5t-50 25t-50.5 15.5t-67.5 8 q-110 0 -250 -131z" />
<glyph unicode="&#xa1;" horiz-adv-x="569" d="M33 -471l219 913h233l-133 -913h-319zM252 797q15 78 79.5 130t141.5 52t122 -52t30 -130q-15 -77 -80 -128t-142 -51q-76 0 -121 51t-30 128z" />
<glyph unicode="&#xa2;" horiz-adv-x="1095" d="M174 481q39 196 190.5 329.5t344.5 162.5l47 246h153l-47 -244q212 -25 312 -221l-265 -148q-21 42 -66.5 67t-97.5 25q-101 0 -173.5 -62.5t-90.5 -154.5q-19 -93 30 -156t151 -63q52 0 106 25t92 67l207 -147q-174 -195 -397 -221l-47 -242h-154l47 244 q-182 29 -281 163t-61 330z" />
<glyph unicode="&#xa3;" horiz-adv-x="1376" d="M76 0l49 258h207l51 258h-137l24 131h138l51 260q41 208 183 328.5t337 120.5q81 0 146 -15t121 -49t87 -90t42.5 -138t-11.5 -192h-305q38 201 -119 201q-67 0 -116.5 -48.5t-63.5 -123.5l-49 -254h219l-25 -131h-219l-51 -258h358q62 0 76 82l18 102h302l-31 -163 q-23 -118 -119.5 -198.5t-206.5 -80.5h-956z" />
<glyph unicode="&#xa4;" horiz-adv-x="1208" d="M166 330l174 147q-43 94 -21 215q20 113 107 221l-117 148l164 137l119 -147q117 63 229 63q119 0 207 -63l174 147l111 -137l-178 -150q44 -103 22 -225q-21 -109 -104 -209l116 -147l-165 -137l-115 147q-116 -64 -234 -64q-115 0 -204 64l-177 -147zM543 694 q-15 -82 30.5 -139t126.5 -57q83 0 153 57t85 139q17 83 -30.5 141t-131.5 58q-81 0 -148.5 -57.5t-84.5 -141.5z" />
<glyph unicode="&#xa5;" horiz-adv-x="1515" d="M322 188l28 140h307l39 196h-307l27 144h284l-378 743h383l223 -520l434 520h381l-668 -743h283l-27 -144h-307l-39 -196h307l-28 -140h-308l-34 -188h-328l35 188h-307z" />
<glyph unicode="&#xa6;" horiz-adv-x="468" d="M106 -256l152 784h154l-152 -784h-154zM324 866l153 781h154l-154 -781h-153z" />
<glyph unicode="&#xa7;" horiz-adv-x="1116" d="M117 -49l268 76q7 -84 52.5 -122t105.5 -38q71 0 129 47.5t73 122.5l80 405q16 82 -29 125t-126 43q-39 0 -86 -8l53 266q49 11 102 11q90 0 164.5 -31t124 -88t69 -137.5t-0.5 -180.5l-80 -405q-39 -196 -190.5 -317t-336.5 -121q-73 0 -138.5 21t-119 62t-84.5 110.5 t-30 158.5zM219 403q-20 81 0 181l80 405q39 195 189.5 315.5t336.5 120.5q72 0 137.5 -21t119.5 -62t85.5 -110t30.5 -157l-270 -76q-4 83 -47.5 120.5t-104.5 37.5q-73 0 -133.5 -47t-75.5 -121l-80 -405q-16 -81 31 -124.5t127 -43.5q41 0 86 6l-51 -264 q-61 -13 -102 -13q-90 0 -165.5 31t-124.5 88.5t-69 138.5z" />
<glyph unicode="&#xa8;" horiz-adv-x="1232" d="M500 1309q12 61 65 103t117 42q63 0 98 -42t23 -103q-12 -62 -62.5 -104t-113.5 -42q-64 0 -101.5 42.5t-25.5 103.5zM936 1309q12 61 65.5 103t118.5 42q62 0 97.5 -42t23.5 -103t-63 -103.5t-113 -42.5q-65 0 -103 42.5t-26 103.5z" />
<glyph unicode="&#xa9;" horiz-adv-x="1593" d="M215 702q38 198 165.5 364.5t311 263.5t379.5 97q147 0 269 -57.5t198.5 -155t107 -231.5t1.5 -281t-111.5 -280.5t-197.5 -230.5t-259 -154t-291 -57t-268.5 57t-197.5 154t-106 230.5t-1 280.5zM340 702q-31 -162 21 -299t172.5 -217t281.5 -80q162 0 313 80t255 217 t137 299q24 122 -0.5 232.5t-88.5 190.5t-164.5 127.5t-222.5 47.5q-121 0 -239.5 -47.5t-212.5 -128t-161.5 -191t-90.5 -231.5zM573 696q29 151 152.5 257t273.5 106q88 0 158 -42.5t109 -115.5l-150 -94q-59 94 -147 94q-83 0 -147 -58t-81 -147q-17 -86 24.5 -144 t123.5 -58q94 0 190 96l111 -94q-65 -75 -154.5 -119.5t-177.5 -44.5q-150 0 -232 107t-53 257z" />
<glyph unicode="&#xaa;" horiz-adv-x="1085" d="M244 401l30 156h752l-31 -156h-751zM303 1069q24 120 96 212.5t165.5 139.5t191.5 47q68 0 130 -26t91 -78l16 86h234l-148 -764h-233l16 90q-51 -52 -122.5 -78t-139.5 -26q-151 0 -241 110.5t-56 286.5zM545 1071q-15 -76 29 -129t118 -53q75 0 139.5 52.5t79.5 127.5 q15 78 -30 129t-119 51t-138 -52t-79 -126z" />
<glyph unicode="&#xab;" horiz-adv-x="1054" d="M162 477l364 424h234l-365 -424l201 -424h-234zM555 477l365 424h233l-365 -424l201 -424h-233z" />
<glyph unicode="&#xac;" horiz-adv-x="1245" d="M211 510l51 260h995l-108 -563h-264l57 303h-731z" />
<glyph unicode="&#xad;" horiz-adv-x="964" d="M188 362l52 263h725l-52 -263h-725z" />
<glyph unicode="&#xae;" horiz-adv-x="1593" d="M215 702q38 198 165.5 364.5t311 263.5t379.5 97q147 0 269 -57.5t198.5 -155t107 -231.5t1.5 -281t-111.5 -280.5t-197.5 -230.5t-259 -154t-291 -57t-268.5 57t-197.5 154t-106 230.5t-1 280.5zM340 702q-31 -162 21 -299t172.5 -217t281.5 -80q162 0 313 80t255 217 t137 299q24 122 -0.5 232.5t-88.5 190.5t-164.5 127.5t-222.5 47.5q-121 0 -239.5 -47.5t-212.5 -128t-161.5 -191t-90.5 -231.5zM614 354l138 697h288q116 0 164 -68.5t29 -165.5q-20 -103 -75.5 -158.5t-129.5 -70.5l123 -234h-184l-115 228h-25l-45 -228h-168zM852 711 h90q52 0 82 30t37 68q6 35 -11.5 63.5t-66.5 28.5h-94z" />
<glyph unicode="&#xaf;" horiz-adv-x="1071" d="M479 1200l33 176h580l-33 -176h-580z" />
<glyph unicode="&#xb0;" horiz-adv-x="731" d="M289 1094q25 120 125.5 205t218.5 85q122 0 192 -85t45 -205q-25 -122 -127 -207.5t-223 -85.5q-119 0 -187.5 86t-43.5 207zM438 1094q-10 -61 21 -101.5t90 -40.5q62 0 111 40.5t59 101.5q11 59 -21.5 100t-93.5 41q-58 0 -106.5 -41t-59.5 -100z" />
<glyph unicode="&#xb1;" horiz-adv-x="1073" d="M113 -2l43 217h843l-43 -217h-843zM231 604l43 215h316l55 289h215l-55 -289h313l-43 -215h-313l-57 -291h-216l58 291h-316z" />
<glyph unicode="&#xb2;" horiz-adv-x="643" d="M281 1083l16 82l317 312q33 33 46.5 47t27 36t17.5 42q5 27 -15 45t-59 18q-48 0 -79.5 -28.5t-39.5 -75.5l-141 28q27 104 105 168t190 64q114 0 170 -64t36 -166q-7 -41 -42 -94t-82 -98l-166 -158h233l-31 -158h-503z" />
<glyph unicode="&#xb3;" horiz-adv-x="606" d="M270 1204l142 84q13 -28 41.5 -44.5t62.5 -16.5q43 0 72 21.5t37 56.5q9 43 -19.5 69.5t-83.5 26.5h-49l25 125h28q53 0 88.5 24t44.5 64q3 28 -16 45.5t-47 17.5q-64 0 -115 -45l-67 97q37 42 100 67t131 25q98 0 147.5 -55t32.5 -148q-9 -49 -38.5 -86.5t-73.5 -58.5 q47 -22 68.5 -66.5t11.5 -101.5q-22 -105 -104 -168.5t-197 -63.5q-81 0 -141.5 35t-80.5 96z" />
<glyph unicode="&#xb4;" horiz-adv-x="1110" d="M481 1126l262 351h291l-346 -351h-207z" />
<glyph unicode="&#xb5;" horiz-adv-x="1241" d="M70 -379l262 1333h301l-98 -505q-17 -89 21.5 -132t102.5 -43q72 0 135.5 43t82.5 134l100 503h303l-186 -954h-303l28 145q-28 -55 -85.5 -95.5t-114 -57.5t-103.5 -17q-59 0 -108 19l-74 -373h-264z" />
<glyph unicode="&#xb6;" horiz-adv-x="1488" d="M258 967q23 121 101.5 223t192.5 161.5t236 59.5h199l-293 -1507h-219l121 618q-175 11 -274 139.5t-64 305.5zM406 -430l36 192h279q41 0 70.5 28.5t37.5 68.5l301 1552h295q119 0 184.5 -84t43.5 -197l-33 -176h-199l29 154q7 40 -14.5 64t-59.5 24h-78l-264 -1346 q-21 -111 -114 -195.5t-211 -84.5h-303z" />
<glyph unicode="&#xb7;" horiz-adv-x="577" d="M205 514q15 77 78 127.5t141 50.5q76 0 121 -50.5t30 -127.5q-15 -78 -79.5 -129t-141.5 -51q-78 0 -121 50.5t-28 129.5z" />
<glyph unicode="&#xb8;" horiz-adv-x="1089" d="M285 -193h147q-25 -104 53 -104q29 0 54.5 21t31.5 55q4 22 -2 45l-61 225h147l60 -172q15 -42 2 -102q-18 -91 -92 -151t-160 -60q-97 0 -151 61.5t-29 181.5z" />
<glyph unicode="&#xb9;" horiz-adv-x="475" d="M346 1532l33 158l340 131h8l-143 -738h-166l98 506z" />
<glyph unicode="&#xba;" horiz-adv-x="1042" d="M223 401l31 156h752l-31 -156h-752zM315 1071q23 118 99.5 210.5t180 140.5t212.5 48q169 0 270.5 -111t67.5 -288q-23 -117 -100 -209.5t-181 -141t-213 -48.5q-169 0 -269.5 111.5t-66.5 287.5zM553 1071q-17 -81 25 -131.5t116 -50.5q75 0 134.5 50t76.5 132 t-23.5 132t-115.5 50q-74 0 -135 -50.5t-78 -131.5z" />
<glyph unicode="&#xbb;" horiz-adv-x="1054" d="M86 53l365 424l-199 424h233l199 -424l-365 -424h-233zM479 53l365 424l-199 424h234l198 -424l-364 -424h-234z" />
<glyph unicode="&#xbc;" horiz-adv-x="1437" d="M96 -18l1194 1384h183l-1192 -1384h-185zM256 1065l29 158l342 131h8l-143 -740h-166l98 508zM795 137l6 41l571 551h51l-90 -453h101l-25 -139h-100l-27 -137h-166l27 137h-348zM1057 276h110l27 134z" />
<glyph unicode="&#xbd;" horiz-adv-x="1486" d="M96 -18l1194 1384h183l-1192 -1384h-185zM256 1065l29 158l342 131h8l-143 -740h-166l98 508zM911 0l17 84l315 309q35 35 47 48t26.5 35.5t18.5 43.5q5 26 -15 45t-58 19q-48 0 -80.5 -30t-38.5 -77l-142 31q25 104 103.5 166.5t191.5 62.5q115 0 169 -62.5t34 -166.5 q-7 -41 -42.5 -94t-80.5 -97l-168 -159h236l-29 -158h-504z" />
<glyph unicode="&#xbe;" horiz-adv-x="1568" d="M180 735l142 86q14 -28 41 -44.5t61 -16.5q43 0 72.5 21.5t35.5 56.5q8 43 -19.5 68.5t-82.5 25.5h-49l25 127h28q54 0 89.5 24t43.5 64q4 28 -15.5 44.5t-47.5 16.5q-62 0 -115 -43l-67 97q37 41 101 66.5t132 25.5q98 0 147.5 -55.5t30.5 -149.5q-9 -47 -38 -85 t-72 -60q47 -22 67 -66t10 -102q-20 -103 -103 -167.5t-198 -64.5q-80 0 -139.5 35.5t-79.5 95.5zM227 -18l1196 1384h183l-1194 -1384h-185zM926 137l8 41l569 551h51l-88 -453h101l-27 -139h-100l-27 -137h-166l27 137h-348zM1190 276h110l27 134z" />
<glyph unicode="&#xbf;" horiz-adv-x="974" d="M41 -86q27 144 119 243t225 144q82 28 107 47q35 27 45 76l8 39h231l-2 -41q-3 -59 -15 -104t-39 -90t-78 -81.5t-126 -66.5l-78 -31q-94 -37 -108 -119q-12 -60 22.5 -92.5t100.5 -32.5q59 0 110 40.5t68 107.5h278q-42 -210 -183 -323t-337 -113q-190 0 -286.5 107.5 t-61.5 289.5zM539 797q15 78 81 130t144 52q76 0 119 -51.5t28 -130.5q-15 -77 -78 -128t-139 -51q-78 0 -124 51t-31 128z" />
<glyph unicode="&#xc0;" horiz-adv-x="1357" d="M-16 0l796 1411h350l246 -1411h-342l-43 328h-495l-168 -328h-344zM637 606h317l-61 494zM684 1927h293l121 -350h-207z" />
<glyph unicode="&#xc1;" horiz-adv-x="1357" d="M-16 0l796 1411h350l246 -1411h-342l-43 328h-495l-168 -328h-344zM637 606h317l-61 494zM883 1577l262 350h291l-346 -350h-207z" />
<glyph unicode="&#xc2;" horiz-adv-x="1357" d="M-16 0l796 1411h350l246 -1411h-342l-43 328h-495l-168 -328h-344zM610 1577l293 350h303l156 -350h-215l-127 182l-197 -182h-213zM637 606h317l-61 494z" />
<glyph unicode="&#xc3;" horiz-adv-x="1357" d="M-16 0l796 1411h350l246 -1411h-342l-43 328h-495l-168 -328h-344zM637 606h317l-61 494zM700 1616q35 135 107.5 198.5t146.5 63.5q29 0 55 -13t41.5 -29t34 -29t33.5 -13q18 0 40 20.5t30 63.5h149q-16 -71 -46.5 -123.5t-67 -80.5t-71.5 -41t-69 -13t-64.5 21 t-54.5 42t-44 21q-15 0 -37 -22t-33 -66h-150z" />
<glyph unicode="&#xc4;" horiz-adv-x="1357" d="M-16 0l796 1411h350l246 -1411h-342l-43 328h-495l-168 -328h-344zM637 606h317l-61 494zM651 1759q10 59 64.5 101.5t118.5 42.5q62 0 96.5 -41.5t23.5 -102.5q-10 -61 -62.5 -103t-115.5 -42t-99 42t-26 103zM1087 1759q10 60 65 102t120 42q61 0 96.5 -42t24.5 -102 q-10 -61 -63.5 -103t-115.5 -42q-64 0 -101 41.5t-26 103.5z" />
<glyph unicode="&#xc5;" horiz-adv-x="1357" d="M-16 0l796 1411h350l246 -1411h-342l-43 328h-495l-168 -328h-344zM637 606h317l-61 494zM772 1804q22 107 112 182.5t195 75.5q108 0 171.5 -75.5t41.5 -182.5t-113.5 -180.5t-199.5 -73.5q-105 0 -167 74t-40 180zM897 1804q-10 -56 21 -92.5t86 -36.5q57 0 106 36.5 t59 92.5t-24 95.5t-90 39.5q-55 0 -101.5 -39.5t-56.5 -95.5z" />
<glyph unicode="&#xc6;" horiz-adv-x="1914" d="M-49 0l1005 1411h1117l-56 -283h-585l-58 -294h512l-53 -275h-512l-53 -276h602l-55 -283h-922l59 317h-403l-211 -317h-387zM735 596h271l104 532h-16z" />
<glyph unicode="&#xc7;" horiz-adv-x="1439" d="M217 709q38 195 166.5 361t312.5 263t379 97q182 0 322 -85t209 -229l-283 -174q-82 182 -295 182q-177 0 -315 -119.5t-172 -295.5q-34 -178 54.5 -300t266.5 -122q215 0 369 184l215 -176q-114 -131 -267.5 -212.5t-320.5 -96.5l39 -109q15 -42 2 -102 q-18 -91 -92 -151t-160 -60q-97 0 -151 61.5t-29 181.5h147q-25 -104 54 -104q29 0 54.5 21t31.5 55q4 22 -2 45l-45 166q-171 20 -296 120t-177.5 258t-16.5 341z" />
<glyph unicode="&#xc8;" horiz-adv-x="1185" d="M162 0l274 1411h905l-55 -281h-584l-55 -290h512l-57 -289h-512l-51 -270h602l-56 -281h-923zM598 1927h293l121 -350h-207z" />
<glyph unicode="&#xc9;" horiz-adv-x="1185" d="M162 0l274 1411h905l-55 -281h-584l-55 -290h512l-57 -289h-512l-51 -270h602l-56 -281h-923zM797 1577l262 350h291l-346 -350h-207z" />
<glyph unicode="&#xca;" horiz-adv-x="1185" d="M162 0l274 1411h905l-55 -281h-584l-55 -290h512l-57 -289h-512l-51 -270h602l-56 -281h-923zM524 1577l293 350h303l156 -350h-215l-127 182l-197 -182h-213z" />
<glyph unicode="&#xcb;" horiz-adv-x="1185" d="M162 0l274 1411h905l-55 -281h-584l-55 -290h512l-57 -289h-512l-51 -270h602l-56 -281h-923zM565 1759q10 59 64.5 101.5t118.5 42.5q62 0 96.5 -41.5t23.5 -102.5q-10 -61 -62.5 -103t-115.5 -42t-99 42t-26 103zM1001 1759q10 60 65 102t120 42q61 0 96.5 -42 t24.5 -102q-10 -61 -63.5 -103t-115.5 -42q-64 0 -101 41.5t-26 103.5z" />
<glyph unicode="&#xcc;" horiz-adv-x="647" d="M162 0l274 1411h322l-275 -1411h-321zM328 1927h293l120 -350h-206z" />
<glyph unicode="&#xcd;" horiz-adv-x="647" d="M162 0l274 1411h322l-275 -1411h-321zM526 1577l262 350h291l-346 -350h-207z" />
<glyph unicode="&#xce;" horiz-adv-x="647" d="M162 0l274 1411h322l-275 -1411h-321zM254 1577l293 350h303l156 -350h-215l-127 182l-197 -182h-213z" />
<glyph unicode="&#xcf;" horiz-adv-x="647" d="M162 0l274 1411h322l-275 -1411h-321zM295 1759q10 60 64 102t118 42q63 0 97.5 -42t23.5 -102q-10 -61 -62.5 -103t-115.5 -42t-99 42t-26 103zM731 1759q10 60 64.5 102t119.5 42q61 0 96.5 -42t24.5 -102q-10 -61 -63 -103t-115 -42q-64 0 -101 41.5t-26 103.5z" />
<glyph unicode="&#xd0;" horiz-adv-x="1472" d="M145 580l45 235h154l117 596h557q198 0 326.5 -94t171.5 -253.5t4 -361.5q-29 -150 -97.5 -278t-167.5 -222.5t-231 -148t-281 -53.5h-557l113 580h-154zM563 281h236q150 0 256 122.5t141 298.5q19 83 11.5 160t-33 136.5t-80 95.5t-131.5 36h-236l-61 -315h231 l-45 -235h-231z" />
<glyph unicode="&#xd1;" horiz-adv-x="1390" d="M162 0l274 1411h295l295 -801l156 801h321l-274 -1411h-283l-305 811l-158 -811h-321zM717 1616q35 135 107.5 198.5t146.5 63.5q37 0 68 -21t54 -42t42 -21q17 0 39 20.5t30 63.5h150q-16 -71 -46.5 -123.5t-67 -80.5t-71.5 -41t-69 -13t-64.5 21t-55 42t-44.5 21 q-15 0 -37 -22t-33 -66h-149z" />
<glyph unicode="&#xd2;" horiz-adv-x="1599" d="M215 707q29 147 111.5 281t197.5 230.5t260 154t293 57.5q195 0 342 -97t210.5 -263.5t25.5 -362.5t-166.5 -363t-312.5 -264.5t-379 -97.5q-198 0 -345.5 97.5t-211 264t-25.5 363.5zM539 707q-23 -118 6.5 -214t110 -152t196.5 -56q174 0 308.5 121t170.5 301 q22 117 -8.5 212.5t-110.5 151t-196 55.5q-176 0 -309.5 -119.5t-167.5 -299.5zM803 1927h293l121 -350h-207z" />
<glyph unicode="&#xd3;" horiz-adv-x="1599" d="M215 707q29 147 111.5 281t197.5 230.5t260 154t293 57.5q195 0 342 -97t210.5 -263.5t25.5 -362.5t-166.5 -363t-312.5 -264.5t-379 -97.5q-198 0 -345.5 97.5t-211 264t-25.5 363.5zM539 707q-23 -118 6.5 -214t110 -152t196.5 -56q174 0 308.5 121t170.5 301 q22 117 -8.5 212.5t-110.5 151t-196 55.5q-176 0 -309.5 -119.5t-167.5 -299.5zM1001 1577l263 350h290l-346 -350h-207z" />
<glyph unicode="&#xd4;" horiz-adv-x="1599" d="M215 707q29 147 111.5 281t197.5 230.5t260 154t293 57.5q195 0 342 -97t210.5 -263.5t25.5 -362.5t-166.5 -363t-312.5 -264.5t-379 -97.5q-198 0 -345.5 97.5t-211 264t-25.5 363.5zM539 707q-23 -118 6.5 -214t110 -152t196.5 -56q174 0 308.5 121t170.5 301 q22 117 -8.5 212.5t-110.5 151t-196 55.5q-176 0 -309.5 -119.5t-167.5 -299.5zM729 1577l293 350h303l156 -350h-215l-125 182l-199 -182h-213z" />
<glyph unicode="&#xd5;" horiz-adv-x="1599" d="M215 707q29 147 111.5 281t197.5 230.5t260 154t293 57.5q195 0 342 -97t210.5 -263.5t25.5 -362.5t-166.5 -363t-312.5 -264.5t-379 -97.5q-198 0 -345.5 97.5t-211 264t-25.5 363.5zM539 707q-23 -118 6.5 -214t110 -152t196.5 -56q174 0 308.5 121t170.5 301 q22 117 -8.5 212.5t-110.5 151t-196 55.5q-176 0 -309.5 -119.5t-167.5 -299.5zM821 1616q34 135 106.5 198.5t147.5 63.5q37 0 67.5 -21t53 -42t41.5 -21q17 0 40 20.5t32 63.5h149q-17 -71 -47.5 -123.5t-67 -80.5t-71.5 -41t-68 -13q-34 0 -64.5 21t-55 42t-44.5 21 q-15 0 -37.5 -22.5t-31.5 -65.5h-150z" />
<glyph unicode="&#xd6;" horiz-adv-x="1599" d="M215 707q29 147 111.5 281t197.5 230.5t260 154t293 57.5q195 0 342 -97t210.5 -263.5t25.5 -362.5t-166.5 -363t-312.5 -264.5t-379 -97.5q-198 0 -345.5 97.5t-211 264t-25.5 363.5zM539 707q-23 -118 6.5 -214t110 -152t196.5 -56q174 0 308.5 121t170.5 301 q22 117 -8.5 212.5t-110.5 151t-196 55.5q-176 0 -309.5 -119.5t-167.5 -299.5zM772 1759q10 60 63.5 102t116.5 42t98.5 -42t24.5 -102q-10 -61 -62.5 -103t-115.5 -42t-99 42t-26 103zM1208 1759q10 60 64 102t119 42q61 0 97 -42t25 -102q-10 -61 -63 -103t-115 -42 q-64 0 -101 41.5t-26 103.5z" />
<glyph unicode="&#xd7;" horiz-adv-x="960" d="M152 297l276 229l-188 232l182 153l188 -233l283 235l123 -151l-283 -236l191 -235l-183 -154l-192 238l-277 -232z" />
<glyph unicode="&#xd8;" horiz-adv-x="1603" d="M102 72l195 166q-61 98 -82 215.5t4 253.5q29 147 111 281t196.5 230.5t259.5 154t293 57.5q127 0 235.5 -42t186.5 -118l195 166l78 -95l-193 -165q128 -204 76 -469q-38 -197 -166 -363.5t-312 -264t-380 -97.5q-262 0 -426 161l-193 -168zM543 707q-28 -138 20 -242 l680 584q-90 77 -225 77q-174 0 -306.5 -119.5t-168.5 -299.5zM633 362q83 -77 221 -77q174 0 308.5 121t170.5 301q27 135 -18 241z" />
<glyph unicode="&#xd9;" horiz-adv-x="1394" d="M244 510l176 901h323l-172 -876q-11 -67 -2.5 -114t36 -77t64.5 -43.5t83 -13.5q96 0 173.5 61.5t102.5 186.5l172 876h320l-177 -901q-31 -158 -131 -280t-235.5 -185t-282.5 -63q-109 0 -201.5 37t-156 104t-89.5 167.5t-3 219.5zM700 1927h293l121 -350h-207z" />
<glyph unicode="&#xda;" horiz-adv-x="1394" d="M244 510l176 901h323l-172 -876q-11 -67 -2.5 -114t36 -77t64.5 -43.5t83 -13.5q96 0 173.5 61.5t102.5 186.5l172 876h320l-177 -901q-31 -158 -131 -280t-235.5 -185t-282.5 -63q-109 0 -201.5 37t-156 104t-89.5 167.5t-3 219.5zM899 1577l262 350h291l-346 -350h-207 z" />
<glyph unicode="&#xdb;" horiz-adv-x="1394" d="M244 510l176 901h323l-172 -876q-11 -67 -2.5 -114t36 -77t64.5 -43.5t83 -13.5q96 0 173.5 61.5t102.5 186.5l172 876h320l-177 -901q-31 -158 -131 -280t-235.5 -185t-282.5 -63q-109 0 -201.5 37t-156 104t-89.5 167.5t-3 219.5zM627 1577l293 350h303l155 -350h-215 l-125 182l-198 -182h-213z" />
<glyph unicode="&#xdc;" horiz-adv-x="1394" d="M244 510l176 901h323l-172 -876q-11 -67 -2.5 -114t36 -77t64.5 -43.5t83 -13.5q96 0 173.5 61.5t102.5 186.5l172 876h320l-177 -901q-31 -158 -131 -280t-235.5 -185t-282.5 -63q-109 0 -201.5 37t-156 104t-89.5 167.5t-3 219.5zM670 1759q10 60 63.5 102t116.5 42 t98.5 -42t24.5 -102q-10 -61 -62.5 -103t-115.5 -42t-99 42t-26 103zM1106 1759q10 60 63.5 102t118.5 42q62 0 97.5 -42t25.5 -102q-10 -61 -63 -103t-115 -42q-64 0 -101 41.5t-26 103.5z" />
<glyph unicode="&#xdd;" horiz-adv-x="1406" d="M266 1411h383l223 -520l435 520h383l-703 -780l-123 -631h-323l125 637zM907 1577l262 350h291l-346 -350h-207z" />
<glyph unicode="&#xde;" horiz-adv-x="1277" d="M162 0l274 1411h322l-47 -237h250q133 0 228.5 -56t137 -162.5t14.5 -244.5q-41 -210 -200.5 -340.5t-362.5 -130.5h-250l-45 -240h-321zM584 520h225q76 0 135 51.5t76 133.5q17 85 -23 136.5t-118 51.5h-224z" />
<glyph unicode="&#xdf;" horiz-adv-x="1224" d="M127 0l188 971q44 228 198 363.5t366 135.5q198 0 299 -104t69 -274q-18 -92 -85.5 -166.5t-155.5 -102.5q136 -31 198.5 -136.5t30.5 -266.5q-38 -196 -201.5 -317t-390.5 -121q-76 0 -141 20l121 262q41 -14 86 -14q81 0 144 60t81 147q17 84 -29.5 135t-136.5 51h-76 l51 270h45q51 0 91.5 40.5t52.5 103.5q12 60 -20 94.5t-97 34.5q-70 0 -123.5 -57.5t-73.5 -157.5l-188 -971h-303z" />
<glyph unicode="&#xe0;" d="M165 271q-21 92 1 208q21 112 78.5 207.5t135 158t167.5 97.5t180 35q82 0 158.5 -32t113.5 -95l21 104h301l-186 -954h-301l22 109q-63 -63 -151.5 -95t-169.5 -32q-90 0 -166.5 34t-129.5 98.5t-74 156.5zM475 479q-17 -90 35.5 -152.5t142.5 -62.5q89 0 165 62t95 153 q18 91 -34 153t-140 62q-90 0 -168.5 -62.5t-95.5 -152.5zM541 1470h293l122 -350h-206z" />
<glyph unicode="&#xe1;" d="M165 271q-21 92 1 208q21 112 78.5 207.5t135 158t167.5 97.5t180 35q82 0 158.5 -32t113.5 -95l21 104h301l-186 -954h-301l22 109q-63 -63 -151.5 -95t-169.5 -32q-90 0 -166.5 34t-129.5 98.5t-74 156.5zM475 479q-17 -90 35.5 -152.5t142.5 -62.5q89 0 165 62t95 153 q18 91 -34 153t-140 62q-90 0 -168.5 -62.5t-95.5 -152.5zM741 1120l260 350h291l-344 -350h-207z" />
<glyph unicode="&#xe2;" d="M165 271q-21 92 1 208q21 112 78.5 207.5t135 158t167.5 97.5t180 35q82 0 158.5 -32t113.5 -95l21 104h301l-186 -954h-301l22 109q-63 -63 -151.5 -95t-169.5 -32q-90 0 -166.5 34t-129.5 98.5t-74 156.5zM469 1120l291 350h303l158 -350h-215l-127 183l-197 -183h-213 zM475 479q-17 -90 35.5 -152.5t142.5 -62.5q89 0 165 62t95 153q18 91 -34 153t-140 62q-90 0 -168.5 -62.5t-95.5 -152.5z" />
<glyph unicode="&#xe3;" d="M165 271q-21 92 1 208q21 112 78.5 207.5t135 158t167.5 97.5t180 35q82 0 158.5 -32t113.5 -95l21 104h301l-186 -954h-301l22 109q-63 -63 -151.5 -95t-169.5 -32q-90 0 -166.5 34t-129.5 98.5t-74 156.5zM475 479q-17 -90 35.5 -152.5t142.5 -62.5q89 0 165 62t95 153 q18 91 -34 153t-140 62q-90 0 -168.5 -62.5t-95.5 -152.5zM561 1159q17 70 47 123.5t65.5 82t70.5 42.5t69 14q37 0 67.5 -21t53 -42t41.5 -21q17 0 40 20.5t32 63.5h149q-17 -71 -47.5 -123.5t-67 -80.5t-71.5 -41t-68 -13q-34 0 -64 21t-54 42t-44 21q-15 0 -37.5 -22.5 t-31.5 -65.5h-150z" />
<glyph unicode="&#xe4;" d="M165 271q-21 92 1 208q21 112 78.5 207.5t135 158t167.5 97.5t180 35q82 0 158.5 -32t113.5 -95l21 104h301l-186 -954h-301l22 109q-63 -63 -151.5 -95t-169.5 -32q-90 0 -166.5 34t-129.5 98.5t-74 156.5zM475 479q-17 -90 35.5 -152.5t142.5 -62.5q89 0 165 62t95 153 q18 91 -34 153t-140 62q-90 0 -168.5 -62.5t-95.5 -152.5zM510 1303q12 60 65.5 101.5t116.5 41.5t98 -41.5t23 -101.5q-12 -62 -62.5 -104t-113.5 -42q-64 0 -101.5 42.5t-25.5 103.5zM946 1303q12 60 65.5 101.5t118.5 41.5q62 0 97.5 -41.5t23.5 -101.5 q-12 -61 -63 -103.5t-113 -42.5q-65 0 -103 42.5t-26 103.5z" />
<glyph unicode="&#xe5;" d="M165 271q-21 92 1 208q21 112 78.5 207.5t135 158t167.5 97.5t180 35q82 0 158.5 -32t113.5 -95l21 104h301l-186 -954h-301l22 109q-63 -63 -151.5 -95t-169.5 -32q-90 0 -166.5 34t-129.5 98.5t-74 156.5zM475 479q-17 -90 35.5 -152.5t142.5 -62.5q89 0 165 62t95 153 q18 91 -34 153t-140 62q-90 0 -168.5 -62.5t-95.5 -152.5zM629 1348q22 107 113 182.5t196 75.5q108 0 170.5 -75.5t40.5 -182.5t-112.5 -180.5t-198.5 -73.5q-106 0 -168 74t-41 180zM754 1348q-10 -56 21.5 -92.5t86.5 -36.5q57 0 105.5 36.5t58.5 92.5t-23.5 95.5 t-89.5 39.5q-55 0 -102 -39.5t-57 -95.5z" />
<glyph unicode="&#xe6;" horiz-adv-x="1781" d="M113 281q14 72 58 129.5t105 91.5t130.5 51.5t140.5 17.5q151 0 250 -59l8 41q14 73 -31 116.5t-119 43.5q-136 0 -245 -88l-131 161q197 193 471 193q210 0 305 -107q156 107 346 107q102 0 187.5 -34.5t142.5 -96.5t79.5 -153t1.5 -197q-19 -86 -26 -109h-694 q11 -65 62 -104t130 -39q67 0 135.5 24.5t122.5 67.5l119 -197q-85 -75 -206 -117t-245 -42q-114 0 -201.5 35.5t-134.5 101.5q-97 -73 -209 -105t-212 -32q-173 0 -270 81.5t-70 217.5zM422 297q-8 -39 19.5 -63.5t80.5 -24.5q55 0 139 31t125 75l-6 19q-29 24 -85 38.5 t-117 14.5q-76 0 -113 -28t-43 -62zM1126 567h398q10 70 -35.5 113t-126.5 43q-75 0 -137 -39.5t-99 -116.5z" />
<glyph unicode="&#xe7;" horiz-adv-x="1069" d="M164 289q-20 87 0 192q22 111 83 205.5t145.5 158t187 99t206.5 35.5q134 0 229 -60t146 -165l-262 -148q-21 42 -67 67t-97 25q-101 0 -173.5 -62.5t-90.5 -154.5q-19 -94 28.5 -156.5t149.5 -62.5q51 0 107.5 25t93.5 67l205 -147q-162 -183 -373 -219l39 -111 q15 -42 2 -102q-18 -91 -92.5 -151t-161.5 -60q-97 0 -150 61.5t-30 181.5h147q-21 -104 56 -104q29 0 54.5 21t31.5 55q3 20 -3 45l-43 162q-93 10 -169 49t-127.5 103t-71.5 151z" />
<glyph unicode="&#xe8;" horiz-adv-x="1157" d="M164 475q29 151 123.5 267.5t222.5 176.5t266 60q102 0 187 -34.5t141.5 -96t79.5 -153t2 -197.5q-16 -72 -27 -109h-698q9 -68 59 -105.5t135 -37.5q67 0 137 24.5t126 67.5l114 -197q-83 -75 -203.5 -117t-244.5 -42q-226 0 -343.5 137.5t-76.5 355.5zM487 1470h293 l123 -350h-207zM494 567h403q12 70 -34.5 113t-129.5 43q-75 0 -138.5 -37.5t-100.5 -118.5z" />
<glyph unicode="&#xe9;" horiz-adv-x="1157" d="M164 475q29 151 123.5 267.5t222.5 176.5t266 60q102 0 187 -34.5t141.5 -96t79.5 -153t2 -197.5q-16 -72 -27 -109h-698q9 -68 59 -105.5t135 -37.5q67 0 137 24.5t126 67.5l114 -197q-83 -75 -203.5 -117t-244.5 -42q-226 0 -343.5 137.5t-76.5 355.5zM494 567h403 q12 70 -34.5 113t-129.5 43q-75 0 -138.5 -37.5t-100.5 -118.5zM688 1120l260 350h291l-344 -350h-207z" />
<glyph unicode="&#xea;" horiz-adv-x="1157" d="M164 475q29 151 123.5 267.5t222.5 176.5t266 60q102 0 187 -34.5t141.5 -96t79.5 -153t2 -197.5q-16 -72 -27 -109h-698q9 -68 59 -105.5t135 -37.5q67 0 137 24.5t126 67.5l114 -197q-83 -75 -203.5 -117t-244.5 -42q-226 0 -343.5 137.5t-76.5 355.5zM416 1120 l291 350h303l157 -350h-215l-127 183l-196 -183h-213zM494 567h403q12 70 -34.5 113t-129.5 43q-75 0 -138.5 -37.5t-100.5 -118.5z" />
<glyph unicode="&#xeb;" horiz-adv-x="1157" d="M164 475q29 151 123.5 267.5t222.5 176.5t266 60q102 0 187 -34.5t141.5 -96t79.5 -153t2 -197.5q-16 -72 -27 -109h-698q9 -68 59 -105.5t135 -37.5q67 0 137 24.5t126 67.5l114 -197q-83 -75 -203.5 -117t-244.5 -42q-226 0 -343.5 137.5t-76.5 355.5zM457 1303 q12 60 65.5 101.5t116.5 41.5t98 -41.5t23 -101.5q-12 -62 -62.5 -104t-113.5 -42q-64 0 -101.5 42.5t-25.5 103.5zM494 567h403q12 70 -34.5 113t-129.5 43q-75 0 -138.5 -37.5t-100.5 -118.5zM893 1303q12 60 65.5 101.5t118.5 41.5q62 0 97.5 -41.5t23.5 -101.5 q-12 -61 -63 -103.5t-113 -42.5q-65 0 -103 42.5t-26 103.5z" />
<glyph unicode="&#xec;" horiz-adv-x="557" d="M127 0l186 954h303l-186 -954h-303zM219 1477h293l121 -351h-207z" />
<glyph unicode="&#xed;" horiz-adv-x="557" d="M127 0l186 954h303l-186 -954h-303zM348 1126l262 351h291l-346 -351h-207z" />
<glyph unicode="&#xee;" horiz-adv-x="557" d="M121 1126l293 351h303l155 -351h-215l-127 181l-196 -181h-213zM127 0l184 954h303l-184 -954h-303z" />
<glyph unicode="&#xef;" horiz-adv-x="557" d="M127 0l186 954h303l-186 -954h-303zM162 1309q12 61 65 103t117 42q63 0 98 -42t23 -103q-12 -62 -63.5 -104t-114.5 -42t-100 42.5t-25 103.5zM598 1309q12 61 65.5 103t118.5 42q62 0 97.5 -42t23.5 -103t-64 -103.5t-114 -42.5q-65 0 -102 42.5t-25 103.5z" />
<glyph unicode="&#xf0;" horiz-adv-x="1159" d="M164 477q39 202 209.5 331.5t378.5 129.5h12l-90 182l-250 -94l-25 111l226 84l-117 237h303l70 -141l182 67l22 -110l-155 -57l215 -439q66 -120 31 -301q-28 -146 -121 -260.5t-219.5 -174.5t-262.5 -60q-100 0 -185 35.5t-142.5 98.5t-80.5 157t-1 204zM471 477 q-18 -91 29.5 -153t126.5 -62q81 0 153 61.5t90 153.5q18 88 -30.5 145.5t-130.5 57.5q-79 0 -149.5 -57.5t-88.5 -145.5z" />
<glyph unicode="&#xf1;" horiz-adv-x="1198" d="M127 0l186 954h303l-34 -170q28 63 87.5 109.5t118 66t107.5 19.5q188 0 260 -121t29 -344l-101 -514h-303l92 479q20 101 -20.5 152t-106.5 51q-34 0 -66 -9.5t-64 -31.5t-57 -63.5t-36 -98.5l-92 -479h-303zM530 1159q17 70 47.5 123.5t66.5 82t71 42.5t69 14 q29 0 55 -13t41 -29t33 -29t33 -13q17 0 39 20t33 64h149q-17 -71 -48 -123.5t-67.5 -80.5t-72 -41t-68.5 -13q-34 0 -64 21t-53.5 42t-43.5 21q-15 0 -37 -22t-33 -66h-150z" />
<glyph unicode="&#xf2;" horiz-adv-x="1179" d="M164 479q22 111 82.5 205.5t144.5 158.5t184.5 100t202.5 36t189 -36t147 -100t85 -159t3 -205q-29 -146 -124.5 -261t-225 -175.5t-266.5 -60.5q-102 0 -189 36t-146.5 99.5t-84 157.5t-2.5 204zM471 479q-18 -97 30.5 -157t137.5 -60q90 0 163 60.5t91 156.5 q18 97 -30.5 158t-137.5 61q-90 0 -163 -61.5t-91 -157.5zM506 1470h293l123 -350h-207z" />
<glyph unicode="&#xf3;" horiz-adv-x="1179" d="M164 479q22 111 82.5 205.5t144.5 158.5t184.5 100t202.5 36t189 -36t147 -100t85 -159t3 -205q-29 -146 -124.5 -261t-225 -175.5t-266.5 -60.5q-102 0 -189 36t-146.5 99.5t-84 157.5t-2.5 204zM471 479q-18 -97 30.5 -157t137.5 -60q90 0 163 60.5t91 156.5 q18 97 -30.5 158t-137.5 61q-90 0 -163 -61.5t-91 -157.5zM707 1120l260 350h290l-344 -350h-206z" />
<glyph unicode="&#xf4;" horiz-adv-x="1179" d="M164 479q22 111 82.5 205.5t144.5 158.5t184.5 100t202.5 36t189 -36t147 -100t85 -159t3 -205q-29 -146 -124.5 -261t-225 -175.5t-266.5 -60.5q-102 0 -189 36t-146.5 99.5t-84 157.5t-2.5 204zM434 1120l291 350h303l158 -350h-215l-127 183l-197 -183h-213zM471 479 q-18 -97 30.5 -157t137.5 -60q90 0 163 60.5t91 156.5q18 97 -30.5 158t-137.5 61q-90 0 -163 -61.5t-91 -157.5z" />
<glyph unicode="&#xf5;" horiz-adv-x="1179" d="M164 479q22 111 82.5 205.5t144.5 158.5t184.5 100t202.5 36t189 -36t147 -100t85 -159t3 -205q-29 -146 -124.5 -261t-225 -175.5t-266.5 -60.5q-102 0 -189 36t-146.5 99.5t-84 157.5t-2.5 204zM471 479q-18 -97 30.5 -157t137.5 -60q90 0 163 60.5t91 156.5 q18 97 -30.5 158t-137.5 61q-90 0 -163 -61.5t-91 -157.5zM526 1159q17 70 47 123.5t65.5 82t70.5 42.5t69 14q29 0 55 -13t41 -29t33 -29t33 -13q17 0 40 20.5t32 63.5h149q-17 -71 -47.5 -123.5t-67 -80.5t-71.5 -41t-68 -13q-34 0 -64 21t-54 42t-44 21 q-15 0 -37.5 -22.5t-31.5 -65.5h-150z" />
<glyph unicode="&#xf6;" horiz-adv-x="1179" d="M164 479q22 111 82.5 205.5t144.5 158.5t184.5 100t202.5 36t189 -36t147 -100t85 -159t3 -205q-29 -146 -124.5 -261t-225 -175.5t-266.5 -60.5q-102 0 -189 36t-146.5 99.5t-84 157.5t-2.5 204zM471 479q-18 -97 30.5 -157t137.5 -60q90 0 163 60.5t91 156.5 q18 97 -30.5 158t-137.5 61q-90 0 -163 -61.5t-91 -157.5zM475 1303q12 60 65.5 101.5t116.5 41.5t98 -41.5t23 -101.5q-12 -62 -62.5 -104t-113.5 -42q-64 0 -101.5 42.5t-25.5 103.5zM911 1303q12 60 66 101.5t119 41.5q62 0 97.5 -41.5t23.5 -101.5q-12 -61 -63.5 -103.5 t-113.5 -42.5q-65 0 -103 42.5t-26 103.5z" />
<glyph unicode="&#xf7;" horiz-adv-x="1189" d="M162 444l39 205h1036l-39 -205h-1036zM457 154q13 69 69 114t125 45q70 0 110 -45t27 -114t-71 -115.5t-127 -46.5q-68 0 -107 47t-26 115zM608 932q13 68 70 114t125 46q70 0 110 -46t27 -114q-13 -70 -70.5 -115t-128.5 -45q-69 0 -107.5 44.5t-25.5 115.5z" />
<glyph unicode="&#xf8;" horiz-adv-x="1181" d="M98 45l125 107q-94 134 -57 327q22 111 82.5 205.5t144.5 158.5t184.5 100t202.5 36q173 0 297 -98l123 104l68 -84l-117 -100q87 -137 51 -322q-29 -146 -124 -261t-224 -175.5t-266 -60.5q-170 0 -289 92l-133 -115zM471 479q-11 -58 6 -110l354 301q-45 28 -106 28 q-90 0 -163 -61.5t-91 -157.5zM547 285q44 -23 94 -23q91 0 162.5 60t89.5 157q10 63 0 103z" />
<glyph unicode="&#xf9;" horiz-adv-x="1198" d="M201 440l100 514h303l-94 -479q-20 -101 20 -152t107 -51q33 0 65 9.5t64.5 31.5t57.5 63.5t36 98.5l94 479h303l-186 -954h-303l33 164q-40 -90 -137 -139.5t-177 -49.5q-187 0 -258.5 120.5t-27.5 344.5zM510 1470h293l123 -350h-207z" />
<glyph unicode="&#xfa;" horiz-adv-x="1198" d="M201 440l100 514h303l-94 -479q-20 -101 20 -152t107 -51q33 0 65 9.5t64.5 31.5t57.5 63.5t36 98.5l94 479h303l-186 -954h-303l33 164q-40 -90 -137 -139.5t-177 -49.5q-187 0 -258.5 120.5t-27.5 344.5zM711 1120l260 350h291l-344 -350h-207z" />
<glyph unicode="&#xfb;" horiz-adv-x="1198" d="M201 440l100 514h303l-94 -479q-20 -101 20 -152t107 -51q33 0 65 9.5t64.5 31.5t57.5 63.5t36 98.5l94 479h303l-186 -954h-303l33 164q-40 -90 -137 -139.5t-177 -49.5q-187 0 -258.5 120.5t-27.5 344.5zM438 1120l291 350h303l158 -350h-215l-127 183l-197 -183h-213z " />
<glyph unicode="&#xfc;" horiz-adv-x="1198" d="M201 440l100 514h303l-94 -479q-20 -101 20 -152t107 -51q33 0 65 9.5t64.5 31.5t57.5 63.5t36 98.5l94 479h303l-186 -954h-303l33 164q-40 -90 -137 -139.5t-177 -49.5q-187 0 -258.5 120.5t-27.5 344.5zM479 1303q12 60 66 101.5t117 41.5t97.5 -41.5t22.5 -101.5 q-12 -62 -63.5 -104t-114.5 -42t-100 42.5t-25 103.5zM915 1303q12 60 66 101.5t119 41.5q62 0 97.5 -41.5t23.5 -101.5q-12 -61 -64.5 -103.5t-114.5 -42.5q-65 0 -102 42.5t-25 103.5z" />
<glyph unicode="&#xfd;" horiz-adv-x="1056" d="M51 -471l348 584l-211 841h336l101 -493l293 493h325l-868 -1425h-324zM647 1120l260 350h291l-344 -350h-207z" />
<glyph unicode="&#xfe;" d="M35 -471l377 1929h303l-119 -606q60 62 149 93.5t170 31.5q90 0 166.5 -34.5t129 -99t73 -156.5t-1.5 -208q-21 -112 -78.5 -207.5t-134.5 -157.5t-167.5 -97t-180.5 -35q-82 0 -158 31t-112 93l-113 -577h-303zM532 479q-18 -90 36.5 -152.5t144.5 -62.5t167.5 62.5 t94.5 152.5t-35.5 152.5t-142.5 62.5q-88 0 -167.5 -62.5t-97.5 -152.5z" />
<glyph unicode="&#xff;" horiz-adv-x="1056" d="M51 -471l348 584l-211 841h336l101 -493l293 493h325l-868 -1425h-324zM418 1303q12 60 65.5 101.5t116.5 41.5t98 -41.5t23 -101.5q-12 -62 -63.5 -104t-114.5 -42t-100 42.5t-25 103.5zM854 1303q12 60 65.5 101.5t118.5 41.5q62 0 97.5 -41.5t23.5 -101.5 q-12 -61 -64 -103.5t-114 -42.5q-65 0 -102 42.5t-25 103.5z" />
<glyph unicode="&#x152;" horiz-adv-x="2217" d="M215 707q29 147 111.5 281t197.5 230.5t260 154t293 57.5q242 0 371 -146l25 127h903l-56 -281h-583l-58 -290h512l-55 -289h-512l-53 -270h602l-53 -281h-922l23 125q-89 -71 -200.5 -107t-223.5 -36q-198 0 -345.5 97.5t-211 264t-25.5 363.5zM539 707 q-23 -118 6.5 -214t110 -152t196.5 -56q174 0 308.5 121t170.5 301q22 117 -8.5 212.5t-110.5 151t-196 55.5q-176 0 -309.5 -119.5t-167.5 -299.5z" />
<glyph unicode="&#x153;" horiz-adv-x="1886" d="M164 479q22 111 82.5 205.5t144.5 158.5t184.5 100t202.5 36t190 -36t146 -103q175 139 389 139q102 0 187.5 -34.5t142.5 -96.5t80 -153t2 -197q-16 -72 -27 -109h-698q9 -69 59 -106t135 -37q67 0 137 24.5t126 67.5l114 -197q-83 -75 -203.5 -117t-244.5 -42 q-112 0 -199.5 35t-140.5 100q-181 -135 -387 -135q-102 0 -189 36t-146.5 99.5t-84 157.5t-2.5 204zM471 479q-18 -97 30.5 -157t137.5 -60q90 0 163 60.5t91 156.5q18 97 -30.5 158t-137.5 61q-90 0 -163 -61.5t-91 -157.5zM1225 567h401q12 69 -35.5 112.5t-128.5 43.5 q-74 0 -137.5 -37.5t-99.5 -118.5z" />
<glyph unicode="&#x178;" horiz-adv-x="1406" d="M266 1411h383l223 -520l435 520h383l-703 -780l-123 -631h-323l125 637zM676 1759q10 60 64 102t118 42q63 0 97.5 -42t23.5 -102q-10 -61 -62.5 -103t-115.5 -42t-99 42t-26 103zM1112 1759q10 60 64.5 102t119.5 42q61 0 96.5 -42t24.5 -102q-10 -61 -63 -103t-115 -42 q-64 0 -101 41.5t-26 103.5z" />
<glyph unicode="&#x2c6;" horiz-adv-x="1181" d="M432 1126l293 351h303l156 -351h-215l-127 181l-197 -181h-213z" />
<glyph unicode="&#x2dc;" horiz-adv-x="913" d="M389 1163q17 71 48 124.5t66.5 82t70.5 42t69 13.5q37 0 67.5 -21t53 -42t41.5 -21q17 0 40 20.5t32 63.5h149q-17 -70 -47.5 -122.5t-67 -81t-71.5 -41.5t-68 -13q-34 0 -64.5 21t-55 42t-44.5 21q-15 0 -37.5 -22.5t-31.5 -65.5h-150z" />
<glyph unicode="&#x2000;" horiz-adv-x="1031" />
<glyph unicode="&#x2001;" horiz-adv-x="2062" />
<glyph unicode="&#x2002;" horiz-adv-x="1031" />
<glyph unicode="&#x2003;" horiz-adv-x="2062" />
<glyph unicode="&#x2004;" horiz-adv-x="687" />
<glyph unicode="&#x2005;" horiz-adv-x="515" />
<glyph unicode="&#x2006;" horiz-adv-x="343" />
<glyph unicode="&#x2007;" horiz-adv-x="343" />
<glyph unicode="&#x2008;" horiz-adv-x="257" />
<glyph unicode="&#x2009;" horiz-adv-x="412" />
<glyph unicode="&#x200a;" horiz-adv-x="114" />
<glyph unicode="&#x2010;" horiz-adv-x="964" d="M188 362l52 263h725l-52 -263h-725z" />
<glyph unicode="&#x2011;" horiz-adv-x="964" d="M188 362l52 263h725l-52 -263h-725z" />
<glyph unicode="&#x2012;" horiz-adv-x="964" d="M188 362l52 263h725l-52 -263h-725z" />
<glyph unicode="&#x2013;" horiz-adv-x="1318" d="M190 358l52 260h1077l-51 -260h-1078z" />
<glyph unicode="&#x2014;" horiz-adv-x="1757" d="M188 356l52 260h1517l-51 -260h-1518z" />
<glyph unicode="&#x2018;" horiz-adv-x="532" d="M252 852q34 184 145.5 339t253.5 267l115 -76q-117 -126 -180.5 -250t-91.5 -280h-242z" />
<glyph unicode="&#x2019;" horiz-adv-x="514" d="M223 891q119 127 182 249.5t91 280.5h241q-17 -96 -58.5 -188.5t-98 -168.5t-116.5 -137t-126 -112z" />
<glyph unicode="&#x201a;" horiz-adv-x="503" d="M-74 -236q118 127 180.5 249t90.5 282h241q-17 -96 -58 -188.5t-98 -169t-116 -137t-125 -111.5z" />
<glyph unicode="&#x201c;" horiz-adv-x="882" d="M252 852q34 184 145.5 339t253.5 267l115 -76q-117 -126 -180.5 -250t-91.5 -280h-242zM602 852q34 184 146 339.5t256 266.5l112 -76q-117 -126 -180.5 -250t-91.5 -280h-242z" />
<glyph unicode="&#x201d;" horiz-adv-x="866" d="M223 891q119 127 182 249.5t91 280.5h241q-17 -96 -58.5 -188.5t-98 -168.5t-116.5 -137t-126 -112zM573 891q119 127 182 249.5t91 280.5h241q-17 -96 -58 -188.5t-98 -169t-116 -137t-125 -111.5z" />
<glyph unicode="&#x201e;" horiz-adv-x="854" d="M-74 -236q118 127 180.5 250t90.5 281h241q-17 -96 -58 -188.5t-98 -169t-116 -137t-125 -111.5zM274 -236q120 126 182.5 248t90.5 283h244q-34 -184 -145.5 -339t-254.5 -267z" />
<glyph unicode="&#x2022;" horiz-adv-x="925" d="M223 487q26 136 142 228t253 92t216 -92t53 -228q-27 -138 -141.5 -229.5t-251.5 -91.5t-217.5 92t-53.5 229z" />
<glyph unicode="&#x2026;" horiz-adv-x="1812" d="M123 160q15 78 79.5 130t141.5 52q78 0 122.5 -52t29.5 -130q-15 -77 -79.5 -127.5t-142.5 -50.5q-76 0 -121 50.5t-30 127.5zM752 160q15 78 79.5 130t141.5 52q78 0 122 -52t29 -130q-15 -77 -79 -127.5t-142 -50.5q-76 0 -121 50.5t-30 127.5zM1380 160q15 78 80 130 t142 52q76 0 120 -52t29 -130q-15 -77 -79 -127.5t-140 -50.5q-77 0 -122 50.5t-30 127.5z" />
<glyph unicode="&#x202f;" horiz-adv-x="412" />
<glyph unicode="&#x2039;" horiz-adv-x="659" d="M162 477l364 424h234l-365 -424l201 -424h-234z" />
<glyph unicode="&#x203a;" horiz-adv-x="659" d="M86 53l365 424l-199 424h233l199 -424l-365 -424h-233z" />
<glyph unicode="&#x205f;" horiz-adv-x="515" />
<glyph unicode="&#x20ac;" horiz-adv-x="1658" d="M168 498l27 133h989l-27 -133h-436q28 -100 109 -158.5t196 -58.5q108 0 210.5 53.5t172.5 142.5l231 -174q-120 -150 -297 -235.5t-376 -85.5q-247 0 -406.5 143.5t-183.5 372.5h-209zM211 721l27 131h213q112 224 326 364t458 140q195 0 338 -83t205 -226l-299 -175 q-36 84 -115 132.5t-188 48.5q-112 0 -210.5 -53.5t-168.5 -147.5h430l-27 -131h-989z" />
<glyph unicode="&#x2122;" horiz-adv-x="1923" d="M303 1208l39 203h651l-39 -203h-211l-127 -643h-229l127 643h-211zM893 565l266 846h193l123 -471l307 471h196l-65 -846h-232l37 410l-202 -303h-179l-86 303l-127 -410h-231z" />
<glyph unicode="&#x25fc;" horiz-adv-x="952" d="M0 0v952h952v-952h-952z" />
</font>
</defs>
</svg>
