<?xml version="1.0" standalone="no"?>
<!DOCTYPE svg PUBLIC "-//W3C//DTD SVG 1.1//EN" "http://www.w3.org/Graphics/SVG/1.1/DTD/svg11.dtd" >
<svg xmlns="http://www.w3.org/2000/svg" xmlns:xlink="http://www.w3.org/1999/xlink" version="1.1">
<metadata></metadata>
<defs>
<font id="sofia_probold" horiz-adv-x="1257" >
<font-face units-per-em="2048" ascent="1638" descent="-410" />
<missing-glyph horiz-adv-x="487" />
<glyph unicode="&#xfb01;" horiz-adv-x="1290" d="M49 748v206h180v60q0 216 108.5 333t311.5 117h90v-250h-37q-109 0 -155.5 -52t-48.5 -146v-62h657v-954h-268v748h-389v-748h-269v748h-180zM850 1286q0 67 50 113.5t120 46.5q72 0 121 -46t49 -114t-49 -115t-121 -47q-69 0 -119.5 47.5t-50.5 114.5z" />
<glyph unicode="&#xfb02;" horiz-adv-x="1292" d="M49 748v206h180v60q0 216 108.5 333t311.5 117h508v-1464h-270v1214h-185q-109 0 -155.5 -52t-48.5 -146v-62h209v-206h-209v-748h-269v748h-180z" />
<glyph unicode="&#xfb03;" horiz-adv-x="2041" d="M49 748v206h180v60q0 216 108.5 333t311.5 117h115v-250h-62q-109 0 -155.5 -52t-48.5 -146v-62h483v60q0 216 108.5 333t311.5 117h61v-250h-28q-95 0 -140 -48.5t-45 -131.5v-80h658v-954h-269v748h-389v-748h-268v748h-483v-748h-269v748h-180zM1602 1286 q0 67 50 113.5t120 46.5q72 0 121 -46t49 -114t-49 -115t-121 -47q-69 0 -119.5 47.5t-50.5 114.5z" />
<glyph unicode="&#xfb04;" horiz-adv-x="2043" d="M49 748v206h180v60q0 216 108.5 333t311.5 117h115v-250h-62q-109 0 -155.5 -52t-48.5 -146v-62h483v60q0 216 108.5 333t311.5 117h508v-1464h-269v1214h-186q-202 0 -205 -198v-62h209v-206h-209v-748h-268v748h-483v-748h-269v748h-180z" />
<glyph horiz-adv-x="0" />
<glyph horiz-adv-x="682" />
<glyph unicode=" "  horiz-adv-x="487" />
<glyph unicode="&#x09;" horiz-adv-x="487" />
<glyph unicode="&#xa0;" horiz-adv-x="487" />
<glyph unicode="!" horiz-adv-x="581" d="M119 147q0 70 50 117t120 47q71 0 121.5 -47t50.5 -117q0 -71 -50 -118t-122 -47q-70 0 -120 47t-50 118zM150 1411h282l-37 -938h-209z" />
<glyph unicode="&#x22;" horiz-adv-x="817" d="M113 1411h239l-39 -606h-163zM465 1411h240l-37 -606h-164z" />
<glyph unicode="#" horiz-adv-x="1441" d="M61 336l54 186h229l102 346h-227l53 187h230l104 356h207l-106 -356h237l107 356h204l-106 -356h233l-53 -187h-233l-105 -346h234l-56 -186h-231l-107 -336h-202l102 336h-237l-105 -336h-203l107 336h-232zM547 522h237l105 346h-238z" />
<glyph unicode="$" horiz-adv-x="1095" d="M80 432h282q0 -76 52.5 -123t144.5 -47q81 0 127.5 40.5t46.5 103.5q0 100 -151 145l-154 45q-83 22 -145.5 57t-98 71.5t-58 80.5t-29.5 80.5t-7 75.5q0 150 105.5 252t271.5 124v191h145v-191q167 -20 267.5 -126.5t99.5 -266.5h-283q2 73 -41 117.5t-116 44.5 t-118.5 -40t-45.5 -101q0 -91 133 -127l141 -41q369 -103 369 -377q0 -166 -116.5 -268.5t-289.5 -118.5v-191l-145 2v191q-176 22 -281.5 131.5t-105.5 265.5z" />
<glyph unicode="%" horiz-adv-x="1308" d="M66 1100q0 115 78.5 194.5t193.5 79.5q114 0 194 -80t80 -194q0 -115 -80 -194t-194 -79q-115 0 -193.5 78.5t-78.5 194.5zM215 1100q0 -54 34.5 -88.5t88.5 -34.5q52 0 88.5 35t36.5 88q0 51 -37 88t-88 37q-53 0 -88 -36.5t-35 -88.5zM244 0l663 1341h152l-666 -1341 h-149zM694 254q0 114 79 194t194 80q114 0 194 -80t80 -194q0 -115 -79.5 -193.5t-194.5 -78.5q-116 0 -194.5 78.5t-78.5 193.5zM844 254q0 -54 35 -88.5t88 -34.5t89 35t36 88q0 51 -36.5 88t-88.5 37t-87.5 -36.5t-35.5 -88.5z" />
<glyph unicode="&#x26;" horiz-adv-x="1363" d="M88 401q0 125 69.5 219t168.5 136q-76 34 -123 114t-47 181q0 155 122.5 265.5t311.5 110.5q117 0 212.5 -47.5t160.5 -134.5l-211 -162q-21 32 -63 54t-91 22q-71 0 -115.5 -43t-44.5 -96q0 -31 8.5 -58t28.5 -53t61.5 -41.5t100.5 -15.5h190v154h252v-162h170v-205 h-170v-193q0 -101 40 -159t118 -58h63v-237h-71q-113 2 -197 40.5t-125 110.5q-54 -80 -150.5 -121.5t-213.5 -41.5q-206 0 -330.5 119t-124.5 302zM371 436q3 -84 62.5 -136t146.5 -52q40 0 80.5 12.5t79 38.5t63 74.5t24.5 113.5v152h-200q-134 0 -196.5 -59t-59.5 -144z " />
<glyph unicode="'" horiz-adv-x="464" d="M113 1411h239l-39 -606h-163z" />
<glyph unicode="(" horiz-adv-x="765" d="M86 543q0 267 77.5 476t222.5 327t333 118v-198q-56 0 -110.5 -26t-107 -83t-92 -139.5t-63.5 -205t-24 -269.5q0 -148 24 -271t63.5 -205t92 -139t107 -82.5t110.5 -25.5v-197q-189 0 -333 117t-222 325.5t-78 477.5z" />
<glyph unicode=")" horiz-adv-x="765" d="M47 -180q56 0 110.5 25.5t107 82.5t92 139t63.5 205t24 271q0 147 -24 269.5t-63.5 205t-92 139.5t-107 83t-110.5 26v198q188 0 332.5 -118t222.5 -327t78 -476q0 -268 -78 -477t-222.5 -326t-332.5 -117v197z" />
<glyph unicode="*" horiz-adv-x="929" d="M74 1075l45 170l270 -86l-12 283h176l-12 -283l268 86l47 -170l-260 -57l172 -201l-139 -108l-164 231l-166 -231l-137 108l172 201z" />
<glyph unicode="+" horiz-adv-x="995" d="M78 399v205h317v318h205v-318h320v-205h-320v-319h-205v319h-317z" />
<glyph unicode="," horiz-adv-x="520" d="M-25 -268q95 130 134 251.5t30 282.5h254q6 -182 -69.5 -338t-194.5 -262z" />
<glyph unicode="-" horiz-adv-x="970" d="M125 371v237h721v-237h-721z" />
<glyph unicode="." horiz-adv-x="540" d="M98 147q0 70 50 117t120 47q72 0 123 -47t51 -117q0 -71 -51 -118t-123 -47q-70 0 -120 47t-50 118z" />
<glyph unicode="/" horiz-adv-x="991" d="M49 0l680 1411h215l-680 -1411h-215z" />
<glyph unicode="0" horiz-adv-x="1208" d="M106 668q0 122 14 221.5t49.5 189t91.5 150t143.5 96t201.5 35.5t201 -35.5t142 -96t90 -150t49 -189t14 -221.5q0 -120 -14 -218t-49 -187t-90 -149.5t-142 -96t-201 -35.5t-201.5 35.5t-143.5 96t-91.5 149t-49.5 187t-14 218.5zM379 668q0 -437 227 -437 q223 0 223 437q0 442 -223 442q-227 0 -227 -442z" />
<glyph unicode="1" horiz-adv-x="804" d="M53 877v251l557 232h23v-1360h-271v995z" />
<glyph unicode="2" horiz-adv-x="1103" d="M86 956q26 186 143.5 295t313.5 109q201 0 321.5 -111.5t120.5 -294.5q0 -176 -147 -340l-316 -362h475v-252h-903v145l524 629q93 115 93 182t-50.5 110.5t-128.5 43.5q-87 0 -138.5 -52t-63.5 -143z" />
<glyph unicode="3" horiz-adv-x="1083" d="M53 217l189 145q99 -135 239 -135q105 0 169.5 50.5t64.5 132.5q0 85 -64.5 137.5t-167.5 52.5h-129v207h76q106 0 167 49.5t56 122.5q-3 61 -50.5 97t-121.5 36q-64 0 -126.5 -29.5t-100.5 -78.5l-148 167q74 87 178 138t228 51q181 0 300 -102t116 -269q0 -84 -47 -154 t-129 -112q110 -40 173.5 -128.5t63.5 -205.5q0 -181 -138 -294t-357 -113q-143 0 -256 60t-185 175z" />
<glyph unicode="4" horiz-adv-x="1224" d="M20 256v80l760 1005h160v-845h205v-240h-205v-256h-272v256h-648zM403 496h265v354z" />
<glyph unicode="5" horiz-adv-x="1173" d="M78 256l209 139q33 -70 110 -117t156 -47q115 0 187.5 64.5t72.5 167.5q0 98 -69.5 161.5t-176.5 63.5q-76 0 -154 -32.5t-141 -88.5l-159 101l118 675h762v-249h-540l-52 -258q99 73 244 73q194 0 317 -126.5t123 -321.5q0 -145 -72 -255.5t-189.5 -167t-258.5 -56.5 q-150 0 -286.5 76.5t-200.5 197.5z" />
<glyph unicode="6" horiz-adv-x="1212" d="M100 625q0 120 22.5 229t69 201.5t113 160t160 106t203.5 38.5q138 0 254.5 -67.5t175.5 -198.5l-217 -121q-30 67 -87 102t-124 35q-127 0 -209 -102t-88 -263q108 117 291 117q198 0 324 -125.5t126 -304.5q0 -195 -137 -322.5t-359 -127.5q-237 0 -377.5 172 t-140.5 471zM393 438q0 -89 63.5 -147t161.5 -60q99 0 162.5 57t63.5 146q0 88 -60.5 143.5t-156.5 57.5q-100 0 -165.5 -55.5t-68.5 -141.5z" />
<glyph unicode="7" horiz-adv-x="1064" d="M76 1092v249h971v-26l-601 -1315h-311l502 1092h-561z" />
<glyph unicode="8" horiz-adv-x="1216" d="M86 401q0 125 70.5 222t181.5 131q-65 31 -107.5 101.5t-42.5 160.5q0 153 119.5 248.5t300.5 95.5t300.5 -95.5t119.5 -248.5q0 -90 -42.5 -160.5t-106.5 -101.5q110 -34 179.5 -130.5t69.5 -222.5q0 -123 -69.5 -219.5t-187.5 -148t-263 -51.5t-263.5 51.5t-188.5 148 t-70 219.5zM365 428q0 -89 68.5 -148t174.5 -59q107 0 175.5 59t68.5 146q0 92 -69.5 150.5t-174.5 58.5q-104 0 -173.5 -59t-69.5 -148zM449 985q0 -59 45.5 -100t113.5 -41t114 41t46 100t-46 101t-114 42t-113.5 -42t-45.5 -101z" />
<glyph unicode="9" horiz-adv-x="1214" d="M98 909q0 195 137.5 323t358.5 128q234 0 377 -178t143 -465q0 -120 -22.5 -229t-69 -201.5t-113 -160t-159.5 -106t-203 -38.5q-139 0 -256 67.5t-176 198.5l217 119q31 -66 88 -101t125 -35q125 0 207 100.5t90 258.5q-113 -113 -291 -113q-199 0 -326 126.5 t-127 305.5zM371 907q0 -88 61 -144t156 -58q100 0 165 55t66 143q0 89 -62.5 147.5t-160.5 59.5q-100 0 -162.5 -57t-62.5 -146z" />
<glyph unicode=":" horiz-adv-x="579" d="M119 147q0 70 50.5 117t121.5 47q70 0 120 -47t50 -117q0 -71 -50 -118t-120 -47q-72 0 -122 47t-50 118zM119 811q0 71 50.5 118.5t121.5 47.5q70 0 120 -47.5t50 -118.5t-50 -117.5t-120 -46.5q-72 0 -122 46.5t-50 117.5z" />
<glyph unicode=";" horiz-adv-x="581" d="M8 -268q95 130 134 251t32 283h252q6 -182 -69.5 -338t-194.5 -262zM123 811q0 71 50 118.5t120 47.5t121 -47.5t51 -118.5t-50.5 -117.5t-121.5 -46.5q-70 0 -120 46.5t-50 117.5z" />
<glyph unicode="&#x3c;" horiz-adv-x="1230" d="M70 496v221l1030 393v-221l-748 -285l748 -282v-222z" />
<glyph unicode="=" horiz-adv-x="1204" d="M131 295v197h942v-197h-942zM131 705v196h942v-196h-942z" />
<glyph unicode="&#x3e;" horiz-adv-x="1230" d="M131 100v222l748 284l-748 283v221l1030 -393v-221z" />
<glyph unicode="?" horiz-adv-x="991" d="M70 995q0 205 120 320t308 115q186 0 304 -109t118 -291q0 -143 -76 -243.5t-201 -143.5q-37 -13 -55 -21t-39.5 -22.5t-30 -36t-8.5 -51.5l-2 -39h-219v41q-13 125 28.5 202.5t163.5 127.5l74 28q53 22 80 62t27 84q0 73 -46 114.5t-120 41.5q-70 0 -123 -49t-54 -130 h-249zM227 147q0 71 50 117.5t120 46.5q72 0 123 -46.5t51 -117.5t-51 -118t-123 -47q-70 0 -120 47t-50 118z" />
<glyph unicode="@" horiz-adv-x="1976" d="M80 539q0 184 69 350.5t186.5 287.5t282 192t347.5 71q185 0 354 -66t294.5 -179.5t200 -275.5t74.5 -344q0 -64 -9 -129.5t-28 -133.5t-51 -127.5t-74.5 -106.5t-103 -74t-131.5 -27q-62 0 -114 16.5t-96.5 51.5t-69.5 98t-25 148v258q0 102 -71 173t-171 71 q-99 0 -170.5 -71t-71.5 -173q0 -98 72 -169t170 -71q89 0 168 58v-191q-74 -43 -168 -43q-173 0 -295.5 122t-122.5 294q0 176 122 297t296 121q170 0 292 -116.5t128 -281.5v-290q0 -68 37.5 -98.5t89.5 -30.5q51 0 91 29.5t63 74t38 104t20 112t5 105.5q0 194 -102 352.5 t-272 246.5t-369 88q-118 0 -227 -36.5t-195.5 -104t-151.5 -156.5t-100 -199t-35 -227q0 -197 93.5 -360.5t256.5 -258t359 -94.5h94v-178h-94q-184 0 -348 69.5t-281.5 188.5t-186.5 284t-69 349z" />
<glyph unicode="A" horiz-adv-x="1337" d="M-10 0l526 1411h307l525 -1411h-299l-115 338h-528l-113 -338h-303zM489 586h359l-180 530z" />
<glyph unicode="B" horiz-adv-x="1306" d="M172 0v1411h559q187 0 300.5 -101.5t113.5 -262.5q0 -43 -9.5 -84t-30 -83t-60.5 -75.5t-95 -50.5q128 -22 198.5 -122.5t70.5 -228.5q0 -60 -16 -117t-51.5 -109t-86.5 -91t-126 -62.5t-165 -23.5h-602zM457 252h276q95 0 147 52.5t52 127.5q0 73 -50 126.5t-145 53.5 h-280v-360zM457 850h258q67 0 106 42t39 114q0 68 -36.5 110.5t-108.5 42.5h-258v-309z" />
<glyph unicode="C" horiz-adv-x="1433" d="M86 707q0 196 95.5 361.5t260.5 262t361 96.5q177 0 327.5 -78t247.5 -214l-217 -158q-129 182 -348 182q-190 0 -316 -130.5t-126 -321.5t125 -324t315 -133q222 0 350 184l217 -160q-97 -135 -248 -213.5t-327 -78.5q-196 0 -361 97t-260.5 264t-95.5 364z" />
<glyph unicode="D" horiz-adv-x="1458" d="M172 0v1411h553q198 0 345 -94t221.5 -253.5t74.5 -361.5q0 -150 -43.5 -278t-124 -222.5t-202.5 -148t-271 -53.5h-553zM457 252h268q114 0 196 63t121 163t39 224q0 92 -23 173.5t-66 145.5t-112 101t-155 37h-268v-907z" />
<glyph unicode="E" horiz-adv-x="1175" d="M172 0v1411h885v-252h-600v-336h526v-256h-526v-315h618v-252h-903z" />
<glyph unicode="F" horiz-adv-x="1110" d="M172 0v1411h872v-252h-587v-340h467v-250h-467v-569h-285z" />
<glyph unicode="G" horiz-adv-x="1546" d="M86 705q0 198 95 364.5t261 263.5t365 97q156 0 291.5 -60.5t230.5 -165.5l-207 -178q-61 66 -142.5 102.5t-172.5 36.5q-183 0 -309.5 -135t-126.5 -325q0 -191 127 -330t309 -139q140 0 240 63t127 172q4 9 8 35h-400v231h711q0 -192 -49.5 -337.5t-141.5 -236.5 t-216 -136t-279 -45q-149 0 -283.5 57t-230 154.5t-151.5 231t-56 280.5z" />
<glyph unicode="H" horiz-adv-x="1439" d="M172 0v1411h285v-582h526v582h285v-1411h-285v573h-526v-573h-285z" />
<glyph unicode="I" horiz-adv-x="628" d="M172 0v1411h285v-1411h-285z" />
<glyph unicode="J" horiz-adv-x="645" d="M-184 -451l24 261q63 -23 174 -23q89 0 131.5 57.5t42.5 149.5v1417h285v-1417q0 -100 -25.5 -183.5t-78 -150t-143.5 -104t-212 -37.5q-93 0 -198 30z" />
<glyph unicode="K" horiz-adv-x="1249" d="M172 0v1411h285v-481l350 481h354l-534 -702l657 -709h-387l-440 496v-496h-285z" />
<glyph unicode="L" horiz-adv-x="1032" d="M172 0v1411h285v-1159h534v-252h-819z" />
<glyph unicode="M" horiz-adv-x="1894" d="M96 0l174 1411h242l436 -926l432 926h246l172 -1411h-291l-102 874l-344 -714h-223l-349 714l-102 -874h-291z" />
<glyph unicode="N" horiz-adv-x="1396" d="M172 0v1411h264l504 -874v874h285v-1411h-256l-512 885v-885h-285z" />
<glyph unicode="O" horiz-adv-x="1607" d="M86 705q0 198 95 364.5t260 263.5t362 97q196 0 361.5 -97t261.5 -264t96 -364q0 -196 -96 -362.5t-261.5 -263.5t-361.5 -97q-197 0 -362 97t-260 263t-95 363zM371 705q0 -193 122 -325t310 -132q187 0 309.5 132t122.5 325t-122.5 324.5t-309.5 131.5 q-188 0 -310 -131.5t-122 -324.5z" />
<glyph unicode="P" horiz-adv-x="1265" d="M172 0v1411h576q115 0 205.5 -39t144.5 -105t82 -147t28 -170t-27.5 -169t-82 -145t-145 -103.5t-205.5 -38.5h-291v-494h-285zM457 743h276q95 0 142 61t47 146q0 86 -46 147.5t-139 61.5h-280v-416z" />
<glyph unicode="Q" horiz-adv-x="1607" d="M86 705q0 147 56 280.5t151.5 230.5t228.5 154t281 57q196 0 361.5 -96.5t261.5 -263t96 -362.5q0 -181 -83 -338.5t-225 -257.5l138 -226l-203 -123l-150 246q-102 -26 -196 -26q-197 0 -362 97.5t-260 264t-95 363.5zM371 705q0 -193 122 -325t310 -132q33 0 47 2 l-121 201l201 122l141 -231q77 62 120.5 157t43.5 206q0 191 -122.5 322.5t-309.5 131.5q-188 0 -310 -131t-122 -323z" />
<glyph unicode="R" horiz-adv-x="1302" d="M172 0v1411h563q94 0 172 -26t131 -70t90 -103t53.5 -125t16.5 -137q0 -160 -86 -277.5t-256 -152.5l367 -520h-334l-336 506h-96v-506h-285zM457 735h227q114 0 170.5 59t56.5 150q0 90 -54.5 152.5t-149.5 62.5h-250v-424z" />
<glyph unicode="S" horiz-adv-x="1191" d="M92 416h285q2 -78 68 -132.5t163 -54.5q95 0 153 45.5t58 120.5q0 116 -178 170l-172 49q-89 24 -156.5 61t-106 77t-62.5 88t-32 87.5t-8 82.5q0 123 65.5 219.5t176.5 148.5t246 52q204 0 337.5 -117t133.5 -314h-285q0 78 -51 128.5t-141 50.5q-84 0 -139.5 -46 t-55.5 -116q0 -106 158 -150l158 -45q86 -24 153.5 -56.5t125 -80.5t89 -117.5t31.5 -156.5q0 -102 -41.5 -185t-112 -135t-161 -80t-191.5 -28q-224 0 -366 122.5t-142 311.5z" />
<glyph unicode="T" horiz-adv-x="1144" d="M41 1159v252h1063v-252h-389v-1159h-285v1159h-389z" />
<glyph unicode="U" horiz-adv-x="1392" d="M158 504v907h284v-891q0 -134 73 -201t181 -67q109 0 182.5 67t73.5 201v891h285v-907q0 -158 -75.5 -278.5t-197.5 -182t-268 -61.5q-145 0 -266.5 61.5t-196.5 182t-75 278.5z" />
<glyph unicode="V" horiz-adv-x="1185" d="M37 1411h295l260 -952l260 952h297l-428 -1411h-256z" />
<glyph unicode="W" horiz-adv-x="1851" d="M18 1411h308l286 -919l199 720h231l195 -720l289 919h309l-479 -1411h-228l-204 766l-201 -766h-227z" />
<glyph unicode="X" horiz-adv-x="1331" d="M8 0l488 754l-445 657h344l271 -432l272 432h340l-444 -657l491 -754h-338l-321 526l-324 -526h-334z" />
<glyph unicode="Y" horiz-adv-x="1372" d="M-4 1411h340l348 -537l354 537h338l-549 -774v-637h-284v641z" />
<glyph unicode="Z" horiz-adv-x="1204" d="M82 0v219l657 940h-630v252h1001v-219l-666 -940h666v-252h-1028z" />
<glyph unicode="[" horiz-adv-x="679" d="M160 -377v1841h465v-198h-232v-1440h232v-203h-465z" />
<glyph unicode="\" horiz-adv-x="991" d="M47 1411h217l680 -1411h-217z" />
<glyph unicode="]" horiz-adv-x="679" d="M55 -174h232v1440h-232v198h465v-1841h-465v203z" />
<glyph unicode="^" horiz-adv-x="1081" d="M74 588l336 823h262l336 -823h-277l-190 522l-191 -522h-276z" />
<glyph unicode="_" horiz-adv-x="1466" d="M104 -66h1258v-198h-1258v198z" />
<glyph unicode="`" horiz-adv-x="1093" d="M264 1468h273l194 -340h-199z" />
<glyph unicode="a" d="M78 479q0 112 38.5 207t103.5 158t150 98t177 35q90 0 174.5 -34.5t132.5 -102.5v114h268v-954h-268v119q-48 -66 -134.5 -101.5t-172.5 -35.5q-124 0 -230 59t-172.5 174.5t-66.5 263.5zM350 479q0 -104 73 -176t175 -72q101 0 174.5 71t73.5 177t-75 176t-173 70 q-103 0 -175.5 -70.5t-72.5 -175.5z" />
<glyph unicode="b" horiz-adv-x="1255" d="M135 0v1464h268v-624q48 68 133.5 102.5t174.5 34.5q92 0 177 -35t150 -98t103.5 -158t38.5 -207q0 -148 -66.5 -263.5t-172.5 -174.5t-230 -59q-89 0 -174.5 34.5t-133.5 102.5v-119h-268zM412 479q0 -106 73 -177t174 -71q102 0 174 72t72 176q0 105 -72 175.5 t-174 70.5q-98 0 -172.5 -70t-74.5 -176z" />
<glyph unicode="c" horiz-adv-x="1060" d="M76 481q0 89 27.5 168t76.5 138.5t114.5 103t144 66t161.5 22.5q127 0 230.5 -54.5t173.5 -150.5l-201 -141q-32 44 -87 70t-114 26q-112 0 -183 -71t-71 -177q0 -107 71 -178.5t183 -71.5q59 0 114 26.5t87 70.5l201 -142q-69 -96 -172.5 -150t-231.5 -54 q-140 0 -259 60.5t-192 176t-73 262.5z" />
<glyph unicode="d" d="M78 479q0 112 38.5 207t103.5 158t150 98t177 35q90 0 174.5 -34.5t132.5 -102.5v624h268v-1464h-268v119q-48 -66 -134.5 -101.5t-172.5 -35.5q-124 0 -230 59t-172.5 174.5t-66.5 263.5zM350 479q0 -104 73 -176t175 -72q101 0 174.5 71t73.5 177t-75 176t-173 70 q-103 0 -175.5 -70.5t-72.5 -175.5z" />
<glyph unicode="e" horiz-adv-x="1153" d="M78 477q0 150 70 266t185 176t253 60q136 0 248.5 -59.5t179.5 -171t67 -254.5q0 -17 -4 -103h-721q22 -83 86.5 -127.5t161.5 -44.5q73 0 140.5 28.5t109.5 78.5l158 -158q-66 -89 -181 -137.5t-245 -48.5q-221 0 -364.5 137.5t-143.5 357.5zM356 565h457 q-6 83 -68 131.5t-155 48.5q-88 0 -150.5 -44t-83.5 -136z" />
<glyph unicode="f" horiz-adv-x="745" d="M49 748v206h180v60q0 216 108.5 333t311.5 117h115v-250h-62q-109 0 -155.5 -52t-48.5 -146v-62h209v-206h-209v-748h-269v748h-180z" />
<glyph unicode="g" d="M78 479q0 112 38.5 207t103.5 158t150 98t177 35q87 0 172 -34.5t135 -100.5v112h268v-823q0 -306 -144 -459t-405 -153q-153 0 -277.5 79t-186.5 212l223 96q31 -65 98 -106.5t143 -41.5q281 0 281 344v15q-50 -65 -135.5 -100t-171.5 -35q-124 0 -230 59t-172.5 174.5 t-66.5 263.5zM350 479q0 -104 73 -176t175 -72q101 0 174.5 71t73.5 177t-75 176t-173 70q-103 0 -175.5 -70.5t-72.5 -175.5z" />
<glyph unicode="h" horiz-adv-x="1191" d="M135 0v1464h268v-659q19 57 72 98t109 58.5t106 17.5q186 0 284 -119q96 -117 95 -327v-9v-524h-268v496q0 107 -53.5 163t-129.5 56q-39 0 -74.5 -11.5t-68.5 -36t-52.5 -70.5t-19.5 -108v-489h-268z" />
<glyph unicode="i" horiz-adv-x="538" d="M98 1286q0 67 50 113.5t120 46.5q71 0 120.5 -46.5t49.5 -113.5t-49.5 -114.5t-120.5 -47.5q-69 0 -119.5 47.5t-50.5 114.5zM135 0v954h268v-954h-268z" />
<glyph unicode="j" horiz-adv-x="555" d="M-117 -219h117q76 0 114 54.5t38 141.5v977h268v-979q0 -213 -105.5 -328.5t-306.5 -115.5h-125v250zM115 1286q0 67 51 113.5t121 46.5q71 0 119.5 -46.5t48.5 -113.5q0 -68 -49 -115t-119 -47t-121 47.5t-51 114.5z" />
<glyph unicode="k" horiz-adv-x="1052" d="M135 0v1464h268v-800l242 290h344l-373 -419l457 -535h-334l-336 414v-414h-268z" />
<glyph unicode="l" horiz-adv-x="538" d="M135 0v1464h268v-1464h-268z" />
<glyph unicode="m" horiz-adv-x="1785" d="M135 0v954h268v-170q14 62 59.5 108t100.5 66.5t111 20.5q106 0 186 -48t121 -136q51 95 141.5 139.5t177.5 44.5q178 0 271.5 -118.5t93.5 -336.5v-524h-270v504q0 107 -48 159t-124 52h-6q-77 1 -127 -51q-52 -54 -56 -158v-506h-268v506q0 106 -47.5 157.5 t-120.5 51.5q-84 0 -139.5 -49.5t-55.5 -167.5v-498h-268z" />
<glyph unicode="n" horiz-adv-x="1191" d="M135 0v954h268v-159q28 88 116 136t171 48q186 0 284 -119q96 -117 95 -327v-9v-524h-268v496q0 107 -53.5 163t-129.5 56q-39 0 -74.5 -11.5t-68.5 -36t-52.5 -70.5t-19.5 -108v-489h-268z" />
<glyph unicode="o" horiz-adv-x="1179" d="M76 479q0 111 42 205.5t113 158.5t164 100t195 36t195 -36t164 -100t113 -158.5t42 -205.5q0 -146 -72 -261t-188.5 -175.5t-253.5 -60.5t-253.5 60.5t-188.5 175.5t-72 261zM348 479q0 -108 70 -178t172 -70t171.5 69.5t69.5 178.5q0 110 -69.5 180t-171.5 70t-172 -70 t-70 -180z" />
<glyph unicode="p" d="M135 -469v1423h268v-114q48 68 133.5 103.5t174.5 35.5q92 0 177 -35.5t150 -99t103.5 -158.5t38.5 -207q0 -148 -66.5 -263.5t-172.5 -174.5t-230 -59q-89 0 -174.5 34.5t-133.5 102.5v-588h-268zM412 479q0 -106 74.5 -176t172.5 -70q102 0 174 70.5t72 175.5 q0 104 -72 176t-174 72q-101 0 -174 -71t-73 -177z" />
<glyph unicode="q" d="M78 479q0 112 38.5 207t103.5 158.5t150 99t177 35.5q87 0 173 -35.5t134 -103.5v114h268v-1423h-268v590q-48 -68 -132.5 -103.5t-174.5 -35.5q-124 0 -230 59t-172.5 174.5t-66.5 263.5zM350 479q0 -105 72.5 -175.5t175.5 -70.5q98 0 173 70t75 176t-73.5 177 t-174.5 71q-102 0 -175 -72t-73 -176z" />
<glyph unicode="r" horiz-adv-x="843" d="M135 0v954h266v-202q38 115 112.5 171t168.5 56t152 -31l-62 -256q-64 35 -137 35q-107 0 -169.5 -100.5t-62.5 -298.5v-328h-268z" />
<glyph unicode="s" horiz-adv-x="952" d="M76 307h252q0 -45 37.5 -79.5t103.5 -34.5q60 0 98.5 24t38.5 64q0 30 -24 47.5t-80 31.5l-127 31q-71 19 -123.5 47.5t-81.5 58.5t-46.5 66.5t-22.5 66.5t-5 64q0 114 107 199.5t268 85.5q69 0 133.5 -17.5t120.5 -53t90 -97.5t33 -143h-256q0 46 -34 72t-83 26 q-47 0 -78.5 -22t-31.5 -58q0 -57 94 -82l157 -41q81 -22 136 -58t79.5 -78t33.5 -76t9 -70q0 -58 -23 -108t-61.5 -84.5t-90 -59t-109 -36t-117.5 -11.5q-103 0 -191.5 36t-146.5 112t-59 177z" />
<glyph unicode="t" horiz-adv-x="737" d="M53 748v206h174v351h269v-351h202v-206h-202v-748h-269v748h-174z" />
<glyph unicode="u" horiz-adv-x="1191" d="M123 430v524h268v-495q0 -106 53.5 -161.5t128.5 -55.5q39 0 74.5 11t68.5 35.5t52.5 70t19.5 106.5v489h269v-954h-269v156q-19 -59 -71.5 -101.5t-108 -60t-106.5 -17.5q-186 0 -284 118q-96 116 -95 326v9z" />
<glyph unicode="v" horiz-adv-x="1062" d="M8 954h291l233 -610l230 610h293l-404 -954h-239z" />
<glyph unicode="w" horiz-adv-x="1556" d="M10 954h291l180 -581l183 581h225l182 -581l180 581h291l-338 -954h-229l-197 621l-190 -621h-230z" />
<glyph unicode="x" horiz-adv-x="1064" d="M4 0l379 518l-315 436h317l152 -219l147 219h315l-315 -436l375 -518h-314l-210 305l-216 -305h-315z" />
<glyph unicode="y" horiz-adv-x="1048" d="M12 954h295l225 -551l220 551h288l-589 -1423h-287l225 559z" />
<glyph unicode="z" horiz-adv-x="1036" d="M82 0v203l467 502h-438v249h831v-204l-477 -500h477v-250h-860z" />
<glyph unicode="{" horiz-adv-x="792" d="M59 461v166q50 0 87.5 29.5t37.5 80.5v320q-1 181 119 294t295 113h147v-196h-94q-125 0 -180 -61t-55 -160v-289q0 -71 -31.5 -129.5t-83.5 -85.5q51 -25 83 -83.5t32 -129.5v-289q0 -99 55 -161t180 -62h94v-195h-147q-175 0 -295 112.5t-119 295.5v317 q0 52 -37.5 82.5t-87.5 30.5z" />
<glyph unicode="|" horiz-adv-x="466" d="M160 -252v1892h145v-1892h-145z" />
<glyph unicode="}" horiz-adv-x="792" d="M47 -182h94q125 0 180.5 62t55.5 161v289q0 71 32 129.5t83 83.5q-52 27 -83.5 85.5t-31.5 129.5v289q0 99 -55.5 160t-180.5 61h-94v196h148q175 0 293.5 -112.5t117.5 -294.5v-320q0 -51 38.5 -80.5t86.5 -29.5v-166q-48 0 -86.5 -30.5t-38.5 -82.5v-317 q1 -183 -117.5 -295.5t-293.5 -112.5h-148v195z" />
<glyph unicode="~" horiz-adv-x="1359" d="M113 535q60 81 146.5 134.5t186.5 53.5q40 0 80.5 -9t59 -15.5t62.5 -27t48 -22.5q13 -5 46 -20.5t54 -24t55.5 -16.5t68.5 -8q113 0 221 129l110 -125q-53 -86 -140.5 -140.5t-186.5 -54.5q-40 0 -81.5 9t-60 15.5t-65.5 27.5t-49 22q-13 5 -46 20.5t-54 24t-56.5 16.5 t-69.5 8q-117 0 -229 -129z" />
<glyph unicode="&#xa1;" horiz-adv-x="552" d="M104 813q0 71 49.5 118.5t118.5 47.5q72 0 123 -47.5t51 -118.5t-51 -118.5t-123 -47.5q-69 0 -118.5 47.5t-49.5 118.5zM135 -469l37 938h209l37 -938h-283z" />
<glyph unicode="&#xa2;" horiz-adv-x="1083" d="M84 481q0 196 124.5 329.5t311.5 162.5v237h146v-233q107 -12 195.5 -65.5t150.5 -137.5l-201 -141q-32 44 -87 70t-114 26q-112 0 -183 -71t-71 -177q0 -107 71 -178.5t183 -71.5q59 0 114 26.5t87 70.5l201 -142q-129 -178 -346 -202v-236h-146v240q-187 29 -311.5 163 t-124.5 330z" />
<glyph unicode="&#xa3;" horiz-adv-x="1345" d="M80 0v236h201v280h-142v129h142v260q0 211 121 330t311 119q96 0 175.5 -26t143 -80t99.5 -146t36 -215h-268q0 110 -48.5 164.5t-133.5 54.5q-73 0 -119.5 -57t-46.5 -148v-256h246v-129h-246v-280h391q33 0 46 19t13 56v105h269v-148q0 -113 -72.5 -190.5t-177.5 -77.5 h-940z" />
<glyph unicode="&#xa4;" horiz-adv-x="1208" d="M109 330l145 147q-61 94 -61 215q0 124 63 221l-147 148l131 131l147 -148q103 64 217 64q121 0 219 -64l146 148l131 -131l-148 -148q66 -106 66 -225q0 -120 -64 -211l146 -147l-131 -131l-146 147q-97 -63 -219 -63t-219 63l-145 -147zM399 694q0 -85 60 -145t145 -60 q86 0 146.5 60t60.5 145q0 86 -60.5 146.5t-146.5 60.5q-85 0 -145 -60.5t-60 -146.5z" />
<glyph unicode="&#xa5;" horiz-adv-x="1478" d="M51 1411h338l348 -534l355 534h338l-529 -749h309v-140h-325v-184h325v-139h-325v-199h-291v199h-326v139h326v184h-326v140h310z" />
<glyph unicode="&#xa6;" horiz-adv-x="477" d="M166 -252v787h145v-787h-145zM166 856v784h145v-784h-145z" />
<glyph unicode="&#xa7;" horiz-adv-x="1095" d="M113 610v383q0 190 125 308t305 118q71 0 138 -20t125.5 -59.5t101.5 -103.5t61 -146l-232 -68q-23 81 -76 118.5t-118 37.5q-78 0 -133.5 -51.5t-55.5 -133.5v-383q0 -87 58 -134.5t143 -47.5q49 0 92 10v-241q-56 -13 -104 -13q-180 0 -305 118t-125 308zM127 -25 l229 68q25 -79 78.5 -117.5t116.5 -38.5q79 0 133.5 51t54.5 134v383q0 88 -56.5 135t-141.5 47q-49 0 -92 -10v241q53 13 102 13q182 0 307 -118t125 -308v-383q0 -190 -125 -308t-307 -118q-94 0 -180 34.5t-154 111t-90 183.5z" />
<glyph unicode="&#xa8;" horiz-adv-x="1204" d="M246 1305q0 57 42.5 97t102.5 40t102 -40t42 -97q0 -60 -42 -100t-102 -40q-61 0 -103 40t-42 100zM670 1305q0 57 43 97t104 40q59 0 100 -40t41 -97q0 -60 -41 -100t-100 -40q-62 0 -104.5 40t-42.5 100z" />
<glyph unicode="&#xa9;" horiz-adv-x="1603" d="M86 702q0 198 95 364.5t259.5 263.5t360.5 97q147 0 280 -57.5t228.5 -155t152 -231.5t56.5 -281q0 -196 -95.5 -362.5t-260.5 -263t-361 -96.5q-147 0 -279.5 57t-228 154t-151.5 230.5t-56 280.5zM211 702q0 -162 78 -299t214 -217t298 -80q161 0 297 80t214.5 217 t78.5 299q0 163 -78.5 300.5t-214.5 217.5t-297 80q-162 0 -298 -80.5t-214 -218t-78 -299.5zM442 694q0 153 103.5 259t255.5 106q84 0 160.5 -40.5t132.5 -111.5l-119 -94q-83 94 -174 94q-86 0 -142.5 -61t-56.5 -152q0 -89 57 -150t142 -61q96 0 176 97l121 -97 q-55 -71 -133.5 -112t-163.5 -41q-151 0 -255 107t-104 257z" />
<glyph unicode="&#xaa;" horiz-adv-x="1091" d="M106 1075q0 178 110.5 289t264.5 111q72 0 141.5 -29t108.5 -84v94h213v-764h-213v99q-39 -56 -108.5 -85.5t-141.5 -29.5q-154 0 -264.5 111t-110.5 288zM166 410v151h754v-151h-754zM324 1075q0 -82 59 -140t139 -58q83 0 143 56.5t60 141.5t-61 142t-142 57 t-139.5 -57.5t-58.5 -141.5z" />
<glyph unicode="&#xab;" horiz-adv-x="1038" d="M74 477l282 424h217l-282 -424l282 -424h-217zM459 477l282 424h217l-282 -424l282 -424h-217z" />
<glyph unicode="&#xac;" horiz-adv-x="1261" d="M123 522v238h995v-543h-239v305h-756z" />
<glyph unicode="&#xad;" horiz-adv-x="970" d="M125 371v237h721v-237h-721z" />
<glyph unicode="&#xae;" horiz-adv-x="1603" d="M86 702q0 198 95 364.5t259.5 263.5t360.5 97q147 0 280 -57.5t228.5 -155t152 -231.5t56.5 -281q0 -196 -95.5 -362.5t-260.5 -263t-361 -96.5q-147 0 -279.5 57t-228 154t-151.5 230.5t-56 280.5zM211 702q0 -162 78 -299t214 -217t298 -80q161 0 297 80t214.5 217 t78.5 299q0 163 -78.5 300.5t-214.5 217.5t-297 80q-162 0 -298 -80.5t-214 -218t-78 -299.5zM555 350v699h285q115 0 176 -66.5t61 -163.5q0 -193 -162 -227l175 -242h-175l-165 234h-37v-234h-158zM713 709h102q52 0 77.5 31t25.5 71q0 35 -25 65.5t-74 30.5h-106v-198z " />
<glyph unicode="&#xaf;" horiz-adv-x="1052" d="M246 1200v174h561v-174h-561z" />
<glyph unicode="&#xb0;" horiz-adv-x="729" d="M80 1112q0 118 84 201.5t201 83.5q118 0 201 -83t83 -202t-83 -202t-201 -83q-117 0 -201 83.5t-84 201.5zM223 1112q0 -60 41 -101.5t101 -41.5t101.5 41.5t41.5 101.5t-41.5 101.5t-101.5 41.5t-101 -41.5t-41 -101.5z" />
<glyph unicode="&#xb1;" horiz-adv-x="1075" d="M117 -2v205h839v-205h-839zM117 594v205h317v288h205v-288h317v-205h-317v-293h-205v293h-317z" />
<glyph unicode="&#xb2;" horiz-adv-x="647" d="M63 1591q11 105 76.5 167.5t177.5 62.5q113 0 180.5 -63t67.5 -165q0 -93 -84 -188l-151 -174h245v-154h-505l2 86l272 330q55 64 55 109q0 29 -24.5 48t-63.5 19q-46 0 -72 -28.5t-28 -75.5z" />
<glyph unicode="&#xb3;" horiz-adv-x="622" d="M41 1190l117 88q48 -61 121 -61q49 0 78.5 23.5t29.5 62.5q0 43 -33 69.5t-88 26.5h-55v121h29q56 0 87 25.5t29 66.5q0 30 -25 48.5t-59 18.5q-68 0 -112 -51l-86 98q35 43 93.5 69t127.5 26q100 0 162.5 -55.5t62.5 -149.5q0 -47 -24 -85.5t-66 -60.5q58 -22 90.5 -68 t32.5 -108q0 -101 -73.5 -164t-192.5 -63q-79 0 -145 33t-101 90z" />
<glyph unicode="&#xb4;" horiz-adv-x="1093" d="M264 1128l195 340h272l-268 -340h-199z" />
<glyph unicode="&#xb5;" horiz-adv-x="1224" d="M156 -360v1314h268v-518q0 -96 48 -145t120 -49q82 0 144.5 50t62.5 154v508h268v-954h-268v137q-19 -52 -68.5 -90t-101.5 -54t-99 -16q-85 0 -135 31v-368h-239z" />
<glyph unicode="&#xb6;" horiz-adv-x="1441" d="M70 967q0 185 129 314.5t315 129.5h186v-1513h-206v624q-176 11 -300 139.5t-124 305.5zM492 -233h251q44 0 68.5 29t24.5 71v1544h266q117 0 198.5 -83.5t81.5 -197.5v-176h-188v160q0 41 -27.5 67.5t-66.5 26.5h-66v-1343q0 -72 -31 -135t-92 -104t-139 -42h-280v183z " />
<glyph unicode="&#xb7;" horiz-adv-x="567" d="M113 514q0 70 50 117t120 47t121 -47.5t51 -116.5q0 -71 -50.5 -117.5t-121.5 -46.5q-70 0 -120 46.5t-50 117.5z" />
<glyph unicode="&#xb8;" horiz-adv-x="1083" d="M324 -193h141q0 -104 78 -104q31 0 51 21.5t20 56.5q0 24 -8 43l-100 231h139l90 -180q21 -43 21 -96q0 -91 -61 -151t-148 -60q-96 0 -159.5 62t-63.5 177z" />
<glyph unicode="&#xb9;" horiz-adv-x="485" d="M51 1538v152l316 131h10v-744h-162v522z" />
<glyph unicode="&#xba;" horiz-adv-x="1052" d="M115 1077q0 176 120.5 287t290.5 111q109 0 202.5 -48t151.5 -140.5t58 -209.5t-58 -209.5t-151.5 -141t-202.5 -48.5q-170 0 -290.5 111.5t-120.5 287.5zM150 410v151h753v-151h-753zM332 1077q0 -89 56.5 -146t137.5 -57t138 57t57 146t-56.5 145t-138.5 56 q-81 0 -137.5 -56t-56.5 -145z" />
<glyph unicode="&#xbb;" horiz-adv-x="1038" d="M80 53l282 424l-282 424h217l283 -424l-283 -424h-217zM465 53l283 424l-283 424h217l283 -424l-283 -424h-217z" />
<glyph unicode="&#xbc;" horiz-adv-x="1478" d="M51 1069v152l316 131h10v-744h-162v522zM117 -18l925 1386h170l-923 -1386h-172zM801 137v45l436 551h76v-459h108v-137h-108v-137h-162v137h-350zM1022 274h129v170z" />
<glyph unicode="&#xbd;" horiz-adv-x="1501" d="M51 1069v152l316 131h10v-744h-162v522zM117 -18l925 1386h170l-923 -1386h-172zM918 514q11 105 75.5 167t175.5 62q113 0 180.5 -62.5t67.5 -164.5q0 -91 -82 -188l-151 -174h243v-154h-503l2 86l270 328q31 38 44 60.5t13 49.5q0 29 -25 48.5t-65 19.5q-46 0 -72 -29 t-28 -76z" />
<glyph unicode="&#xbe;" horiz-adv-x="1615" d="M41 721l117 86q46 -59 121 -59q50 0 79 23t29 63q0 43 -33 69.5t-88 26.5h-55v121h29q56 0 87 25.5t29 66.5q0 29 -25 47t-59 18q-69 0 -112 -49l-86 98q35 43 93.5 69t127.5 26q100 0 162.5 -55.5t62.5 -149.5q0 -47 -23.5 -85.5t-66.5 -60.5q57 -22 90 -68.5t33 -107.5 q0 -101 -73.5 -164t-192.5 -63q-79 0 -145 33t-101 90zM254 -18l926 1386h170l-924 -1386h-172zM938 137v45l436 551h76v-459h109v-137h-109v-137h-162v137h-350zM1159 274h129v170z" />
<glyph unicode="&#xbf;" horiz-adv-x="968" d="M59 -84q0 144 76 244t201 143q37 13 55 21t39.5 22.5t30 36t8.5 51.5l2 51h215l4 -53q11 -126 -30 -202t-164 -128l-72 -28q-54 -22 -80.5 -61.5t-26.5 -84.5q0 -73 46 -114t120 -41q70 0 122.5 49.5t53.5 130.5h250q0 -138 -57.5 -237.5t-153.5 -148t-219 -48.5 q-185 0 -302.5 108t-117.5 289zM408 813q0 71 51 118.5t121 47.5q71 0 121.5 -47.5t50.5 -118.5t-50.5 -118.5t-121.5 -47.5q-70 0 -121 47.5t-51 118.5z" />
<glyph unicode="&#xc0;" horiz-adv-x="1337" d="M-10 0l526 1411h307l525 -1411h-299l-115 338h-528l-113 -338h-303zM307 1911h273l194 -340h-199zM489 586h359l-180 530z" />
<glyph unicode="&#xc1;" horiz-adv-x="1337" d="M-10 0l526 1411h307l525 -1411h-299l-115 338h-528l-113 -338h-303zM489 586h359l-180 530zM573 1571l195 340h272l-268 -340h-199z" />
<glyph unicode="&#xc2;" horiz-adv-x="1337" d="M-10 0l526 1411h307l525 -1411h-299l-115 338h-528l-113 -338h-303zM309 1571l223 340h271l225 -340h-201l-159 180l-160 -180h-199zM489 586h359l-180 530z" />
<glyph unicode="&#xc3;" horiz-adv-x="1337" d="M-10 0l526 1411h307l525 -1411h-299l-115 338h-528l-113 -338h-303zM383 1606q7 134 65 195t132 61q30 0 58.5 -13t47 -29t39 -29t35.5 -13q17 0 35.5 20t19.5 64h141q-3 -69 -22.5 -120t-49 -78t-60.5 -39.5t-64 -12.5q-36 0 -70.5 21t-62.5 42t-47 21q-17 0 -35 -22.5 t-19 -67.5h-143zM489 586h359l-180 530z" />
<glyph unicode="&#xc4;" horiz-adv-x="1337" d="M-10 0l526 1411h307l525 -1411h-299l-115 338h-528l-113 -338h-303zM311 1741q0 58 42.5 97.5t103.5 39.5q60 0 101.5 -39.5t41.5 -97.5q0 -60 -41.5 -99.5t-101.5 -39.5q-61 0 -103.5 40t-42.5 99zM489 586h359l-180 530zM735 1741q0 58 43 97.5t105 39.5 q59 0 100 -39.5t41 -97.5q0 -59 -41 -99t-100 -40q-62 0 -105 40t-43 99z" />
<glyph unicode="&#xc5;" horiz-adv-x="1337" d="M-10 0l526 1411h307l525 -1411h-299l-115 338h-528l-113 -338h-303zM422 1792q0 102 72 174t174 72q103 0 175 -71.5t72 -174.5q0 -101 -72 -171.5t-175 -70.5q-102 0 -174 70.5t-72 171.5zM489 586h359l-180 530zM543 1792q0 -52 36.5 -87.5t88.5 -35.5q53 0 91 35.5 t38 87.5q0 53 -38 90t-91 37q-52 0 -88.5 -36.5t-36.5 -90.5z" />
<glyph unicode="&#xc6;" horiz-adv-x="1900" d="M-47 0l760 1411h1069v-252h-600v-340h526v-246h-526v-321h618v-252h-901v328h-440l-168 -328h-338zM588 580h309v577h-14z" />
<glyph unicode="&#xc7;" horiz-adv-x="1433" d="M86 707q0 196 95.5 361.5t260.5 262t361 96.5q177 0 327.5 -78t247.5 -214l-217 -158q-129 182 -348 182q-190 0 -316 -130.5t-126 -321.5t125 -324t315 -133q222 0 350 184l217 -160q-88 -122 -220 -198.5t-288 -89.5l56 -111q20 -41 20 -96q0 -91 -61 -151t-148 -60 q-96 0 -159.5 62t-63.5 177h141q0 -104 78 -104q31 0 51.5 21.5t20.5 56.5q0 24 -8 43l-70 162q-179 19 -325.5 119t-231 259t-84.5 343z" />
<glyph unicode="&#xc8;" horiz-adv-x="1175" d="M172 0v1411h885v-252h-600v-336h526v-256h-526v-315h618v-252h-903zM227 1911h273l194 -340h-198z" />
<glyph unicode="&#xc9;" horiz-adv-x="1175" d="M172 0v1411h885v-252h-600v-336h526v-256h-526v-315h618v-252h-903zM494 1571l194 340h273l-269 -340h-198z" />
<glyph unicode="&#xca;" horiz-adv-x="1175" d="M172 0v1411h885v-252h-600v-336h526v-256h-526v-315h618v-252h-903zM229 1571l224 340h270l225 -340h-200l-160 180l-160 -180h-199z" />
<glyph unicode="&#xcb;" horiz-adv-x="1175" d="M172 0v1411h885v-252h-600v-336h526v-256h-526v-315h618v-252h-903zM231 1741q0 58 42.5 97.5t103.5 39.5q60 0 101.5 -39.5t41.5 -97.5q0 -60 -41.5 -99.5t-101.5 -39.5q-61 0 -103.5 40t-42.5 99zM655 1741q0 58 43 97.5t105 39.5q59 0 100 -39.5t41 -97.5 q0 -59 -41 -99t-100 -40q-62 0 -105 40t-43 99z" />
<glyph unicode="&#xcc;" horiz-adv-x="628" d="M-47 1911h272l195 -340h-199zM172 0v1411h285v-1411h-285z" />
<glyph unicode="&#xcd;" horiz-adv-x="628" d="M172 0v1411h285v-1411h-285zM219 1571l195 340h272l-268 -340h-199z" />
<glyph unicode="&#xce;" horiz-adv-x="628" d="M-45 1571l223 340h271l225 -340h-201l-160 180l-159 -180h-199zM172 0v1411h285v-1411h-285z" />
<glyph unicode="&#xcf;" horiz-adv-x="628" d="M-43 1741q0 58 42.5 97.5t102.5 39.5t102 -39.5t42 -97.5q0 -60 -41.5 -99.5t-102.5 -39.5t-103 40t-42 99zM172 0v1411h285v-1411h-285zM381 1741q0 58 42.5 97.5t104.5 39.5q59 0 100.5 -39.5t41.5 -97.5q0 -59 -41.5 -99t-100.5 -40q-62 0 -104.5 39.5t-42.5 99.5z " />
<glyph unicode="&#xd0;" horiz-adv-x="1478" d="M37 596v209h153v606h555q148 0 269.5 -54.5t202 -150t124 -225t43.5 -279.5t-43.5 -278t-124 -222.5t-202 -148t-269.5 -53.5h-555v596h-153zM475 252h270q112 0 194.5 63t121.5 163t39 224t-39 226t-121.5 166.5t-194.5 64.5h-270v-354h262v-209h-262v-344z" />
<glyph unicode="&#xd1;" horiz-adv-x="1396" d="M172 0v1411h264l504 -874v874h285v-1411h-256l-512 885v-885h-285zM412 1606q7 134 64.5 195t131.5 61q30 0 58.5 -13t47 -29t39 -29t35.5 -13q17 0 36 20.5t20 63.5h141q-3 -69 -22.5 -120t-49.5 -78t-61 -39.5t-64 -12.5q-36 0 -70.5 21t-62.5 42t-47 21 q-16 0 -34 -22.5t-19 -67.5h-143z" />
<glyph unicode="&#xd2;" horiz-adv-x="1607" d="M86 705q0 198 95 364.5t260 263.5t362 97q196 0 361.5 -97t261.5 -264t96 -364q0 -196 -96 -362.5t-261.5 -263.5t-361.5 -97q-197 0 -362 97t-260 263t-95 363zM371 705q0 -193 122 -325t310 -132q187 0 309.5 132t122.5 325t-122.5 324.5t-309.5 131.5 q-188 0 -310 -131.5t-122 -324.5zM442 1911h273l194 -340h-198z" />
<glyph unicode="&#xd3;" horiz-adv-x="1607" d="M86 705q0 198 95 364.5t260 263.5t362 97q196 0 361.5 -97t261.5 -264t96 -364q0 -196 -96 -362.5t-261.5 -263.5t-361.5 -97q-197 0 -362 97t-260 263t-95 363zM371 705q0 -193 122 -325t310 -132q187 0 309.5 132t122.5 325t-122.5 324.5t-309.5 131.5 q-188 0 -310 -131.5t-122 -324.5zM709 1571l194 340h273l-269 -340h-198z" />
<glyph unicode="&#xd4;" horiz-adv-x="1607" d="M86 705q0 198 95 364.5t260 263.5t362 97q196 0 361.5 -97t261.5 -264t96 -364q0 -196 -96 -362.5t-261.5 -263.5t-361.5 -97q-197 0 -362 97t-260 263t-95 363zM371 705q0 -193 122 -325t310 -132q187 0 309.5 132t122.5 325t-122.5 324.5t-309.5 131.5 q-188 0 -310 -131.5t-122 -324.5zM444 1571l224 340h270l225 -340h-200l-160 180l-160 -180h-199z" />
<glyph unicode="&#xd5;" horiz-adv-x="1607" d="M86 705q0 198 95 364.5t260 263.5t362 97q196 0 361.5 -97t261.5 -264t96 -364q0 -196 -96 -362.5t-261.5 -263.5t-361.5 -97q-197 0 -362 97t-260 263t-95 363zM371 705q0 -193 122 -325t310 -132q187 0 309.5 132t122.5 325t-122.5 324.5t-309.5 131.5 q-188 0 -310 -131.5t-122 -324.5zM518 1606q7 134 65 195t132 61q30 0 58.5 -13t47 -29t39 -29t35.5 -13q17 0 35.5 20t19.5 64h142q-3 -69 -22.5 -120t-49.5 -78t-61 -39.5t-64 -12.5q-36 0 -70.5 21t-62.5 42t-47 21q-16 0 -34 -22.5t-19 -67.5h-144z" />
<glyph unicode="&#xd6;" horiz-adv-x="1607" d="M86 705q0 198 95 364.5t260 263.5t362 97q196 0 361.5 -97t261.5 -264t96 -364q0 -196 -96 -362.5t-261.5 -263.5t-361.5 -97q-197 0 -362 97t-260 263t-95 363zM371 705q0 -193 122 -325t310 -132q187 0 309.5 132t122.5 325t-122.5 324.5t-309.5 131.5 q-188 0 -310 -131.5t-122 -324.5zM446 1741q0 58 42.5 97.5t103.5 39.5q60 0 101.5 -39.5t41.5 -97.5q0 -60 -41.5 -99.5t-101.5 -39.5q-61 0 -103.5 40t-42.5 99zM870 1741q0 58 43 97.5t105 39.5q59 0 100 -39.5t41 -97.5q0 -59 -41 -99t-100 -40q-62 0 -105 40t-43 99z " />
<glyph unicode="&#xd7;" horiz-adv-x="968" d="M100 299l238 238l-238 237l144 144l239 -238l244 242l143 -146l-241 -241l241 -240l-143 -148l-244 244l-237 -237z" />
<glyph unicode="&#xd8;" horiz-adv-x="1613" d="M90 705q0 198 94.5 364.5t259.5 263.5t363 97q258 0 453 -162l163 168l97 -95l-164 -167q170 -204 170 -469q0 -196 -96 -362.5t-261.5 -263.5t-361.5 -97q-257 0 -453 159l-161 -166l-97 97l162 166q-168 198 -168 467zM375 705q0 -148 78 -269l616 635q-114 90 -264 90 q-187 0 -308.5 -131.5t-121.5 -324.5zM543 336q115 -88 262 -88q188 0 311 132t123 325q0 147 -78 268z" />
<glyph unicode="&#xd9;" horiz-adv-x="1392" d="M158 504v907h284v-891q0 -134 73 -201t181 -67q109 0 182.5 67t73.5 201v891h285v-907q0 -158 -75.5 -278.5t-197.5 -182t-268 -61.5q-145 0 -266.5 61.5t-196.5 182t-75 278.5zM334 1911h272l195 -340h-199z" />
<glyph unicode="&#xda;" horiz-adv-x="1392" d="M158 504v907h284v-891q0 -134 73 -201t181 -67q109 0 182.5 67t73.5 201v891h285v-907q0 -158 -75.5 -278.5t-197.5 -182t-268 -61.5q-145 0 -266.5 61.5t-196.5 182t-75 278.5zM600 1571l195 340h272l-268 -340h-199z" />
<glyph unicode="&#xdb;" horiz-adv-x="1392" d="M158 504v907h284v-891q0 -134 73 -201t181 -67q109 0 182.5 67t73.5 201v891h285v-907q0 -158 -75.5 -278.5t-197.5 -182t-268 -61.5q-145 0 -266.5 61.5t-196.5 182t-75 278.5zM336 1571l223 340h270l226 -340h-201l-160 180l-159 -180h-199z" />
<glyph unicode="&#xdc;" horiz-adv-x="1392" d="M158 504v907h284v-891q0 -134 73 -201t181 -67q109 0 182.5 67t73.5 201v891h285v-907q0 -158 -75.5 -278.5t-197.5 -182t-268 -61.5q-145 0 -266.5 61.5t-196.5 182t-75 278.5zM338 1741q0 58 42.5 97.5t102.5 39.5t102 -39.5t42 -97.5q0 -60 -41.5 -99.5t-102.5 -39.5 t-103 40t-42 99zM762 1741q0 58 42.5 97.5t104.5 39.5q59 0 100.5 -39.5t41.5 -97.5q0 -59 -41.5 -99t-100.5 -40q-62 0 -104.5 39.5t-42.5 99.5z" />
<glyph unicode="&#xdd;" horiz-adv-x="1372" d="M-4 1411h340l348 -537l354 537h338l-549 -774v-637h-284v641zM590 1571l194 340h273l-269 -340h-198z" />
<glyph unicode="&#xde;" horiz-adv-x="1253" d="M172 0v1411h285v-246h260q198 0 329.5 -124.5t131.5 -329.5q0 -207 -132 -335t-329 -128h-260v-248h-285zM457 500h241q85 0 140 58t55 149q0 94 -56.5 150t-144.5 56h-235v-413z" />
<glyph unicode="&#xdf;" horiz-adv-x="1214" d="M135 0v987q0 226 124 358t329 132q192 0 310 -101.5t118 -267.5q0 -92 -49 -168t-127 -109q137 -36 218 -142.5t81 -262.5q0 -198 -138 -321t-362 -123q-73 -3 -158 22l60 234q50 -17 108 -17q94 0 155.5 67.5t61.5 166.5q0 98 -66 158.5t-169 60.5h-76v237h47 q63 0 102 46t39 118q0 69 -43.5 108.5t-117.5 39.5q-82 0 -130.5 -61t-48.5 -175v-987h-268z" />
<glyph unicode="&#xe0;" d="M78 479q0 112 38.5 207t103.5 158t150 98t177 35q90 0 174.5 -34.5t132.5 -102.5v114h268v-954h-268v119q-48 -66 -134.5 -101.5t-172.5 -35.5q-124 0 -230 59t-172.5 174.5t-66.5 263.5zM262 1454h273l194 -340h-199zM350 479q0 -104 73 -176t175 -72q101 0 174.5 71 t73.5 177t-75 176t-173 70q-103 0 -175.5 -70.5t-72.5 -175.5z" />
<glyph unicode="&#xe1;" d="M78 479q0 112 38.5 207t103.5 158t150 98t177 35q90 0 174.5 -34.5t132.5 -102.5v114h268v-954h-268v119q-48 -66 -134.5 -101.5t-172.5 -35.5q-124 0 -230 59t-172.5 174.5t-66.5 263.5zM350 479q0 -104 73 -176t175 -72q101 0 174.5 71t73.5 177t-75 176t-173 70 q-103 0 -175.5 -70.5t-72.5 -175.5zM528 1114l195 340h272l-268 -340h-199z" />
<glyph unicode="&#xe2;" d="M78 479q0 112 38.5 207t103.5 158t150 98t177 35q90 0 174.5 -34.5t132.5 -102.5v114h268v-954h-268v119q-48 -66 -134.5 -101.5t-172.5 -35.5q-124 0 -230 59t-172.5 174.5t-66.5 263.5zM264 1114l223 340h271l225 -340h-201l-159 180l-160 -180h-199zM350 479 q0 -104 73 -176t175 -72q101 0 174.5 71t73.5 177t-75 176t-173 70q-103 0 -175.5 -70.5t-72.5 -175.5z" />
<glyph unicode="&#xe3;" d="M78 479q0 112 38.5 207t103.5 158t150 98t177 35q90 0 174.5 -34.5t132.5 -102.5v114h268v-954h-268v119q-48 -66 -134.5 -101.5t-172.5 -35.5q-124 0 -230 59t-172.5 174.5t-66.5 263.5zM338 1149q7 134 65 195t132 61q30 0 58.5 -13t47 -29t39 -29t35.5 -13 q17 0 35.5 20t19.5 64h141q-3 -69 -22.5 -120t-49 -78t-60.5 -39.5t-64 -12.5q-36 0 -70.5 21t-62.5 42t-47 21q-17 0 -35 -22.5t-19 -67.5h-143zM350 479q0 -104 73 -176t175 -72q101 0 174.5 71t73.5 177t-75 176t-173 70q-103 0 -175.5 -70.5t-72.5 -175.5z" />
<glyph unicode="&#xe4;" d="M78 479q0 112 38.5 207t103.5 158t150 98t177 35q90 0 174.5 -34.5t132.5 -102.5v114h268v-954h-268v119q-48 -66 -134.5 -101.5t-172.5 -35.5q-124 0 -230 59t-172.5 174.5t-66.5 263.5zM266 1284q0 58 42.5 97.5t103.5 39.5q60 0 101.5 -39.5t41.5 -97.5 q0 -60 -41.5 -99.5t-101.5 -39.5q-61 0 -103.5 40t-42.5 99zM350 479q0 -104 73 -176t175 -72q101 0 174.5 71t73.5 177t-75 176t-173 70q-103 0 -175.5 -70.5t-72.5 -175.5zM690 1284q0 58 43 97.5t105 39.5q59 0 100 -39.5t41 -97.5q0 -59 -41 -99t-100 -40q-62 0 -105 40 t-43 99z" />
<glyph unicode="&#xe5;" d="M78 479q0 112 38.5 207t103.5 158t150 98t177 35q90 0 174.5 -34.5t132.5 -102.5v114h268v-954h-268v119q-48 -66 -134.5 -101.5t-172.5 -35.5q-124 0 -230 59t-172.5 174.5t-66.5 263.5zM350 479q0 -104 73 -176t175 -72q101 0 174.5 71t73.5 177t-75 176t-173 70 q-103 0 -175.5 -70.5t-72.5 -175.5zM377 1335q0 102 72 174t174 72q103 0 175 -71.5t72 -174.5q0 -101 -72 -171t-175 -70q-102 0 -174 70t-72 171zM498 1335q0 -52 36.5 -87.5t88.5 -35.5q53 0 91 35.5t38 87.5q0 53 -38 90t-91 37q-51 0 -88 -37t-37 -90z" />
<glyph unicode="&#xe6;" horiz-adv-x="1796" d="M66 279q0 92 52 160t136.5 101t189.5 33q162 0 275 -63v49q0 83 -56 131.5t-143 48.5q-151 0 -244 -98l-149 147q147 191 424 191q220 0 338 -121q137 121 340 121q136 0 248.5 -59.5t179.5 -171t67 -254.5q0 -38 -6 -103h-714q22 -78 87.5 -125t155.5 -47q73 0 139.5 28 t110.5 79l158 -158q-67 -89 -182 -137.5t-244 -48.5q-118 0 -216.5 40.5t-158.5 114.5q-83 -81 -190 -118t-213 -37q-169 0 -277 80.5t-108 216.5zM334 291q0 -44 36 -72.5t99 -28.5q65 0 150 37t124 92l-10 23q-44 28 -110 43.5t-127 15.5q-89 0 -125.5 -34t-36.5 -76z M1004 565h452q-7 83 -69 131.5t-154 48.5q-89 0 -148 -46t-81 -134z" />
<glyph unicode="&#xe7;" horiz-adv-x="1060" d="M76 481q0 89 27.5 168t76.5 138.5t114.5 103t144 66t161.5 22.5q127 0 230.5 -54.5t173.5 -150.5l-201 -141q-32 44 -87 70t-114 26q-112 0 -183 -71t-71 -177q0 -107 71 -178.5t183 -71.5q59 0 114 26.5t87 70.5l201 -142q-117 -162 -312 -196l58 -115q20 -41 20 -96 q0 -91 -61 -151t-148 -60q-96 0 -159.5 62t-63.5 177h141q0 -104 78 -104q31 0 51.5 21.5t20.5 56.5q0 24 -8 43l-70 160q-97 7 -183 46t-151 102.5t-103 154t-38 194.5z" />
<glyph unicode="&#xe8;" horiz-adv-x="1153" d="M78 477q0 150 70 266t185 176t253 60q136 0 248.5 -59.5t179.5 -171t67 -254.5q0 -17 -4 -103h-721q22 -83 86.5 -127.5t161.5 -44.5q73 0 140.5 28.5t109.5 78.5l158 -158q-66 -89 -181 -137.5t-245 -48.5q-221 0 -364.5 137.5t-143.5 357.5zM211 1454h272l195 -340 h-199zM356 565h457q-6 83 -68 131.5t-155 48.5q-88 0 -150.5 -44t-83.5 -136z" />
<glyph unicode="&#xe9;" horiz-adv-x="1153" d="M78 477q0 150 70 266t185 176t253 60q136 0 248.5 -59.5t179.5 -171t67 -254.5q0 -17 -4 -103h-721q22 -83 86.5 -127.5t161.5 -44.5q73 0 140.5 28.5t109.5 78.5l158 -158q-66 -89 -181 -137.5t-245 -48.5q-221 0 -364.5 137.5t-143.5 357.5zM356 565h457 q-6 83 -68 131.5t-155 48.5q-88 0 -150.5 -44t-83.5 -136zM477 1114l195 340h272l-268 -340h-199z" />
<glyph unicode="&#xea;" horiz-adv-x="1153" d="M78 477q0 150 70 266t185 176t253 60q136 0 248.5 -59.5t179.5 -171t67 -254.5q0 -17 -4 -103h-721q22 -83 86.5 -127.5t161.5 -44.5q73 0 140.5 28.5t109.5 78.5l158 -158q-66 -89 -181 -137.5t-245 -48.5q-221 0 -364.5 137.5t-143.5 357.5zM213 1114l223 340h271 l225 -340h-201l-160 180l-159 -180h-199zM356 565h457q-6 83 -68 131.5t-155 48.5q-88 0 -150.5 -44t-83.5 -136z" />
<glyph unicode="&#xeb;" horiz-adv-x="1153" d="M78 477q0 150 70 266t185 176t253 60q136 0 248.5 -59.5t179.5 -171t67 -254.5q0 -17 -4 -103h-721q22 -83 86.5 -127.5t161.5 -44.5q73 0 140.5 28.5t109.5 78.5l158 -158q-66 -89 -181 -137.5t-245 -48.5q-221 0 -364.5 137.5t-143.5 357.5zM215 1284q0 58 42.5 97.5 t102.5 39.5t102 -39.5t42 -97.5q0 -60 -41.5 -99.5t-102.5 -39.5t-103 40t-42 99zM356 565h457q-6 83 -68 131.5t-155 48.5q-88 0 -150.5 -44t-83.5 -136zM639 1284q0 58 42.5 97.5t104.5 39.5q59 0 100.5 -39.5t41.5 -97.5q0 -59 -41.5 -99t-100.5 -40q-62 0 -104.5 39.5 t-42.5 99.5z" />
<glyph unicode="&#xec;" horiz-adv-x="538" d="M-76 1468h273l194 -340h-198zM135 0v954h268v-954h-268z" />
<glyph unicode="&#xed;" horiz-adv-x="538" d="M135 0v954h268v-954h-268zM135 1128l195 340h272l-268 -340h-199z" />
<glyph unicode="&#xee;" horiz-adv-x="538" d="M-90 1128l223 340h270l226 -340h-201l-160 181l-159 -181h-199zM135 0v954h268v-954h-268z" />
<glyph unicode="&#xef;" horiz-adv-x="538" d="M-88 1305q0 57 42.5 97t102.5 40t102 -40t42 -97q0 -60 -42 -100t-102 -40t-102.5 40t-42.5 100zM135 0v954h268v-954h-268zM336 1305q0 57 43 97t104 40q59 0 100.5 -40t41.5 -97q0 -59 -41.5 -99.5t-100.5 -40.5q-62 0 -104.5 40t-42.5 100z" />
<glyph unicode="&#xf0;" horiz-adv-x="1165" d="M76 479q0 139 68 247t181.5 165t249.5 57q19 0 27 -2l-131 189l-238 -97l-43 109l211 86l-161 231h276l100 -145l177 72l43 -109l-150 -61l305 -437q96 -129 96 -305q0 -111 -41 -205t-110.5 -157.5t-161 -99t-192.5 -35.5q-136 0 -250.5 60t-185 175t-70.5 262zM348 479 q0 -106 69.5 -177t164.5 -71q96 0 164.5 70.5t68.5 177.5q0 102 -68.5 169t-164.5 67q-95 0 -164.5 -67t-69.5 -169z" />
<glyph unicode="&#xf1;" horiz-adv-x="1191" d="M135 0v954h268v-159q28 88 116 136t171 48q186 0 283.5 -119t95.5 -336v-524h-268v496q0 107 -53.5 163t-129.5 56q-39 0 -74.5 -11.5t-68.5 -36t-52.5 -70.5t-19.5 -108v-489h-268zM309 1149q7 134 65 195t132 61q30 0 58.5 -13t47 -29t39 -29t35.5 -13q17 0 35.5 20 t19.5 64h142q-3 -69 -22.5 -120t-49.5 -78t-61 -39.5t-64 -12.5q-36 0 -70.5 21t-62.5 42t-47 21q-16 0 -34 -22.5t-19 -67.5h-144z" />
<glyph unicode="&#xf2;" horiz-adv-x="1179" d="M76 479q0 111 42 205.5t113 158.5t164 100t195 36t195 -36t164 -100t113 -158.5t42 -205.5q0 -146 -72 -261t-188.5 -175.5t-253.5 -60.5t-253.5 60.5t-188.5 175.5t-72 261zM231 1454h273l194 -340h-198zM348 479q0 -108 70 -178t172 -70t171.5 69.5t69.5 178.5 q0 110 -69.5 180t-171.5 70t-172 -70t-70 -180z" />
<glyph unicode="&#xf3;" horiz-adv-x="1179" d="M76 479q0 111 42 205.5t113 158.5t164 100t195 36t195 -36t164 -100t113 -158.5t42 -205.5q0 -146 -72 -261t-188.5 -175.5t-253.5 -60.5t-253.5 60.5t-188.5 175.5t-72 261zM348 479q0 -108 70 -178t172 -70t171.5 69.5t69.5 178.5q0 110 -69.5 180t-171.5 70t-172 -70 t-70 -180zM498 1114l194 340h273l-269 -340h-198z" />
<glyph unicode="&#xf4;" horiz-adv-x="1179" d="M76 479q0 111 42 205.5t113 158.5t164 100t195 36t195 -36t164 -100t113 -158.5t42 -205.5q0 -146 -72 -261t-188.5 -175.5t-253.5 -60.5t-253.5 60.5t-188.5 175.5t-72 261zM233 1114l224 340h270l225 -340h-200l-160 180l-160 -180h-199zM348 479q0 -108 70 -178 t172 -70t171.5 69.5t69.5 178.5q0 110 -69.5 180t-171.5 70t-172 -70t-70 -180z" />
<glyph unicode="&#xf5;" horiz-adv-x="1179" d="M76 479q0 111 42 205.5t113 158.5t164 100t195 36t195 -36t164 -100t113 -158.5t42 -205.5q0 -146 -72 -261t-188.5 -175.5t-253.5 -60.5t-253.5 60.5t-188.5 175.5t-72 261zM307 1149q7 134 65 195t132 61q30 0 58.5 -13t47 -29t39 -29t35.5 -13q17 0 35.5 20t19.5 64 h142q-3 -69 -22.5 -120t-49.5 -78t-61 -39.5t-64 -12.5q-36 0 -70.5 21t-62.5 42t-47 21q-16 0 -34 -22.5t-19 -67.5h-144zM348 479q0 -108 70 -178t172 -70t171.5 69.5t69.5 178.5q0 110 -69.5 180t-171.5 70t-172 -70t-70 -180z" />
<glyph unicode="&#xf6;" horiz-adv-x="1179" d="M76 479q0 111 42 205.5t113 158.5t164 100t195 36t195 -36t164 -100t113 -158.5t42 -205.5q0 -146 -72 -261t-188.5 -175.5t-253.5 -60.5t-253.5 60.5t-188.5 175.5t-72 261zM236 1284q0 58 42.5 97.5t102.5 39.5t101.5 -39.5t41.5 -97.5q0 -60 -41.5 -99.5t-101.5 -39.5 q-61 0 -103 40t-42 99zM348 479q0 -108 70 -178t172 -70t171.5 69.5t69.5 178.5q0 110 -69.5 180t-171.5 70t-172 -70t-70 -180zM659 1284q0 58 43 97.5t105 39.5q59 0 100 -39.5t41 -97.5q0 -59 -41 -99t-100 -40q-62 0 -105 40t-43 99z" />
<glyph unicode="&#xf7;" horiz-adv-x="1153" d="M86 442v195h981v-195h-981zM418 164q0 65 45 107t110 42q66 0 112 -42t46 -107t-46.5 -109.5t-111.5 -44.5t-110 44t-45 110zM418 913q0 64 45 107t110 43t111.5 -43t46.5 -107q0 -66 -46 -108.5t-112 -42.5t-110.5 42.5t-44.5 108.5z" />
<glyph unicode="&#xf8;" horiz-adv-x="1183" d="M78 479q0 111 42 205.5t113 158.5t164 100t195 36q174 0 311 -98l103 104l88 -86l-99 -102q111 -134 111 -318q0 -146 -72 -261t-188.5 -175.5t-253.5 -60.5q-169 0 -303 92l-113 -117l-88 88l109 111q-119 135 -119 323zM350 479q0 -70 33 -131l338 346q-56 35 -129 35 q-102 0 -172 -70t-70 -180zM473 262q54 -31 119 -31q102 0 172 70t70 178q0 67 -29 123z" />
<glyph unicode="&#xf9;" horiz-adv-x="1191" d="M123 430v524h268v-495q0 -106 53.5 -161.5t128.5 -55.5q39 0 74.5 11t68.5 35.5t52.5 70t19.5 106.5v489h269v-954h-269v156q-19 -59 -71.5 -101.5t-108 -60t-106.5 -17.5q-186 0 -283.5 118t-95.5 335zM231 1454h273l194 -340h-198z" />
<glyph unicode="&#xfa;" horiz-adv-x="1191" d="M123 430v524h268v-495q0 -106 53.5 -161.5t128.5 -55.5q39 0 74.5 11t68.5 35.5t52.5 70t19.5 106.5v489h269v-954h-269v156q-19 -59 -71.5 -101.5t-108 -60t-106.5 -17.5q-186 0 -283.5 118t-95.5 335zM498 1114l194 340h273l-269 -340h-198z" />
<glyph unicode="&#xfb;" horiz-adv-x="1191" d="M123 430v524h268v-495q0 -106 53.5 -161.5t128.5 -55.5q39 0 74.5 11t68.5 35.5t52.5 70t19.5 106.5v489h269v-954h-269v156q-19 -59 -71.5 -101.5t-108 -60t-106.5 -17.5q-186 0 -283.5 118t-95.5 335zM233 1114l224 340h270l225 -340h-200l-160 180l-160 -180h-199z " />
<glyph unicode="&#xfc;" horiz-adv-x="1191" d="M123 430v524h268v-495q0 -106 53.5 -161.5t128.5 -55.5q39 0 74.5 11t68.5 35.5t52.5 70t19.5 106.5v489h269v-954h-269v156q-19 -59 -71.5 -101.5t-108 -60t-106.5 -17.5q-186 0 -283.5 118t-95.5 335zM236 1284q0 58 42.5 97.5t102.5 39.5t101.5 -39.5t41.5 -97.5 q0 -60 -41.5 -99.5t-101.5 -39.5q-61 0 -103 40t-42 99zM659 1284q0 58 43 97.5t105 39.5q59 0 100 -39.5t41 -97.5q0 -59 -41 -99t-100 -40q-62 0 -105 40t-43 99z" />
<glyph unicode="&#xfd;" horiz-adv-x="1048" d="M12 954h295l225 -551l220 551h288l-589 -1423h-287l225 559zM434 1114l195 340h272l-268 -340h-199z" />
<glyph unicode="&#xfe;" horiz-adv-x="1255" d="M135 -469v1933h268v-624q48 68 133.5 102.5t174.5 34.5q92 0 177 -35t150 -98t103.5 -158t38.5 -207q0 -148 -66.5 -263.5t-172.5 -174.5t-230 -59q-89 0 -174.5 34.5t-133.5 102.5v-588h-268zM412 479q0 -106 73 -177t174 -71q102 0 174 72t72 176q0 105 -72 175.5 t-174 70.5q-98 0 -172.5 -70t-74.5 -176z" />
<glyph unicode="&#xff;" horiz-adv-x="1048" d="M12 954h295l225 -551l220 551h288l-589 -1423h-287l225 559zM172 1284q0 58 42.5 97.5t102.5 39.5t102 -39.5t42 -97.5q0 -60 -41.5 -99.5t-102.5 -39.5t-103 40t-42 99zM596 1284q0 58 42.5 97.5t104.5 39.5q59 0 100.5 -39.5t41.5 -97.5q0 -59 -41.5 -99t-100.5 -40 q-62 0 -104.5 39.5t-42.5 99.5z" />
<glyph unicode="&#x152;" horiz-adv-x="2242" d="M86 705q0 198 95 364.5t260 263.5t362 97q262 0 436 -168v149h883v-252h-600v-336h526v-256h-526v-315h618v-252h-901v150q-82 -82 -197 -125t-239 -43q-197 0 -362 97t-260 263t-95 363zM371 705q0 -193 122 -325t310 -132q187 0 309.5 132t122.5 325t-122.5 324.5 t-309.5 131.5q-188 0 -310 -131.5t-122 -324.5z" />
<glyph unicode="&#x153;" horiz-adv-x="1906" d="M76 479q0 111 42 205.5t113 158.5t164 100t195 36q109 0 207 -40t170 -114q71 74 167.5 114t204.5 40q210 0 354 -135t144 -350q0 -38 -6 -103h-721q23 -83 87 -127.5t161 -44.5q74 0 141 28t109 79l157 -158q-66 -89 -180.5 -137.5t-243.5 -48.5q-236 0 -378 151 q-72 -73 -168.5 -112t-204.5 -39q-137 0 -253.5 60.5t-188.5 175.5t-72 261zM348 479q0 -108 70 -178t172 -70t171.5 69.5t69.5 178.5q0 110 -69.5 180t-171.5 70t-172 -70t-70 -180zM1110 565h457q-6 83 -68.5 131.5t-155.5 48.5q-85 0 -148 -44t-85 -136z" />
<glyph unicode="&#x178;" horiz-adv-x="1372" d="M-4 1411h340l348 -537l354 537h338l-549 -774v-637h-284v641zM328 1741q0 58 42.5 97.5t102.5 39.5t101.5 -39.5t41.5 -97.5q0 -60 -41.5 -99.5t-101.5 -39.5q-61 0 -103 40t-42 99zM752 1741q0 58 42.5 97.5t104.5 39.5q59 0 100 -39.5t41 -97.5q0 -59 -41 -99t-100 -40 q-62 0 -104.5 39.5t-42.5 99.5z" />
<glyph unicode="&#x2c6;" horiz-adv-x="1148" d="M215 1128l223 340h271l225 -340h-201l-160 181l-159 -181h-199z" />
<glyph unicode="&#x2dc;" horiz-adv-x="901" d="M164 1163q7 134 64.5 195t131.5 61q38 0 73 -21t62.5 -42t45.5 -21q17 0 35.5 20t19.5 64h141q-3 -69 -22.5 -120t-49 -78t-60.5 -39.5t-64 -12.5q-28 0 -56.5 13t-47 29t-40 29t-37.5 13t-34 -22.5t-19 -67.5h-143z" />
<glyph unicode="&#x2000;" horiz-adv-x="1019" />
<glyph unicode="&#x2001;" horiz-adv-x="2038" />
<glyph unicode="&#x2002;" horiz-adv-x="1019" />
<glyph unicode="&#x2003;" horiz-adv-x="2038" />
<glyph unicode="&#x2004;" horiz-adv-x="679" />
<glyph unicode="&#x2005;" horiz-adv-x="509" />
<glyph unicode="&#x2006;" horiz-adv-x="339" />
<glyph unicode="&#x2007;" horiz-adv-x="339" />
<glyph unicode="&#x2008;" horiz-adv-x="254" />
<glyph unicode="&#x2009;" horiz-adv-x="407" />
<glyph unicode="&#x200a;" horiz-adv-x="113" />
<glyph unicode="&#x2010;" horiz-adv-x="970" d="M125 371v237h721v-237h-721z" />
<glyph unicode="&#x2011;" horiz-adv-x="970" d="M125 371v237h721v-237h-721z" />
<glyph unicode="&#x2012;" horiz-adv-x="970" d="M125 371v237h721v-237h-721z" />
<glyph unicode="&#x2013;" horiz-adv-x="1288" d="M127 371v231h1034v-231h-1034z" />
<glyph unicode="&#x2014;" horiz-adv-x="1722" d="M127 369v231h1468v-231h-1468z" />
<glyph unicode="&#x2018;" horiz-adv-x="522" d="M94 862q-6 183 69 339.5t195 262.5l123 -65q-95 -130 -134 -252t-30 -285h-223z" />
<glyph unicode="&#x2019;" horiz-adv-x="507" d="M57 901q95 129 134 252t32 285h221q7 -182 -68 -338.5t-194 -263.5z" />
<glyph unicode="&#x201a;" horiz-adv-x="493" d="M-20 -242q95 128 133.5 249t31.5 286h222q7 -181 -68.5 -336.5t-194.5 -263.5z" />
<glyph unicode="&#x201c;" horiz-adv-x="858" d="M94 862q-6 183 69 339.5t195 262.5l123 -65q-95 -130 -134 -252t-30 -285h-223zM432 862q-7 182 68 338.5t194 263.5l125 -65q-95 -130 -134 -252t-32 -285h-221z" />
<glyph unicode="&#x201d;" horiz-adv-x="845" d="M57 901q95 129 134 252t32 285h221q7 -182 -68 -338.5t-194 -263.5zM395 901q95 129 134 252t32 285h221q6 -183 -69 -339.5t-195 -262.5z" />
<glyph unicode="&#x201e;" horiz-adv-x="831" d="M-20 -242q95 129 133.5 251t31.5 284h222q7 -181 -68.5 -336.5t-194.5 -263.5zM317 -242q95 130 134 251t30 284h224q6 -181 -69.5 -337t-195.5 -263z" />
<glyph unicode="&#x2022;" horiz-adv-x="923" d="M137 487q0 133 95.5 222.5t230.5 89.5q134 0 228.5 -89.5t94.5 -222.5t-94.5 -222t-228.5 -89q-135 0 -230.5 89t-95.5 222z" />
<glyph unicode="&#x2026;" horiz-adv-x="1701" d="M98 145q0 71 50 118.5t120 47.5q72 0 123 -47.5t51 -118.5t-51 -117t-123 -46q-70 0 -120 46t-50 117zM680 145q0 71 50 118.5t120 47.5q72 0 123 -47.5t51 -118.5t-51 -117t-123 -46q-70 0 -120 46t-50 117zM1262 145q0 71 50 118.5t120 47.5t121 -47.5t51 -118.5 q0 -70 -50.5 -116.5t-121.5 -46.5q-70 0 -120 46t-50 117z" />
<glyph unicode="&#x202f;" horiz-adv-x="407" />
<glyph unicode="&#x2039;" horiz-adv-x="653" d="M74 477l282 424h217l-282 -424l282 -424h-217z" />
<glyph unicode="&#x203a;" horiz-adv-x="653" d="M80 53l282 424l-282 424h217l283 -424l-283 -424h-217z" />
<glyph unicode="&#x205f;" horiz-adv-x="509" />
<glyph unicode="&#x20ac;" horiz-adv-x="1630" d="M74 498v127h981v-127h-469q51 -115 150.5 -183.5t226.5 -68.5q108 0 202.5 51t155.5 139l225 -162q-96 -136 -248 -214t-335 -78q-245 0 -429.5 144t-248.5 372h-211zM74 721v125h213q66 226 249 367t427 141q181 0 331 -76t246 -209l-225 -160q-61 83 -153 130.5 t-199 47.5q-125 0 -223.5 -65.5t-149.5 -175.5h465v-125h-981z" />
<glyph unicode="&#x2122;" horiz-adv-x="1927" d="M70 1225v186h647v-186h-217v-660h-215v660h-215zM782 565l103 846h178l229 -498l228 498h182l102 -846h-217l-49 445l-162 -342h-164l-163 338l-50 -441h-217z" />
<glyph unicode="&#x25fc;" horiz-adv-x="952" d="M0 0v952h952v-952h-952z" />
</font>
</defs>
</svg>
