<?xml version="1.0" standalone="no"?>
<!DOCTYPE svg PUBLIC "-//W3C//DTD SVG 1.1//EN" "http://www.w3.org/Graphics/SVG/1.1/DTD/svg11.dtd" >
<svg xmlns="http://www.w3.org/2000/svg" xmlns:xlink="http://www.w3.org/1999/xlink" version="1.1">
<metadata></metadata>
<defs>
<font id="sofia_prolight_italic" horiz-adv-x="1259" >
<font-face units-per-em="2048" ascent="1638" descent="-410" />
<missing-glyph horiz-adv-x="536" />
<glyph unicode="&#xfb01;" horiz-adv-x="1118" d="M211 844l22 112h189l24 125q38 192 142 303t282 111h66l-23 -125h-47q-234 0 -286 -274l-27 -140h588l-187 -956h-131l164 844h-457l-163 -844h-131l163 844h-188zM1042 1309q7 40 42.5 67t76.5 27q43 0 67 -26.5t17 -67.5q-7 -40 -41.5 -66t-77.5 -26q-41 0 -66 26.5 t-18 65.5z" />
<glyph unicode="&#xfb02;" horiz-adv-x="1120" d="M211 844l22 112h189l24 125q38 192 142 303t282 111h377l-291 -1495h-131l269 1370h-228q-234 0 -286 -274l-27 -140h244l-23 -112h-244l-163 -844h-131l163 844h-188z" />
<glyph unicode="&#xfb03;" horiz-adv-x="1789" d="M211 844l22 112h189l24 125q38 192 142 303t282 111h91l-23 -125h-72q-234 0 -286 -274l-27 -140h541l24 125q38 192 142 303t282 111h57l-22 -125h-39q-235 0 -287 -274l-26 -140h587l-186 -956h-131l164 844h-457l-164 -844h-131l164 844h-541l-163 -844h-131l163 844 h-188zM1714 1309q7 40 42.5 67t76.5 27q43 0 67 -26.5t17 -67.5q-7 -40 -41.5 -66t-77.5 -26q-41 0 -66 26.5t-18 65.5z" />
<glyph unicode="&#xfb04;" horiz-adv-x="1792" d="M211 844l22 112h189l24 125q38 192 142 303t282 111h91l-23 -125h-72q-234 0 -286 -274l-27 -140h541l24 125q38 192 142 303t282 111h377l-291 -1495h-131l268 1370h-227q-235 0 -287 -274l-26 -140h243l-22 -112h-244l-164 -844h-131l164 844h-541l-163 -844h-131 l163 844h-188z" />
<glyph horiz-adv-x="0" />
<glyph horiz-adv-x="682" />
<glyph unicode=" "  horiz-adv-x="536" />
<glyph unicode="&#x09;" horiz-adv-x="536" />
<glyph unicode="&#xa0;" horiz-adv-x="536" />
<glyph unicode="!" horiz-adv-x="512" d="M168 82q9 41 44.5 69.5t76.5 28.5q45 0 71 -28.5t17 -69.5t-45.5 -68.5t-81.5 -27.5q-42 0 -66.5 27.5t-15.5 68.5zM274 371l191 1040h131l-213 -1040h-109z" />
<glyph unicode="&#x22;" horiz-adv-x="659" d="M326 858l98 553h115l-115 -553h-98zM571 858l99 553h116l-116 -553h-99z" />
<glyph unicode="#" horiz-adv-x="1384" d="M137 358l60 125h247l203 437h-246l58 124h250l172 367h123l-173 -367h316l172 367h123l-172 -367h250l-60 -124h-250l-204 -437h249l-57 -125h-250l-172 -358h-123l170 358h-313l-172 -358h-121l170 358h-250zM567 483h316l202 437h-313z" />
<glyph unicode="$" horiz-adv-x="1050" d="M174 403h133q-11 -99 58 -172t196 -73q141 0 233 74t113 174q18 90 -35.5 147.5t-162.5 85.5l-166 43q-292 76 -244 319q27 140 150 235.5t276 111.5l35 182h98l-35 -180q154 -12 234.5 -108t54.5 -241h-133q17 102 -47 167t-180 65q-112 0 -206 -66.5t-114 -165.5 q-31 -153 166 -202l166 -43q155 -40 230 -125.5t50 -218.5q-13 -67 -52.5 -131t-99 -117t-144.5 -87.5t-181 -39.5l-37 -187h-98l39 191q-155 21 -235.5 125.5t-61.5 236.5z" />
<glyph unicode="%" horiz-adv-x="1243" d="M238 0l917 1348h98l-915 -1348h-100zM291 1116q22 109 111.5 185.5t199.5 76.5q109 0 171 -76.5t40 -185.5q-22 -110 -113 -186t-200 -76q-110 0 -170.5 76t-38.5 186zM391 1116q-12 -69 24.5 -114.5t104.5 -45.5q67 0 124 46t69 114q12 66 -26.5 113t-104.5 47 q-67 0 -123 -47t-68 -113zM694 242q22 109 112 185.5t200 76.5q109 0 172 -77t41 -185q-22 -110 -115 -186t-203 -76t-169.5 75.5t-37.5 186.5zM797 242q-14 -68 22 -114t103 -46t124 46.5t70 113.5q13 66 -26 112.5t-105 46.5q-67 0 -120.5 -46t-67.5 -113z" />
<glyph unicode="&#x26;" horiz-adv-x="1312" d="M186 418q25 124 110.5 224t209.5 153q-61 44 -87 122.5t-9 165.5q27 140 151.5 242t280.5 102q101 0 175.5 -44.5t108.5 -120.5l-120 -70q-23 53 -74 80.5t-117 27.5q-103 0 -182 -64.5t-98 -160.5q-20 -98 34 -166.5t172 -68.5h303l35 176h131l-36 -178h186l-21 -109 h-186l-59 -305q-14 -69 -16.5 -121t8 -100.5t46.5 -74.5t97 -26h31l-25 -122h-33q-104 0 -171.5 49.5t-67.5 140.5q-67 -93 -181 -141.5t-233 -48.5q-132 0 -224 60.5t-127.5 160t-11.5 217.5zM313 422q-26 -133 46.5 -224.5t220.5 -91.5q140 0 245.5 86.5t135.5 217.5 l61 319h-297q-163 0 -274 -86.5t-138 -220.5z" />
<glyph unicode="'" horiz-adv-x="413" d="M326 858l98 553h115l-115 -553h-98z" />
<glyph unicode="(" horiz-adv-x="690" d="M223 582q81 413 276 659t437 254l-23 -111q-184 -8 -339.5 -226.5t-225.5 -575.5q-45 -242 -29.5 -418t89.5 -276.5t194 -104.5l-22 -111q-239 8 -338.5 253t-18.5 657z" />
<glyph unicode=")" horiz-adv-x="690" d="M-18 -328l22 111q184 6 338.5 224t224.5 575t-0.5 575.5t-253.5 226.5l23 111q241 -8 339 -253.5t17 -659.5q-81 -413 -274 -657.5t-436 -252.5z" />
<glyph unicode="*" horiz-adv-x="942" d="M307 1116l41 88l297 -90l60 328h92l-70 -328l330 90l8 -88l-326 -78l144 -256l-84 -53l-135 264l-240 -264l-62 53l242 256z" />
<glyph unicode="+" horiz-adv-x="1011" d="M184 469l25 127h348l68 348h127l-68 -348h348l-24 -127h-349l-67 -350h-127l67 350h-348z" />
<glyph unicode="," horiz-adv-x="450" d="M-55 -317q111 126 178 263t88 306h131q-23 -175 -107 -334t-210 -266z" />
<glyph unicode="-" horiz-adv-x="978" d="M225 408l25 127h688l-25 -127h-688z" />
<glyph unicode="." horiz-adv-x="475" d="M147 76q7 42 44 70t79 28q44 0 68.5 -27.5t17.5 -70.5q-7 -41 -44.5 -68.5t-82.5 -27.5q-42 0 -65.5 27.5t-16.5 68.5z" />
<glyph unicode="/" horiz-adv-x="944" d="M61 0l965 1411h133l-966 -1411h-132z" />
<glyph unicode="0" horiz-adv-x="1218" d="M230 368.5q-2 71.5 6 145t24 158.5q23 121 55.5 219.5t84 188.5t117 151t157.5 97t203 36q93 0 162.5 -24t112 -70.5t67 -107.5t29.5 -141t-2.5 -164t-26.5 -185q-23 -121 -55 -219t-83 -188.5t-116 -151.5t-156.5 -97t-202.5 -36q-80 0 -143 18.5t-105.5 51.5t-71 82.5 t-41.5 107t-15 129zM365.5 494q-6.5 -80 3 -154.5t38.5 -125t85.5 -80.5t138.5 -30q81 0 148.5 30t116 80.5t87 125t63.5 154.5t44 178q19 99 25.5 179t-3 154.5t-38.5 124.5t-85 79.5t-137 29.5q-82 0 -150 -29.5t-116.5 -79.5t-87 -124.5t-63.5 -154.5t-44 -179 q-19 -98 -25.5 -178z" />
<glyph unicode="1" horiz-adv-x="686" d="M258 1044l25 130l452 190h6l-264 -1364h-129l227 1169z" />
<glyph unicode="2" horiz-adv-x="1034" d="M104 0l9 55l659 641q173 173 193 285q23 116 -40 187t-186 71q-113 0 -201 -56t-126 -153l-111 29q52 141 177.5 223t285.5 82q181 0 273.5 -105.5t58.5 -277.5q-28 -156 -219 -344l-527 -510h596l-24 -127h-818z" />
<glyph unicode="3" horiz-adv-x="1085" d="M123 250l121 59q29 -94 102 -148.5t172 -54.5q148 0 260 76t135 197q24 126 -48 205.5t-206 79.5h-137l23 114h131q110 0 191.5 64.5t101.5 167.5t-40 166t-179 63q-80 0 -161 -39t-132 -102l-80 73q68 87 177.5 140t221.5 53q177 0 266 -97t58 -255q-19 -95 -82 -172 t-154 -115q102 -31 153 -124t27 -218q-35 -180 -187.5 -290.5t-358.5 -110.5q-140 0 -241.5 72t-133.5 196z" />
<glyph unicode="4" horiz-adv-x="1150" d="M88 285l6 30l1008 1033h28l-182 -938h201l-25 -125h-200l-56 -285h-131l56 285h-705zM330 410h487l123 624z" />
<glyph unicode="5" horiz-adv-x="1122" d="M143 262l119 60q34 -99 112.5 -158.5t196.5 -59.5q148 0 262.5 88.5t141.5 229.5q26 136 -49 220.5t-213 84.5q-168 0 -379 -115l-64 68l250 668h676l-25 -125h-569l-178 -471q168 92 334 92q189 0 286.5 -115.5t61.5 -304.5q-38 -198 -194 -321t-357 -123 q-158 0 -265 76.5t-147 205.5z" />
<glyph unicode="6" horiz-adv-x="1183" d="M238 575q13 68 31 135t48.5 147.5t67.5 150t91 136.5t116.5 114.5t145.5 76.5t177 29q287 0 349 -256l-127 -49q-49 180 -248 180q-78 0 -150 -33.5t-126.5 -89.5t-99 -130t-72.5 -154t-42 -162q64 83 169 133.5t216 50.5q129 0 221.5 -60t129 -159t14.5 -215 q-16 -82 -60.5 -159t-112.5 -140.5t-166.5 -102t-209.5 -38.5q-234 0 -326.5 152t-35.5 443zM356 449q-31 -159 46 -250t216 -93q148 0 258.5 91.5t137.5 224.5q25 129 -47.5 218t-210.5 89q-60 0 -122 -17.5t-119 -50.5t-100 -88.5t-59 -123.5z" />
<glyph unicode="7" horiz-adv-x="1007" d="M96 0l910 1223h-670l24 125h885l-2 -15l-993 -1333h-154z" />
<glyph unicode="8" horiz-adv-x="1187" d="M184 397q26 132 121.5 236.5t231.5 148.5q-67 40 -96 106.5t-11 153.5q28 138 148.5 230t281.5 92t247 -92t58 -230q-18 -87 -72.5 -154t-134.5 -106q116 -45 171.5 -149t29.5 -234q-35 -181 -196.5 -300t-372.5 -119q-212 0 -326.5 118.5t-79.5 298.5zM324 408 q-26 -129 56.5 -216.5t231.5 -87.5q151 0 269 87.5t143 214.5q26 130 -59 219.5t-232 89.5q-150 -3 -266.5 -90.5t-142.5 -216.5zM565 1032q-17 -87 36 -146.5t153 -60.5q100 2 179.5 61t96.5 146q17 88 -39.5 148.5t-154.5 60.5t-176 -60.5t-95 -148.5z" />
<glyph unicode="9" horiz-adv-x="1183" d="M180 236l129 49q47 -181 244 -181q96 0 182.5 50.5t147.5 132.5t102.5 181t58.5 202q-64 -83 -169.5 -132t-215.5 -49q-130 0 -222 60t-128.5 159.5t-13.5 217.5q16 81 60.5 157.5t112 140t166 102t210.5 38.5q229 0 324 -161t40 -433q-13 -69 -31.5 -136t-49.5 -147.5 t-68.5 -150t-92 -136.5t-117 -114.5t-146 -76.5t-177.5 -29q-284 0 -346 256zM428 922q-25 -127 48 -216t210 -92q82 0 163.5 29.5t149 95.5t86.5 156q31 159 -45 250.5t-215 93.5q-148 0 -260 -92.5t-137 -224.5z" />
<glyph unicode=":" horiz-adv-x="497" d="M160 76q7 42 44 70t81 28q42 0 65.5 -28t16.5 -70q-7 -40 -44 -68t-79 -28q-43 0 -67 27.5t-17 68.5zM317 879q9 42 44.5 70t78.5 28q42 0 67.5 -28t16.5 -70q-7 -41 -43 -69t-78 -28q-43 0 -68 28t-18 69z" />
<glyph unicode=";" horiz-adv-x="518" d="M-4 -317q111 126 178 263t88 306h131q-23 -175 -107 -334t-210 -266zM334 879q9 42 44 70t77 28q44 0 69.5 -28t16.5 -70q-7 -41 -43.5 -69t-79.5 -28q-42 0 -66.5 28t-17.5 69z" />
<glyph unicode="&#x3c;" horiz-adv-x="1245" d="M166 469l27 133l1116 399l-25 -141l-930 -323l801 -326l-27 -137z" />
<glyph unicode="=" horiz-adv-x="1236" d="M199 238l24 127h930l-25 -127h-929zM279 651l24 127h930l-25 -127h-929z" />
<glyph unicode="&#x3e;" horiz-adv-x="1243" d="M141 72l27 139l926 326l-799 323l27 141l960 -399l-25 -133z" />
<glyph unicode="?" horiz-adv-x="956" d="M260 82q9 42 45.5 70t79.5 28t68 -28t16 -70q-7 -41 -43.5 -68.5t-79.5 -27.5t-68 27.5t-18 68.5zM276 1040q28 115 104 204.5t175.5 136t204.5 46.5q166 0 260.5 -108t60.5 -283q-27 -139 -127.5 -239.5t-232.5 -137.5q-48 -14 -77.5 -25.5t-60.5 -32.5t-49.5 -53 t-27.5 -77l-21 -100h-127l19 100q22 121 81 184t158 99l93 28q91 29 158 95.5t85 158.5q23 121 -40 194t-177 73q-109 0 -203.5 -71t-128.5 -192h-127z" />
<glyph unicode="@" horiz-adv-x="2039" d="M201 512q36 185 138 352.5t244.5 290t322 194.5t364.5 72q187 0 345.5 -66.5t263.5 -180.5t149 -277.5t8 -347.5q-15 -76 -42 -153t-71 -155t-98 -137.5t-128 -97t-155 -37.5q-45 0 -82 8.5t-70.5 28t-52 51.5t-26.5 79.5t6 111.5l53 274q25 125 -44 211t-193 86 t-228 -86t-129 -211q-23 -122 47 -208.5t193 -86.5q108 0 217 82l-25 -127q-107 -63 -213 -63q-167 0 -263 118.5t-64 284.5q21 111 94 205.5t177 148.5t214 54q164 0 261.5 -116t68.5 -282l-60 -292q-18 -90 24 -127t116 -37q61 0 115 31.5t93 80.5t71 113.5t51.5 125.5 t31.5 122q32 162 -7 305t-132 243t-232.5 158t-304.5 58q-217 0 -418.5 -108t-340.5 -292t-181 -401q-23 -134 -10.5 -252.5t66.5 -218t134 -172t192.5 -112.5t242.5 -40h57l-20 -108h-58q-247 0 -427.5 120t-256.5 327t-28 456z" />
<glyph unicode="A" horiz-adv-x="1247" d="M14 0l813 1411h144l262 -1411h-141l-70 375h-651l-213 -375h-144zM442 496h557l-135 735z" />
<glyph unicode="B" horiz-adv-x="1286" d="M209 0l274 1411h512q172 -1 256 -93q61 -67 60 -170q0 -40 -8 -85q-20 -102 -83.5 -187.5t-162.5 -123.5q61 -17 105.5 -56t64.5 -88q21 -49 27 -107q2 -19 2 -38q0 -38 -9 -74q-31 -158 -163 -273.5t-312 -115.5h-563zM369 127h405q131 0 224 79t116 193q7 32 7 62 q0 80 -47 141q-64 84 -197 84h-400zM500 805h401q101 0 171 69.5t93 178.5q6 32 6 59q-1 66 -37 110q-52 62 -165 62h-375z" />
<glyph unicode="C" horiz-adv-x="1388" d="M242 702q29 147 110.5 281t194.5 230.5t255.5 154t287.5 57.5q147 0 266 -56.5t192 -156.5l-112 -86q-61 81 -156.5 126.5t-212.5 45.5q-158 0 -306 -80t-250.5 -217t-133.5 -299q-11 -64 -11 -123q0 -33 4 -65q10 -89 49 -163.5t98 -129t141.5 -85t177.5 -30.5 q233 0 434 173l80 -86q-112 -100 -253 -156.5t-288 -56.5q-145 0 -265.5 57t-196 154t-105.5 231q-15 67 -14 138q0 69 14 142z" />
<glyph unicode="D" horiz-adv-x="1486" d="M209 0l274 1411h535q117 0 211.5 -35t156 -99t99 -152.5t41.5 -194.5q1 -17 1 -35q0 -91 -18 -193q-29 -150 -97 -278t-165 -222.5t-227.5 -148t-276.5 -53.5h-534zM369 127h399q234 0 395.5 161t210.5 414q17 80 17 153q0 39 -5 77q-14 106 -58 184t-130.5 123 t-204.5 45h-399z" />
<glyph unicode="E" horiz-adv-x="1142" d="M209 0l274 1411h805l-24 -127h-672l-103 -528h586l-24 -127h-586l-98 -502h694l-25 -127h-827z" />
<glyph unicode="F" horiz-adv-x="1062" d="M209 0l274 1411h795l-25 -127h-659l-102 -528h522l-25 -127h-522l-123 -629h-135z" />
<glyph unicode="G" horiz-adv-x="1548" d="M235 474q-4 39 -4 79q0 72 13 149q29 148 110.5 282t195 231t257 154.5t291.5 57.5q126 0 233.5 -43t184.5 -120l-109 -93q-136 129 -336 129q-160 0 -308.5 -80.5t-250.5 -218t-133 -299.5q-12 -62 -12 -121q0 -94 31 -178q49 -137 166.5 -217t277.5 -80q204 0 364 112 t228 314l8 31h-424l22 121h572q-36 -175 -111.5 -310.5t-180.5 -221t-232.5 -129t-272.5 -43.5q-118 0 -220.5 37t-176 102.5t-122.5 156t-61 198.5z" />
<glyph unicode="H" horiz-adv-x="1464" d="M209 0l274 1411h135l-124 -649h776l125 649h135l-275 -1411h-135l125 641h-776l-125 -641h-135z" />
<glyph unicode="I" horiz-adv-x="550" d="M209 0l274 1411h135l-274 -1411h-135z" />
<glyph unicode="J" horiz-adv-x="567" d="M-279 -463l41 129q44 -12 111 -12q146 0 231.5 87.5t114.5 229.5l283 1440h133l-281 -1440q-18 -95 -57 -173.5t-99.5 -141.5t-150.5 -98t-201 -35q-29 0 -125 14z" />
<glyph unicode="K" horiz-adv-x="1120" d="M209 0l274 1411h133l-129 -663l658 663h168l-719 -723l547 -688h-183l-495 621l-121 -621h-133z" />
<glyph unicode="L" horiz-adv-x="991" d="M209 0l274 1411h135l-249 -1284h600l-25 -127h-735z" />
<glyph unicode="M" horiz-adv-x="1939" d="M127 0l448 1411h127l326 -1120l760 1120h125l-98 -1411h-134l82 1169l-700 -1024h-125l-307 1029l-373 -1174h-131z" />
<glyph unicode="N" horiz-adv-x="1413" d="M209 0l274 1411h142l491 -1173l230 1173h135l-275 -1411h-139l-494 1176l-229 -1176h-135z" />
<glyph unicode="O" horiz-adv-x="1640" d="M233 474q-4 39 -4 79q0 72 13 149q29 148 110.5 282t195 231t257 154.5t291.5 57.5q197 0 342 -97q145 -98 206 -264q38 -103 38 -217q0 -71 -15 -147q-29 -147 -110.5 -280.5t-195 -230.5t-257 -154t-291.5 -57q-118 0 -220.5 37t-176 102.5t-122.5 156t-61 198.5z M377 702q-12 -62 -12 -121q1 -94 31 -178q50 -137 167 -217t277 -80t308.5 80t250.5 217t133 299q12 62 12 121q0 95 -30 179q-50 138 -167.5 218t-277.5 80t-308.5 -80.5t-250.5 -218t-133 -299.5z" />
<glyph unicode="P" horiz-adv-x="1243" d="M209 0l274 1411h555q84 0 148.5 -24t101.5 -65t59 -96t22 -117t-11 -128q-17 -85 -54.5 -160t-97 -136.5t-147.5 -97.5t-195 -36h-413l-107 -551h-135zM475 678h408q73 0 133.5 25.5t101.5 69t67 96t38 112.5q10 39 10 77q-1 18 -3 34q-6 54 -27.5 97t-71 69t-119.5 26 h-418z" />
<glyph unicode="Q" horiz-adv-x="1640" d="M233 474q-4 39 -4 79q0 72 13 149q29 148 110.5 282t195 231t257 154.5t291.5 57.5q197 0 342 -97t206 -264q38 -102 38 -217q0 -71 -15 -147q-38 -197 -165 -363t-308 -261l109 -250l-119 -64l-113 261q-127 -45 -258 -45q-118 0 -220.5 37t-176 102.5t-122.5 156 t-61 198.5zM377 702q-12 -62 -12 -121q0 -94 31 -178q49 -137 166.5 -217t277.5 -80q90 0 182 29l-111 256l119 66l117 -271q146 79 249.5 216t135.5 300q12 62 12 121q0 94 -30 179q-50 137 -167.5 217.5t-277.5 80.5t-308.5 -80.5t-250.5 -218t-133 -299.5z" />
<glyph unicode="R" horiz-adv-x="1257" d="M209 0l274 1411h525q86 0 151 -24t102.5 -65t59.5 -96q22 -54 22 -114q0 -62 -12 -131q-17 -84 -53.5 -157.5t-94.5 -134.5t-144.5 -97.5t-192.5 -38.5l284 -553h-163l-281 553h-235l-107 -553h-135zM475 678h356q157 0 247.5 83.5t117.5 219.5q9 43 9 81q-1 78 -37 136 q-54 86 -183 86h-391z" />
<glyph unicode="S" horiz-adv-x="1159" d="M186 379h133q-1 -14 -1 -27q0 -92 68 -164q78 -82 222 -82q158 0 262.5 83.5t126.5 193.5q5 25 5 48q0 154 -230 214l-180 45q-274 69 -274 277q0 36 8 75q22 113 103 202.5t192.5 136t228.5 46.5q184 -1 288 -105q82 -83 82 -209q0 -33 -6 -69h-135q3 20 3 38 q0 90 -61 148q-73 70 -202 70q-81 0 -156 -31t-130 -91t-70 -136q-4 -25 -5 -44.5t7 -48.5t27 -51.5t59 -45t98 -37.5l180 -45q169 -42 253 -138q61 -70 61 -168q0 -35 -8 -75q-15 -76 -60 -148t-114.5 -131t-168 -94.5t-210.5 -35.5q-133 0 -230 57.5t-139 147.5 q-31 66 -31 140q0 27 4 54z" />
<glyph unicode="T" horiz-adv-x="1120" d="M293 1284l24 127h1035l-25 -127h-450l-250 -1284h-135l249 1284h-448z" />
<glyph unicode="U" horiz-adv-x="1388" d="M283 475l182 936h135l-182 -936q-10 -48 -10 -91q0 -108 62 -178q86 -98 245 -97q157 0 281.5 97.5t158.5 268.5l182 936h136l-183 -936q-22 -113 -80.5 -207.5t-140 -156.5t-179.5 -96.5t-200 -34.5t-186.5 34.5t-141.5 96.5q-56 63 -78 157q-11 48 -12 100q0 51 11 107 z" />
<glyph unicode="V" horiz-adv-x="1114" d="M334 1411h141l123 -1198l588 1198h139l-696 -1411h-142z" />
<glyph unicode="W" horiz-adv-x="1853" d="M315 1411h144l159 -1200l486 995h117l92 -1001l631 1206h143l-752 -1411h-127l-92 979l-471 -979h-127z" />
<glyph unicode="X" horiz-adv-x="1204" d="M20 0l650 760l-312 651h162l252 -543l461 543h162l-566 -651l357 -760h-162l-297 649l-547 -649h-160z" />
<glyph unicode="Y" horiz-adv-x="1232" d="M291 1411h160l319 -618l563 618h162l-686 -749l-127 -662h-135l127 662z" />
<glyph unicode="Z" horiz-adv-x="1122" d="M82 0l20 109l1008 1175h-762l25 127h936l-23 -111l-1005 -1173h778l-25 -127h-952z" />
<glyph unicode="[" horiz-adv-x="604" d="M127 -328l356 1823h351l-23 -117h-221l-309 -1589h221l-25 -117h-350z" />
<glyph unicode="\" horiz-adv-x="944" d="M334 1411h133l416 -1411h-131z" />
<glyph unicode="]" horiz-adv-x="604" d="M-2 -328l22 117h222l309 1589h-221l22 117h350l-356 -1823h-348z" />
<glyph unicode="^" horiz-adv-x="964" d="M209 608l487 803h123l174 -803h-131l-135 649l-385 -649h-133z" />
<glyph unicode="_" horiz-adv-x="1333" d="M82 -178l24 121h1100l-24 -121h-1100z" />
<glyph unicode="`" horiz-adv-x="966" d="M528 1434h160l135 -314h-127z" />
<glyph unicode="a" d="M190 479q28 142 115.5 257t210.5 178t256 63q123 0 215 -54.5t127 -150.5l35 184h131l-184 -956h-131l34 186q-72 -97 -185.5 -151.5t-235.5 -54.5q-132 0 -230 64q-98 63 -142 178q-26 70 -27 150q0 51 11 107zM322 481q-8 -42 -8 -81q0 -107 62 -187q85 -109 236 -109 q100 0 193.5 46t162 132t89.5 193q8 43 8 83q0 112 -67 189q-91 105 -240 105q-152 0 -278.5 -107t-157.5 -264z" />
<glyph unicode="b" d="M164 0l291 1495h131l-144 -725q73 97 187 152t237 55q204 0 316 -141q82 -103 82 -245q0 -53 -11 -112q-28 -142 -115.5 -257t-211 -178.5t-256.5 -63.5q-122 0 -214.5 55.5t-125.5 152.5l-35 -188h-131zM387 475q-8 -41 -8 -79q0 -60 21 -114q34 -86 109.5 -132 t174.5 -46q153 0 281 109t159 268q8 42 8 80q0 105 -62 184q-86 107 -239 107q-149 0 -280 -105t-164 -272z" />
<glyph unicode="c" horiz-adv-x="1026" d="M190 479q29 147 121 262t218.5 175.5t263.5 60.5q101 0 183 -35t134 -96l-98 -90q-86 96 -240 96q-160 0 -288.5 -103.5t-161.5 -269.5q-8 -43 -9 -82q1 -109 67 -187q90 -104 249 -104q148 0 274 95l66 -88q-163 -131 -369 -131q-102 0 -187 35.5t-142 99t-80 157.5 q-12 48 -12 101q0 50 11 104z" />
<glyph unicode="d" d="M190 479q28 142 115.5 257t210.5 178t256 63q123 0 215 -54.5t127 -150.5l141 723h131l-290 -1495h-131l34 186q-72 -97 -185.5 -151.5t-235.5 -54.5q-132 0 -230 64q-98 63 -142 178q-26 70 -27 150q0 51 11 107zM322 481q-8 -42 -8 -81q0 -107 62 -187 q85 -109 236 -109q100 0 193.5 46t162 132t89.5 193q8 43 8 83q0 112 -67 189q-91 105 -240 105q-152 0 -278.5 -107t-157.5 -264z" />
<glyph unicode="e" horiz-adv-x="1148" d="M190 481q43 222 210 359t374 137t313 -136q75 -96 74 -236q0 -58 -12 -124q-10 -45 -14 -57h-824q-2 -19 -2 -38q0 -124 71 -198q81 -84 228 -84q99 0 190 43.5t152 120.5l105 -49q-85 -114 -211.5 -176.5t-263.5 -62.5q-207 0 -320 139q-82 101 -82 245q0 56 12 117z M336 537h694q2 24 2 46q0 114 -64 185q-77 84 -218 84q-144 0 -256 -82.5t-158 -232.5z" />
<glyph unicode="f" horiz-adv-x="645" d="M211 844l22 112h189l24 125q38 192 142 303t282 111h91l-23 -125h-72q-234 0 -286 -274l-27 -140h244l-23 -112h-244l-163 -844h-131l163 844h-188z" />
<glyph unicode="g" d="M115 -244l123 62q34 -82 107 -126t163 -44q91 0 164 24.5t136 80t109 151.5t74 231l10 49q-74 -96 -188 -150t-235 -54q-132 0 -230.5 63.5t-141.5 178.5q-27 70 -27 150q0 51 11 107q28 142 116 257t211.5 178t256.5 63q122 0 213.5 -54.5t126.5 -150.5l37 184h131 l-160 -815q-27 -136 -71.5 -241.5t-102.5 -176t-132 -116t-155.5 -65t-177.5 -19.5q-126 0 -224 59.5t-144 173.5zM322 481q-8 -42 -8 -81q0 -107 62 -187q85 -109 236 -109q100 0 193.5 46t162 132t89.5 193q8 41 8 79q0 40 -9 77q-17 72 -59.5 119.5t-104 74.5t-132.5 27 q-152 0 -279.5 -107t-158.5 -264z" />
<glyph unicode="h" horiz-adv-x="1165" d="M164 0l291 1495h131l-140 -711q58 95 164 144t207 49q177 0 261 -112q58 -77 58 -194q0 -53 -12 -114l-108 -557h-131l106 551q8 41 8 77q-1 84 -43 140q-60 80 -178 80q-60 0 -117.5 -18t-111 -54t-94 -99.5t-58.5 -146.5l-102 -530h-131z" />
<glyph unicode="i" horiz-adv-x="458" d="M164 0l186 956h131l-186 -956h-131zM383 1309q7 40 42.5 67t76.5 27q43 -1 67 -27q19 -21 18 -49q0 -9 -1 -18q-7 -40 -41.5 -66t-77.5 -26q-41 1 -66 27q-20 21 -20 49q0 7 2 16z" />
<glyph unicode="j" horiz-adv-x="475" d="M-213 -465l25 125h92q213 0 266 283l197 1013h131l-199 -1013q-79 -408 -410 -408h-102zM399 1309q7 40 42.5 67t76.5 27q43 0 67 -27q19 -20 19 -49q0 -9 -2 -18q-7 -40 -41.5 -66t-77.5 -26q-41 0 -66 27q-20 20 -20 49q0 7 2 16z" />
<glyph unicode="k" horiz-adv-x="942" d="M164 0l291 1495h131l-176 -905l430 366h182l-492 -415l426 -541h-178l-387 492l-96 -492h-131z" />
<glyph unicode="l" horiz-adv-x="458" d="M164 0l291 1495h131l-291 -1495h-131z" />
<glyph unicode="m" horiz-adv-x="1841" d="M164 0l186 956h131l-35 -172q53 92 154.5 142.5t212.5 50.5q118 0 194.5 -59.5t96.5 -169.5q38 68 89 115.5t106.5 71t104 33t97.5 9.5q175 1 255 -111q55 -76 54 -191q0 -54 -12 -118l-108 -557h-131l106 551q8 43 8 80q1 82 -39 138q-58 81 -178 81h-6q-136 0 -236 -96 q-104 -98 -127 -267v9l-96 -496h-129l107 551q9 44 9 82q0 81 -39 136q-57 81 -173 81q-81 0 -153.5 -31t-132.5 -105.5t-83 -183.5l-102 -530h-131z" />
<glyph unicode="n" horiz-adv-x="1165" d="M164 0l186 956h131l-35 -172q58 95 164 144t207 49q177 0 261 -112q58 -77 58 -194q0 -53 -12 -114l-108 -557h-131l106 551q8 41 8 77q-1 84 -43 140q-60 80 -178 80q-60 0 -117.5 -18t-111 -54t-94 -99.5t-58.5 -146.5l-102 -530h-131z" />
<glyph unicode="o" horiz-adv-x="1196" d="M190 481q29 147 119.5 261.5t215 174.5t261.5 60q102 0 186.5 -35.5t141 -98.5t78.5 -157q11 -47 11 -98.5t-11 -106.5q-29 -147 -120.5 -263t-217.5 -177t-262 -61q-209 0 -327 140q-86 102 -86 248q0 54 11 113zM322 481q-9 -47 -9 -88q-1 -108 61 -184 q86 -105 242 -105q155 0 283.5 105.5t161.5 271.5q8 43 8 82q-1 110 -65 186q-88 103 -242 103q-156 0 -282 -103t-158 -268z" />
<glyph unicode="p" d="M72 -465l278 1421h131l-39 -188q71 97 186.5 153t237.5 56q99 0 181.5 -37t134 -103.5t72.5 -158.5q10 -45 10 -94q0 -51 -11 -107q-28 -142 -115.5 -256.5t-211 -177.5t-256.5 -63q-123 0 -214 54.5t-126 151.5l-127 -651h-131zM387 481q-8 -41 -8 -79q0 -40 9 -77 q17 -72 59.5 -119.5t104 -74.5t132.5 -27q153 0 281 107t159 264q8 42 8 81q0 107 -62 187q-86 109 -239 109t-282.5 -104.5t-161.5 -266.5z" />
<glyph unicode="q" d="M190 477q42 215 211 357.5t371 142.5q122 0 214.5 -55t125.5 -152l37 186h131l-276 -1421h-132l127 649q-73 -96 -185.5 -150t-235.5 -54q-204 0 -317 141q-82 103 -82 245q0 53 11 111zM319 475q-8 -42 -8 -80q0 -105 63 -184q86 -107 238 -107q149 0 279.5 105 t163.5 272q8 41 8 79q0 62 -21 114q-34 86 -109.5 132t-174.5 46q-152 0 -280 -109t-159 -268z" />
<glyph unicode="r" horiz-adv-x="765" d="M164 0l186 956h133l-45 -233q57 122 146.5 188t201.5 66q93 0 146 -29l-49 -125q-61 27 -123 27q-66 0 -123.5 -28.5t-100 -75.5t-77 -111.5t-56.5 -132.5t-36 -142l-70 -360h-133z" />
<glyph unicode="s" horiz-adv-x="878" d="M133 258h121q0 -67 50 -114.5t147 -47.5q102 0 171 45.5t83 118.5q3 15 3 28q0 93 -126 126l-129 32q-201 51 -201 208q0 26 6 55q23 117 127.5 192.5t241.5 75.5q127 -1 205 -69q62 -55 63 -145q0 -22 -4 -46h-127q1 8 1 16q-1 52 -41 87q-46 40 -118 40 q-83 0 -143 -42.5t-74 -110.5q-3 -15 -3 -29q0 -42 26 -68q36 -36 96 -49l135 -35q123 -32 167 -104q31 -50 32 -111q0 -26 -6 -53q-24 -125 -140 -201.5t-268 -76.5q-85 0 -154 30q-70 31 -110 96q-33 53 -33 121q0 15 2 31z" />
<glyph unicode="t" horiz-adv-x="616" d="M219 844l23 112h174l73 381h129l-73 -381h219l-23 -112h-219l-164 -844h-129l164 844h-174z" />
<glyph unicode="u" horiz-adv-x="1165" d="M229 399l109 557h131l-109 -550q-8 -42 -8 -79q0 -81 42 -137q60 -80 179 -81q60 0 117.5 17.5t111 53.5t94 99.5t58.5 146.5l103 530h131l-187 -956h-131l33 168q-40 -64 -107 -108t-133.5 -62t-130.5 -18q-176 0 -259 112q-56 76 -56 190q0 54 12 117z" />
<glyph unicode="v" horiz-adv-x="1024" d="M229 956h140l172 -796l487 796h141l-591 -956h-136z" />
<glyph unicode="w" horiz-adv-x="1615" d="M225 956h142l131 -759l428 759h135l131 -757l428 757h139l-542 -956h-115l-146 782l-436 -782h-114z" />
<glyph unicode="x" horiz-adv-x="964" d="M25 0l483 526l-227 430h159l166 -321l291 321h160l-395 -428l278 -528h-158l-219 418l-383 -418h-155z" />
<glyph unicode="y" horiz-adv-x="1019" d="M152 -465l290 477l-211 944h142l174 -782l481 782h141l-878 -1421h-139z" />
<glyph unicode="z" horiz-adv-x="991" d="M84 0l18 102l766 729h-604l25 125h796l-20 -104l-772 -727h629l-23 -125h-815z" />
<glyph unicode="{" horiz-adv-x="735" d="M176 528l23 111q57 6 102.5 47t54.5 92l64 330q33 173 168.5 280t300.5 107h92l-23 -111h-63q-139 0 -232.5 -77t-117.5 -199l-62 -322q-13 -66 -62 -126t-118 -76q43 -8 70 -42t31 -76t-1 -85l-61 -322q-24 -122 38.5 -199t201.5 -77h63l-22 -111h-93 q-107 0 -186.5 46.5t-115 135.5t-11.5 205l64 330q9 51 -21 92t-84 47z" />
<glyph unicode="|" horiz-adv-x="483" d="M141 -252l369 1882h98l-368 -1882h-99z" />
<glyph unicode="}" horiz-adv-x="735" d="M-18 -328l22 111h62q141 0 233.5 76.5t116.5 199.5l61 322q12 67 62 129.5t120 73.5q-64 16 -89 75.5t-13 126.5l61 322q26 122 -37 199t-204 77h-64l23 111h94q107 0 187 -46.5t116 -135.5t12 -205l-63 -330q-11 -51 19.5 -92t84.5 -47l-22 -111q-57 -6 -103 -47 t-55 -92l-63 -330q-33 -173 -168.5 -280t-300.5 -107h-92z" />
<glyph unicode="~" horiz-adv-x="1398" d="M264 569q63 58 152 100t174 42q42 0 82 -9t61 -17t57.5 -26t45.5 -22q7 -3 41.5 -20.5t53.5 -25t56 -16t74 -8.5q60 0 133 34t131 81l41 -80q-65 -60 -153 -101.5t-173 -41.5q-42 0 -83 8.5t-61 16.5t-57.5 26.5t-45.5 21.5q-10 4 -43 20.5t-53 25t-56.5 16.5t-73.5 8 q-61 0 -133.5 -33t-130.5 -82z" />
<glyph unicode="&#xa1;" horiz-adv-x="475" d="M80 -465l215 1043h108l-192 -1043h-131zM305 881q7 41 43.5 68.5t79.5 27.5t68 -27.5t18 -68.5q-9 -42 -45.5 -70.5t-79.5 -28.5t-68 28.5t-16 70.5z" />
<glyph unicode="&#xa2;" horiz-adv-x="1044" d="M193 479q40 203 190.5 337t341.5 157l43 211h98l-41 -207q183 -12 289 -131l-100 -90q-86 96 -240 96q-160 0 -288.5 -103.5t-161.5 -269.5q-32 -164 57.5 -268.5t249.5 -104.5q152 0 274 95l66 -88q-150 -119 -338 -131l-45 -224h-99l46 228q-184 23 -283 156.5 t-59 336.5z" />
<glyph unicode="&#xa3;" horiz-adv-x="1261" d="M86 0l23 125h196l76 383h-164l19 94h161l68 342q38 194 180.5 305t312.5 111q163 0 255 -106.5t63 -280.5h-131q17 119 -43.5 192.5t-179.5 73.5q-109 0 -204 -80.5t-122 -214.5l-68 -342h287l-18 -94h-285l-76 -383h553q34 0 59 21.5t31 56.5l19 98h129l-19 -94 q-18 -91 -75 -149t-138 -58h-909z" />
<glyph unicode="&#xa4;" horiz-adv-x="1208" d="M203 322l176 147q-56 102 -31 229q26 135 125 234l-121 151l97 82l122 -151q113 73 238 73q135 0 219 -75l182 153l68 -82l-184 -153q57 -107 32 -234q-23 -117 -118 -223l120 -154l-98 -81l-123 153q-118 -80 -248 -80q-123 0 -215 76l-176 -147zM473 700 q-22 -109 40.5 -186.5t172.5 -77.5q107 0 200 77.5t115 186.5q22 107 -41.5 185t-171.5 78q-107 0 -200 -78t-115 -185z" />
<glyph unicode="&#xa5;" horiz-adv-x="1325" d="M289 272l18 101h357l36 194h-356l23 101h352l-383 743h160l321 -616l561 616h162l-676 -743h355l-23 -101h-358l-37 -194h358l-18 -101h-359l-53 -272h-137l53 272h-356z" />
<glyph unicode="&#xa6;" horiz-adv-x="493" d="M147 -252l150 766h98l-149 -766h-99zM367 860l149 770h98l-149 -770h-98z" />
<glyph unicode="&#xa7;" horiz-adv-x="1024" d="M129 -6l127 39q20 -74 78.5 -116t140.5 -42q112 0 203.5 73t114.5 191l59 310q23 118 -40 190t-175 72q-61 0 -125 -23l27 131q74 19 123 19q165 0 258 -107t59 -282l-59 -310q-23 -116 -94.5 -205.5t-169.5 -136.5t-205 -47q-123 0 -211 65t-111 179zM270 715l60 311 q33 174 168.5 281.5t300.5 107.5q123 0 210.5 -65.5t110.5 -178.5l-127 -38q-20 73 -78.5 114t-140.5 41q-112 0 -203 -72.5t-114 -189.5l-60 -311q-23 -118 39 -190t174 -72q65 0 129 22l-26 -129q-61 -18 -125 -18q-80 0 -146 27.5t-110 76.5t-61 122.5t-1 160.5z" />
<glyph unicode="&#xa8;" horiz-adv-x="1036" d="M496 1282q7 40 41 67t75 27q42 0 65.5 -26.5t16.5 -67.5q-7 -39 -42 -65.5t-77 -26.5q-40 0 -63 26.5t-16 65.5zM842 1282q7 40 41 67t75 27q42 0 65.5 -26.5t16.5 -67.5q-7 -39 -41.5 -65.5t-76.5 -26.5q-40 0 -63.5 26.5t-16.5 65.5z" />
<glyph unicode="&#xa9;" horiz-adv-x="1644" d="M242 702q38 197 165.5 363.5t311 264t379.5 97.5t342 -97.5t208.5 -264t24.5 -363.5q-38 -196 -166 -362.5t-312 -263t-380 -96.5q-147 0 -268.5 57t-197.5 154t-106 230.5t-1 280.5zM338 702q-33 -169 21.5 -313t181 -227.5t295.5 -83.5q127 0 251 49.5t222.5 133 t169.5 199t96 242.5q33 169 -21.5 313.5t-181 229t-295.5 84.5t-327.5 -84.5t-268 -228.5t-143.5 -314zM606 696q29 153 153.5 260t276.5 107q144 0 236 -115l-88 -74q-29 39 -75 61.5t-95 22.5q-107 0 -194 -76t-109 -186q-22 -108 36.5 -185t165.5 -77q95 0 205 88l53 -80 q-138 -112 -278 -112q-151 0 -233.5 107t-53.5 259z" />
<glyph unicode="&#xaa;" horiz-adv-x="1116" d="M264 473l21 107h762l-21 -107h-762zM354 1108q35 172 169.5 285.5t295.5 113.5q96 0 171 -44t102 -122l26 148h119l-147 -764h-119l28 149q-59 -78 -150 -121.5t-185 -43.5q-161 0 -252 113.5t-58 285.5zM475 1108q-23 -120 43 -203.5t182 -83.5q119 0 218.5 80 t123.5 203q24 127 -44.5 208t-186.5 81q-117 0 -215 -82.5t-121 -202.5z" />
<glyph unicode="&#xab;" horiz-adv-x="915" d="M190 477l365 424h129l-365 -424l201 -424h-129zM494 477l364 424h129l-364 -424l202 -424h-131z" />
<glyph unicode="&#xac;" horiz-adv-x="1310" d="M270 584l25 127h993l-88 -455h-127l64 328h-867z" />
<glyph unicode="&#xad;" horiz-adv-x="978" d="M225 408l25 127h688l-25 -127h-688z" />
<glyph unicode="&#xae;" horiz-adv-x="1644" d="M242 702q38 197 165.5 363.5t311 264t379.5 97.5t342 -97.5t208.5 -264t24.5 -363.5q-38 -196 -166 -362.5t-312 -263t-380 -96.5q-147 0 -268.5 57t-197.5 154t-106 230.5t-1 280.5zM338 702q-33 -169 21.5 -313t181 -227.5t295.5 -83.5q127 0 251 49.5t222.5 133 t169.5 199t96 242.5q33 169 -21.5 313.5t-181 229t-295.5 84.5t-327.5 -84.5t-268 -228.5t-143.5 -314zM653 338l140 721h274q112 0 156.5 -66.5t25.5 -163.5q-40 -196 -217 -231l129 -260h-114l-125 254h-115l-49 -254h-105zM825 686h164q67 0 108.5 40t51.5 97t-15.5 98.5 t-91.5 41.5h-165z" />
<glyph unicode="&#xaf;" horiz-adv-x="987" d="M483 1217l23 116h495l-22 -116h-496z" />
<glyph unicode="&#xb0;" horiz-adv-x="710" d="M334 1176q20 104 108.5 177.5t192.5 73.5q103 0 162 -73.5t39 -177.5q-20 -103 -108 -176.5t-191 -73.5q-104 0 -163.5 73.5t-39.5 176.5zM428 1176q-12 -63 24.5 -109.5t100.5 -46.5q63 0 119.5 46.5t68.5 109.5q12 64 -26 110.5t-101 46.5q-64 0 -119 -46t-67 -111z " />
<glyph unicode="&#xb1;" horiz-adv-x="1085" d="M133 0l23 121h817l-23 -121h-817zM236 539l26 127h344l62 311h129l-62 -311h344l-26 -127h-344l-62 -318h-129l62 318h-344z" />
<glyph unicode="&#xb2;" horiz-adv-x="638" d="M285 1073l12 62l383 368q58 61 68 113q9 47 -20 77.5t-83 30.5q-104 0 -153 -110l-101 16q36 93 110 146t173 53q103 0 155 -59t33 -156q-19 -101 -112 -187l-267 -249h301l-20 -105h-479z" />
<glyph unicode="&#xb3;" horiz-adv-x="653" d="M291 1186l86 63q43 -84 139 -84q74 0 128.5 35.5t64.5 93.5q10 57 -23 93t-96 36h-74l16 84h50q62 0 103.5 33t49.5 84q6 46 -23 74t-85 28q-42 0 -86 -20t-72 -51l-47 71q110 103 240 103q100 0 152.5 -55t35.5 -146q-19 -97 -129 -151q59 -21 87 -72.5t15 -122.5 q-20 -97 -109.5 -158t-209.5 -61q-77 0 -132.5 32.5t-80.5 90.5z" />
<glyph unicode="&#xb4;" horiz-adv-x="966" d="M481 1120l258 314h158l-289 -314h-127z" />
<glyph unicode="&#xb5;" horiz-adv-x="1198" d="M131 -299l246 1255h131l-111 -557q-26 -132 28.5 -210t168.5 -78q59 0 114.5 17.5t106.5 53t89 98t54 144.5l105 532h131l-186 -956h-131l30 158q-56 -89 -149.5 -132.5t-188.5 -43.5q-81 0 -142 27.5t-89 82.5l-78 -391h-129z" />
<glyph unicode="&#xb6;" horiz-adv-x="1255" d="M264 975q23 119 100.5 219.5t189 158.5t230.5 58h129l-301 -1540h-120l131 666q-184 6 -289 133t-70 305zM446 -356l21 114h139q57 0 94 39t48 97l296 1517h154q109 0 172 -78t41 -188l-31 -154h-120l30 154q11 58 -19.5 100.5t-86.5 42.5h-41l-271 -1386 q-21 -105 -94 -180t-172 -78h-160z" />
<glyph unicode="&#xb7;" horiz-adv-x="497" d="M242 500q7 41 44 69.5t79 28.5q43 0 67 -28.5t17 -69.5q-9 -42 -45.5 -70.5t-79.5 -28.5q-42 0 -66.5 28.5t-15.5 70.5z" />
<glyph unicode="&#xb8;" horiz-adv-x="1048" d="M289 -197h96q-6 -54 15.5 -85t64.5 -31q44 0 76 27t39 71q4 26 2 43l-41 215h94l41 -178q9 -36 2 -82q-17 -86 -81.5 -139.5t-150.5 -53.5q-90 0 -133 58.5t-24 154.5z" />
<glyph unicode="&#xb9;" horiz-adv-x="462" d="M369 1606l20 104l297 119h12l-145 -756h-111l117 604z" />
<glyph unicode="&#xba;" horiz-adv-x="1093" d="M260 473l21 107h761l-20 -107h-762zM358 1110q23 118 96.5 209.5t174.5 139.5t211 48q168 0 263.5 -110t61.5 -287q-36 -178 -174.5 -289.5t-306.5 -111.5q-169 0 -265.5 111.5t-60.5 289.5zM481 1110q-26 -128 40 -208.5t186 -80.5t218 80.5t124 208.5q26 127 -42.5 206 t-189.5 79q-120 0 -215 -78.5t-121 -206.5z" />
<glyph unicode="&#xbb;" horiz-adv-x="915" d="M113 53l364 424l-198 424h129l198 -424l-364 -424h-129zM416 53l364 424l-198 424h129l198 -424l-364 -424h-129z" />
<glyph unicode="&#xbc;" horiz-adv-x="1482" d="M119 -20l1194 1394h110l-1194 -1394h-110zM276 1135l21 104l297 119h10l-145 -754h-111l119 602zM844 147l6 37l512 561h82l-96 -497h120l-18 -101h-121l-29 -147h-112l29 147h-373zM1016 248h219l59 309z" />
<glyph unicode="&#xbd;" horiz-adv-x="1470" d="M119 -20l1194 1394h110l-1194 -1394h-110zM276 1135l21 104l297 119h10l-145 -754h-111l119 602zM907 0l11 61l380 369q64 61 72 111q9 49 -20.5 79.5t-83.5 30.5q-104 0 -154 -112l-100 18q38 92 110.5 145.5t169.5 53.5q104 0 156 -60t33 -157q-19 -99 -111 -185 l-268 -250h301l-19 -104h-477z" />
<glyph unicode="&#xbe;" horiz-adv-x="1673" d="M199 715l86 63q43 -84 141 -84q74 0 127 35.5t63 93.5t-22.5 93.5t-95.5 35.5h-74l16 86h49q62 0 105 33t51 82q6 46 -23.5 74t-86.5 28q-43 0 -86 -19.5t-72 -51.5l-47 71q110 103 239 103q100 0 154.5 -55t36.5 -146q-9 -45 -44 -85.5t-85 -65.5q58 -22 85.5 -73 t14.5 -120q-20 -98 -109 -158.5t-210 -60.5q-77 0 -132 31.5t-81 89.5zM309 -20l1194 1394h111l-1194 -1394h-111zM1034 147l8 37l512 561h82l-98 -497h121l-19 -101h-120l-29 -147h-113l29 147h-373zM1206 248h219l60 309z" />
<glyph unicode="&#xbf;" horiz-adv-x="940" d="M49 -88q26 139 129 239.5t236 139.5q47 13 76.5 25t59.5 33t48 53t27 77l24 113h127l-22 -113q-17 -83 -52 -140.5t-79.5 -88.5t-108.5 -53l-88 -31q-91 -28 -159 -94t-87 -160q-24 -121 39.5 -193.5t177.5 -72.5q109 0 204 71.5t126 192.5h127q-42 -175 -179.5 -281 t-301.5 -106q-166 0 -261.5 107.5t-62.5 281.5zM666 881q7 41 43 68.5t79 27.5t68 -27.5t18 -68.5q-9 -43 -44 -71t-78 -28q-44 0 -69.5 28.5t-16.5 70.5z" />
<glyph unicode="&#xc0;" horiz-adv-x="1247" d="M14 0l813 1411h144l262 -1411h-141l-70 375h-651l-213 -375h-144zM442 496h557l-135 735zM698 1866h160l135 -314h-127z" />
<glyph unicode="&#xc1;" horiz-adv-x="1247" d="M14 0l813 1411h144l262 -1411h-141l-70 375h-651l-213 -375h-144zM442 496h557l-135 735zM870 1552l258 314h158l-289 -314h-127z" />
<glyph unicode="&#xc2;" horiz-adv-x="1247" d="M14 0l813 1411h144l262 -1411h-141l-70 375h-651l-213 -375h-144zM442 496h557l-135 735zM627 1552l288 314h142l170 -314h-121l-139 213l-219 -213h-121z" />
<glyph unicode="&#xc3;" horiz-adv-x="1247" d="M14 0l813 1411h144l262 -1411h-141l-70 375h-651l-213 -375h-144zM442 496h557l-135 735zM676 1595q25 101 81 152t120 51q32 0 59.5 -15t42 -33t33.5 -33t37 -15q26 0 50.5 23t35.5 69h96q-26 -101 -82.5 -151t-120.5 -50q-26 0 -48 10t-36.5 24.5t-28 28.5t-28.5 24 t-31 10q-24 0 -48.5 -25.5t-35.5 -69.5h-96z" />
<glyph unicode="&#xc4;" horiz-adv-x="1247" d="M14 0l813 1411h144l262 -1411h-141l-70 375h-651l-213 -375h-144zM442 496h557l-135 735zM682 1706q7 40 41.5 67t75.5 27q42 0 65.5 -26.5t16.5 -67.5q-7 -39 -42 -65.5t-77 -26.5q-40 0 -63.5 26.5t-16.5 65.5zM1028 1706q7 40 41.5 67t75.5 27q42 0 65.5 -26.5 t16.5 -67.5q-7 -39 -42 -65.5t-77 -26.5q-40 0 -63.5 26.5t-16.5 65.5z" />
<glyph unicode="&#xc5;" horiz-adv-x="1247" d="M14 0l813 1411h144l262 -1411h-141l-70 375h-651l-213 -375h-144zM442 496h557l-135 735zM768 1753q17 82 84.5 139.5t146.5 57.5q83 0 130 -57.5t30 -139.5t-84.5 -138t-150.5 -56q-80 0 -126.5 56.5t-29.5 137.5zM854 1753q-9 -45 16 -76.5t70 -31.5q47 0 85.5 31 t47.5 77t-17 78.5t-73 32.5q-44 0 -82 -32.5t-47 -78.5z" />
<glyph unicode="&#xc6;" horiz-adv-x="1894" d="M-33 0l1147 1411h924l-25 -127h-667l-103 -528h584l-25 -127h-583l-99 -502h692l-24 -127h-825l71 375h-610l-303 -375h-154zM530 504h531l151 778h-47z" />
<glyph unicode="&#xc7;" horiz-adv-x="1388" d="M242 702q29 147 110.5 281t195 230.5t256.5 154t288 57.5q147 0 265 -56.5t191 -156.5l-112 -86q-61 81 -156.5 126.5t-212.5 45.5q-158 0 -306 -80t-250.5 -217t-133.5 -299q-17 -99 -7.5 -188t49 -163.5t98.5 -129t141.5 -85t177.5 -30.5q233 0 434 173l80 -86 q-104 -94 -235 -149.5t-267 -61.5l26 -117q9 -54 5 -82q-17 -86 -82 -139.5t-152 -53.5q-90 0 -132.5 58.5t-25.5 154.5h97q-6 -54 15.5 -85t64.5 -31q44 0 76.5 27t39.5 71q3 20 0 43l-28 154q-178 15 -307.5 114.5t-184 259.5t-18.5 346z" />
<glyph unicode="&#xc8;" horiz-adv-x="1142" d="M209 0l274 1411h805l-24 -127h-672l-103 -528h586l-24 -127h-586l-98 -502h694l-25 -127h-827zM649 1866h160l135 -314h-127z" />
<glyph unicode="&#xc9;" horiz-adv-x="1142" d="M209 0l274 1411h805l-24 -127h-672l-103 -528h586l-24 -127h-586l-98 -502h694l-25 -127h-827zM821 1552l258 314h158l-289 -314h-127z" />
<glyph unicode="&#xca;" horiz-adv-x="1142" d="M209 0l274 1411h805l-24 -127h-672l-103 -528h586l-24 -127h-586l-98 -502h694l-25 -127h-827zM578 1552l288 314h142l170 -314h-121l-139 213l-220 -213h-120z" />
<glyph unicode="&#xcb;" horiz-adv-x="1142" d="M209 0l274 1411h805l-24 -127h-672l-103 -528h586l-24 -127h-586l-98 -502h694l-25 -127h-827zM633 1706q7 40 41.5 67t75.5 27q42 0 65 -26.5t16 -67.5q-7 -39 -41.5 -65.5t-76.5 -26.5q-40 0 -63.5 26.5t-16.5 65.5zM979 1706q7 40 41.5 67t75.5 27q42 0 65.5 -26.5 t16.5 -67.5q-7 -39 -42 -65.5t-77 -26.5q-40 0 -63.5 26.5t-16.5 65.5z" />
<glyph unicode="&#xcc;" horiz-adv-x="550" d="M209 0l274 1411h135l-274 -1411h-135zM350 1866h160l135 -314h-127z" />
<glyph unicode="&#xcd;" horiz-adv-x="550" d="M209 0l274 1411h135l-274 -1411h-135zM522 1552l258 314h158l-289 -314h-127z" />
<glyph unicode="&#xce;" horiz-adv-x="550" d="M209 0l274 1411h135l-274 -1411h-135zM279 1552l288 314h142l170 -314h-121l-140 213l-219 -213h-120z" />
<glyph unicode="&#xcf;" horiz-adv-x="550" d="M209 0l274 1411h135l-274 -1411h-135zM334 1706q7 40 41.5 67t75.5 27q42 0 65 -26.5t16 -67.5q-7 -39 -41.5 -65.5t-76.5 -26.5q-40 0 -63.5 26.5t-16.5 65.5zM680 1706q7 40 41.5 67t75.5 27q42 0 65.5 -26.5t16.5 -67.5q-7 -39 -42 -65.5t-77 -26.5q-40 0 -63.5 26.5 t-16.5 65.5z" />
<glyph unicode="&#xd0;" horiz-adv-x="1495" d="M180 649l21 105h159l129 657h537q194 0 320 -94t167.5 -253.5t2.5 -361.5q-29 -150 -96.5 -278t-164.5 -222.5t-227 -148t-276 -53.5h-537l125 649h-160zM373 127h401q117 0 220 44t179.5 121.5t129.5 182t77 227.5q26 123 12 229.5t-58.5 184.5t-130 123t-202.5 45h-401 l-104 -530h391l-21 -105h-391z" />
<glyph unicode="&#xd1;" horiz-adv-x="1413" d="M209 0l274 1411h142l491 -1173l230 1173h135l-275 -1411h-139l-494 1176l-229 -1176h-135zM758 1595q25 101 80.5 152t119.5 51q32 0 59.5 -15t42 -33t33.5 -33t37 -15q26 0 51 23t36 69h96q-26 -101 -82.5 -151t-120.5 -50q-26 0 -48 10t-36.5 24.5t-28 28.5t-28.5 24 t-31 10q-24 0 -48.5 -25.5t-35.5 -69.5h-96z" />
<glyph unicode="&#xd2;" horiz-adv-x="1640" d="M233 473.5q-12 107.5 9 228.5q29 148 110.5 282t195 231t257 154.5t291.5 57.5q197 0 342 -97t206 -263.5t23 -364.5q-29 -147 -110.5 -280.5t-195 -230.5t-257 -154t-291.5 -57q-118 0 -220.5 37t-176 102.5t-122.5 156t-61 198zM377 702q-31 -162 18.5 -299t167 -217 t277.5 -80t308.5 80t250.5 217t133 299t-18.5 299.5t-167 218t-277.5 80.5t-308.5 -80.5t-250.5 -218t-133 -299.5zM895 1866h160l133 -314h-127z" />
<glyph unicode="&#xd3;" horiz-adv-x="1640" d="M233 473.5q-12 107.5 9 228.5q29 148 110.5 282t195 231t257 154.5t291.5 57.5q197 0 342 -97t206 -263.5t23 -364.5q-29 -147 -110.5 -280.5t-195 -230.5t-257 -154t-291.5 -57q-118 0 -220.5 37t-176 102.5t-122.5 156t-61 198zM377 702q-31 -162 18.5 -299t167 -217 t277.5 -80t308.5 80t250.5 217t133 299t-18.5 299.5t-167 218t-277.5 80.5t-308.5 -80.5t-250.5 -218t-133 -299.5zM1065 1552l260 314h158l-291 -314h-127z" />
<glyph unicode="&#xd4;" horiz-adv-x="1640" d="M233 473.5q-12 107.5 9 228.5q29 148 110.5 282t195 231t257 154.5t291.5 57.5q197 0 342 -97t206 -263.5t23 -364.5q-29 -147 -110.5 -280.5t-195 -230.5t-257 -154t-291.5 -57q-118 0 -220.5 37t-176 102.5t-122.5 156t-61 198zM377 702q-31 -162 18.5 -299t167 -217 t277.5 -80t308.5 80t250.5 217t133 299t-18.5 299.5t-167 218t-277.5 80.5t-308.5 -80.5t-250.5 -218t-133 -299.5zM821 1552l291 314h141l168 -314h-121l-137 213l-221 -213h-121z" />
<glyph unicode="&#xd5;" horiz-adv-x="1640" d="M233 473.5q-12 107.5 9 228.5q29 148 110.5 282t195 231t257 154.5t291.5 57.5q197 0 342 -97t206 -263.5t23 -364.5q-29 -147 -110.5 -280.5t-195 -230.5t-257 -154t-291.5 -57q-118 0 -220.5 37t-176 102.5t-122.5 156t-61 198zM377 702q-31 -162 18.5 -299t167 -217 t277.5 -80t308.5 80t250.5 217t133 299t-18.5 299.5t-167 218t-277.5 80.5t-308.5 -80.5t-250.5 -218t-133 -299.5zM872 1595q25 101 80 152t119 51q32 0 59.5 -15t43 -33t34.5 -33t37 -15q26 0 50 23t34 69h96q-25 -101 -80.5 -151t-119.5 -50q-32 0 -58.5 15t-41.5 33.5 t-35 33.5t-39 15q-24 0 -48 -25.5t-34 -69.5h-97z" />
<glyph unicode="&#xd6;" horiz-adv-x="1640" d="M233 473.5q-12 107.5 9 228.5q29 148 110.5 282t195 231t257 154.5t291.5 57.5q197 0 342 -97t206 -263.5t23 -364.5q-29 -147 -110.5 -280.5t-195 -230.5t-257 -154t-291.5 -57q-118 0 -220.5 37t-176 102.5t-122.5 156t-61 198zM377 702q-31 -162 18.5 -299t167 -217 t277.5 -80t308.5 80t250.5 217t133 299t-18.5 299.5t-167 218t-277.5 80.5t-308.5 -80.5t-250.5 -218t-133 -299.5zM879 1706q7 41 40.5 67.5t73.5 26.5q42 0 66.5 -26.5t17.5 -67.5q-7 -39 -42 -65.5t-77 -26.5q-40 0 -63 26.5t-16 65.5zM1225 1706q7 41 40.5 67.5 t73.5 26.5q42 0 66.5 -26.5t17.5 -67.5q-7 -39 -41.5 -65.5t-76.5 -26.5q-40 0 -63.5 26.5t-16.5 65.5z" />
<glyph unicode="&#xd7;" horiz-adv-x="962" d="M190 299l308 258l-205 256l106 88l207 -254l307 258l72 -92l-307 -256l209 -258l-107 -92l-209 260l-309 -256z" />
<glyph unicode="&#xd8;" horiz-adv-x="1650" d="M123 49l207 176q-134 206 -82 477q39 198 166 364.5t310 263.5t380 97q133 0 244.5 -45.5t189.5 -128.5l207 177l61 -70l-213 -180q64 -97 85.5 -218.5t-3.5 -259.5q-29 -147 -110.5 -280.5t-195 -230.5t-257 -154t-291.5 -57q-132 0 -243 45.5t-189 126.5l-207 -177z M383 702q-43 -215 59 -380l985 837q-135 141 -350 141q-160 0 -309 -80.5t-251.5 -218t-133.5 -299.5zM498 246q137 -140 350 -140q160 0 308 80t249.5 217t132.5 299q43 216 -55 383z" />
<glyph unicode="&#xd9;" horiz-adv-x="1388" d="M283 475l182 936h135l-182 -936q-34 -171 52.5 -268.5t244.5 -97.5q157 0 281.5 97.5t158.5 268.5l182 936h136l-183 -936q-22 -113 -80.5 -207.5t-140 -156.5t-179.5 -96.5t-200 -34.5t-186.5 34.5t-141 96.5t-79 156.5t-0.5 207.5zM770 1866h160l133 -314h-127z" />
<glyph unicode="&#xda;" horiz-adv-x="1388" d="M283 475l182 936h135l-182 -936q-34 -171 52.5 -268.5t244.5 -97.5q157 0 281.5 97.5t158.5 268.5l182 936h136l-183 -936q-22 -113 -80.5 -207.5t-140 -156.5t-179.5 -96.5t-200 -34.5t-186.5 34.5t-141 96.5t-79 156.5t-0.5 207.5zM940 1552l260 314h158l-291 -314 h-127z" />
<glyph unicode="&#xdb;" horiz-adv-x="1388" d="M283 475l182 936h135l-182 -936q-34 -171 52.5 -268.5t244.5 -97.5q157 0 281.5 97.5t158.5 268.5l182 936h136l-183 -936q-22 -113 -80.5 -207.5t-140 -156.5t-179.5 -96.5t-200 -34.5t-186.5 34.5t-141 96.5t-79 156.5t-0.5 207.5zM696 1552l291 314h141l168 -314h-120 l-140 213l-219 -213h-121z" />
<glyph unicode="&#xdc;" horiz-adv-x="1388" d="M283 475l182 936h135l-182 -936q-34 -171 52.5 -268.5t244.5 -97.5q157 0 281.5 97.5t158.5 268.5l182 936h136l-183 -936q-22 -113 -80.5 -207.5t-140 -156.5t-179.5 -96.5t-200 -34.5t-186.5 34.5t-141 96.5t-79 156.5t-0.5 207.5zM754 1706q7 41 40.5 67.5t73.5 26.5 q42 0 66.5 -26.5t17.5 -67.5q-7 -39 -41.5 -65.5t-76.5 -26.5q-40 0 -63.5 26.5t-16.5 65.5zM1100 1706q7 41 40.5 67.5t73.5 26.5q42 0 66.5 -26.5t17.5 -67.5q-7 -39 -41.5 -65.5t-76.5 -26.5q-40 0 -63.5 26.5t-16.5 65.5z" />
<glyph unicode="&#xdd;" horiz-adv-x="1232" d="M291 1411h160l319 -618l563 618h162l-686 -749l-127 -662h-135l127 662zM862 1552l258 314h158l-289 -314h-127z" />
<glyph unicode="&#xde;" horiz-adv-x="1189" d="M209 0l274 1411h135l-55 -278h332q179 0 277 -116.5t61 -305.5q-38 -192 -181 -311t-321 -119h-332l-55 -281h-135zM424 408h334q122 0 220 85t124 218t-43.5 214t-194.5 81h-325z" />
<glyph unicode="&#xdf;" horiz-adv-x="1187" d="M164 0l205 1053q42 217 175.5 335.5t323.5 118.5q180 0 266 -100.5t56 -251.5q-19 -96 -79.5 -179t-143.5 -122q122 -38 179.5 -154t29.5 -262q-39 -197 -196.5 -327.5t-371.5 -130.5q-96 -3 -186 36l53 115q76 -29 160 -29q156 0 269 97.5t143 249.5q26 143 -53.5 239 t-227.5 96h-72l23 113h61q101 0 179.5 71t99.5 175t-35 171.5t-176 67.5q-133 0 -223.5 -84t-122.5 -245l-205 -1053h-131z" />
<glyph unicode="&#xe0;" d="M190 479q28 142 115.5 257t210.5 178t256 63q123 0 215 -54.5t127 -150.5l35 184h131l-184 -956h-131l34 186q-72 -97 -185.5 -151.5t-235.5 -54.5q-132 0 -230.5 63.5t-142 178.5t-15.5 257zM322 481q-31 -159 54 -268t236 -109q100 0 193.5 46t162 132t89.5 193 q32 167 -59 272t-240 105q-152 0 -278.5 -107t-157.5 -264zM614 1411h160l131 -313h-127z" />
<glyph unicode="&#xe1;" d="M190 479q28 142 115.5 257t210.5 178t256 63q123 0 215 -54.5t127 -150.5l35 184h131l-184 -956h-131l34 186q-72 -97 -185.5 -151.5t-235.5 -54.5q-132 0 -230.5 63.5t-142 178.5t-15.5 257zM322 481q-31 -159 54 -268t236 -109q100 0 193.5 46t162 132t89.5 193 q32 167 -59 272t-240 105q-152 0 -278.5 -107t-157.5 -264zM782 1098l262 313h158l-293 -313h-127z" />
<glyph unicode="&#xe2;" d="M190 479q28 142 115.5 257t210.5 178t256 63q123 0 215 -54.5t127 -150.5l35 184h131l-184 -956h-131l34 186q-72 -97 -185.5 -151.5t-235.5 -54.5q-132 0 -230.5 63.5t-142 178.5t-15.5 257zM322 481q-31 -159 54 -268t236 -109q100 0 193.5 46t162 132t89.5 193 q32 167 -59 272t-240 105q-152 0 -278.5 -107t-157.5 -264zM539 1098l292 313h142l166 -313h-121l-137 213l-222 -213h-120z" />
<glyph unicode="&#xe3;" d="M190 479q28 142 115.5 257t210.5 178t256 63q123 0 215 -54.5t127 -150.5l35 184h131l-184 -956h-131l34 186q-72 -97 -185.5 -151.5t-235.5 -54.5q-132 0 -230.5 63.5t-142 178.5t-15.5 257zM322 481q-31 -159 54 -268t236 -109q100 0 193.5 46t162 132t89.5 193 q32 167 -59 272t-240 105q-152 0 -278.5 -107t-157.5 -264zM592 1141q25 101 80 151.5t119 50.5q32 0 59.5 -15t43 -33t34.5 -33t37 -15q26 0 50 23t34 69h96q-26 -101 -81.5 -150.5t-119.5 -49.5q-32 0 -58.5 15t-41.5 33t-35 33t-39 15q-24 0 -49 -25t-33 -69h-96z" />
<glyph unicode="&#xe4;" d="M190 479q28 142 115.5 257t210.5 178t256 63q123 0 215 -54.5t127 -150.5l35 184h131l-184 -956h-131l34 186q-72 -97 -185.5 -151.5t-235.5 -54.5q-132 0 -230.5 63.5t-142 178.5t-15.5 257zM322 481q-31 -159 54 -268t236 -109q100 0 193.5 46t162 132t89.5 193 q32 167 -59 272t-240 105q-152 0 -278.5 -107t-157.5 -264zM596 1251q7 40 41.5 67.5t75.5 27.5q42 0 65.5 -27t16.5 -68q-7 -39 -41 -65.5t-76 -26.5q-40 0 -64.5 26.5t-17.5 65.5zM942 1251q7 40 41.5 67.5t75.5 27.5q42 0 65.5 -27t16.5 -68q-7 -39 -41 -65.5t-76 -26.5 q-40 0 -64.5 26.5t-17.5 65.5z" />
<glyph unicode="&#xe5;" d="M190 479q28 142 115.5 257t210.5 178t256 63q123 0 215 -54.5t127 -150.5l35 184h131l-184 -956h-131l34 186q-72 -97 -185.5 -151.5t-235.5 -54.5q-132 0 -230.5 63.5t-142 178.5t-15.5 257zM322 481q-31 -159 54 -268t236 -109q100 0 193.5 46t162 132t89.5 193 q32 167 -59 272t-240 105q-152 0 -278.5 -107t-157.5 -264zM684 1298q17 82 84.5 139.5t146.5 57.5q83 0 130 -57.5t30 -139.5t-85.5 -138t-151.5 -56q-80 0 -125.5 56.5t-28.5 137.5zM770 1298q-9 -46 15.5 -77t68.5 -31q47 0 86.5 31t48.5 77t-17 78.5t-73 32.5 q-44 0 -82 -32.5t-47 -78.5z" />
<glyph unicode="&#xe6;" horiz-adv-x="1867" d="M133 262q26 129 142 211t294 82q90 0 182 -21t160 -57l21 105q27 135 -40 203.5t-210 68.5q-177 0 -320 -119l-65 82q88 88 199 124t219 36q143 0 230.5 -50.5t113.5 -148.5q83 95 197 147t239 52q101 0 181 -35t130 -99.5t68.5 -156t-4.5 -205.5q-2 -9 -7.5 -28.5 t-7.5 -28.5h-823q-10 -145 71.5 -232.5t223.5 -87.5q99 0 191 43.5t151 120.5l107 -49q-85 -114 -212 -176.5t-264 -62.5q-133 0 -232 61t-142 170q-237 -231 -502 -231q-155 0 -235.5 76.5t-55.5 205.5zM258 266q-14 -74 36.5 -121t151.5 -47q110 0 241.5 63t207.5 154 l-4 52q-71 39 -162.5 59t-171.5 20q-128 0 -207 -53t-92 -127zM1057 537h692q15 147 -62 231t-217 84q-153 0 -259.5 -84.5t-153.5 -230.5z" />
<glyph unicode="&#xe7;" horiz-adv-x="1026" d="M189.5 276q-21.5 91 0.5 203q29 147 121 262t218.5 175.5t263.5 60.5q101 0 183 -35t134 -96l-98 -90q-86 96 -240 96q-160 0 -288.5 -103.5t-161.5 -269.5q-32 -164 57.5 -268.5t249.5 -104.5q148 0 274 95l66 -88q-134 -105 -289 -125l29 -123q9 -51 4 -82 q-17 -86 -82 -139.5t-152 -53.5q-90 0 -133 58.5t-24 154.5h96q-6 -54 15.5 -85t64.5 -31q44 0 75 27t39 71q4 26 2 43l-28 154q-100 2 -182.5 38t-137.5 100.5t-76.5 155.5z" />
<glyph unicode="&#xe8;" horiz-adv-x="1148" d="M190 481q43 222 210 359t374 137t313 -136t62 -360q-10 -45 -14 -57h-824q-12 -151 69 -235.5t228 -84.5q99 0 190 43.5t152 120.5l105 -49q-85 -114 -211.5 -176.5t-263.5 -62.5q-207 0 -320 139t-70 362zM336 537h694q15 147 -62 231t-218 84q-144 0 -256 -82.5 t-158 -232.5zM555 1411h160l133 -313h-127z" />
<glyph unicode="&#xe9;" horiz-adv-x="1148" d="M190 481q43 222 210 359t374 137t313 -136t62 -360q-10 -45 -14 -57h-824q-12 -151 69 -235.5t228 -84.5q99 0 190 43.5t152 120.5l105 -49q-85 -114 -211.5 -176.5t-263.5 -62.5q-207 0 -320 139t-70 362zM336 537h694q15 147 -62 231t-218 84q-144 0 -256 -82.5 t-158 -232.5zM725 1098l260 313h158l-291 -313h-127z" />
<glyph unicode="&#xea;" horiz-adv-x="1148" d="M190 481q43 222 210 359t374 137t313 -136t62 -360q-10 -45 -14 -57h-824q-12 -151 69 -235.5t228 -84.5q99 0 190 43.5t152 120.5l105 -49q-85 -114 -211.5 -176.5t-263.5 -62.5q-207 0 -320 139t-70 362zM336 537h694q15 147 -62 231t-218 84q-144 0 -256 -82.5 t-158 -232.5zM481 1098l291 313h141l168 -313h-120l-138 213l-221 -213h-121z" />
<glyph unicode="&#xeb;" horiz-adv-x="1148" d="M190 481q43 222 210 359t374 137t313 -136t62 -360q-10 -45 -14 -57h-824q-12 -151 69 -235.5t228 -84.5q99 0 190 43.5t152 120.5l105 -49q-85 -114 -211.5 -176.5t-263.5 -62.5q-207 0 -320 139t-70 362zM336 537h694q15 147 -62 231t-218 84q-144 0 -256 -82.5 t-158 -232.5zM539 1251q7 41 41.5 68t74.5 27q42 0 65.5 -27t16.5 -68q-7 -39 -40.5 -65.5t-75.5 -26.5q-40 0 -64.5 26.5t-17.5 65.5zM885 1251q7 41 41.5 68t74.5 27q42 0 65.5 -27t16.5 -68q-7 -39 -40.5 -65.5t-75.5 -26.5q-40 0 -64.5 26.5t-17.5 65.5z" />
<glyph unicode="&#xec;" horiz-adv-x="458" d="M164 0l186 956h131l-186 -956h-131zM207 1434h160l133 -314h-127z" />
<glyph unicode="&#xed;" horiz-adv-x="458" d="M164 0l186 956h131l-186 -956h-131zM379 1120l260 314h158l-291 -314h-127z" />
<glyph unicode="&#xee;" horiz-adv-x="458" d="M147 1120l289 314h142l170 -314h-121l-140 211l-219 -211h-121zM164 0l184 956h131l-184 -956h-131z" />
<glyph unicode="&#xef;" horiz-adv-x="458" d="M164 0l186 956h131l-186 -956h-131zM209 1282q7 41 40.5 67.5t74.5 26.5q42 0 66.5 -26.5t17.5 -67.5q-7 -39 -42 -65.5t-77 -26.5q-40 0 -63.5 26.5t-16.5 65.5zM555 1282q7 41 40.5 67.5t74.5 26.5q42 0 66.5 -26.5t17.5 -67.5q-7 -39 -42 -65.5t-77 -26.5 q-40 0 -63.5 26.5t-16.5 65.5z" />
<glyph unicode="&#xf0;" horiz-adv-x="1198" d="M190 481q29 147 119.5 261.5t215 174.5t261.5 60q64 0 113 -14l-139 245l-277 -104l-16 76l254 94l-127 221h154l98 -174l211 80l14 -76l-186 -72l256 -448q88 -131 51 -324q-29 -147 -120.5 -263t-217.5 -177t-262 -61q-209 0 -327 139.5t-75 361.5zM322 481 q-33 -167 52.5 -272t241.5 -105q155 0 283.5 105.5t161.5 271.5q31 165 -56.5 268t-242.5 103q-156 0 -282 -103t-158 -268z" />
<glyph unicode="&#xf1;" horiz-adv-x="1165" d="M164 0l186 956h131l-35 -172q58 95 164 144t207 49q176 0 260.5 -112t46.5 -308l-108 -557h-131l106 551q26 136 -34.5 216.5t-178.5 80.5q-60 0 -117.5 -18t-111 -54t-94 -99.5t-58.5 -146.5l-102 -530h-131zM549 1141q25 101 81 151.5t120 50.5q32 0 59.5 -15t42 -33 t33.5 -33t37 -15q26 0 50.5 23t35.5 69h96q-26 -101 -82.5 -150.5t-120.5 -49.5q-32 0 -58.5 15t-41.5 33t-35 33t-39 15q-24 0 -48 -25t-34 -69h-96z" />
<glyph unicode="&#xf2;" horiz-adv-x="1196" d="M190 481q29 147 119.5 261.5t215 174.5t261.5 60q102 0 186.5 -35.5t141 -98.5t78.5 -157t0 -205q-29 -147 -120.5 -263t-217.5 -177t-262 -61q-209 0 -327 139.5t-75 361.5zM322 481q-33 -167 52.5 -272t241.5 -105q155 0 283.5 105.5t161.5 271.5q31 165 -56.5 268 t-242.5 103q-156 0 -282 -103t-158 -268zM584 1411h159l134 -313h-127z" />
<glyph unicode="&#xf3;" horiz-adv-x="1196" d="M190 481q29 147 119.5 261.5t215 174.5t261.5 60q102 0 186.5 -35.5t141 -98.5t78.5 -157t0 -205q-29 -147 -120.5 -263t-217.5 -177t-262 -61q-209 0 -327 139.5t-75 361.5zM322 481q-33 -167 52.5 -272t241.5 -105q155 0 283.5 105.5t161.5 271.5q31 165 -56.5 268 t-242.5 103q-156 0 -282 -103t-158 -268zM754 1098l260 313h157l-290 -313h-127z" />
<glyph unicode="&#xf4;" horiz-adv-x="1196" d="M190 481q29 147 119.5 261.5t215 174.5t261.5 60q102 0 186.5 -35.5t141 -98.5t78.5 -157t0 -205q-29 -147 -120.5 -263t-217.5 -177t-262 -61q-209 0 -327 139.5t-75 361.5zM322 481q-33 -167 52.5 -272t241.5 -105q155 0 283.5 105.5t161.5 271.5q31 165 -56.5 268 t-242.5 103q-156 0 -282 -103t-158 -268zM510 1098l291 313h141l168 -313h-121l-137 213l-221 -213h-121z" />
<glyph unicode="&#xf5;" horiz-adv-x="1196" d="M190 481q29 147 119.5 261.5t215 174.5t261.5 60q102 0 186.5 -35.5t141 -98.5t78.5 -157t0 -205q-29 -147 -120.5 -263t-217.5 -177t-262 -61q-209 0 -327 139.5t-75 361.5zM322 481q-33 -167 52.5 -272t241.5 -105q155 0 283.5 105.5t161.5 271.5q31 165 -56.5 268 t-242.5 103q-156 0 -282 -103t-158 -268zM563 1141q25 101 80 151.5t119 50.5q32 0 59.5 -15t43 -33t34.5 -33t37 -15q26 0 50 23t34 69h96q-26 -101 -81.5 -150.5t-119.5 -49.5q-32 0 -58.5 15t-41.5 33t-35 33t-39 15q-24 0 -49 -25t-33 -69h-96z" />
<glyph unicode="&#xf6;" horiz-adv-x="1196" d="M190 481q29 147 119.5 261.5t215 174.5t261.5 60q102 0 186.5 -35.5t141 -98.5t78.5 -157t0 -205q-29 -147 -120.5 -263t-217.5 -177t-262 -61q-209 0 -327 139.5t-75 361.5zM322 481q-33 -167 52.5 -272t241.5 -105q155 0 283.5 105.5t161.5 271.5q31 165 -56.5 268 t-242.5 103q-156 0 -282 -103t-158 -268zM567 1251q7 40 41.5 67.5t75.5 27.5q42 0 65.5 -27t16.5 -68q-7 -39 -41 -65.5t-76 -26.5q-40 0 -64.5 26.5t-17.5 65.5zM913 1251q7 40 41.5 67.5t75.5 27.5q42 0 65.5 -27t16.5 -68q-7 -39 -41 -65.5t-76 -26.5q-40 0 -64.5 26.5 t-17.5 65.5z" />
<glyph unicode="&#xf7;" horiz-adv-x="1107" d="M217 434l23 123h841l-22 -123h-842zM477 145q9 42 45 70.5t78 28.5q43 0 68 -28.5t16 -70.5q-7 -41 -43.5 -68.5t-79.5 -27.5q-42 0 -66.5 27.5t-17.5 68.5zM614 844q9 41 44 68.5t77 27.5q43 0 69 -27.5t17 -68.5t-45.5 -70t-79.5 -29q-42 0 -66.5 29t-15.5 70z" />
<glyph unicode="&#xf8;" horiz-adv-x="1204" d="M104 35l140 119q-86 136 -49 327q29 147 120 261.5t216 174.5t262 60q182 0 299 -105l131 111l59 -70l-133 -112q84 -130 47 -320q-29 -147 -120.5 -263t-217.5 -177t-262 -61q-181 0 -291 104l-141 -121zM326 481q-26 -133 28 -233l627 530q-87 74 -213 74 q-156 0 -282.5 -103t-159.5 -268zM414 176q78 -72 207 -72q101 0 194 46t160.5 133t89.5 198q27 135 -27 226z" />
<glyph unicode="&#xf9;" horiz-adv-x="1165" d="M229 399l109 557h131l-109 -550q-27 -136 33.5 -216.5t179.5 -80.5q60 0 117.5 17.5t111 53.5t94 99.5t58.5 146.5l103 530h131l-187 -956h-131l33 168q-40 -64 -107 -108t-133.5 -62t-130.5 -18q-176 0 -259 111.5t-44 307.5zM571 1411h160l133 -313h-127z" />
<glyph unicode="&#xfa;" horiz-adv-x="1165" d="M229 399l109 557h131l-109 -550q-27 -136 33.5 -216.5t179.5 -80.5q60 0 117.5 17.5t111 53.5t94 99.5t58.5 146.5l103 530h131l-187 -956h-131l33 168q-40 -64 -107 -108t-133.5 -62t-130.5 -18q-176 0 -259 111.5t-44 307.5zM741 1098l260 313h158l-291 -313h-127z" />
<glyph unicode="&#xfb;" horiz-adv-x="1165" d="M229 399l109 557h131l-109 -550q-27 -136 33.5 -216.5t179.5 -80.5q60 0 117.5 17.5t111 53.5t94 99.5t58.5 146.5l103 530h131l-187 -956h-131l33 168q-40 -64 -107 -108t-133.5 -62t-130.5 -18q-176 0 -259 111.5t-44 307.5zM498 1098l290 313h142l168 -313h-121 l-137 213l-222 -213h-120z" />
<glyph unicode="&#xfc;" horiz-adv-x="1165" d="M229 399l109 557h131l-109 -550q-27 -136 33.5 -216.5t179.5 -80.5q60 0 117.5 17.5t111 53.5t94 99.5t58.5 146.5l103 530h131l-187 -956h-131l33 168q-40 -64 -107 -108t-133.5 -62t-130.5 -18q-176 0 -259 111.5t-44 307.5zM555 1251q7 40 41.5 67.5t75.5 27.5 q42 0 65.5 -27t16.5 -68q-7 -39 -42 -65.5t-77 -26.5q-40 0 -63.5 26.5t-16.5 65.5zM901 1251q7 40 41.5 67.5t75.5 27.5q42 0 65.5 -27t16.5 -68q-7 -39 -42 -65.5t-77 -26.5q-40 0 -63.5 26.5t-16.5 65.5z" />
<glyph unicode="&#xfd;" horiz-adv-x="1019" d="M152 -465l290 477l-211 944h142l174 -782l481 782h141l-878 -1421h-139zM670 1098l260 313h157l-290 -313h-127z" />
<glyph unicode="&#xfe;" d="M72 -465l383 1960h131l-144 -725q73 97 187 152t237 55q204 0 316.5 -141t70.5 -357q-28 -142 -115.5 -257t-211 -178.5t-256.5 -63.5q-122 0 -214.5 55.5t-125.5 152.5l-127 -653h-131zM387 475q-21 -108 13 -193.5t109.5 -131.5t174.5 -46q153 0 281 109t159 268 q31 157 -54.5 264t-238.5 107q-149 0 -280 -105t-164 -272z" />
<glyph unicode="&#xff;" horiz-adv-x="1019" d="M152 -465l290 477l-211 944h142l174 -782l481 782h141l-878 -1421h-139zM483 1251q7 40 41.5 67.5t75.5 27.5q42 0 65.5 -27t16.5 -68q-7 -39 -42 -65.5t-77 -26.5q-40 0 -63.5 26.5t-16.5 65.5zM829 1251q7 40 41.5 67.5t75.5 27.5q42 0 65.5 -27t16.5 -68 q-7 -39 -42 -65.5t-77 -26.5q-40 0 -63.5 26.5t-16.5 65.5z" />
<glyph unicode="&#x152;" horiz-adv-x="2334" d="M233 473.5q-12 107.5 9 228.5q29 148 110.5 282t195 231t257 154.5t291.5 57.5q180 0 315.5 -82.5t204.5 -224.5l57 291h805l-24 -127h-670l-105 -528h586l-24 -127h-586l-96 -502h692l-25 -127h-827l53 287q-122 -142 -290.5 -224.5t-348.5 -82.5q-118 0 -220.5 37 t-176 102.5t-122.5 156t-61 198zM377 702q-31 -162 18.5 -299t167 -217t277.5 -80t308.5 80t250.5 217t133 299t-18.5 299.5t-167 218t-277.5 80.5t-308.5 -80.5t-250.5 -218t-133 -299.5z" />
<glyph unicode="&#x153;" horiz-adv-x="2017" d="M190 481q29 147 119.5 261.5t215 174.5t261.5 60q139 0 243 -64t145 -178q84 115 208 178.5t263 63.5q101 0 181 -35t129.5 -99.5t68 -156t-4.5 -205.5q-2 -9 -7 -28.5t-7 -28.5h-823q-13 -150 67 -235t228 -85q99 0 190 43.5t152 120.5l104 -49q-83 -114 -210 -176.5 t-263 -62.5q-138 0 -237.5 65t-137.5 180q-87 -116 -215.5 -180.5t-267.5 -64.5q-209 0 -327 139.5t-75 361.5zM322 481q-33 -167 52.5 -272t241.5 -105q155 0 283.5 105.5t161.5 271.5q31 165 -56.5 268t-242.5 103q-156 0 -282 -103t-158 -268zM1206 537h692 q15 147 -61.5 231t-216.5 84q-144 0 -256 -82.5t-158 -232.5z" />
<glyph unicode="&#x178;" horiz-adv-x="1232" d="M291 1411h160l319 -618l563 618h162l-686 -749l-127 -662h-135l127 662zM674 1706q7 40 41.5 67t75.5 27q42 0 65 -26.5t16 -67.5q-7 -39 -41.5 -65.5t-76.5 -26.5q-40 0 -63.5 26.5t-16.5 65.5zM1020 1706q7 40 41.5 67t75.5 27q42 0 65.5 -26.5t16.5 -67.5 q-7 -39 -42 -65.5t-77 -26.5q-40 0 -63.5 26.5t-16.5 65.5z" />
<glyph unicode="&#x2c6;" horiz-adv-x="1030" d="M432 1120l289 314h141l170 -314h-121l-139 211l-219 -211h-121z" />
<glyph unicode="&#x2dc;" horiz-adv-x="915" d="M426 1161q25 101 80 152t119 51q32 0 59.5 -15t43 -33t34.5 -33t37 -15q26 0 50 24t34 68h96q-25 -101 -81 -151t-120 -50q-32 0 -58.5 15t-41.5 33t-35 33t-39 15q-25 0 -48.5 -24t-33.5 -70h-96z" />
<glyph unicode="&#x2000;" horiz-adv-x="975" />
<glyph unicode="&#x2001;" horiz-adv-x="1950" />
<glyph unicode="&#x2002;" horiz-adv-x="975" />
<glyph unicode="&#x2003;" horiz-adv-x="1950" />
<glyph unicode="&#x2004;" horiz-adv-x="650" />
<glyph unicode="&#x2005;" horiz-adv-x="487" />
<glyph unicode="&#x2006;" horiz-adv-x="325" />
<glyph unicode="&#x2007;" horiz-adv-x="325" />
<glyph unicode="&#x2008;" horiz-adv-x="243" />
<glyph unicode="&#x2009;" horiz-adv-x="390" />
<glyph unicode="&#x200a;" horiz-adv-x="108" />
<glyph unicode="&#x2010;" horiz-adv-x="978" d="M225 408l25 127h688l-25 -127h-688z" />
<glyph unicode="&#x2011;" horiz-adv-x="978" d="M225 408l25 127h688l-25 -127h-688z" />
<glyph unicode="&#x2012;" horiz-adv-x="978" d="M225 408l25 127h688l-25 -127h-688z" />
<glyph unicode="&#x2013;" horiz-adv-x="1208" d="M227 410l23 116h913l-22 -116h-914z" />
<glyph unicode="&#x2014;" horiz-adv-x="1626" d="M227 410l23 116h1331l-22 -116h-1332z" />
<glyph unicode="&#x2018;" horiz-adv-x="464" d="M297 895q23 175 107 334t210 266l76 -29q-114 -126 -181.5 -263.5t-88.5 -307.5h-123z" />
<glyph unicode="&#x2019;" horiz-adv-x="464" d="M262 924q114 126 182.5 263.5t90.5 307.5h120q-23 -176 -106.5 -334.5t-210.5 -265.5z" />
<glyph unicode="&#x201a;" horiz-adv-x="444" d="M-43 -266q113 128 180 265t86 306h123q-22 -175 -105.5 -334t-209.5 -266z" />
<glyph unicode="&#x201c;" horiz-adv-x="733" d="M297 895q23 175 107 334t210 266l76 -29q-114 -126 -181.5 -263.5t-88.5 -307.5h-123zM565 895q23 175 107.5 334t210.5 266l75 -29q-114 -126 -181.5 -263.5t-88.5 -307.5h-123z" />
<glyph unicode="&#x201d;" horiz-adv-x="733" d="M262 924q114 126 182.5 263.5t90.5 307.5h120q-23 -176 -106.5 -334.5t-210.5 -265.5zM530 924q114 126 182.5 263.5t90.5 307.5h121q-23 -176 -107 -334.5t-211 -265.5z" />
<glyph unicode="&#x201e;" horiz-adv-x="712" d="M-43 -266q113 128 180 265t86 306h123q-22 -175 -105.5 -334t-209.5 -266zM223 -266q114 128 182 265t87 306h122q-22 -175 -105.5 -334t-209.5 -266z" />
<glyph unicode="&#x2022;" horiz-adv-x="890" d="M264 483q21 113 116 187.5t210 74.5q116 0 182 -74.5t45 -187.5q-21 -112 -117.5 -187t-212.5 -75q-115 0 -180 74.5t-43 187.5z" />
<glyph unicode="&#x2026;" horiz-adv-x="1341" d="M147 78q7 40 44 68t79 28q44 0 68.5 -27.5t17.5 -68.5q-7 -42 -44.5 -70t-82.5 -28q-42 0 -65.5 28t-16.5 70zM582 78q7 41 43.5 68.5t79.5 27.5t66.5 -27.5t16.5 -68.5q-7 -42 -43.5 -70t-80.5 -28q-43 0 -66 27.5t-16 70.5zM1014 78q7 41 44 68.5t81 27.5 q43 0 67 -27.5t17 -68.5q-7 -42 -44 -70t-81 -28q-43 0 -67 28t-17 70z" />
<glyph unicode="&#x202f;" horiz-adv-x="390" />
<glyph unicode="&#x2039;" horiz-adv-x="612" d="M190 477l365 424h129l-365 -424l201 -424h-129z" />
<glyph unicode="&#x203a;" horiz-adv-x="612" d="M113 53l364 424l-198 424h129l198 -424l-364 -424h-129z" />
<glyph unicode="&#x205f;" horiz-adv-x="487" />
<glyph unicode="&#x20ac;" horiz-adv-x="1554" d="M182 530l17 88h938l-17 -88h-592q11 -184 132.5 -304t312.5 -120q226 0 434 168l70 -90q-119 -97 -255 -149.5t-274 -52.5q-247 0 -399 154t-158 394h-209zM219 727l19 88h211q100 239 311 393t457 154q137 0 254 -54t196 -149l-106 -90q-66 78 -162 123t-207 45 q-189 0 -356 -119t-252 -303h592l-19 -88h-938z" />
<glyph unicode="&#x2122;" horiz-adv-x="1945" d="M326 1303l20 108h627l-21 -108h-252l-145 -738h-125l145 738h-249zM887 565l272 846h109l176 -620l416 620h108l-61 -846h-127l47 619l-359 -529h-100l-156 527l-196 -617h-129z" />
<glyph unicode="&#x25fc;" horiz-adv-x="952" d="M0 0v952h952v-952h-952z" />
</font>
</defs>
</svg>
