<svg xmlns="http://www.w3.org/2000/svg" width="240" height="157"><defs><clipPath id="a"><path clip-rule="evenodd" d="M1.433-769.095h1434.384v897.486H1.433z"/></clipPath><linearGradient id="b" gradientUnits="userSpaceOnUse" x1="116.095" y1="144.53" x2="116.095" y2="68.148"><stop offset="0" stop-color="#4E4272" stop-opacity=".447"/><stop offset="1" stop-color="#EE2849" stop-opacity=".49"/></linearGradient></defs><g clip-path="url(#a)"><path fill="url(#b)" fill-opacity=".749" transform="translate(1.433 .909) scale(.9961)" d="M0 103.481l12.79-6.272 13.94 16.159 20.596-14.057 24.17 5.13 14.966-21.585 10.204 2.134 16.14-13.515 7.359 7.114 9.74-7.361 10.419 17.992 9.493-46.477 11.412-7.86L177.121 0l12.087 59.741 8.353-24.858 10.666 11.347 9.245-21.836L240 17.367v139.218H0v-53.104z"/></g><defs><clipPath id="c"><path clip-rule="evenodd" d="M1.433-769.095h1434.384v897.486H1.433z"/></clipPath></defs><g clip-path="url(#c)"><path fill="none" stroke="#EA2A4D" d="M1.433 104.924l12.81-7.5 14.181 16.348 19.782-13.857 24.7 5.009 14.887-21.5 10.15 2.125 16.054-13.463 7.32 7.086 9.69-7.332 10.363 17.922 9.442-46.296 11.352-7.83L177.972.89l12.023 59.508 8.308-24.761 10.61 11.303 9.196-21.751 21.89-6.873" stroke-width=".996"/></g></svg>