<svg xmlns="http://www.w3.org/2000/svg" width="31" height="31"><defs><clipPath id="a"><path clip-rule="evenodd" d="M-631-217h1920v957H-631z"/></clipPath></defs><g clip-path="url(#a)"><path fill="#FFF" d="M28.933 2.053a7.025 7.025 0 0 0-9.925 0L13.63 7.429a.584.584 0 1 0 .827.828l5.377-5.377a5.806 5.806 0 0 1 4.135-1.705c1.568 0 3.036.606 4.136 1.706a5.807 5.807 0 0 1 1.705 4.136 5.806 5.806 0 0 1-1.705 4.135l-7.03 7.031a5.857 5.857 0 0 1-8.273 0 .584.584 0 1 0-.827.828 6.998 6.998 0 0 0 4.963 2.052 6.997 6.997 0 0 0 4.963-2.052l7.031-7.032a6.969 6.969 0 0 0 2.049-4.963c0-1.88-.728-3.642-2.049-4.963z"/></g><defs><clipPath id="b"><path clip-rule="evenodd" d="M-631-217h1920v957H-631z"/></clipPath></defs><g clip-path="url(#b)"><path fill="none" stroke="#FFF" d="M28.933 2.053a7.025 7.025 0 0 0-9.925 0L13.63 7.429a.584.584 0 1 0 .827.828l5.377-5.377a5.806 5.806 0 0 1 4.135-1.705c1.568 0 3.036.606 4.136 1.706a5.807 5.807 0 0 1 1.705 4.136 5.806 5.806 0 0 1-1.705 4.135l-7.03 7.031a5.857 5.857 0 0 1-8.273 0 .584.584 0 1 0-.827.828 6.998 6.998 0 0 0 4.963 2.052 6.997 6.997 0 0 0 4.963-2.052l7.031-7.032a6.969 6.969 0 0 0 2.049-4.963c0-1.88-.728-3.642-2.049-4.963z"/></g><defs><clipPath id="c"><path clip-rule="evenodd" d="M-631-217h1920v957H-631z"/></clipPath></defs><g clip-path="url(#c)"><path fill="#FFF" d="M15.699 23.56l-4.55 4.549a5.807 5.807 0 0 1-4.135 1.705 5.808 5.808 0 0 1-4.136-1.705 5.857 5.857 0 0 1 0-8.272l6.617-6.618a5.858 5.858 0 0 1 8.272 0 .584.584 0 1 0 .827-.827 7.025 7.025 0 0 0-9.926 0L2.05 19.011a6.968 6.968 0 0 0-2.048 4.963c0 1.88.728 3.642 2.049 4.962a6.971 6.971 0 0 0 4.962 2.048c1.88 0 3.643-.727 4.963-2.048l4.55-4.55a.584.584 0 1 0-.827-.827z"/></g><defs><clipPath id="d"><path clip-rule="evenodd" d="M-631-217h1920v957H-631z"/></clipPath></defs><g clip-path="url(#d)"><path fill="none" stroke="#FFF" d="M15.699 23.56l-4.55 4.549a5.807 5.807 0 0 1-4.135 1.705 5.808 5.808 0 0 1-4.136-1.705 5.857 5.857 0 0 1 0-8.272l6.617-6.618a5.858 5.858 0 0 1 8.272 0 .584.584 0 1 0 .827-.827 7.025 7.025 0 0 0-9.926 0L2.05 19.011a6.968 6.968 0 0 0-2.048 4.963c0 1.88.728 3.642 2.049 4.962a6.971 6.971 0 0 0 4.962 2.048c1.88 0 3.643-.727 4.963-2.048l4.55-4.55a.584.584 0 1 0-.827-.827z"/></g></svg>